<svg width="34" height="34" viewBox="0 0 34 34" fill="none" xmlns="http://www.w3.org/2000/svg">
<path d="M5.45703 8.71021C5.45703 6.96389 6.8727 5.54822 8.61903 5.54822H11.781C13.5273 5.54822 14.943 6.96389 14.943 8.71021V11.8722C14.943 13.6185 13.5273 15.0342 11.781 15.0342H8.61902C6.8727 15.0342 5.45703 13.6185 5.45703 11.8722V8.71021Z" stroke="white" stroke-width="2.0553" stroke-linecap="round" stroke-linejoin="round"/>
<path d="M5.45703 22.4122C5.45703 20.6659 6.8727 19.2502 8.61903 19.2502H11.781C13.5273 19.2502 14.943 20.6659 14.943 22.4122V25.5742C14.943 27.3205 13.5273 28.7362 11.781 28.7362H8.61902C6.8727 28.7362 5.45703 27.3205 5.45703 25.5742V22.4122Z" stroke="white" stroke-width="2.0553" stroke-linecap="round" stroke-linejoin="round"/>
<path d="M19.159 8.71021C19.159 6.96389 20.5747 5.54822 22.321 5.54822H25.483C27.2293 5.54822 28.645 6.96389 28.645 8.71021V11.8722C28.645 13.6185 27.2293 15.0342 25.483 15.0342H22.321C20.5747 15.0342 19.159 13.6185 19.159 11.8722V8.71021Z" stroke="white" stroke-width="2.0553" stroke-linecap="round" stroke-linejoin="round"/>
<path d="M19.159 22.4122C19.159 20.6659 20.5747 19.2502 22.321 19.2502H25.483C27.2293 19.2502 28.645 20.6659 28.645 22.4122V25.5742C28.645 27.3205 27.2293 28.7362 25.483 28.7362H22.321C20.5747 28.7362 19.159 27.3205 19.159 25.5742V22.4122Z" stroke="white" stroke-width="2.0553" stroke-linecap="round" stroke-linejoin="round"/>
</svg>
