<svg width="34" height="34" viewBox="0 0 34 34" fill="none" xmlns="http://www.w3.org/2000/svg">
<path fill-rule="evenodd" clip-rule="evenodd" d="M4.4043 8.50042C4.4043 6.17199 6.29186 4.28442 8.62029 4.28442H11.7823C14.1107 4.28442 15.9983 6.17199 15.9983 8.50042V11.6624C15.9983 13.9908 14.1107 15.8784 11.7823 15.8784H8.62029C6.29186 15.8784 4.4043 13.9908 4.4043 11.6624V8.50042ZM18.1063 8.50042C18.1063 6.17199 19.9938 4.28442 22.3223 4.28442H25.4843C27.8127 4.28442 29.7002 6.17199 29.7002 8.50042V11.6624C29.7002 13.9908 27.8127 15.8784 25.4843 15.8784H22.3223C19.9938 15.8784 18.1063 13.9908 18.1063 11.6624V8.50042ZM4.4043 22.2024C4.4043 19.874 6.29186 17.9864 8.62029 17.9864H11.7823C14.1107 17.9864 15.9983 19.874 15.9983 22.2024V25.3644C15.9983 27.6928 14.1107 29.5804 11.7823 29.5804H8.62029C6.29186 29.5804 4.4043 27.6928 4.4043 25.3644V22.2024ZM18.1063 22.2024C18.1063 19.874 19.9938 17.9864 22.3223 17.9864H25.4843C27.8127 17.9864 29.7002 19.874 29.7002 22.2024V25.3644C29.7002 27.6928 27.8127 29.5804 25.4843 29.5804H22.3223C19.9938 29.5804 18.1063 27.6928 18.1063 25.3644V22.2024Z" fill="black"/>
</svg>
