<svg width="31" height="31" viewBox="0 0 31 31" fill="none" xmlns="http://www.w3.org/2000/svg">
<path fill-rule="evenodd" clip-rule="evenodd" d="M6.99838 3.97693V5.04513C5.70882 5.22962 4.43268 5.45589 3.17139 5.72256C2.68102 5.82623 2.35973 6.29828 2.44316 6.79249C3.07924 10.5604 6.21834 13.4766 10.0925 13.7702C11.0715 14.5697 12.235 15.1536 13.5098 15.4481C13.3867 16.9038 12.8929 18.2526 12.1232 19.402H11.2037C9.91329 19.402 8.86722 20.4481 8.86722 21.7385V25.0095H7.93251C6.38405 25.0095 5.12877 26.2648 5.12877 27.8132C5.12877 28.3294 5.5472 28.7478 6.06335 28.7478H24.7549C25.2711 28.7478 25.6895 28.3294 25.6895 27.8132C25.6895 26.2648 24.4342 25.0095 22.8858 25.0095H21.9513V21.7385C21.9513 20.4481 20.9053 19.402 19.6149 19.402H18.6947C17.9252 18.2528 17.4318 16.9039 17.3087 15.4482C18.5838 15.1538 19.7475 14.5698 20.7267 13.7702C24.6009 13.4766 27.74 10.5604 28.376 6.79249C28.4595 6.29828 28.1382 5.82623 27.6478 5.72256C26.3865 5.45589 25.1104 5.22962 23.8208 5.04513V3.97693C23.8208 3.50549 23.4697 3.10786 23.0019 3.04953C20.5143 2.73933 17.9804 2.57959 15.4096 2.57959C12.8388 2.57959 10.3049 2.73933 7.81732 3.04953C7.34951 3.10786 6.99838 3.50549 6.99838 3.97693ZM6.99838 7.25249C6.99838 8.74306 7.38653 10.1434 8.0666 11.3575C6.37548 10.6004 5.06396 9.14626 4.49856 7.36074C5.32557 7.20047 6.15899 7.05806 6.99838 6.93395V7.25249ZM23.8208 7.25249V6.93395C24.6602 7.05806 25.4936 7.20047 26.3206 7.36074C25.7552 9.14626 24.4437 10.6004 22.7526 11.3575C23.4327 10.1434 23.8208 8.74306 23.8208 7.25249Z" fill="#1E1E1E"/>
</svg>
