<svg width="34" height="35" viewBox="0 0 34 35" fill="none" xmlns="http://www.w3.org/2000/svg">
<path d="M29.7002 17.5129C29.7002 15.7666 28.2846 14.3509 26.5383 14.3509H21.2683C21.2683 16.6794 19.3807 18.5669 17.0523 18.5669C14.7238 18.5669 12.8363 16.6794 12.8363 14.3509H7.56629C5.81997 14.3509 4.4043 15.7666 4.4043 17.5129M29.7002 17.5129V25.9449C29.7002 27.6912 28.2846 29.1069 26.5383 29.1069H7.56629C5.81997 29.1069 4.4043 27.6912 4.4043 25.9449V17.5129M29.7002 17.5129V13.2969M4.4043 17.5129V13.2969M29.7002 13.2969C29.7002 11.5506 28.2846 10.1349 26.5383 10.1349H7.56629C5.81997 10.1349 4.4043 11.5506 4.4043 13.2969M29.7002 13.2969V9.08094C29.7002 7.33462 28.2846 5.91895 26.5383 5.91895H7.56629C5.81997 5.91895 4.4043 7.33462 4.4043 9.08094V13.2969" stroke="white" stroke-width="2.0574" stroke-linecap="round" stroke-linejoin="round"/>
</svg>
