<svg width="162" height="49" viewBox="0 0 162 49" fill="none" xmlns="http://www.w3.org/2000/svg">
<path d="M138.664 0.155396H139.193C139.824 0.555924 140.063 1.30843 140.41 1.93172C145.191 10.8922 149.979 19.8487 154.766 28.8068C157.079 33.1708 159.44 37.5116 161.729 41.8874V41.9728C161.593 42.2194 161.485 42.6069 161.133 42.5724C158.807 42.5797 156.479 42.5844 154.154 42.5702C153.597 42.5926 153.446 41.9836 153.235 41.5913C152.812 40.7878 152.356 40.0046 151.975 39.18C151.322 38.0722 150.808 36.8919 150.156 35.7853C149.654 34.6905 149.006 33.6749 148.502 32.5822C148.19 31.921 147.78 31.3119 147.471 30.6498C147.013 29.6662 146.419 28.7549 145.974 27.7643C145.302 26.6008 144.747 25.3767 144.075 24.2129C143.604 23.1702 142.976 22.2093 142.5 21.1688C142.167 20.4532 141.721 19.7954 141.391 19.0776C140.96 18.1462 140.386 17.2893 139.975 16.3486C139.77 15.9848 139.629 15.4788 139.198 15.3331C138.921 15.3106 138.533 15.2407 138.376 15.5382C137.651 16.703 137.121 17.9741 136.422 19.1543C135.922 20.2482 135.269 21.2635 134.767 22.3561C134.469 22.9911 134.076 23.5765 133.775 24.2093C133.547 24.6846 133.315 25.1584 133.045 25.6123C132.567 26.418 132.226 27.2961 131.743 28.0983C131.321 28.8021 131.021 29.5712 130.601 30.275C130.159 31.0013 129.851 31.7975 129.416 32.5264C128.919 33.3558 128.568 34.2623 128.069 35.0906C127.649 35.7946 127.351 36.5624 126.929 37.2662C126.487 37.9925 126.179 38.7887 125.744 39.5176C125.276 40.2983 124.933 41.1444 124.492 41.9384C124.341 42.1742 124.197 42.4704 123.901 42.539C123.446 42.6196 122.98 42.5721 122.521 42.5781C120.743 42.5768 118.965 42.5712 117.187 42.5841C116.865 42.5781 116.479 42.5829 116.258 42.3057C116.19 42.0035 116.214 41.6764 116.379 41.41C123.632 27.813 130.9 14.225 138.16 0.630527C138.271 0.422253 138.471 0.284697 138.664 0.155476L138.664 0.155396ZM0.0325502 6.68546C0.530014 6.16081 1.28455 6.33243 1.92774 6.31471C8.40375 6.31819 14.8781 6.31471 21.3546 6.31601C23.2592 6.25184 25.1876 6.53974 26.9753 7.20704C29.9841 8.28644 32.5733 10.7107 33.5471 13.794C33.9783 14.9635 34.0718 16.2221 34.1585 17.4544C34.0792 18.7743 33.9192 20.1157 33.4204 21.3516C32.8221 22.7983 31.9586 24.1919 30.6712 25.1221C30.3608 25.4217 29.8797 25.5487 29.6534 25.9255C31.3666 26.5441 32.8401 27.7157 33.9511 29.146C35.7776 31.5348 36.2859 34.6962 35.9756 37.6291C35.8121 39.5628 35.2565 41.4823 34.2472 43.1475C33.5734 44.1828 32.7419 45.132 31.7326 45.8524C29.5293 47.4877 26.8025 48.2412 24.1099 48.5516C23.558 48.6265 22.9916 48.5861 22.4502 48.7378H0.526292C0.34391 48.5908 0.174475 48.4274 0.0322266 48.24V6.68538M7.30064 12.7606C7.09334 13.0141 7.15014 13.3602 7.13849 13.6636C7.1571 16.812 7.11009 19.9614 7.16195 23.1088C7.35502 23.3496 7.65116 23.5144 7.96503 23.4976C12.1514 23.501 16.3389 23.4928 20.5246 23.5023C21.1075 23.5273 21.6809 23.4052 22.2555 23.3247C23.5584 23.135 24.8602 22.6195 25.769 21.6363C26.3907 21.0177 26.6739 20.1596 26.8834 19.3302C26.9343 18.6585 27.1489 17.984 26.9618 17.3133C26.8717 16.1783 26.4109 15.0752 25.6421 14.2325C24.5653 13.2562 23.1237 12.7894 21.7023 12.6174C21.2475 12.5725 20.7854 12.6401 20.3341 12.5501C19.7727 12.429 19.198 12.4871 18.6295 12.4803C15.1931 12.4765 11.7568 12.4837 8.32179 12.4754C7.96398 12.4754 7.60618 12.5738 7.30056 12.7609M7.53384 29.8169C7.3941 29.8608 7.26035 29.9437 7.2177 30.0941C6.96525 30.5824 7.01736 31.1441 7.01987 31.6748C7.02464 34.9145 7.01639 38.1543 7.02335 41.3935C7.03031 41.8569 7.2885 42.5133 7.84674 42.4564C12.2699 42.4586 16.694 42.4539 21.1168 42.4577C21.5611 42.4729 22.0052 42.4577 22.4436 42.3771C23.9999 42.2444 25.611 41.9327 26.9224 41.0357C27.9765 40.2891 28.5559 39.0546 28.781 37.8114C29.0793 36.3765 28.9681 34.875 28.5512 33.4746C28.1779 32.394 27.4411 31.4094 26.4082 30.8856C25.0437 30.1342 23.4779 29.9093 21.9484 29.7787C17.2873 29.7799 12.6262 29.7799 7.96471 29.7787C7.82005 29.7754 7.67546 29.7881 7.5336 29.8166L7.53384 29.8169ZM43.1966 6.34918C43.6893 6.26859 44.1928 6.32547 44.6903 6.31601C51.5608 6.31471 58.4321 6.31949 65.3042 6.3135C68.4099 6.47241 71.5656 7.55878 73.8091 9.77479C75.515 11.4611 76.5432 13.7751 76.7894 16.1484C76.7846 17.0881 76.8286 18.0304 76.7635 18.9687C76.4686 20.9831 75.6771 23.0116 74.1609 24.4216C73.7323 24.8707 73.2668 25.288 72.7219 25.5911C72.6094 25.6859 72.371 25.7333 72.4411 25.9255C74.1847 26.6364 75.759 27.8248 76.8428 29.3735C77.3084 30.0123 77.6434 30.7326 77.9658 31.452C78.6065 32.8988 78.7262 34.4996 78.8199 36.0592C78.7406 37.2653 78.6681 38.4821 78.3805 39.6624C77.9611 41.7194 76.8915 43.6259 75.3977 45.0928C74.7877 45.5967 74.1717 46.1014 73.4871 46.5019C71.5562 47.6843 69.3092 48.2308 67.0844 48.5244C66.4639 48.63 65.8242 48.5731 65.2116 48.7378H43.3023C42.9613 48.5387 42.631 48.2248 42.6746 47.792C42.6772 34.2825 42.6772 20.7722 42.6746 7.26263C42.6604 6.88937 42.8832 6.53844 43.197 6.34918M50.5366 12.5202C50.309 12.5736 50.0616 12.6565 49.9395 12.8733C49.7275 13.1732 49.7878 13.557 49.7796 13.9018C49.7904 16.786 49.7831 19.6702 49.7818 22.5532C49.7619 22.929 50.0119 23.2537 50.2983 23.4679C51.1501 23.5428 52.0089 23.4765 52.8642 23.4977C56.4984 23.4954 60.1313 23.5024 63.7658 23.4954C64.9849 23.358 66.2463 23.199 67.316 22.5497C68.4178 22.0545 69.1141 20.982 69.4884 19.8716C69.7703 18.9736 69.6733 18.0245 69.678 17.099C69.5974 16.4425 69.3879 15.7967 69.0892 15.2066C68.2352 13.7407 66.59 12.9327 64.9575 12.6944C64.3156 12.5333 63.6487 12.666 63.0042 12.5333C62.5114 12.4375 62.0092 12.4849 61.5129 12.4802C57.9972 12.4764 54.4816 12.4837 50.9665 12.4754C50.8208 12.4764 50.6776 12.4905 50.5366 12.5202ZM50.2983 29.8191C49.9455 29.896 49.7667 30.2682 49.7856 30.6045C49.7831 34.0029 49.7878 37.4001 49.7831 40.7974C49.7878 41.2301 49.7404 41.6814 49.9085 42.0926C49.9929 42.3831 50.3482 42.4492 50.6112 42.4551C55.1124 42.4612 59.6146 42.4505 64.1175 42.4612C64.7124 42.4909 65.2939 42.3379 65.8862 42.3107C67.4034 42.121 68.9613 41.6839 70.1314 40.6529C71.0543 39.7227 71.5057 38.4205 71.6053 37.1338C71.7234 36.4963 71.7509 35.8433 71.6195 35.2057C71.5044 33.7626 71 32.222 69.8034 31.3205C68.356 30.2029 66.4795 29.9447 64.7124 29.7787C60.2108 29.78 55.7082 29.78 51.2069 29.7787C50.9038 29.786 50.5956 29.7538 50.2982 29.8192L50.2983 29.8191ZM79.0798 7.21521C78.8656 6.78151 79.2897 6.26001 79.7506 6.31342C81.9631 6.31212 84.1772 6.32418 86.3909 6.30864C86.6482 6.2957 86.9323 6.33235 87.0698 6.58367C87.5945 7.38934 88.0187 8.2578 88.4404 9.12173C88.7068 9.67389 89.0478 10.1859 89.3147 10.7382C89.8062 11.8033 90.4425 12.7926 90.9292 13.8603C91.5805 14.9681 92.0958 16.1484 92.7476 17.2553C93.3064 18.4519 94.009 19.5731 94.5609 20.7732C95.0407 21.6123 95.4765 22.4737 95.9113 23.3374C96.4633 24.232 96.8495 25.2134 97.3944 26.1126C97.7746 26.7739 98.0565 27.486 98.4498 28.1399C98.9486 28.9683 99.2978 29.8761 99.7966 30.703C100.291 31.5327 100.626 32.4474 101.158 33.2542C101.396 33.7022 102.175 33.7035 102.415 33.2542C102.944 32.4461 103.28 31.5327 103.774 30.703C104.215 29.9779 104.525 29.1826 104.959 28.4528C105.457 27.6234 105.807 26.717 106.306 25.8876C106.799 25.026 107.182 24.1053 107.702 23.2582C108.309 21.9866 109.041 20.7818 109.639 19.5067C110.13 18.6736 110.543 17.8002 110.991 16.945C111.514 16.1001 111.877 15.1699 112.39 14.3203C112.833 13.5595 113.157 12.7383 113.606 11.981C114.061 11.2297 114.379 10.4063 114.835 9.65504C115.444 8.63001 115.837 7.476 116.557 6.5174C116.721 6.26487 117.041 6.32175 117.3 6.30751C119.473 6.32774 121.648 6.31131 123.822 6.3135C124.117 6.28032 124.366 6.47727 124.505 6.72252C124.644 7.13114 124.347 7.50319 124.159 7.83987C117.248 20.7579 110.356 33.6865 103.447 46.6062C103.051 47.3442 102.717 48.1464 102.105 48.7378H101.583C100.798 48.246 100.534 47.2873 100.085 46.5269C93.0808 33.4251 86.0915 20.3121 79.0802 7.21521H79.0798Z" fill="#665EA4"/>
</svg>
