<svg width="89" height="49" viewBox="0 0 89 49" fill="none" xmlns="http://www.w3.org/2000/svg">
<path fill-rule="evenodd" clip-rule="evenodd" d="M16.5093 4.98176C19.2806 2.05789 22.9563 0.346283 27.2755 0.346283C35.6893 0.346283 41.268 6.5186 42.336 15.7646C42.6827 18.7661 42.68 23.0022 42.6744 27.9039C42.6744 28.406 42.6744 28.9165 42.6744 29.4325V47.8024H31.1038V34.215C31.1038 34.215 31.0816 22.586 31.0094 20.4139C30.6987 10.9488 25.1228 5.00118 16.5066 4.99564C13.9073 7.75584 12.5147 11.1263 12.3094 16.2861C12.2817 17.0046 12.2872 19.554 12.2983 22.9162C12.3038 24.6583 12.3094 26.6168 12.3094 28.6502C12.3177 37.505 12.3094 47.8052 12.3094 47.8052H0.738724V26.897C0.738724 26.1812 0.724855 25.4572 0.713759 24.7332C0.688792 23.274 0.66105 21.8038 0.738724 20.3474C0.869106 17.92 1.28799 15.5343 2.41427 13.3179C4.99416 8.2413 10.2815 4.97067 15.9185 4.97067C16.1182 4.9679 16.3152 4.97344 16.5093 4.98176Z" fill="#665EA4"/>
<path fill-rule="evenodd" clip-rule="evenodd" d="M88.2803 28.9304C88.358 27.474 88.333 26.0037 88.3053 24.5445C88.2914 23.8205 88.2803 23.0965 88.2803 22.3808V1.47255H76.7097C76.7097 1.47255 76.7014 11.7727 76.7097 20.6275C76.7125 22.6609 76.7152 24.6222 76.7208 26.3616C76.7291 29.721 76.7374 32.2731 76.7097 32.9916C76.5044 38.1486 75.1118 41.5219 72.5125 44.2793C63.899 44.2738 58.3203 38.3261 58.0096 28.861C57.9375 26.6889 57.9098 21.2961 57.9098 15.0489V1.46146L46.3474 1.47255V19.8425C46.3474 20.3585 46.3474 20.8689 46.3474 21.371C46.3446 26.2756 46.3419 30.5088 46.6859 33.5104C47.7511 42.7563 53.3298 48.9287 61.7435 48.9287C66.0628 48.9287 69.7384 47.2198 72.5097 44.2932C72.7039 44.3015 72.9009 44.3043 73.0978 44.3043C78.7347 44.3043 84.0221 41.0336 86.602 35.9571C87.7339 33.7434 88.1527 31.3577 88.2803 28.9304Z" fill="#665EA4"/>
</svg>
