<svg width="159" height="49" viewBox="0 0 159 49" fill="none" xmlns="http://www.w3.org/2000/svg">
<path d="M115.58 2.1454C111.896 0.802944 108.002 0.129295 104.081 0.156169C91.4002 0.156169 82.4447 6.54389 82.3813 15.7134C82.302 22.4498 88.7452 26.246 93.6192 28.4968C98.62 30.8109 100.292 32.2692 100.276 34.3377C100.245 37.484 96.2821 38.9105 92.5969 38.9105C87.5326 38.9105 84.7667 38.2052 80.5109 36.4378L78.9338 35.7008L77.1348 46.2572C80.2177 47.5411 85.7732 48.6427 91.5111 48.7378C104.992 48.7378 113.805 42.3897 113.908 32.6337C114.019 27.2525 110.532 23.1869 103.193 19.8266C98.731 17.6471 95.9651 16.1889 95.9651 13.9778C95.9651 12.0202 98.3347 9.92797 103.288 9.92797C106.585 9.84821 109.861 10.4667 112.901 11.7428L114.09 12.2738L115.889 2.07407L115.58 2.1454ZM148.486 1.01209H138.579C135.496 1.01209 133.174 1.86009 131.827 4.91923L112.774 48.08H126.255L128.95 41.0028L145.403 41.0186C145.791 42.675 146.98 48.08 146.98 48.08H158.868L148.486 1.01209ZM64.1453 0.615829H76.9921L68.9559 47.7075H56.125L64.1453 0.599979V0.615829ZM31.533 26.5709L32.8645 33.1092L45.418 1.01209H59.0256L38.8084 48.0166H25.2325L14.1372 8.21611C13.9575 7.55984 13.5354 6.9962 12.9563 6.639C8.95725 4.57319 4.71999 3.0055 0.339355 1.97104L0.51371 0.980385H21.1906C23.9961 1.09134 26.2548 1.97104 27.0077 4.96677L31.5251 26.5947L31.533 26.5709ZM132.635 31.3736L137.755 18.2019C137.691 18.3445 138.809 15.4835 139.459 13.7162L140.338 17.7819L143.31 31.3657H132.627L132.635 31.3736Z" fill="#665EA4"/>
</svg>
