<svg width="46" height="46" viewBox="0 0 46 46" fill="none" xmlns="http://www.w3.org/2000/svg">
<path fill-rule="evenodd" clip-rule="evenodd" d="M24.7829 5.02243C24.5575 4.72023 24.219 4.52269 23.845 4.47522C23.471 4.42776 23.0938 4.53445 22.8001 4.77078C19.339 7.55567 16.9251 11.5959 16.2512 16.2014C15.0361 15.3206 13.9689 14.2474 13.0947 13.0265C12.8542 12.6907 12.4766 12.4794 12.0645 12.4501C11.6524 12.4209 11.2488 12.5766 10.9632 12.8751C8.10322 15.8647 6.34424 19.9221 6.34424 24.3874C6.34424 33.5862 13.8013 41.0432 23.0001 41.0432C32.1989 41.0432 39.6559 33.5862 39.6559 24.3874C39.6559 17.6123 35.6109 11.7851 29.8101 9.18319C27.7573 8.18107 26.0623 6.73808 24.7829 5.02243ZM29.94 27.1641C29.94 30.9969 26.8329 34.104 23.0001 34.104C19.1673 34.104 16.0601 30.9969 16.0601 27.1641C16.0601 26.4065 16.1815 25.6773 16.4059 24.9949C17.569 25.8547 18.9059 26.4929 20.3542 26.8469C20.7538 24.2546 22.0499 21.958 23.916 20.284C27.3159 20.7323 29.94 23.6417 29.94 27.1641Z" fill="white"/>
</svg>
