<svg width="46" height="50" viewBox="0 0 46 50" fill="none" xmlns="http://www.w3.org/2000/svg">
<g filter="url(#filter0_d_572_1931)">
<path fill-rule="evenodd" clip-rule="evenodd" d="M23.0001 4.95618C13.0348 4.95618 4.9563 13.0347 4.9563 23C4.9563 32.9653 13.0348 41.0438 23.0001 41.0438C32.9655 41.0438 41.044 32.9653 41.044 23C41.044 13.0347 32.9655 4.95618 23.0001 4.95618ZM12.381 12.0299C9.51432 14.8055 7.73227 18.6946 7.73227 23C7.73227 31.4322 14.5679 38.2679 23.0001 38.2679C31.4323 38.2679 38.268 31.4322 38.268 23C38.268 17.9008 35.7682 13.3854 31.9271 10.6125C31.3026 11.6101 30.472 12.4667 29.4877 13.1229L27.1639 14.6721L27.4685 15.2813C27.9663 16.2768 27.2424 17.4481 26.1294 17.4481C25.897 17.4481 25.6677 17.3939 25.4598 17.29L24.3422 16.7312C23.5406 16.3304 22.5726 16.4875 21.9389 17.1212L21.6962 17.3639C20.8831 18.1769 20.8831 19.4952 21.6962 20.3082L22.2424 20.8544C22.7178 21.3299 23.3936 21.5464 24.0568 21.4359L26.2222 21.075C26.8201 20.9753 27.4317 21.1412 27.8974 21.5292L30.3575 23.5793C30.9508 24.0738 31.2089 24.8642 31.0215 25.6135C30.3138 28.4445 28.8499 31.0299 26.7865 33.0933L25.4491 34.4308C24.8154 35.0645 23.8473 35.2216 23.0458 34.8208L22.7629 34.6793C22.0575 34.3267 21.612 33.6058 21.612 32.8172V30.8023C21.612 30.2502 21.3926 29.7206 21.0022 29.3301L18.5091 26.8371C17.8754 26.2034 17.7184 25.2353 18.1191 24.4338L18.836 23L15.8002 19.9642C14.1638 18.3278 13.0795 16.2209 12.6991 13.9381L12.381 12.0299Z" fill="#141414"/>
</g>
<defs>
<filter id="filter0_d_572_1931" x="-3.20776" y="0.792236" width="52.4155" height="52.4156" filterUnits="userSpaceOnUse" color-interpolation-filters="sRGB">
<feFlood flood-opacity="0" result="BackgroundImageFix"/>
<feColorMatrix in="SourceAlpha" type="matrix" values="0 0 0 0 0 0 0 0 0 0 0 0 0 0 0 0 0 0 127 0" result="hardAlpha"/>
<feOffset dy="4"/>
<feGaussianBlur stdDeviation="2"/>
<feComposite in2="hardAlpha" operator="out"/>
<feColorMatrix type="matrix" values="0 0 0 0 0 0 0 0 0 0 0 0 0 0 0 0 0 0 0.25 0"/>
<feBlend mode="normal" in2="BackgroundImageFix" result="effect1_dropShadow_572_1931"/>
<feBlend mode="normal" in="SourceGraphic" in2="effect1_dropShadow_572_1931" result="shape"/>
</filter>
</defs>
</svg>
