<svg width="31" height="31" viewBox="0 0 31 31" fill="none" xmlns="http://www.w3.org/2000/svg">
<path fill-rule="evenodd" clip-rule="evenodd" d="M9.90659 7.8316C9.90659 4.73467 12.4171 2.22412 15.5141 2.22412C18.611 2.22412 21.1215 4.73467 21.1215 7.8316C21.1215 10.9285 18.611 13.4391 15.5141 13.4391C12.4171 13.4391 9.90659 10.9285 9.90659 7.8316Z" fill="black"/>
<path fill-rule="evenodd" clip-rule="evenodd" d="M5.23525 25.4083C5.33162 19.8136 9.8966 15.3082 15.5141 15.3082C21.1317 15.3082 25.6967 19.8138 25.7929 25.4087C25.7993 25.7798 25.5855 26.1194 25.2482 26.2742C22.2838 27.6345 18.9864 28.3923 15.5145 28.3923C12.0422 28.3923 8.74452 27.6343 5.77989 26.2738C5.44261 26.1191 5.22886 25.7794 5.23525 25.4083Z" fill="black"/>
</svg>
