<svg width="30" height="23" viewBox="0 0 30 23" fill="none" xmlns="http://www.w3.org/2000/svg">
<path id="&#226;&#128;&#156;" opacity="0.41" d="M1.79128 23L1.79128 18.1277L4.58567 18.1277C6.78297 18.1277 7.88162 17.0291 7.88162 14.8318L7.88162 12.5389L6.66355 12.5389C4.75286 12.5389 3.17654 11.9657 1.93458 10.8193C0.644866 9.67291 6.33694e-06 8.216 6.18243e-06 6.44861C6.01539e-06 4.53791 0.644865 2.98547 1.93458 1.79129C3.17653 0.597105 4.75286 1.16644e-05 6.66355 1.14974e-05C8.62201 1.13261e-05 10.2222 0.597105 11.4642 1.79129C12.7061 3.03324 13.3271 4.68121 13.3271 6.73521L13.3271 14.9751C13.3271 20.325 10.6521 23 5.30219 23L1.79128 23ZM17.5545 23L17.5545 18.1277L20.3489 18.1277C22.5462 18.1277 23.6449 17.0291 23.6449 14.8318L23.6449 12.5389L22.4268 12.5389C20.5161 12.5389 18.9398 11.9657 17.6978 10.8193C16.4081 9.6729 15.7632 8.216 15.7632 6.44861C15.7632 4.53791 16.4081 2.98547 17.6978 1.79129C18.9398 0.597104 20.5161 1.02863e-05 22.4268 1.01193e-05C24.3852 9.94807e-06 25.9855 0.597103 27.2274 1.79129C28.4694 3.03324 29.0903 4.68121 29.0903 6.73521L29.0903 14.9751C29.0903 20.325 26.4154 23 21.0654 23L17.5545 23Z" fill="#2D18BF"/>
</svg>
