<svg width="45" height="46" viewBox="0 0 45 46" fill="none" xmlns="http://www.w3.org/2000/svg">
<path d="M28.1218 31.0747H16.9068M28.1218 31.0747C30.1864 31.0747 31.8601 32.7484 31.8601 34.813H13.1685C13.1685 32.7484 14.8422 31.0747 16.9068 31.0747M28.1218 31.0747V26.8691C28.1218 26.0948 27.4942 25.4672 26.7199 25.4672H25.6338M16.9068 31.0747V26.8691C16.9068 26.0948 17.5345 25.4672 18.3087 25.4672H19.3949M25.6338 25.4672H19.3949M25.6338 25.4672C24.9517 24.2882 24.5199 22.9463 24.4108 21.5142M19.3949 25.4672C20.0769 24.2882 20.5087 22.9463 20.6178 21.5142M14.1031 12.9891C12.8791 13.1671 11.6674 13.3834 10.4694 13.6367C11.0306 16.9606 13.7853 19.5392 17.193 19.832M14.1031 12.9891V13.3177C14.1031 15.9442 15.307 18.2895 17.193 19.832M14.1031 12.9891V11.1007C16.8513 10.7139 19.6594 10.5139 22.5143 10.5139C25.3692 10.5139 28.1773 10.7139 30.9255 11.1007V12.9891M17.193 19.832C18.1744 20.6346 19.3405 21.2198 20.6178 21.5142M30.9255 12.9891V13.3177C30.9255 15.9442 29.7217 18.2895 27.8356 19.832M30.9255 12.9891C32.1496 13.1671 33.3612 13.3834 34.5592 13.6367C33.9981 16.9606 31.2434 19.5392 27.8356 19.832M27.8356 19.832C26.8542 20.6346 25.6881 21.2198 24.4108 21.5142M24.4108 21.5142C23.8013 21.6546 23.1665 21.7289 22.5143 21.7289C21.8622 21.7289 21.2273 21.6546 20.6178 21.5142" stroke="#F9F9F9" stroke-width="1.8243" stroke-linecap="round" stroke-linejoin="round"/>
</svg>
