<svg width="45" height="46" viewBox="0 0 45 46" fill="none" xmlns="http://www.w3.org/2000/svg">
<path d="M19.5154 13.1436C19.628 12.4676 20.2129 11.9722 20.8982 11.9722H24.1305C24.8158 11.9722 25.4006 12.4676 25.5133 13.1436L25.7794 14.7399C25.857 15.206 26.1685 15.5942 26.582 15.8231C26.6744 15.8742 26.7657 15.9271 26.856 15.9816C27.261 16.2262 27.7537 16.3022 28.1967 16.1362L29.7131 15.5682C30.3548 15.3277 31.0763 15.5865 31.4189 16.18L33.0351 18.9793C33.3778 19.5728 33.2411 20.327 32.712 20.7625L31.4605 21.7928C31.096 22.0929 30.9153 22.5562 30.9241 23.0283C30.9251 23.0811 30.9256 23.1341 30.9256 23.1871C30.9256 23.2402 30.9251 23.2931 30.9241 23.3459C30.9153 23.818 31.096 24.2813 31.4605 24.5814L32.712 25.6117C33.2411 26.0473 33.3778 26.8015 33.0351 27.3949L31.4189 30.1942C31.0763 30.7877 30.3548 31.0465 29.7131 30.8061L28.1967 30.238C27.7537 30.072 27.2611 30.1481 26.856 30.3926C26.7658 30.4471 26.6744 30.5 26.582 30.5512C26.1685 30.78 25.857 31.1683 25.7794 31.6343L25.5133 33.2307C25.4006 33.9066 24.8158 34.4021 24.1305 34.4021H20.8982C20.2129 34.4021 19.628 33.9066 19.5154 33.2307L19.2493 31.6343C19.1716 31.1683 18.8601 30.78 18.4467 30.5512C18.3543 30.5 18.2629 30.4471 18.1727 30.3926C17.7676 30.1481 17.275 30.072 16.8319 30.238L15.3156 30.8061C14.6739 31.0465 13.9524 30.7877 13.6097 30.1943L11.9936 27.395C11.6509 26.8015 11.7876 26.0473 12.3166 25.6117L13.5682 24.5814C13.9326 24.2814 14.1133 23.818 14.1046 23.346C14.1036 23.2931 14.1031 23.2402 14.1031 23.1871C14.1031 23.1341 14.1036 23.0811 14.1046 23.0283C14.1133 22.5563 13.9326 22.0929 13.5682 21.7928L12.3166 20.7625C11.7876 20.327 11.6509 19.5728 11.9936 18.9793L13.6097 16.18C13.9524 15.5865 14.6739 15.3278 15.3156 15.5682L16.8319 16.1362C17.275 16.3022 17.7676 16.2262 18.1726 15.9816C18.2629 15.9271 18.3543 15.8743 18.4467 15.8231C18.8601 15.5942 19.1716 15.206 19.2493 14.7399L19.5154 13.1436Z" stroke="#F9F9F9" stroke-width="1.8243" stroke-linecap="round" stroke-linejoin="round"/>
<path d="M26.2524 23.187C26.2524 25.2516 24.5787 26.9253 22.514 26.9253C20.4494 26.9253 18.7757 25.2516 18.7757 23.187C18.7757 21.1224 20.4494 19.4487 22.514 19.4487C24.5787 19.4487 26.2524 21.1224 26.2524 23.187Z" stroke="#F9F9F9" stroke-width="1.8243" stroke-linecap="round" stroke-linejoin="round"/>
</svg>
