<svg width="56" height="45" viewBox="0 0 56 45" fill="none" xmlns="http://www.w3.org/2000/svg">
<path d="M52.5517 0V9.37931H47.1724C42.9425 9.37931 40.8276 11.4943 40.8276 15.7241V20.1379H43.1724C46.8506 20.1379 49.8851 21.2414 52.2759 23.4483C54.7586 25.6552 56 28.4598 56 31.8621C56 35.5402 54.7586 38.5287 52.2759 40.8276C49.8851 43.1264 46.8506 44.2759 43.1724 44.2759C39.4023 44.2759 36.3218 43.1264 33.931 40.8276C31.5402 38.4368 30.3448 35.2644 30.3448 31.3104V15.4483C30.3448 5.14943 35.4943 0 45.7931 0H52.5517ZM22.2069 0V9.37931H16.8276C12.5977 9.37931 10.4828 11.4943 10.4828 15.7241V20.1379H12.8276C16.5057 20.1379 19.5402 21.2414 21.931 23.4483C24.4138 25.6552 25.6552 28.4598 25.6552 31.8621C25.6552 35.5402 24.4138 38.5287 21.931 40.8276C19.5402 43.1264 16.5057 44.2759 12.8276 44.2759C9.05747 44.2759 5.97701 43.1264 3.58621 40.8276C1.1954 38.4368 0 35.2644 0 31.3104V15.4483C0 5.14943 5.14943 0 15.4483 0H22.2069Z" fill="#2D18BF"/>
</svg>
