<svg width="165" height="50" viewBox="0 0 165 50" fill="none" xmlns="http://www.w3.org/2000/svg">
<path d="M33.0236 49.2282C24.7646 49.2282 0.862061 42.6319 0.862061 34.506C0.862061 26.3801 24.7646 19.8156 33.0236 19.8156C41.2826 19.8156 47.9546 26.3801 47.9546 34.506C47.9546 42.6319 41.2826 49.2282 33.0236 49.2282Z" fill="#665EA4"/>
<path d="M25.6715 25.3285C20.2951 22.1419 7.37216 8.5668 10.6434 3.27699C13.9146 -2.01283 32.1168 2.99019 37.4608 6.20869C42.8373 9.4272 44.5539 16.3103 41.2827 21.5683C38.0114 26.8581 31.048 28.547 25.6715 25.3285Z" fill="#665EA4"/>
<path d="M21.1372 21.7913C22.8538 23.3527 24.4408 24.6274 25.6716 25.3603C30.8861 28.4832 37.5904 26.9855 40.9912 22.0781C38.6916 20.676 35.971 19.8156 33.0561 19.8156C30.3031 19.8156 25.8659 20.5166 21.1372 21.7913Z" fill="#665EA4"/>
<path d="M68.4563 13.2511C69.0069 13.4742 69.4927 13.761 69.8814 14.1115C70.3024 14.462 70.6263 14.8763 70.8854 15.2906C71.1445 15.7367 71.3388 16.2147 71.4684 16.6927C71.598 17.2026 71.6627 17.7124 71.6627 18.2223C71.6627 19.1145 71.5008 19.9431 71.1121 20.7079C70.7559 21.4727 70.27 22.11 69.6547 22.6517C69.0393 23.1934 68.3267 23.6077 67.4846 23.8945C66.6426 24.1813 65.7681 24.3088 64.7964 24.3088H57.6386C57.0232 24.3088 56.5698 24.1813 56.3431 23.9264C56.1164 23.6714 55.9868 23.2572 55.9868 22.6517V5.76253C55.9868 5.2208 56.084 4.80654 56.3431 4.51974C56.5698 4.23294 57.0232 4.10547 57.6386 4.10547L64.4402 4.07361C65.347 4.07361 66.1891 4.16921 66.9664 4.36041C67.7438 4.5516 68.4239 4.8384 68.9745 5.25266C69.5251 5.66693 69.9785 6.17679 70.3024 6.81412C70.6263 7.45144 70.7882 8.21624 70.7882 9.07663C70.7882 9.93702 70.5615 10.7337 70.1405 11.4347C69.687 12.1358 69.1364 12.6775 68.4887 13.0281V13.2511H68.4563ZM59.5819 11.9765H64.3106C64.6021 11.9765 64.8936 11.9446 65.2175 11.8809C65.5414 11.8171 65.8328 11.6897 66.1243 11.4985C66.3834 11.3073 66.6102 11.0842 66.8045 10.7337C66.9664 10.415 67.0636 10.0008 67.0636 9.49089C67.0636 8.78983 66.8369 8.2481 66.3834 7.86571C65.93 7.45144 65.3146 7.26025 64.5049 7.26025H59.5819V11.9765ZM67.9705 18.0311C67.9705 17.107 67.679 16.3422 67.0636 15.7686C66.4806 15.195 65.6061 14.9082 64.4402 14.9082H59.5819V21.1859H64.4078C65.1203 21.1859 65.6709 21.0903 66.1243 20.8672C66.5778 20.676 66.934 20.4211 67.2255 20.1024C67.4846 19.7837 67.679 19.4651 67.8085 19.0827C67.9057 18.7003 67.9705 18.3497 67.9705 18.0311Z" fill="#665EA4"/>
<path d="M85.3306 22.6836C85.3306 23.1616 85.1363 23.4802 84.78 23.6396C84.359 23.8308 83.8731 23.9901 83.3873 24.1176C82.9015 24.245 82.3833 24.3406 81.8651 24.4362C81.3469 24.5 80.7963 24.5637 80.2781 24.5956C79.7598 24.6274 79.274 24.6274 78.7882 24.6274C77.4927 24.6274 76.4238 24.5 75.5818 24.245C74.7397 23.9901 74.0595 23.6396 73.5413 23.1934C73.0555 22.7473 72.6992 22.2375 72.5049 21.6639C72.3105 21.0903 72.2134 20.4529 72.2134 19.8156C72.2134 19.1464 72.3105 18.5091 72.5373 17.8718C72.764 17.2663 73.1202 16.6927 73.6385 16.2466C74.1567 15.7686 74.8044 15.3862 75.6141 15.0994C76.4239 14.8126 77.4279 14.6533 78.5939 14.6533H81.8651V14.1753C81.8651 13.7929 81.8327 13.4742 81.7355 13.1555C81.6707 12.8369 81.5088 12.5819 81.2821 12.3589C81.0554 12.1358 80.7639 11.9446 80.3752 11.8171C79.9866 11.6897 79.4683 11.626 78.853 11.626C78.2052 11.626 77.4603 11.6897 76.683 11.8171C75.9056 11.9446 75.2579 12.0721 74.772 12.2314C74.5453 12.2951 74.3834 12.2951 74.2862 12.2633C74.1891 12.2314 74.1243 12.1039 74.0919 11.9446L73.7356 10.2876C73.6708 9.9689 73.7356 9.7777 73.9947 9.6821C74.8044 9.36344 75.7113 9.14037 76.683 9.04478C77.6546 8.91731 78.5615 8.85358 79.436 8.85358C81.4764 8.85358 82.9663 9.29971 83.9055 10.192C84.8448 11.0842 85.3306 12.3589 85.3306 14.0478V22.6836ZM81.8651 17.2344H79.0473C78.7234 17.2344 78.3671 17.2663 77.9785 17.2982C77.5898 17.33 77.2336 17.4575 76.8773 17.6168C76.521 17.808 76.2619 18.0311 76.0352 18.3816C75.8085 18.7003 75.7113 19.1783 75.7113 19.7519C75.7113 20.5804 76.0028 21.154 76.5534 21.5045C77.104 21.8232 77.8813 21.9825 78.8206 21.9825C78.9501 21.9825 79.1445 21.9825 79.4036 21.9825C79.6627 21.9825 79.8894 21.9507 80.1809 21.9188C80.4724 21.8869 80.7315 21.8232 81.0554 21.7913C81.3469 21.7276 81.6384 21.6639 81.8975 21.5683V17.2344H81.8651Z" fill="#665EA4"/>
<path d="M93.1036 11.7215C92.8769 11.7215 92.5854 11.7215 92.1968 11.7534C91.7757 11.7534 91.3223 11.8171 90.8041 11.9127V23.8626C90.8041 24.0857 90.7717 24.2131 90.6745 24.2769C90.6097 24.3406 90.4478 24.3725 90.2535 24.3725H87.9539C87.7596 24.3725 87.63 24.3406 87.5329 24.2769C87.4357 24.2131 87.4033 24.0857 87.4033 23.8626V11.4985C87.4033 10.7974 87.5329 10.2557 87.792 9.87328C88.0511 9.49088 88.5693 9.23595 89.379 9.10848C89.5733 9.10848 89.8324 9.07662 90.1563 9.01288C90.4802 8.98102 90.8365 8.94915 91.1927 8.91729C91.5814 8.88542 91.9377 8.88542 92.2616 8.85355C92.6178 8.85355 92.9093 8.82169 93.1684 8.82169C94.464 8.82169 95.5652 8.94915 96.5368 9.23595C97.4761 9.52275 98.2534 9.93701 98.8688 10.5106C99.4841 11.0842 99.9376 11.849 100.229 12.805C100.521 13.7291 100.683 14.8763 100.683 16.2147V23.8308C100.683 24.0538 100.65 24.1813 100.553 24.245C100.488 24.3087 100.326 24.3406 100.132 24.3406H97.8323C97.638 24.3406 97.5085 24.3087 97.4113 24.245C97.3141 24.1813 97.2817 24.0538 97.2817 23.8308V16.1828C97.2817 15.418 97.217 14.7807 97.0874 14.239C96.9579 13.6972 96.7311 13.2192 96.4396 12.8687C96.1158 12.4863 95.6947 12.2314 95.1765 12.0402C94.5935 11.8171 93.9134 11.7215 93.1036 11.7215Z" fill="#665EA4"/>
<path d="M109.46 21.7276C110.075 21.7276 110.723 21.632 111.338 21.5045C111.954 21.3452 112.472 21.1859 112.893 20.9947C113.12 20.8991 113.249 20.8672 113.346 20.8991C113.443 20.9309 113.508 21.0265 113.573 21.1859L114.318 22.8429C114.512 23.1616 114.448 23.3846 114.124 23.5758C113.314 24.022 112.472 24.3088 111.533 24.4681C110.593 24.6274 109.751 24.6912 108.942 24.6912C106.739 24.6912 105.087 24.022 103.921 22.7155C102.755 21.4089 102.172 19.4651 102.172 16.8839C102.172 15.673 102.334 14.5895 102.658 13.6017C102.982 12.6138 103.468 11.7534 104.083 11.0524C104.699 10.3513 105.444 9.80957 106.318 9.42717C107.193 9.04477 108.164 8.85358 109.265 8.85358C110.075 8.85358 110.852 8.94918 111.597 9.10851C112.342 9.26784 113.055 9.52277 113.703 9.8733C113.897 9.9689 113.994 10.0645 114.026 10.1601C114.059 10.2557 114.026 10.415 113.929 10.6062L113.184 12.2951C113.12 12.4545 113.022 12.5501 112.925 12.5819C112.828 12.6138 112.666 12.5819 112.439 12.4863C111.954 12.2951 111.468 12.1677 110.982 12.0402C110.464 11.9127 109.946 11.849 109.363 11.849C108.682 11.849 108.132 11.9765 107.646 12.2633C107.16 12.5501 106.772 12.9006 106.48 13.3786C106.189 13.8566 105.962 14.3665 105.832 14.9719C105.703 15.5774 105.638 16.2147 105.638 16.852C105.638 17.5212 105.703 18.1586 105.832 18.7322C105.962 19.3376 106.156 19.8475 106.448 20.2617C106.739 20.7079 107.128 21.0584 107.614 21.3133C108.067 21.6001 108.682 21.7276 109.46 21.7276Z" fill="#665EA4"/>
<path d="M129.055 16.6927C129.055 19.242 128.439 21.2177 127.241 22.588C126.043 23.9582 124.261 24.6593 121.865 24.6593C119.5 24.6593 117.719 23.9901 116.585 22.6517C115.419 21.3133 114.836 19.3695 114.836 16.7883C114.836 15.5136 115.031 14.3983 115.355 13.4105C115.711 12.4226 116.197 11.5941 116.812 10.9249C117.427 10.2557 118.172 9.74584 119.047 9.39531C119.921 9.04478 120.861 8.85358 121.929 8.85358C124.261 8.85358 126.01 9.55464 127.209 10.9568C128.472 12.327 129.055 14.239 129.055 16.6927ZM125.589 16.7883C125.589 16.0872 125.525 15.4499 125.427 14.8126C125.33 14.2071 125.136 13.6654 124.877 13.1874C124.618 12.7094 124.229 12.327 123.776 12.0721C123.322 11.8171 122.739 11.6578 122.027 11.6578C121.411 11.6578 120.861 11.7853 120.375 12.0402C119.921 12.2951 119.533 12.6457 119.209 13.0918C118.885 13.5379 118.658 14.0797 118.529 14.6851C118.367 15.3225 118.302 15.9598 118.302 16.6927C118.302 18.286 118.561 19.5607 119.079 20.4848C119.598 21.4089 120.537 21.8551 121.897 21.8551C122.577 21.8551 123.16 21.7276 123.614 21.4408C124.099 21.154 124.456 20.8035 124.747 20.3255C125.039 19.8793 125.233 19.3376 125.363 18.7003C125.525 18.0948 125.589 17.4575 125.589 16.7883Z" fill="#665EA4"/>
<path d="M82.6748 47.5712C82.6748 48.0492 82.4804 48.336 82.1242 48.5272C81.7031 48.7184 81.2173 48.8777 80.7315 49.0052C80.2133 49.1327 79.6951 49.2601 79.1768 49.3239C78.6586 49.3876 78.108 49.4513 77.6222 49.4832C77.104 49.5151 76.5858 49.5151 76.1323 49.5151C74.8368 49.5151 73.7356 49.3876 72.8935 49.1327C72.019 48.8777 71.3713 48.5272 70.8531 48.0811C70.3672 47.6349 70.011 47.1251 69.8166 46.5196C69.6223 45.946 69.5251 45.3087 69.5251 44.6714C69.5251 43.9703 69.6547 43.333 69.8814 42.6956C70.1081 42.0583 70.4644 41.5166 70.9826 41.0386C71.5008 40.5606 72.1486 40.1782 72.9907 39.8914C73.8004 39.6046 74.8044 39.4453 75.9704 39.4453H79.2416V38.9673C79.2416 38.6168 79.2092 38.2662 79.1445 37.9476C79.0473 37.6608 78.9177 37.374 78.691 37.1509C78.4643 36.9278 78.1404 36.7366 77.7518 36.641C77.3307 36.5136 76.8449 36.4498 76.1971 36.4498C75.517 36.4498 74.8044 36.5136 73.9947 36.641C73.2174 36.7366 72.5696 36.8641 72.0838 37.0553C71.8571 37.119 71.7275 37.119 71.6304 37.0872C71.5332 37.0553 71.4684 36.9597 71.4361 36.7685L71.015 35.1115C70.9502 34.7928 71.015 34.6016 71.2741 34.506C72.0838 34.2192 73.0231 33.9643 73.9947 33.8368C74.9988 33.7093 75.9056 33.6456 76.7801 33.6456C78.8206 33.6456 80.3104 34.0917 81.2821 34.984C82.2537 35.8762 82.7072 37.1828 82.7072 38.9036V47.5712H82.6748ZM79.2092 42.0583H76.3591C76.0352 42.0583 75.6789 42.0902 75.2903 42.1221C74.9016 42.1539 74.5453 42.2814 74.1891 42.4407C73.8652 42.6319 73.5737 42.855 73.347 43.2055C73.1202 43.5242 73.0231 44.0022 73.0231 44.5758C73.0231 45.4043 73.3146 46.0098 73.8652 46.3284C74.4482 46.6471 75.1931 46.8383 76.1323 46.8383C76.2619 46.8383 76.4562 46.8383 76.7153 46.8064C76.9744 46.8064 77.2336 46.7745 77.4927 46.7427C77.7518 46.7108 78.0756 46.6471 78.3671 46.5833C78.691 46.5196 78.9501 46.4559 79.2092 46.3603V42.0583Z" fill="#665EA4"/>
<path d="M104.731 47.5712C104.731 48.0492 104.537 48.336 104.18 48.5272C103.759 48.7184 103.274 48.8777 102.788 49.0052C102.27 49.1327 101.751 49.2601 101.233 49.3239C100.683 49.3876 100.164 49.4513 99.6461 49.4832C99.1279 49.5151 98.6097 49.5151 98.1563 49.5151C96.8607 49.5151 95.7919 49.3876 94.9174 49.1327C94.043 48.8777 93.3628 48.5272 92.877 48.0811C92.3912 47.6349 92.0349 47.1251 91.8406 46.5196C91.6462 45.946 91.5491 45.3087 91.5491 44.6714C91.5491 43.9703 91.6786 43.333 91.9053 42.6956C92.1321 42.0583 92.4883 41.5166 93.0065 41.0386C93.5248 40.5606 94.2049 40.1782 95.0146 39.8914C95.8243 39.6046 96.8284 39.4453 97.9943 39.4453H101.298V38.9673C101.298 38.6168 101.266 38.2662 101.168 37.9476C101.104 37.6608 100.942 37.374 100.715 37.1509C100.488 36.9278 100.164 36.7366 99.7757 36.641C99.387 36.5136 98.8688 36.4498 98.2211 36.4498C97.5409 36.4498 96.8284 36.5136 96.051 36.641C95.2737 36.7366 94.626 36.8641 94.1401 37.0553C93.9134 37.119 93.7839 37.119 93.6867 37.0872C93.5895 37.0553 93.5248 36.9597 93.46 36.7685L93.0389 35.1115C92.9418 34.7928 93.0389 34.6016 93.298 34.506C94.1401 34.2192 95.047 33.9643 96.0186 33.8368C97.0227 33.7093 97.9296 33.6456 98.804 33.6456C100.844 33.6456 102.367 34.0917 103.306 34.984C104.245 35.8762 104.731 37.1828 104.731 38.9036V47.5712ZM101.266 42.0583H98.4154C98.0591 42.0583 97.7028 42.0902 97.3466 42.1221C96.9579 42.1539 96.6016 42.2814 96.2454 42.4407C95.8891 42.6319 95.5976 42.855 95.3709 43.2055C95.1442 43.5242 95.047 44.0022 95.047 44.5758C95.047 45.4043 95.3061 46.0098 95.8891 46.3284C96.4397 46.6471 97.217 46.8383 98.1563 46.8383C98.2858 46.8383 98.4802 46.8383 98.7393 46.8064C98.966 46.8064 99.2575 46.7745 99.5166 46.7427C99.7757 46.7108 100.067 46.6471 100.391 46.5833C100.715 46.5196 100.974 46.4559 101.233 46.3603V42.0583H101.266Z" fill="#665EA4"/>
<path d="M128.86 33.6137C131.128 33.6137 132.812 34.1873 133.913 35.3345C135.014 36.4817 135.532 38.0432 135.532 40.0507C135.532 40.5606 135.468 40.9749 135.338 41.3254C135.241 41.6441 135.047 41.899 134.852 42.0902C134.626 42.2814 134.366 42.4407 134.107 42.5045C133.816 42.6001 133.524 42.6319 133.168 42.6319H125.33C125.363 43.3967 125.46 44.034 125.686 44.5439C125.913 45.0538 126.205 45.468 126.561 45.7867C126.95 46.1054 127.371 46.3284 127.856 46.4559C128.375 46.5834 128.893 46.6471 129.476 46.6471C130.091 46.6471 130.739 46.5515 131.322 46.424C131.937 46.2647 132.456 46.0735 132.909 45.8823C133.2 45.7548 133.427 45.7867 133.557 46.0416L134.366 47.6987C134.496 48.0173 134.431 48.2404 134.172 48.3679C133.427 48.814 132.617 49.1327 131.711 49.292C130.836 49.4513 129.994 49.5469 129.184 49.5469C126.788 49.5469 124.974 48.9096 123.711 47.6668C122.448 46.424 121.8 44.4164 121.8 41.6759C121.8 40.4013 121.994 39.2541 122.35 38.2662C122.707 37.2465 123.193 36.418 123.808 35.7488C124.423 35.0477 125.168 34.5379 126.043 34.1873C126.885 33.7731 127.824 33.6137 128.86 33.6137ZM128.893 36.418C128.375 36.418 127.889 36.5136 127.468 36.7366C127.047 36.9597 126.69 37.2146 126.399 37.5652C126.107 37.9157 125.881 38.2981 125.686 38.7442C125.524 39.1904 125.395 39.6365 125.395 40.1463H132.196C132.196 39.6046 132.132 39.1585 132.034 38.6805C131.937 38.2344 131.775 37.852 131.516 37.5014C131.257 37.1509 130.933 36.896 130.512 36.7048C130.124 36.5136 129.573 36.418 128.893 36.418Z" fill="#665EA4"/>
<path d="M164.423 47.5712C164.423 48.0492 164.228 48.336 163.84 48.5272C163.419 48.7184 162.965 48.8777 162.447 49.0052C161.929 49.1327 161.411 49.2601 160.892 49.3239C160.342 49.3876 159.824 49.4513 159.305 49.4832C158.787 49.5151 158.269 49.5151 157.815 49.5151C156.52 49.5151 155.451 49.3876 154.577 49.1327C153.735 48.8777 153.054 48.5272 152.536 48.0811C152.05 47.6349 151.694 47.1251 151.5 46.5196C151.305 45.946 151.208 45.3087 151.208 44.6714C151.208 43.9703 151.305 43.333 151.565 42.6956C151.791 42.0583 152.148 41.5166 152.666 41.0386C153.184 40.5606 153.832 40.1782 154.641 39.8914C155.451 39.6046 156.455 39.4453 157.654 39.4453H160.957V38.9673C160.957 38.6168 160.925 38.2662 160.828 37.9476C160.763 37.6608 160.601 37.374 160.374 37.1509C160.147 36.9278 159.824 36.7366 159.435 36.641C159.046 36.5136 158.528 36.4498 157.913 36.4498C157.232 36.4498 156.52 36.5136 155.71 36.641C154.933 36.7366 154.285 36.8641 153.799 37.0553C153.573 37.119 153.411 37.119 153.313 37.0872C153.216 37.0553 153.152 36.9597 153.119 36.7685L152.698 35.1115C152.601 34.7928 152.698 34.6016 152.957 34.506C153.767 34.2192 154.674 33.9643 155.678 33.8368C156.682 33.7093 157.589 33.6456 158.463 33.6456C160.504 33.6456 162.026 34.0917 162.965 34.984C163.904 35.8762 164.39 37.1828 164.39 38.9036V47.5712H164.423ZM160.925 42.0583H158.075C157.751 42.0583 157.394 42.0902 157.006 42.1221C156.617 42.1539 156.261 42.2814 155.905 42.4407C155.548 42.6319 155.289 42.855 155.03 43.2055C154.803 43.5242 154.706 44.0022 154.706 44.5758C154.706 45.4043 154.998 46.0098 155.548 46.3284C156.099 46.6471 156.876 46.8383 157.815 46.8383C157.945 46.8383 158.139 46.8383 158.398 46.8064C158.658 46.8064 158.917 46.7745 159.176 46.7427C159.467 46.7108 159.759 46.6471 160.05 46.5833C160.342 46.5196 160.633 46.4559 160.892 46.3603V42.0583H160.925Z" fill="#665EA4"/>
<path d="M70.0757 28.9931C70.0109 28.8975 69.8166 28.8338 69.5575 28.8338H61.2337C60.2297 28.8338 59.3876 28.9612 58.7398 29.2799C58.0597 29.5667 57.5091 29.9491 57.1204 30.4271C56.6994 30.9051 56.4079 31.4787 56.2459 32.116C56.084 32.7533 55.9868 33.3907 55.9868 34.0917V48.6228C55.9868 48.8777 56.0516 49.0371 56.1488 49.1008C56.2783 49.1645 56.4403 49.2283 56.667 49.2283H57.6062C58.254 49.1964 59.5819 48.8777 59.5819 46.9657V40.2738H68.4563C68.7154 40.2738 68.8773 40.2101 68.9421 40.0826C69.0069 39.9551 69.0393 39.7958 69.0393 39.5727V37.9157C69.0393 37.6289 69.0069 37.4696 68.9421 37.374C68.8773 37.2784 68.7154 37.2146 68.4563 37.2146H59.5819V33.8687C59.5819 33.2632 59.7439 32.7852 60.0677 32.4665C60.3592 32.1479 60.8774 31.9885 61.6224 31.9885H69.5575C69.8166 31.9885 69.9785 31.9248 70.0433 31.8292C70.1405 31.7336 70.1729 31.5743 70.1729 31.3193V29.5348C70.2053 29.2799 70.1405 29.0887 70.0757 28.9931Z" fill="#665EA4"/>
<path d="M120.18 38.2981C119.921 37.3421 119.5 36.5136 118.95 35.8125C118.399 35.1115 117.719 34.5697 116.844 34.1873C116.002 33.7731 114.966 33.6137 113.8 33.6137C113.249 33.6137 112.666 33.6456 111.986 33.7412C111.306 33.8368 110.658 33.9643 110.108 34.1236L110.075 28.4833C110.075 28.2283 110.043 28.1009 109.946 28.0371C109.881 27.9734 109.719 27.9415 109.492 27.9415H108.553C107.905 27.9734 106.642 28.3239 106.61 30.1403V47.7943C106.61 47.9536 106.642 48.1129 106.707 48.2404C106.772 48.336 106.901 48.4316 107.063 48.4953C107.97 48.8777 108.909 49.1645 109.978 49.292C111.047 49.4513 112.083 49.5469 113.087 49.5469C114.383 49.5469 115.516 49.3557 116.456 48.9415C117.395 48.5272 118.172 47.9536 118.788 47.2207C119.403 46.4878 119.856 45.6274 120.148 44.6395C120.439 43.6517 120.569 42.5682 120.569 41.421C120.569 40.3057 120.439 39.2541 120.18 38.2981ZM116.747 43.9385C116.553 44.5758 116.261 45.1175 115.905 45.4999C115.549 45.9142 115.128 46.201 114.61 46.3922C114.124 46.5834 113.541 46.6471 112.925 46.6471C112.504 46.6471 112.051 46.6471 111.565 46.5834C111.047 46.5515 110.561 46.4559 110.075 46.2966V36.9916C110.691 36.8004 111.306 36.6729 111.889 36.6092C112.472 36.5454 112.925 36.5136 113.217 36.5136C114.415 36.5136 115.322 36.9278 116.002 37.7882C116.682 38.6168 117.006 39.8914 117.006 41.5803C117.039 42.5045 116.941 43.3011 116.747 43.9385Z" fill="#665EA4"/>
<path d="M143.144 48.5272L142.949 46.902C142.917 46.7427 142.884 46.6471 142.82 46.5834C142.755 46.5515 142.658 46.5196 142.496 46.5515C142.366 46.5834 142.172 46.5834 141.978 46.6152C141.783 46.6471 141.589 46.6471 141.427 46.6471C141.038 46.6471 140.779 46.5515 140.617 46.3603C140.488 46.201 140.423 45.8504 140.423 45.3406V28.4514C140.423 28.2283 140.358 28.1009 140.293 28.0371C140.196 27.9734 140.034 27.9415 139.84 27.9415H138.868C138.221 27.9734 136.99 28.3239 136.925 30.0447V46.1054C136.925 47.38 137.184 48.2404 137.702 48.7503C138.221 49.2601 139.03 49.5151 140.131 49.5151C140.52 49.5151 140.974 49.4832 141.459 49.4513C141.978 49.3876 142.431 49.292 142.82 49.1327C143.014 49.0371 143.144 48.9415 143.176 48.8777C143.176 48.8459 143.176 48.7184 143.144 48.5272Z" fill="#665EA4"/>
<path d="M150.723 48.5272L150.528 46.902C150.496 46.7427 150.463 46.6471 150.399 46.5834C150.334 46.5515 150.204 46.5196 150.075 46.5515C149.945 46.5834 149.751 46.5834 149.557 46.6152C149.362 46.6471 149.168 46.6471 149.006 46.6471C148.617 46.6471 148.358 46.5515 148.196 46.3603C148.067 46.201 148.002 45.8504 148.002 45.3406V28.4514C148.002 28.2283 147.937 28.1009 147.872 28.0371C147.808 27.9734 147.646 27.9415 147.419 27.9415H146.48C145.832 27.9734 144.536 28.3239 144.536 30.1722V46.1054C144.536 47.38 144.795 48.2404 145.314 48.7503C145.832 49.2601 146.642 49.5151 147.743 49.5151C148.131 49.5151 148.585 49.4832 149.103 49.4513C149.589 49.3876 150.042 49.292 150.431 49.1327C150.625 49.0371 150.755 48.9415 150.787 48.8777C150.755 48.8459 150.755 48.7184 150.723 48.5272Z" fill="#665EA4"/>
<path d="M91.0957 48.5272L90.9013 46.902C90.8689 46.7427 90.8366 46.6471 90.7718 46.5834C90.707 46.5515 90.5775 46.5196 90.4155 46.5515C90.286 46.5834 90.0916 46.5834 89.8973 46.6152C89.703 46.6471 89.5086 46.6471 89.3467 46.6471C88.958 46.6471 88.6989 46.5515 88.5694 46.3603C88.4074 46.201 88.3427 45.8504 88.3427 45.3406V28.4514C88.3427 28.2283 88.3103 28.1009 88.2131 28.0371C88.1159 27.9734 87.9864 27.9415 87.7597 27.9415H86.788C86.1403 27.9734 84.8447 28.3239 84.8447 30.204V46.1372C84.8447 47.4119 85.1038 48.2723 85.6221 48.7821C86.1403 49.292 86.95 49.5469 88.0512 49.5469C88.4398 49.5469 88.8933 49.5151 89.3791 49.4832C89.8649 49.4195 90.3183 49.3239 90.707 49.1645C90.9013 49.0689 91.0309 48.9733 91.0633 48.9096C91.1281 48.8459 91.1281 48.7184 91.0957 48.5272Z" fill="#665EA4"/>
</svg>
