<svg width="158" height="49" viewBox="0 0 158 49" fill="none" xmlns="http://www.w3.org/2000/svg">
<path d="M8.33747 0.155396H1.72693C0.965717 0.155396 0.344727 0.776386 0.344727 1.54261V7.15656C0.344727 7.92278 0.965717 8.54377 1.72693 8.54377H8.33246C9.09868 8.54377 9.71467 7.92278 9.71467 7.15656V1.54261C9.71467 0.776386 9.09368 0.155396 8.33246 0.155396H8.33747Z" fill="#665EA4"/>
<path d="M48.582 0.155396H42.8979C42.1217 0.155396 41.5157 0.786402 41.5157 1.54261V24.2738C41.5157 24.7346 40.9097 24.9049 40.6894 24.4942L27.4783 0.761362C27.258 0.370739 26.8724 0.155396 26.4116 0.155396H16.9615C16.1853 0.155396 15.5793 0.786402 15.5793 1.54261V37.8655C15.5793 38.6418 16.2104 39.2527 16.9615 39.2527H22.6456C23.4218 39.2527 24.0278 38.6217 24.0278 37.8655V14.4532C24.0278 13.9925 24.6338 13.8222 24.8541 14.2328L38.4308 38.6668C38.6511 39.0574 39.0367 39.2728 39.4975 39.2728H48.5319C49.3081 39.2728 49.9141 38.6418 49.9141 37.8856V1.54261C49.9141 0.76637 49.2831 0.155396 48.5319 0.155396H48.582Z" fill="#665EA4"/>
<path d="M82.7563 25.0752C82.7563 14.8388 76.1007 9.75574 68.789 9.75574C59.2939 9.75574 53.8752 16.3462 53.8752 25.2454C53.8752 35.3616 60.6761 40.1742 68.5687 40.1742C76.4613 40.1742 81.0786 36.0877 82.3156 30.7893C82.4859 30.1082 82.0952 29.5022 81.0786 29.5022H76.6115C76.1007 29.5022 75.665 29.7676 75.4446 30.2785C74.3279 32.7324 72.53 34.0244 69.0795 34.0244C65.1682 34.0244 62.5441 31.5705 62.1585 26.5826H81.3691C82.1954 26.5826 82.7513 25.9766 82.7513 25.0752H82.7563ZM62.474 21.209C63.3003 17.5381 65.4387 15.9106 68.6688 15.9106C71.5584 15.9106 74.0374 17.5882 74.3779 21.209H62.479H62.474Z" fill="#665EA4"/>
<path d="M155.792 10.4868H150.083C149.317 10.4868 148.701 11.1078 148.701 11.874V37.8905C148.701 38.6567 149.322 39.2777 150.083 39.2777H155.792C156.559 39.2777 157.175 38.6567 157.175 37.8905V11.874C157.175 11.1078 156.554 10.4868 155.792 10.4868Z" fill="#665EA4"/>
<path d="M113.41 10.4868H107.726C106.95 10.4868 106.344 11.1178 106.344 11.874V13.2863C104.641 11.2931 101.852 9.90588 98.1808 9.90588C89.9727 9.90588 85.6257 17.3477 85.6257 25.2253C85.6257 32.1063 89.1964 39.8136 98.0105 39.8136C101.171 39.8136 104.521 38.3062 106.344 36.1678V47.3506C106.344 48.1268 106.975 48.7378 107.726 48.7378H113.41C114.186 48.7378 114.792 48.1068 114.792 47.3506V11.8991C114.792 11.1228 114.161 10.5119 113.41 10.5119V10.4868ZM100.464 33.6838C96.7234 33.6838 94.0992 30.9344 94.0992 25.03C94.0992 19.1256 96.7234 16.0357 100.464 16.0357C104.205 16.0357 106.83 18.8802 106.83 25.03C106.83 31.1798 104.205 33.6838 100.464 33.6838Z" fill="#665EA4"/>
<path d="M143.674 10.4868H137.989C137.213 10.4868 136.607 11.1178 136.607 11.874V26.5825C136.607 31.325 134.494 32.7072 131.8 32.7072C129.105 32.7072 126.992 31.32 126.992 26.5825V11.874C126.992 11.0978 126.361 10.4868 125.61 10.4868H119.926C119.149 10.4868 118.543 11.1178 118.543 11.874V27.1935C118.543 36.313 123.571 39.9838 131.83 39.9838C140.088 39.9838 145.116 36.288 145.116 27.1935V11.874C145.116 11.0978 144.485 10.4868 143.734 10.4868H143.684H143.674Z" fill="#665EA4"/>
</svg>
