<svg width="379" height="49" viewBox="0 0 379 49" fill="none" xmlns="http://www.w3.org/2000/svg">
<path d="M344.058 0.155396C341.686 0.155396 339.687 2.15458 339.687 4.56038C339.687 7.03395 341.686 8.96536 344.058 8.96536C346.498 8.96536 348.463 6.89841 348.463 4.56038C348.497 2.08681 346.498 0.155396 344.058 0.155396ZM34.7265 2.22235C25.7133 3.34054 17.005 4.96699 8.29663 7.50833C7.14456 7.88106 6.46687 9.13479 6.73795 10.253C7.38175 12.7604 7.68671 14.0142 8.33052 16.5555C8.6016 17.6059 9.6859 18.1819 10.7702 17.8092C19.6818 15.0646 28.6273 13.2009 37.8439 11.8455C38.8943 11.71 39.4704 10.6257 39.0976 9.50752C38.2844 7.20337 37.8778 6.0513 37.0307 3.74715C36.658 2.7645 35.7092 2.1207 34.7265 2.22235ZM218.55 2.49343C216.28 2.49343 211.976 3.74715 209.977 5.23807V41.9689H218.55V2.49343ZM315.053 2.49343C312.851 2.49343 308.479 3.74715 306.48 5.23807V40.3085C309.327 41.63 314.036 42.5449 318.882 42.5449C328.844 42.5449 334.977 36.5473 334.977 26.1448C334.977 18.7241 331.521 12.8282 323.084 12.8282C320.407 12.8282 317.459 13.9803 315.019 16.0811V2.49343H315.053ZM71.4235 3.88269C67.2895 3.88269 63.7656 4.35707 59.1234 5.03476V41.9689H73.0838C80.6739 41.9689 87.383 37.4961 87.383 30.8209C87.383 25.7382 85.1806 22.5869 80.0301 21.096C83.3847 19.7745 85.2483 17.3687 85.2483 13.777C85.2144 7.47445 79.0814 3.88269 71.4235 3.88269ZM71.4235 11.0662C74.9813 11.0662 76.6417 12.7265 76.6417 15.0646C76.6417 17.5381 75.0491 18.9613 71.6606 18.9613H67.7978V11.3712C68.9838 11.2017 70.2375 11.0662 71.4235 11.0662ZM166.469 12.7265C157.524 12.7265 150.578 17.9786 150.578 28.0084C150.578 37.2589 156.304 42.5449 165.046 42.5449C167.588 42.5449 170.841 41.9689 173.958 40.7151L172.433 33.8366C170.332 34.582 168.638 34.8531 167.147 34.8531C161.76 34.8531 159.591 32.0407 159.591 27.4663C159.591 22.9597 161.929 19.9778 167.655 19.9778C168.57 19.9778 170.163 20.215 171.112 20.4861C172.399 19.0629 173.619 16.5555 173.958 13.6753C171.213 13.0654 168.943 12.7265 166.469 12.7265ZM190.392 12.7265C181.717 12.7265 175.584 18.453 175.584 27.6018C175.584 36.649 181.379 42.5449 190.392 42.5449C199.337 42.5449 205.199 36.8184 205.199 27.6018C205.166 18.6902 199.405 12.7265 190.392 12.7265ZM238.169 12.7265C229.495 12.7265 223.362 18.453 223.362 27.6018C223.362 36.649 229.156 42.5449 238.169 42.5449C247.115 42.5449 252.977 36.8184 252.977 27.6018C252.977 18.6902 247.182 12.7265 238.169 12.7265ZM134.855 12.7943C130.145 12.7943 124.385 14.1158 120.793 16.5216L120.725 41.9689H129.298V20.52C130.382 20.2489 131.636 20.0456 132.924 20.0456C136.38 20.0456 138.379 21.6043 138.379 24.62V41.9689H146.884V21.6043C146.884 16.0472 141.395 12.7943 134.855 12.7943ZM270.495 12.7943C266.022 12.7943 260.702 14.1158 257.28 16.5216L257.212 41.9689H265.785V20.52C266.869 20.2489 268.123 20.0456 269.411 20.0456C272.799 20.0456 274.73 21.6043 274.73 24.62V41.9689H283.168V25.0266C283.168 23.5357 282.93 22.1803 282.49 20.9266C283.744 20.4183 285.269 20.0795 286.861 20.0795C290.25 20.0795 292.181 21.6382 292.181 24.6539V42.0027H300.618V21.6043C300.618 16.115 295.807 12.7943 289.606 12.7943C286.217 12.7943 282.185 14.048 279.271 15.9456C277.102 13.9803 274.053 12.7943 270.495 12.7943ZM344.126 12.7943C342.466 12.7943 341.009 13.0993 339.823 13.6075V41.9689H348.395V13.6075C347.175 13.0654 345.786 12.7943 344.126 12.7943ZM102.733 12.8621C99.0054 12.8621 95.5492 13.777 92.0252 15.0985L92.7029 17.1654C93.6178 19.6729 94.7021 20.5539 96.0575 20.5539C96.6335 20.5539 101.005 19.8084 102.631 19.8084C105.748 19.8084 107.172 20.7233 107.341 24.2812C97.9889 24.5522 90.0938 26.5853 90.0938 34.7515C90.0938 40.173 95.0409 42.6466 100.971 42.6466C107.646 42.6466 112.593 41.3928 115.643 39.0548V23.9423C115.677 15.9456 110.899 12.8621 102.733 12.8621ZM365.27 12.8621C361.543 12.8621 358.086 13.777 354.562 15.0985L355.24 17.1654C356.155 19.6729 357.239 20.5539 358.595 20.5539C359.171 20.5539 363.542 19.8084 365.168 19.8084C368.286 19.8084 369.709 20.7233 369.878 24.2812C360.526 24.5522 352.631 26.5853 352.631 34.7515C352.631 40.173 357.578 42.6466 363.508 42.6466C370.183 42.6466 375.13 41.3928 378.18 39.0548V23.9423C378.214 15.9456 373.436 12.8621 365.27 12.8621ZM42.2489 16.2166C28.153 18.0125 14.4297 21.5026 1.3842 27.2969C0.435431 27.7374 -0.140605 28.9572 0.0627019 30.0076C0.570969 32.7184 0.842045 34.0399 1.35031 36.7507C1.5875 37.9027 2.63792 38.4449 3.72223 37.9027C16.9711 31.8374 30.9315 27.9746 45.2646 25.6704C46.1795 25.5349 46.6539 24.4845 46.2812 23.4002C45.5696 21.1638 45.1969 20.0456 44.4514 17.8431C44.1126 16.7927 43.1977 16.115 42.2489 16.2166ZM319.458 20.0456C323.829 20.0456 326.54 21.9431 326.54 27.1952C326.54 31.7696 324.371 35.6663 319.39 35.6663C318.035 35.6663 316.544 35.5647 315.019 35.3275V20.9605C316.307 20.3844 317.696 20.0456 319.458 20.0456ZM190.392 20.1811C194.356 20.1811 196.627 22.9258 196.627 27.6357C196.627 32.549 194.356 35.1242 190.392 35.1242C186.495 35.1242 184.157 32.549 184.157 27.6357C184.157 22.9258 186.529 20.1811 190.392 20.1811ZM238.169 20.1811C242.134 20.1811 244.404 22.9258 244.404 27.6357C244.404 32.549 242.134 35.1242 238.169 35.1242C234.272 35.1242 231.934 32.549 231.934 27.6357C231.934 22.9258 234.306 20.1811 238.169 20.1811ZM67.7978 26.1109H72.3383C76.1334 26.1109 78.0648 27.3646 78.0648 30.4143C78.0648 33.2267 75.964 34.7176 72.2706 34.7176H67.7978V26.1109ZM105.681 29.7366H107.341V34.6498C106.494 35.3953 104.664 36.073 102.462 36.073C99.6831 36.073 98.3278 35.3275 98.3278 33.2605C98.3278 30.5837 101.852 29.7366 105.681 29.7366ZM368.218 29.7366H369.878V34.6498C369.031 35.3953 367.201 36.073 364.999 36.073C362.22 36.073 360.865 35.3275 360.865 33.2605C360.865 30.5837 364.355 29.7366 368.218 29.7366ZM42.0795 31.2614C33.2695 33.1589 24.6628 35.463 16.124 38.411C15.0396 38.8176 14.4297 39.9358 14.7347 40.9862C15.4124 43.4937 15.7512 44.7474 16.4289 47.2548C16.7678 48.4408 18.0893 49.0507 19.3091 48.5763C27.848 45.5267 36.4547 42.8499 45.2307 40.7151C46.0779 40.5118 46.4845 39.5292 46.1795 38.5126C45.5018 36.2424 45.1291 35.1242 44.4175 32.8878C44.0787 31.7696 43.0621 31.0581 42.0795 31.2614Z" fill="#665EA4"/>
</svg>
