<svg width="381" height="386" viewBox="0 0 381 386" fill="none" xmlns="http://www.w3.org/2000/svg">
<circle cx="157.086" cy="157" r="147.942" stroke="#181818" stroke-width="18.1163" stroke-dasharray="16.1 16.1"/>
<mask id="mask0_682_1384" style="mask-type:alpha" maskUnits="userSpaceOnUse" x="0" y="0" width="315" height="314">
<circle cx="157.086" cy="157" r="149.955" fill="#D9D9D9" stroke="#F9F9F9" stroke-width="14.0904"/>
</mask>
<g mask="url(#mask0_682_1384)">
<g clip-path="url(#clip0_682_1384)">
<path d="M136.75 156.412C136.75 156.412 138.316 147.794 152.428 145.047C166.541 142.299 188.481 137.211 196.317 135.247C198.558 134.687 201.443 133.904 204.674 133.183C212.739 131.394 222.969 130.044 230.797 133.674C241.771 138.769 271.554 169.335 297.025 166.197C322.495 163.058 336.999 157.187 369.914 155.614C402.828 154.049 438.881 159.144 458.082 174.815C476.385 189.756 493.966 213.991 495.501 238.349C497.059 263.167 476.538 282.506 467.099 303.741C462.395 314.323 462.395 321.376 465.534 325.689C467.184 327.96 467.966 330.147 468.181 332.204C468.665 336.831 466.478 340.323 462.794 346.063C448.888 367.743 448.09 369.999 447.515 372.125C446.502 375.855 446.548 377.773 444.576 379.768C440.677 383.705 434.085 382.708 427.14 381.925C420.364 381.165 410.587 380.313 398.124 380.106C400.802 378.425 404.87 375.778 409.766 372.217C411.922 370.651 412.306 370.107 412.904 369.784C413.15 369.654 413.357 369.6 413.418 369.577C414.784 369.124 424.815 364.888 426.158 364.29C431.775 361.757 441.552 352.195 440.462 340.976C439.779 333.938 435.09 329.05 432.627 326.87C432.627 326.87 428.314 328.045 428.314 330.792C428.314 334.291 433.793 336.164 434.975 341.375C435.72 344.659 434.116 347.429 431.054 352.54C429.527 355.088 426.027 360.437 417.378 368.004C411.96 372.739 409.09 375.256 404.409 377.811L380.504 385.647C379.599 384.664 379.391 383.751 379.33 383.298C379.038 381.104 380.742 378.671 383.643 377.42C380.965 378.502 378.094 379.561 375.025 380.559C371.019 381.856 367.212 382.884 363.659 383.698C364.089 382.14 364.91 380.137 366.599 378.41C368.494 376.461 370.673 375.693 370.52 375.271C370.382 374.911 368.747 375.432 366.015 375.663C363.222 375.901 363.268 375.502 360.336 375.663L353.284 376.645C353.284 376.645 365.823 369.393 381.302 365.479C396.781 361.558 402.46 351.174 402.068 343.922C401.677 336.67 389.721 329.226 387.764 318.843C385.807 308.46 385.807 305.13 385.807 305.13C376.913 308.345 363.222 312.098 346.231 312.182C325.611 312.282 309.434 306.925 299.987 302.973C298.022 307.685 295.091 314.807 294.891 323.739C294.684 333.079 296.257 340.07 293.717 352.349C292.681 357.337 291.676 359.532 289.995 361.358C286.941 364.689 283.979 364.297 273.734 367.037C266.167 369.063 266.911 369.508 255.515 372.716C251.01 373.99 247.181 374.964 244.349 375.655C245.639 370.513 247.542 368.464 249.054 367.428C252.192 365.272 243.766 370.368 236.905 370.368H230.045C230.045 370.368 234.358 367.628 237.489 365.863C240.627 364.098 246.107 362.333 246.107 362.333L230.037 362.724C230.037 362.724 254.525 357.628 258.447 351.359C262.368 345.089 270.986 334.506 263.542 311.584C256.098 288.661 236.115 266.713 236.115 266.713C236.115 266.713 206.332 221.451 199.079 218.711C191.827 215.971 160.479 219.885 145 209.893C129.498 199.909 129.498 175.421 132.437 166.212C135.376 157.003 136.75 156.412 136.75 156.412Z" fill="#181818"/>
<path d="M204.669 155.356C212.816 155.356 219.42 154.597 219.42 153.66C219.42 152.724 212.816 151.965 204.669 151.965C196.521 151.965 189.917 152.724 189.917 153.66C189.917 154.597 196.521 155.356 204.669 155.356Z" fill="white"/>
<path d="M210.147 159.565C211.944 159.565 213.401 158.109 213.401 156.311C213.401 154.514 211.944 153.057 210.147 153.057C208.349 153.057 206.893 154.514 206.893 156.311C206.893 158.109 208.349 159.565 210.147 159.565Z" fill="white"/>
<path d="M203.814 116.033C204.328 115.465 204.958 115.05 205.733 114.859C210.16 113.754 214.925 120.391 216.06 124.788C217.227 129.338 217.81 136.681 217.81 136.681L205.832 139.827C205.832 139.827 201.159 130.734 201.451 124.788C201.581 122.079 201.965 118.066 203.822 116.025L203.814 116.033Z" fill="#181818"/>
<path d="M250.44 122.53C251.177 122.867 251.844 123.427 252.381 124.256C255.474 129.044 252.013 138.091 248.744 141.643C245.361 145.311 239.268 149.669 239.268 149.669L230.766 136.779C230.766 136.779 236.406 126.627 241.701 124.018C244.118 122.829 247.778 121.302 250.44 122.53Z" fill="#181818"/>
<path d="M206.406 135.856C205.432 134.422 204.137 132.015 203.799 128.787C203.646 127.315 203.493 125.874 204.167 124.494C205.294 122.178 208.208 121.105 210.408 122.155C212.271 123.045 213.49 125.667 213.804 127.944C213.896 128.603 213.904 129.301 213.927 129.968C214.004 131.953 213.996 133.939 213.996 133.939C213.996 133.939 211.88 134.552 210.339 134.951C209.388 135.196 208.054 135.526 206.406 135.848V135.856Z" fill="white"/>
<path d="M234.105 137.819C234.802 135.895 236.152 133.004 238.728 130.536C239.901 129.409 241.051 128.312 242.592 128.075C245.175 127.684 247.667 129.907 247.966 132.813C248.211 135.274 246.64 138.225 244.869 140.042C244.355 140.571 243.765 141.039 243.205 141.506C241.549 142.894 239.855 144.197 239.855 144.197C239.855 144.197 238.26 142.495 237.294 141.437C236.52 140.586 235.423 139.367 234.112 137.819H234.105Z" fill="white"/>
<path d="M147.641 169.193C148.25 168.988 148.218 167.262 147.57 165.338C146.922 163.414 145.903 162.021 145.293 162.226C144.684 162.432 144.716 164.158 145.364 166.081C146.012 168.005 147.031 169.398 147.641 169.193Z" fill="white"/>
<path d="M154.259 166.37C155.389 164.683 155.873 163.026 155.339 162.668C154.805 162.31 153.455 163.387 152.325 165.074C151.195 166.76 150.712 168.417 151.246 168.775C151.78 169.133 153.129 168.056 154.259 166.37Z" fill="white"/>
<path d="M145.651 196.636C146.417 194.719 146.49 192.947 145.814 192.677C145.139 192.408 143.971 193.742 143.205 195.659C142.44 197.575 142.367 199.348 143.043 199.617C143.718 199.887 144.886 198.552 145.651 196.636Z" fill="white"/>
<path d="M151.136 196.771C149.845 195.091 149.295 193.433 149.906 193.082C150.518 192.731 152.061 193.8 153.352 195.481C154.642 197.161 155.192 198.819 154.581 199.17C153.97 199.521 152.427 198.452 151.136 196.771Z" fill="white"/>
<path d="M147.307 192.628C147.981 192.628 148.527 187.921 148.527 182.115C148.527 176.308 147.981 171.602 147.307 171.602C146.633 171.602 146.087 176.308 146.087 182.115C146.087 187.921 146.633 192.628 147.307 192.628Z" fill="white"/>
<path d="M275.663 265.792C275.663 265.792 277.495 266.344 280.041 272.14C282.586 277.935 283.322 281.776 283.322 281.776" fill="white"/>
<path d="M251.107 233.394C251.107 233.394 250.432 235.188 253.506 240.716C256.581 246.243 259.195 249.164 259.195 249.164" fill="white"/>
<path d="M248.76 259.045C248.76 259.045 248.3 260.9 251.995 266.045C255.691 271.189 258.619 273.78 258.619 273.78" fill="white"/>
<path d="M270.507 243.269C270.507 243.269 272.34 243.821 274.885 249.617C277.43 255.413 278.166 259.254 278.166 259.254" fill="white"/>
<path d="M267.43 268.69C267.43 268.69 269.101 269.617 270.343 275.827C271.585 282.037 271.485 285.947 271.485 285.947" fill="white"/>
<path d="M268.474 292.682C268.474 292.682 270.145 293.609 271.387 299.819C272.629 306.029 272.529 309.939 272.529 309.939" fill="white"/>
</g>
<path opacity="0.15" d="M151.255 237.325C138.171 237.325 126.622 234.983 116.608 230.299C106.594 225.615 98.7597 218.912 93.1064 210.19C87.4531 201.467 84.6265 190.969 84.6265 178.693V171.909H116.123V178.693C116.123 188.869 119.273 196.541 125.572 201.71C131.872 206.717 140.433 209.221 151.255 209.221C162.238 209.221 170.395 207.04 175.725 202.679C181.217 198.318 183.963 192.745 183.963 185.961C183.963 181.277 182.671 177.481 180.086 174.574C177.502 171.667 173.706 169.324 168.699 167.548C163.692 165.609 157.554 163.833 150.285 162.217L144.713 161.006C133.083 158.422 123.069 155.191 114.67 151.315C106.432 147.277 100.052 142.027 95.5292 135.566C91.1681 129.105 88.9876 120.706 88.9876 110.369C88.9876 100.031 91.4104 91.2283 96.2561 83.9598C101.263 76.5297 108.209 70.8764 117.093 66.9999C126.138 62.9618 136.718 60.9428 148.832 60.9428C160.946 60.9428 171.687 63.0426 181.055 67.2422C190.585 71.2802 198.015 77.4181 203.346 85.6558C208.837 93.7319 211.583 103.908 211.583 116.184V123.452H180.086V116.184C180.086 109.723 178.794 104.554 176.21 100.677C173.787 96.6393 170.233 93.7319 165.549 91.9551C160.865 90.0169 155.293 89.0477 148.832 89.0477C139.14 89.0477 131.953 90.9052 127.268 94.6203C122.746 98.1738 120.484 103.1 120.484 109.4C120.484 113.599 121.534 117.153 123.634 120.06C125.895 122.967 129.207 125.39 133.568 127.329C137.929 129.267 143.501 130.963 150.285 132.417L155.858 133.628C167.972 136.212 178.471 139.524 187.355 143.562C196.239 147.6 203.103 152.93 207.949 159.552C212.956 166.175 215.46 174.655 215.46 184.992C215.46 195.33 212.795 204.456 207.464 212.37C202.296 220.123 194.866 226.261 185.174 230.784C175.644 235.145 164.338 237.325 151.255 237.325ZM136.475 262.038V36.2298H165.549V262.038H136.475Z" fill="#050203"/>
</g>
<defs>
<clipPath id="clip0_682_1384">
<rect width="364.66" height="270.921" fill="white" transform="translate(130.924 114.733)"/>
</clipPath>
</defs>
</svg>
