<svg width="101" height="31" viewBox="0 0 101 31" fill="none" xmlns="http://www.w3.org/2000/svg">
<path d="M5.10009 0H0.881971C0.396248 0 0 0.396248 0 0.885167V4.46738C0 4.95629 0.396248 5.35254 0.881971 5.35254H5.0969C5.58582 5.35254 5.97887 4.95629 5.97887 4.46738V0.885167C5.97887 0.396248 5.58262 0 5.0969 0H5.10009Z" fill="#391881"/>
<path d="M30.7795 0H27.1526C26.6573 0 26.2706 0.402639 26.2706 0.885167V15.3898C26.2706 15.6837 25.8839 15.7924 25.7433 15.5304L17.3135 0.386661C17.1729 0.137409 16.9268 0 16.6328 0H10.6028C10.1075 0 9.72086 0.402639 9.72086 0.885167V24.0625C9.72086 24.5578 10.1235 24.9476 10.6028 24.9476H14.2298C14.7251 24.9476 15.1117 24.545 15.1117 24.0625V9.12329C15.1117 8.8293 15.4984 8.72065 15.639 8.98268L24.3021 24.5738C24.4427 24.823 24.6888 24.9604 24.9828 24.9604H30.7476C31.2429 24.9604 31.6295 24.5578 31.6295 24.0753V0.885167C31.6295 0.389857 31.2269 0 30.7476 0H30.7795Z" fill="#391881"/>
<path d="M52.5859 15.901C52.5859 9.36933 48.3391 6.12585 43.6736 6.12585C37.6148 6.12585 34.1572 10.3312 34.1572 16.0097C34.1572 22.4647 38.4968 25.5356 43.533 25.5356C48.5691 25.5356 51.5154 22.928 52.3047 19.5472C52.4134 19.1126 52.1641 18.7259 51.5154 18.7259H48.665C48.3391 18.7259 48.0611 18.8953 47.9205 19.2212C47.2078 20.787 46.0606 21.6115 43.8589 21.6115C41.3632 21.6115 39.6887 20.0457 39.4427 16.8629H51.7008C52.228 16.8629 52.5828 16.4762 52.5828 15.901H52.5859ZM39.644 13.4341C40.1712 11.0917 41.5357 10.0532 43.5969 10.0532C45.4407 10.0532 47.0225 11.1237 47.2398 13.4341H39.6472H39.644Z" fill="#391881"/>
<path d="M99.1898 6.59241H95.5469C95.058 6.59241 94.6649 6.98866 94.6649 7.47757V24.0784C94.6649 24.5674 95.0612 24.9636 95.5469 24.9636H99.1898C99.6787 24.9636 100.072 24.5674 100.072 24.0784V7.47757C100.072 6.98866 99.6755 6.59241 99.1898 6.59241Z" fill="#391881"/>
<path d="M72.1459 6.59242H68.5189C68.0236 6.59242 67.637 6.99506 67.637 7.47759V8.37874C66.5505 7.10691 64.7706 6.22174 62.4282 6.22174C57.1907 6.22174 54.417 10.9703 54.417 15.9969C54.417 20.3876 56.6954 25.3055 62.3196 25.3055C64.336 25.3055 66.4738 24.3437 67.637 22.9792V30.1148C67.637 30.6102 68.0396 31 68.5189 31H72.1459C72.6412 31 73.0279 30.5974 73.0279 30.1148V7.49357C73.0279 6.99826 72.6252 6.6084 72.1459 6.6084V6.59242ZM63.8854 21.3942C61.4983 21.3942 59.8239 19.6398 59.8239 15.8723C59.8239 12.1047 61.4983 10.1331 63.8854 10.1331C66.2725 10.1331 67.9469 11.9482 67.9469 15.8723C67.9469 19.7964 66.2725 21.3942 63.8854 21.3942Z" fill="#391881"/>
<path d="M91.4566 6.59241H87.8296C87.3343 6.59241 86.9477 6.99505 86.9477 7.47757V16.8629C86.9477 19.8891 85.5991 20.7711 83.8799 20.7711C82.1607 20.7711 80.8122 19.8859 80.8122 16.8629V7.47757C80.8122 6.98226 80.4096 6.59241 79.9302 6.59241H76.3033C75.808 6.59241 75.4213 6.99505 75.4213 7.47757V17.2528C75.4213 23.0718 78.6297 25.4142 83.8991 25.4142C89.1686 25.4142 92.3769 23.0559 92.3769 17.2528V7.47757C92.3769 6.98226 91.9743 6.59241 91.4949 6.59241H91.463H91.4566Z" fill="#391881"/>
</svg>
