<svg width="315" height="314" viewBox="0 0 315 314" fill="none" xmlns="http://www.w3.org/2000/svg">
<circle cx="157.067" cy="157" r="147.942" stroke="#F9F9F9" stroke-width="18.1163" stroke-dasharray="16.1 16.1"/>
<mask id="mask0_682_1345" style="mask-type:alpha" maskUnits="userSpaceOnUse" x="0" y="0" width="315" height="314">
<circle cx="157.067" cy="157" r="149.955" fill="#D9D9D9" stroke="#F9F9F9" stroke-width="14.0904"/>
</mask>
<g mask="url(#mask0_682_1345)">
<g clip-path="url(#clip0_682_1345)">
<path d="M136.731 156.412C136.731 156.412 138.297 147.794 152.41 145.046C166.522 142.299 188.463 137.211 196.298 135.247C198.539 134.686 201.424 133.904 204.655 133.182C212.721 131.394 222.95 130.043 230.778 133.673C241.752 138.769 271.535 169.335 297.006 166.196C322.476 163.058 336.981 157.187 369.895 155.614C402.809 154.048 438.863 159.144 458.063 174.814C476.366 189.756 493.948 213.991 495.482 238.349C497.04 263.167 476.52 282.506 467.08 303.74C462.376 314.323 462.376 321.375 465.515 325.688C467.165 327.96 467.948 330.147 468.162 332.204C468.646 336.831 466.459 340.323 462.775 346.063C448.87 367.743 448.072 369.999 447.496 372.125C446.483 375.854 446.529 377.773 444.557 379.768C440.658 383.705 434.066 382.707 427.121 381.924C420.345 381.165 410.568 380.313 398.105 380.106C400.783 378.425 404.851 375.777 409.747 372.217C411.903 370.651 412.287 370.106 412.886 369.784C413.131 369.653 413.338 369.6 413.4 369.577C414.766 369.124 424.796 364.888 426.139 364.289C431.756 361.757 441.533 352.195 440.443 340.975C439.76 333.938 435.072 329.05 432.608 326.87C432.608 326.87 428.295 328.044 428.295 330.792C428.295 334.291 433.775 336.163 434.956 341.374C435.701 344.659 434.097 347.429 431.035 352.54C429.508 355.088 426.008 360.437 417.36 368.003C411.942 372.738 409.071 375.256 404.39 377.811L380.485 385.646C379.58 384.664 379.373 383.751 379.311 383.298C379.02 381.103 380.723 378.671 383.624 377.42C380.946 378.502 378.076 379.561 375.006 380.558C371 381.855 367.194 382.884 363.641 383.697C364.07 382.139 364.891 380.136 366.58 378.41C368.475 376.46 370.655 375.693 370.501 375.271C370.363 374.91 368.728 375.432 365.996 375.662C363.203 375.9 363.249 375.501 360.318 375.662L353.265 376.645C353.265 376.645 365.805 369.393 381.283 365.479C396.762 361.557 402.441 351.174 402.05 343.922C401.658 336.67 389.702 329.226 387.745 318.843C385.788 308.46 385.788 305.129 385.788 305.129C376.894 308.345 363.203 312.097 346.213 312.182C325.592 312.281 309.415 306.925 299.968 302.973C298.004 307.685 295.072 314.806 294.872 323.739C294.665 333.078 296.238 340.07 293.698 352.348C292.662 357.336 291.657 359.531 289.976 361.358C286.922 364.688 283.96 364.297 273.715 367.037C266.148 369.063 266.893 369.508 255.496 372.715C250.992 373.989 247.162 374.964 244.331 375.655C245.62 370.513 247.523 368.464 249.035 367.428C252.173 365.272 243.747 370.367 236.887 370.367H230.026C230.026 370.367 234.339 367.627 237.47 365.862C240.609 364.097 246.088 362.332 246.088 362.332L230.018 362.724C230.018 362.724 254.506 357.628 258.428 351.358C262.349 345.088 270.967 334.506 263.524 311.583C256.08 288.66 236.096 266.712 236.096 266.712C236.096 266.712 206.313 221.45 199.061 218.711C191.809 215.971 160.46 219.885 144.981 209.893C129.479 199.909 129.479 175.421 132.418 166.212C135.358 157.003 136.731 156.412 136.731 156.412Z" fill="#F9F9F9"/>
<path d="M204.65 155.355C212.797 155.355 219.402 154.596 219.402 153.66C219.402 152.723 212.797 151.964 204.65 151.964C196.503 151.964 189.898 152.723 189.898 153.66C189.898 154.596 196.503 155.355 204.65 155.355Z" fill="#050203"/>
<path d="M210.128 159.565C211.925 159.565 213.382 158.108 213.382 156.311C213.382 154.514 211.925 153.057 210.128 153.057C208.331 153.057 206.874 154.514 206.874 156.311C206.874 158.108 208.331 159.565 210.128 159.565Z" fill="#050203"/>
<path d="M203.796 116.032C204.31 115.464 204.939 115.05 205.714 114.858C210.141 113.753 214.906 120.391 216.042 124.787C217.208 129.337 217.791 136.68 217.791 136.68L205.814 139.826C205.814 139.826 201.141 130.734 201.432 124.787C201.563 122.079 201.946 118.066 203.803 116.025L203.796 116.032Z" fill="#F9F9F9"/>
<path d="M250.421 122.529C251.158 122.867 251.825 123.427 252.363 124.256C255.455 129.044 251.994 138.09 248.726 141.643C245.342 145.31 239.249 149.669 239.249 149.669L230.748 136.778C230.748 136.778 236.387 126.627 241.682 124.018C244.099 122.829 247.759 121.302 250.421 122.529Z" fill="#F9F9F9"/>
<path d="M206.387 135.855C205.414 134.421 204.118 132.014 203.781 128.786C203.627 127.314 203.474 125.873 204.149 124.493C205.276 122.178 208.189 121.105 210.389 122.155C212.252 123.044 213.471 125.666 213.785 127.943C213.877 128.602 213.885 129.3 213.908 129.967C213.985 131.953 213.977 133.938 213.977 133.938C213.977 133.938 211.861 134.552 210.32 134.95C209.37 135.196 208.036 135.525 206.387 135.847V135.855Z" fill="#050203"/>
<path d="M234.086 137.818C234.783 135.894 236.133 133.004 238.709 130.535C239.882 129.408 241.032 128.312 242.573 128.074C245.156 127.683 247.648 129.907 247.947 132.812C248.192 135.273 246.621 138.225 244.85 140.042C244.336 140.571 243.746 141.038 243.186 141.506C241.53 142.894 239.836 144.197 239.836 144.197C239.836 144.197 238.241 142.495 237.275 141.437C236.501 140.586 235.404 139.367 234.093 137.818H234.086Z" fill="#050203"/>
<path d="M147.622 169.193C148.231 168.987 148.199 167.261 147.551 165.338C146.903 163.414 145.884 162.021 145.274 162.226C144.665 162.431 144.697 164.157 145.345 166.081C145.993 168.005 147.012 169.398 147.622 169.193Z" fill="#050203"/>
<path d="M154.24 166.369C155.37 164.683 155.854 163.026 155.32 162.668C154.786 162.31 153.437 163.387 152.306 165.073C151.176 166.759 150.693 168.417 151.227 168.774C151.761 169.132 153.11 168.055 154.24 166.369Z" fill="#050203"/>
<path d="M145.633 196.635C146.398 194.719 146.471 192.947 145.795 192.677C145.12 192.407 143.952 193.742 143.186 195.659C142.421 197.575 142.348 199.347 143.024 199.617C143.699 199.887 144.867 198.552 145.633 196.635Z" fill="#050203"/>
<path d="M151.117 196.771C149.826 195.091 149.276 193.433 149.888 193.082C150.499 192.73 152.042 193.8 153.333 195.48C154.624 197.161 155.174 198.818 154.562 199.17C153.951 199.521 152.408 198.452 151.117 196.771Z" fill="#050203"/>
<path d="M147.288 192.627C147.962 192.627 148.508 187.92 148.508 182.114C148.508 176.308 147.962 171.601 147.288 171.601C146.614 171.601 146.068 176.308 146.068 182.114C146.068 187.92 146.614 192.627 147.288 192.627Z" fill="#050203"/>
<path d="M275.644 265.791C275.644 265.791 277.476 266.343 280.022 272.139C282.567 277.935 283.303 281.776 283.303 281.776" fill="#050203"/>
<path d="M251.088 233.393C251.088 233.393 250.413 235.187 253.487 240.715C256.562 246.243 259.176 249.164 259.176 249.164" fill="#050203"/>
<path d="M248.741 259.045C248.741 259.045 248.281 260.9 251.976 266.044C255.672 271.188 258.6 273.78 258.6 273.78" fill="#050203"/>
<path d="M270.489 243.269C270.489 243.269 272.321 243.821 274.866 249.616C277.411 255.412 278.147 259.253 278.147 259.253" fill="#050203"/>
<path d="M267.411 268.689C267.411 268.689 269.082 269.617 270.324 275.827C271.566 282.037 271.466 285.947 271.466 285.947" fill="#050203"/>
<path d="M268.455 292.681C268.455 292.681 270.126 293.609 271.368 299.819C272.61 306.029 272.511 309.939 272.511 309.939" fill="#050203"/>
</g>
<path opacity="0.15" d="M151.236 237.325C138.152 237.325 126.603 234.983 116.589 230.299C106.575 225.614 98.7408 218.911 93.0875 210.189C87.4342 201.467 84.6075 190.968 84.6075 178.692V171.908H116.104V178.692C116.104 188.868 119.254 196.54 125.554 201.709C131.853 206.716 140.414 209.22 151.236 209.22C162.219 209.22 170.376 207.039 175.706 202.678C181.198 198.317 183.944 192.745 183.944 185.961C183.944 181.277 182.652 177.481 180.067 174.573C177.483 171.666 173.687 169.324 168.68 167.547C163.673 165.609 157.535 163.832 150.266 162.217L144.694 161.005C133.064 158.421 123.05 155.191 114.651 151.314C106.413 147.276 100.033 142.027 95.5103 135.566C91.1492 129.105 88.9687 120.706 88.9687 110.368C88.9687 100.031 91.3915 91.2277 96.2372 83.9591C101.244 76.5291 108.19 70.8758 117.074 66.9993C126.119 62.9612 136.699 60.9422 148.813 60.9422C160.927 60.9422 171.668 63.0419 181.037 67.2415C190.566 71.2796 197.996 77.4175 203.327 85.6551C208.818 93.7312 211.564 103.907 211.564 116.183V123.451H180.067V116.183C180.067 109.722 178.775 104.553 176.191 100.677C173.768 96.6387 170.215 93.7312 165.53 91.9545C160.846 90.0162 155.274 89.0471 148.813 89.0471C139.121 89.0471 131.934 90.9046 127.25 94.6196C122.727 98.1731 120.466 103.1 120.466 109.399C120.466 113.599 121.515 117.152 123.615 120.059C125.877 122.967 129.188 125.39 133.549 127.328C137.91 129.266 143.483 130.962 150.266 132.416L155.839 133.627C167.953 136.212 178.452 139.523 187.336 143.561C196.22 147.599 203.084 152.929 207.93 159.552C212.937 166.174 215.441 174.654 215.441 184.992C215.441 195.329 212.776 204.455 207.446 212.37C202.277 220.123 194.847 226.261 185.155 230.783C175.626 235.144 164.319 237.325 151.236 237.325ZM136.456 262.038V36.2292H165.53V262.038H136.456Z" fill="white"/>
</g>
<defs>
<clipPath id="clip0_682_1345">
<rect width="364.66" height="270.921" fill="white" transform="translate(130.906 114.733)"/>
</clipPath>
</defs>
</svg>
