<svg width="48" height="51" viewBox="0 0 48 51" fill="none" xmlns="http://www.w3.org/2000/svg">
<path fill-rule="evenodd" clip-rule="evenodd" d="M29.8365 37.3373C30.1275 38.1516 30.9779 38.5583 31.736 38.2457L43.3834 33.4435C43.7475 33.2934 44.0411 32.9941 44.1997 32.6115C44.3583 32.2289 44.3689 31.7942 44.2291 31.4032L39.7581 18.8931C39.4671 18.0788 38.6167 17.6721 37.8586 17.9847C37.1005 18.2973 36.7218 19.2107 37.0128 20.025L40.2117 28.9758L38.0817 27.9572C33.2724 25.6573 29.6093 21.7391 27.3969 17.0636C27.1835 16.6127 26.782 16.2988 26.3169 16.2194C25.8518 16.1401 25.3795 16.3048 25.0465 16.6624L17.6438 24.6135L5.45061 11.5171C4.87642 10.9004 3.94547 10.9004 3.37127 11.5171C2.79708 12.1339 2.79708 13.1338 3.37127 13.7505L16.6041 27.9635C16.8798 28.2597 17.2538 28.4261 17.6438 28.4261C18.0337 28.4261 18.4077 28.2597 18.6834 27.9635L25.7527 20.3706C28.3024 24.8369 32.0941 28.5512 36.8857 30.8425L39.0157 31.8611L30.6822 35.297C29.9241 35.6096 29.5455 36.5231 29.8365 37.3373Z" fill="#21147A"/>
</svg>
