<svg width="370" height="275" viewBox="0 0 370 275" fill="none" xmlns="http://www.w3.org/2000/svg">
<g clip-path="url(#clip0_157_3916)">
<path d="M5.9095 42.2851C5.9095 42.2851 7.49782 33.5416 21.8161 30.7542C36.1343 27.9669 58.3942 22.8048 66.3436 20.8117C68.617 20.2433 71.5445 19.4491 74.8224 18.7173C83.0053 16.9031 93.3839 15.5328 101.326 19.2156C112.459 24.3854 142.676 55.3966 168.518 52.2121C194.359 49.0277 209.074 43.0715 242.468 41.4754C275.862 39.8871 312.44 45.0569 331.92 60.9557C350.489 76.1148 368.327 100.703 369.884 125.415C371.465 150.595 350.645 170.215 341.069 191.759C336.296 202.495 336.296 209.651 339.48 214.026C341.154 216.331 341.948 218.55 342.166 220.636C342.657 225.331 340.438 228.874 336.701 234.698C322.593 256.693 321.783 258.982 321.199 261.139C320.171 264.923 320.218 266.869 318.217 268.893C314.262 272.888 307.574 271.875 300.527 271.081C293.653 270.31 283.733 269.446 271.089 269.236C273.806 267.531 277.933 264.845 282.9 261.232C285.088 259.644 285.477 259.091 286.085 258.764C286.334 258.632 286.544 258.577 286.606 258.554C287.992 258.094 298.168 253.797 299.531 253.189C305.23 250.62 315.149 240.919 314.044 229.536C313.351 222.396 308.594 217.436 306.094 215.225C306.094 215.225 301.719 216.416 301.719 219.204C301.719 222.754 307.278 224.654 308.477 229.941C309.232 233.273 307.605 236.084 304.498 241.269C302.949 243.854 299.398 249.281 290.624 256.958C285.127 261.761 282.215 264.315 277.466 266.908L253.213 274.857C252.294 273.861 252.084 272.934 252.021 272.475C251.726 270.248 253.454 267.78 256.397 266.511C253.68 267.609 250.768 268.683 247.653 269.695C243.589 271.011 239.727 272.054 236.123 272.88C236.559 271.299 237.392 269.267 239.105 267.515C241.028 265.538 243.239 264.759 243.083 264.331C242.943 263.965 241.285 264.494 238.513 264.728C235.679 264.969 235.726 264.564 232.751 264.728L225.596 265.725C225.596 265.725 238.318 258.367 254.022 254.396C269.726 250.417 275.488 239.883 275.091 232.525C274.694 225.168 262.563 217.616 260.578 207.081C258.593 196.547 258.593 193.168 258.593 193.168C249.569 196.43 235.679 200.237 218.441 200.323C197.52 200.424 181.108 194.99 171.523 190.98C169.53 195.761 166.556 202.986 166.353 212.049C166.143 221.524 167.739 228.617 165.162 241.074C164.111 246.135 163.091 248.362 161.386 250.215C158.287 253.594 155.282 253.197 144.888 255.977C137.211 258.032 137.966 258.484 126.404 261.738C121.834 263.031 117.948 264.019 115.075 264.72C116.383 259.504 118.314 257.425 119.848 256.374C123.033 254.186 114.484 259.356 107.523 259.356H100.563C100.563 259.356 104.938 256.576 108.115 254.785C111.299 252.995 116.858 251.204 116.858 251.204L100.555 251.601C100.555 251.601 125.4 246.431 129.378 240.07C133.357 233.709 142.1 222.972 134.548 199.716C126.996 176.459 106.721 154.192 106.721 154.192C106.721 154.192 76.5041 108.271 69.1465 105.491C61.7888 102.711 29.9835 106.682 14.2793 96.545C-1.44817 86.4155 -1.44817 61.5708 1.53383 52.2277C4.51582 42.8846 5.9095 42.2851 5.9095 42.2851Z" fill="#F9F9F9"/>
<path d="M74.8224 41.2185C83.0913 41.2185 89.7946 40.4481 89.7946 39.4978C89.7946 38.5475 83.0913 37.7771 74.8224 37.7771C66.5534 37.7771 59.8501 38.5475 59.8501 39.4978C59.8501 40.4481 66.5534 41.2185 74.8224 41.2185Z" fill="#050203"/>
<path d="M80.3893 45.5163C82.2211 45.5163 83.7061 44.0313 83.7061 42.1995C83.7061 40.3677 82.2211 38.8827 80.3893 38.8827C78.5575 38.8827 77.0725 40.3677 77.0725 42.1995C77.0725 44.0313 78.5575 45.5163 80.3893 45.5163Z" fill="#050203"/>
<path d="M73.9503 1.31582C74.472 0.739662 75.1104 0.319224 75.8968 0.124577C80.3893 -0.996591 85.2243 5.7382 86.3766 10.1995C87.5601 14.8165 88.1518 22.2676 88.1518 22.2676L75.998 25.4599C75.998 25.4599 71.2564 16.2336 71.5523 10.1995C71.6847 7.4511 72.0739 3.37908 73.9581 1.30803L73.9503 1.31582Z" fill="#F9F9F9"/>
<path d="M121.257 7.91048C122.005 8.25306 122.682 8.82143 123.227 9.66231C126.365 14.5207 122.854 23.7003 119.537 27.3051C116.103 31.0268 109.921 35.4492 109.921 35.4492L101.294 22.3689C101.294 22.3689 107.017 12.0681 112.389 9.42094C114.842 8.21413 118.556 6.66474 121.257 7.91048Z" fill="#F9F9F9"/>
<path d="M76.582 21.4423C75.5932 19.9864 74.2773 17.5416 73.9348 14.2638C73.7791 12.7689 73.6233 11.3051 74.3085 9.90366C75.453 7.55232 78.4117 6.4623 80.6462 7.52896C82.5382 8.43213 83.7761 11.0949 84.0954 13.4073C84.1888 14.0769 84.1966 14.7854 84.2199 15.4628C84.2978 17.4793 84.29 19.4959 84.29 19.4959C84.29 19.4959 82.1411 20.1187 80.5761 20.5236C79.6107 20.7728 78.2559 21.1076 76.582 21.4346V21.4423Z" fill="#050203"/>
<path d="M104.681 23.4355C105.39 21.4813 106.76 18.546 109.376 16.0389C110.567 14.8944 111.735 13.781 113.3 13.5397C115.924 13.1426 118.454 15.4005 118.758 18.3513C119.007 20.8506 117.411 23.8482 115.613 25.6934C115.091 26.2307 114.491 26.7056 113.923 27.1805C112.241 28.5898 110.521 29.9134 110.521 29.9134C110.521 29.9134 108.901 28.1849 107.92 27.1105C107.134 26.2462 106.02 25.0083 104.689 23.4355H104.681Z" fill="#050203"/>
<path d="M16.9675 55.2664C17.5868 55.0577 17.5547 53.3029 16.8957 51.3469C16.2367 49.3909 15.2003 47.9745 14.5809 48.1832C13.9615 48.3919 13.9937 50.1467 14.6527 52.1026C15.3117 54.0586 16.3481 55.4751 16.9675 55.2664Z" fill="#050203"/>
<path d="M23.6846 52.381C24.8337 50.6664 25.325 48.9815 24.7821 48.6176C24.2392 48.2537 22.8675 49.3487 21.7184 51.0632C20.5693 52.7778 20.0779 54.4627 20.6208 54.8266C21.1638 55.1905 22.5355 54.0955 23.6846 52.381Z" fill="#050203"/>
<path d="M14.9512 83.0886C15.7295 81.1398 15.8036 79.3377 15.1167 79.0634C14.4298 78.7891 13.2421 80.1465 12.4639 82.0952C11.6856 84.044 11.6115 85.8461 12.2984 86.1205C12.9852 86.3948 14.1729 85.0374 14.9512 83.0886Z" fill="#050203"/>
<path d="M20.5158 83.2545C19.2 81.5416 18.6394 79.8521 19.2623 79.4939C19.8852 79.1358 21.4579 80.2258 22.7737 81.9387C24.0895 83.6516 24.6501 85.3411 24.0272 85.6993C23.4044 86.0574 21.8316 84.9674 20.5158 83.2545Z" fill="#050203"/>
<path d="M16.6229 79.0268C17.3066 79.0268 17.8608 74.2511 17.8608 68.3601C17.8608 62.4691 17.3066 57.6934 16.6229 57.6934C15.9392 57.6934 15.3849 62.4691 15.3849 68.3601C15.3849 74.2511 15.9392 79.0268 16.6229 79.0268Z" fill="#050203"/>
<path d="M227.363 68.0019C229.232 67.1143 232.837 65.7129 237.555 65.7285C242.211 65.7362 245.769 67.1221 247.638 68.0019" fill="#050203"/>
<path d="M237.493 58.4798C239.362 57.5922 242.966 56.1907 247.685 56.2063C252.341 56.2141 255.899 57.6 257.767 58.4798" fill="#050203"/>
<path d="M255.221 67.418C256.926 67.3401 260.158 67.3479 264.152 68.3445C268.099 69.3255 270.933 70.7971 272.397 71.6535" fill="#050203"/>
<path d="M268.442 61.4929C270.147 61.4151 273.378 61.4229 277.372 62.4194C281.32 63.4005 284.154 64.872 285.617 65.7284" fill="#050203"/>
<path d="M288.841 67.418C290.546 67.3401 293.777 67.3479 297.771 68.3445C301.719 69.3255 304.553 70.7971 306.016 71.6535" fill="#050203"/>
<path d="M302.887 59.1027C304.584 59.2662 307.784 59.7411 311.599 61.2905C315.367 62.8243 317.96 64.6851 319.291 65.744" fill="#050203"/>
<path d="M320.304 73.3041C322.001 73.4676 325.201 73.9425 329.016 75.4919C332.784 77.0257 335.377 78.8866 336.708 79.9454" fill="#050203"/>
<path d="M314.791 82.2112C316.489 82.3747 319.689 82.8496 323.504 84.399C327.272 85.9328 329.865 87.7937 331.196 88.8525" fill="#050203"/>
<path d="M304.584 86.47C306.219 86.9605 309.263 88.035 312.712 90.2929C316.115 92.5197 318.303 94.8477 319.408 96.1401" fill="#050203"/>
<path d="M352.965 117.606C354.149 118.828 356.282 121.265 358.182 124.917C360.058 128.522 360.829 131.628 361.156 133.294" fill="#050203"/>
<path d="M345.405 93.1737C346.589 94.3961 348.722 96.8331 350.622 100.485C352.498 104.09 353.269 107.196 353.596 108.862" fill="#050203"/>
<path d="M333.586 120.557C334.77 121.779 336.903 124.216 338.803 127.868C340.679 131.472 341.45 134.579 341.777 136.245" fill="#050203"/>
<path d="M278.213 85.528C279.848 86.0185 282.892 87.0929 286.342 89.3508C289.744 91.5776 291.932 93.9056 293.037 95.198" fill="#050203"/>
<path d="M351.494 134.914C352.218 136.455 353.448 139.445 354.063 143.517C354.67 147.543 354.398 150.719 354.164 152.401" fill="#050203"/>
<path d="M146.85 153.257C146.85 153.257 148.71 153.818 151.295 159.704C153.88 165.59 154.628 169.491 154.628 169.491" fill="#050203"/>
<path d="M121.935 120.393C121.935 120.393 121.25 122.215 124.372 127.829C127.494 133.442 130.149 136.409 130.149 136.409" fill="#050203"/>
<path d="M119.552 146.414C119.552 146.414 119.085 148.298 122.838 153.522C126.591 158.746 129.565 161.378 129.565 161.378" fill="#050203"/>
<path d="M141.617 130.406C141.617 130.406 143.478 130.966 146.063 136.852C148.648 142.739 149.396 146.639 149.396 146.639" fill="#050203"/>
<path d="M138.495 156.2C138.495 156.2 140.193 157.143 141.454 163.449C142.715 169.756 142.614 173.726 142.614 173.726" fill="#050203"/>
<path d="M139.554 180.531C139.554 180.531 141.252 181.473 142.513 187.78C143.774 194.087 143.673 198.057 143.673 198.057" fill="#050203"/>
</g>
<defs>
<clipPath id="clip0_157_3916">
<rect width="369.97" height="274.865" fill="white"/>
</clipPath>
</defs>
</svg>
