<svg width="61" height="61" viewBox="0 0 61 61" fill="none" xmlns="http://www.w3.org/2000/svg">
<rect width="60.5844" height="60.5844" rx="12.4675" fill="#A8F25D"/>
<path d="M12.011 12.0107C11.2343 12.0107 10.6047 12.6403 10.6047 13.417C10.6047 14.1936 11.2343 14.8232 12.011 14.8232H14.6091C14.9277 14.8232 15.2064 15.0374 15.2885 15.3452L20.0843 33.3293C17.058 34.1142 14.8235 36.864 14.8235 40.1357C14.8235 40.9124 15.4531 41.542 16.2297 41.542H45.761C46.5376 41.542 47.1672 40.9124 47.1672 40.1357C47.1672 39.3591 46.5376 38.7295 45.761 38.7295H17.876C18.4552 37.0909 20.0178 35.917 21.8547 35.917H42.8889C43.4268 35.917 43.9175 35.6102 44.1531 35.1268C46.2816 30.7589 48.139 26.2345 49.7035 21.5756C49.828 21.2049 49.7925 20.7992 49.6056 20.4557C49.4187 20.1123 49.0973 19.8622 48.7184 19.7654C39.6775 17.4565 30.2053 16.2295 20.4485 16.2295C19.7775 16.2295 19.1079 16.2353 18.4397 16.2469L18.006 14.6205C17.5956 13.0815 16.2019 12.0107 14.6091 12.0107H12.011Z" fill="#181818"/>
<path d="M14.8235 45.7607C14.8235 44.2074 16.0827 42.9482 17.636 42.9482C19.1893 42.9482 20.4485 44.2074 20.4485 45.7607C20.4485 47.314 19.1893 48.5732 17.636 48.5732C16.0827 48.5732 14.8235 47.314 14.8235 45.7607Z" fill="#181818"/>
<path d="M38.7297 45.7607C38.7297 44.2074 39.9889 42.9482 41.5422 42.9482C43.0955 42.9482 44.3547 44.2074 44.3547 45.7607C44.3547 47.314 43.0955 48.5732 41.5422 48.5732C39.9889 48.5732 38.7297 47.314 38.7297 45.7607Z" fill="#181818"/>
</svg>
