<svg width="121" height="69" viewBox="0 0 121 69" fill="none" xmlns="http://www.w3.org/2000/svg">
<rect width="120.744" height="69" rx="5.71035" fill="#A8F25D"/>
<path d="M14.6829 22.2162C14.1875 22.2162 13.7479 22.1419 13.364 21.9933C12.9863 21.8447 12.6891 21.6311 12.4723 21.3524C12.2618 21.0676 12.1565 20.7332 12.1565 20.3493V20.2379C12.1565 19.9406 12.2092 19.6961 12.3144 19.5041C12.4197 19.306 12.5497 19.1512 12.7045 19.0397C12.8655 18.9283 13.0172 18.8509 13.1597 18.8075V18.6403C13.0172 18.5908 12.8748 18.5103 12.7324 18.3988C12.59 18.2874 12.4723 18.1388 12.3795 17.953C12.2928 17.7672 12.2494 17.5443 12.2494 17.2843V17.1728C12.2494 16.8323 12.3485 16.535 12.5466 16.2812C12.751 16.0211 13.0358 15.8199 13.4011 15.6774C13.7665 15.5288 14.1937 15.4545 14.6829 15.4545C15.1721 15.4545 15.5993 15.5288 15.9646 15.6774C16.33 15.8199 16.6117 16.0211 16.8098 16.2812C17.0142 16.535 17.1164 16.8323 17.1164 17.1728V17.2843C17.1164 17.5443 17.0699 17.7672 16.977 17.953C16.8903 18.1388 16.7758 18.2874 16.6334 18.3988C16.4972 18.5103 16.3547 18.5908 16.2061 18.6403V18.8075C16.3547 18.8509 16.5064 18.9283 16.6612 19.0397C16.816 19.1512 16.9461 19.306 17.0513 19.5041C17.1566 19.6961 17.2092 19.9406 17.2092 20.2379V20.3493C17.2092 20.7332 17.1009 21.0676 16.8842 21.3524C16.6736 21.6311 16.3764 21.8447 15.9925 21.9933C15.6148 22.1419 15.1783 22.2162 14.6829 22.2162ZM14.6829 21.1574C15.1101 21.1574 15.4383 21.0769 15.6674 20.9159C15.9027 20.7487 16.0204 20.5289 16.0204 20.2564V20.1821C16.0204 19.9097 15.9058 19.693 15.6767 19.532C15.4538 19.3648 15.1225 19.2812 14.6829 19.2812C14.2495 19.2812 13.9182 19.3648 13.6891 19.532C13.46 19.693 13.3454 19.9097 13.3454 20.1821V20.2564C13.3454 20.5289 13.46 20.7487 13.6891 20.9159C13.9244 21.0769 14.2556 21.1574 14.6829 21.1574ZM14.6829 18.2224C15.0792 18.2224 15.3857 18.1512 15.6024 18.0087C15.8191 17.8663 15.9275 17.6651 15.9275 17.405V17.3307C15.9275 17.0706 15.816 16.8694 15.5931 16.727C15.3702 16.5846 15.0668 16.5134 14.6829 16.5134C14.299 16.5134 13.9956 16.5846 13.7727 16.727C13.5498 16.8694 13.4383 17.0706 13.4383 17.3307V17.405C13.4383 17.6651 13.5467 17.8663 13.7634 18.0087C13.9801 18.1512 14.2866 18.2224 14.6829 18.2224ZM20.3635 22.2162C19.8682 22.2162 19.4378 22.1233 19.0725 21.9376C18.7072 21.7518 18.4254 21.4948 18.2273 21.1667C18.0291 20.8385 17.9301 20.4608 17.9301 20.0335V17.8137C17.9301 17.2874 18.0353 16.8508 18.2459 16.5041C18.4626 16.1511 18.7567 15.888 19.1282 15.7146C19.5059 15.5412 19.9363 15.4545 20.4193 15.4545C20.9022 15.4545 21.3202 15.535 21.6731 15.696C22.0323 15.857 22.3078 16.0892 22.4998 16.3926C22.6979 16.696 22.797 17.0583 22.797 17.4793H21.5896C21.5896 17.2193 21.4998 16.9932 21.3202 16.8013C21.1406 16.6093 20.8403 16.5134 20.4193 16.5134C20.0044 16.5134 19.6824 16.6217 19.4533 16.8384C19.2304 17.0552 19.1189 17.3555 19.1189 17.7394V18.4081H19.2861C19.3914 18.2843 19.5524 18.1666 19.7691 18.0552C19.9858 17.9437 20.3016 17.888 20.7165 17.888C21.0942 17.888 21.4409 17.9685 21.7567 18.1295C22.0787 18.2905 22.3388 18.5258 22.5369 18.8354C22.7351 19.1388 22.8341 19.5072 22.8341 19.9406V20.0521C22.8341 20.4794 22.732 20.8571 22.5276 21.1852C22.3233 21.5072 22.0354 21.7611 21.6639 21.9469C21.2923 22.1264 20.8589 22.2162 20.3635 22.2162ZM20.3821 21.1574C20.7722 21.1574 21.0787 21.0552 21.3016 20.8509C21.5307 20.6465 21.6453 20.3741 21.6453 20.0335V19.9592C21.6453 19.7301 21.5927 19.532 21.4874 19.3648C21.3883 19.1976 21.2428 19.0676 21.0508 18.9747C20.8651 18.8818 20.6422 18.8354 20.3821 18.8354C20.1282 18.8354 19.9053 18.8818 19.7134 18.9747C19.5214 19.0676 19.3728 19.1976 19.2675 19.3648C19.1685 19.532 19.1189 19.7301 19.1189 19.9592V20.0335C19.1189 20.3741 19.2304 20.6465 19.4533 20.8509C19.6824 21.0552 19.992 21.1574 20.3821 21.1574ZM23.9228 23.4515V22.8199H24.285C24.5699 22.8199 24.7123 22.6775 24.7123 22.3927V22.0955H24.5544C24.3067 22.0955 24.0993 22.0212 23.9321 21.8726C23.7711 21.7239 23.6906 21.5351 23.6906 21.306C23.6906 21.0583 23.7711 20.8571 23.9321 20.7023C24.0993 20.5475 24.3067 20.4701 24.5544 20.4701C24.8083 20.4701 25.0157 20.5506 25.1767 20.7116C25.3377 20.8664 25.4182 21.0769 25.4182 21.3431V22.4113C25.4182 23.1048 25.0714 23.4515 24.3779 23.4515H23.9228ZM28.7335 22.2162C28.2258 22.2162 27.7861 22.1264 27.4146 21.9469C27.0493 21.7673 26.7675 21.5134 26.5694 21.1852C26.3712 20.8571 26.2722 20.4763 26.2722 20.0428V19.9499H27.4796V20.0335C27.4796 20.3431 27.5818 20.6094 27.7861 20.8323C27.9966 21.049 28.3062 21.1574 28.7149 21.1574C29.1236 21.1574 29.4363 21.049 29.653 20.8323C29.8759 20.6094 29.9874 20.3215 29.9874 19.9685V19.8756C29.9874 19.5289 29.8759 19.2533 29.653 19.049C29.4363 18.8447 29.1638 18.7425 28.8357 18.7425C28.6561 18.7425 28.5075 18.7673 28.3898 18.8168C28.2722 18.8663 28.1762 18.9283 28.1019 19.0026C28.0276 19.0769 27.9657 19.1512 27.9162 19.2255H26.4765V15.5846H30.9162V16.662H27.6654V18.2502H27.8326C27.8945 18.1697 27.9781 18.0923 28.0833 18.018C28.1886 17.9437 28.3248 17.8818 28.492 17.8323C28.6592 17.7827 28.8573 17.758 29.0864 17.758C29.4703 17.758 29.8202 17.8385 30.136 17.9995C30.4518 18.1604 30.7026 18.3988 30.8883 18.7146C31.0803 19.0242 31.1762 19.4081 31.1762 19.8663V19.9778C31.1762 20.436 31.0772 20.8323 30.879 21.1667C30.6871 21.501 30.4084 21.7611 30.0431 21.9469C29.6778 22.1264 29.2412 22.2162 28.7335 22.2162ZM34.4977 22.2162C33.7299 22.2162 33.1138 22.0057 32.6494 21.5846C32.185 21.1574 31.9528 20.5134 31.9528 19.6527V18.018C31.9528 17.1821 32.185 16.5474 32.6494 16.114C33.1138 15.6743 33.7299 15.4545 34.4977 15.4545C35.2717 15.4545 35.8878 15.6743 36.346 16.114C36.8104 16.5474 37.0427 17.1821 37.0427 18.018V19.6527C37.0427 20.5134 36.8104 21.1574 36.346 21.5846C35.8878 22.0057 35.2717 22.2162 34.4977 22.2162ZM34.4977 21.1574C34.9621 21.1574 35.3027 21.0304 35.5194 20.7766C35.7423 20.5227 35.8538 20.1605 35.8538 19.6899V17.9623C35.8538 17.4855 35.7299 17.1264 35.4823 16.8849C35.2408 16.6372 34.9126 16.5134 34.4977 16.5134C34.0705 16.5134 33.7361 16.6403 33.4946 16.8942C33.2593 17.148 33.1417 17.5041 33.1417 17.9623V19.6899C33.1417 20.179 33.2531 20.5475 33.476 20.7951C33.7052 21.0366 34.0457 21.1574 34.4977 21.1574ZM40.5204 22.2162C39.7526 22.2162 39.1365 22.0057 38.6721 21.5846C38.2077 21.1574 37.9755 20.5134 37.9755 19.6527V18.018C37.9755 17.1821 38.2077 16.5474 38.6721 16.114C39.1365 15.6743 39.7526 15.4545 40.5204 15.4545C41.2944 15.4545 41.9105 15.6743 42.3688 16.114C42.8332 16.5474 43.0654 17.1821 43.0654 18.018V19.6527C43.0654 20.5134 42.8332 21.1574 42.3688 21.5846C41.9105 22.0057 41.2944 22.2162 40.5204 22.2162ZM40.5204 21.1574C40.9848 21.1574 41.3254 21.0304 41.5421 20.7766C41.765 20.5227 41.8765 20.1605 41.8765 19.6899V17.9623C41.8765 17.4855 41.7526 17.1264 41.505 16.8849C41.2635 16.6372 40.9353 16.5134 40.5204 16.5134C40.0932 16.5134 39.7588 16.6403 39.5173 16.8942C39.282 17.148 39.1644 17.5041 39.1644 17.9623V19.6899C39.1644 20.179 39.2758 20.5475 39.4988 20.7951C39.7279 21.0366 40.0684 21.1574 40.5204 21.1574Z" fill="#391881"/>
<g clip-path="url(#clip0_941_4571)" filter="url(#filter0_d_941_4571)">
<g filter="url(#filter1_d_941_4571)">
<path d="M100.608 17.8518C99.9934 17.229 99.3933 16.5905 98.8446 15.9108C98.3266 15.2709 97.7427 14.5628 97.549 13.7522C97.4169 13.1948 97.5284 12.6047 98.0214 12.2506C98.4836 11.9193 99.0823 11.9676 99.6237 11.9932C101.571 12.0899 103.515 12.3544 105.233 13.3086C105.645 13.5375 106.037 13.802 106.399 14.1006C107.273 14.8201 107.54 16.0203 107.183 17.0541C107.033 17.4892 106.715 17.8532 106.715 17.8532C106.715 17.8532 108.232 18.8884 108.606 20.0502C108.98 21.212 109.224 23.9166 106.92 24.8608C103.334 26.3297 98.7463 25.0158 96.4309 23.426C95.5829 22.843 94.4927 22.0765 94.5763 21.1921C94.7157 19.7146 98.0625 18.6325 99.4652 18.1789C99.9259 18.0296 100.319 17.9243 100.608 17.8518Z" fill="#F9F9F9"/>
</g>
</g>
<path d="M12.3133 47.7478V43.7506H13.5011L14.5861 47.3367H14.6774V43.7506H15.2884V47.7478H14.1007L13.0157 44.156H12.9243V47.7478H12.3133ZM17.6182 47.8277C17.3022 47.8277 17.03 47.7706 16.8016 47.6564C16.577 47.5422 16.4019 47.3785 16.2763 47.1653C16.1545 46.9484 16.0935 46.6857 16.0935 46.3773V43.7506H16.716V46.3945C16.716 46.6762 16.794 46.8932 16.9501 47.0454C17.1062 47.1977 17.3289 47.2738 17.6182 47.2738C17.9075 47.2738 18.1302 47.1977 18.2863 47.0454C18.4424 46.8932 18.5204 46.6762 18.5204 46.3945V43.7506H19.1372V46.3773C19.1372 46.6857 19.0762 46.9484 18.9544 47.1653C18.8326 47.3785 18.6575 47.5422 18.4291 47.6564C18.2007 47.7706 17.9304 47.8277 17.6182 47.8277ZM17.2299 43.4194L17.6239 42.6999H18.3206L17.7724 43.4194H17.2299ZM19.942 47.7478V43.7506H21.1012L21.9749 47.3367H22.0663L22.9399 43.7506H24.0991V47.7478H23.4995V44.1845H23.4082L22.5402 47.7478H21.5009L20.633 44.1845H20.5416V47.7478H19.942ZM24.933 47.7478V43.7506H27.4512V44.3102H25.5497V45.458H27.2914V46.0176H25.5497V47.1882H27.4798V47.7478H24.933ZM28.1227 47.7478V43.7506H29.8016C30.049 43.7506 30.266 43.7943 30.4526 43.8819C30.6429 43.9657 30.7895 44.0875 30.8923 44.2474C30.9989 44.4073 31.0521 44.5976 31.0521 44.8184V44.8812C31.0521 45.1325 30.9912 45.3342 30.8694 45.4865C30.7514 45.635 30.6067 45.7397 30.4354 45.8006V45.8919C30.5801 45.8996 30.6962 45.949 30.7838 46.0404C30.8713 46.128 30.9151 46.2555 30.9151 46.423V47.7478H30.2927V46.5087C30.2927 46.4059 30.266 46.324 30.2127 46.2631C30.1594 46.2022 30.0738 46.1717 29.9558 46.1717H28.7395V47.7478H28.1227ZM28.7395 45.6121H29.7331C29.9539 45.6121 30.1252 45.5569 30.247 45.4465C30.3688 45.3323 30.4297 45.1781 30.4297 44.984V44.9383C30.4297 44.7442 30.3688 44.5919 30.247 44.4815C30.129 44.3673 29.9577 44.3102 29.7331 44.3102H28.7395V45.6121ZM33.2326 47.8277C32.7415 47.8277 32.3513 47.6907 32.0619 47.4166C31.7726 47.1387 31.628 46.739 31.628 46.2174V45.2809C31.628 44.7594 31.7726 44.3616 32.0619 44.0875C32.3513 43.8096 32.7415 43.6706 33.2326 43.6706C33.7237 43.6706 34.1139 43.8096 34.4032 44.0875C34.6963 44.3616 34.8429 44.7594 34.8429 45.2809V46.2174C34.8429 46.739 34.6963 47.1387 34.4032 47.4166C34.1139 47.6907 33.7237 47.8277 33.2326 47.8277ZM33.2326 47.2738C33.5485 47.2738 33.7922 47.1825 33.9635 46.9997C34.1348 46.8132 34.2205 46.5601 34.2205 46.2403V45.2581C34.2205 44.9383 34.1348 44.6871 33.9635 44.5043C33.7922 44.3178 33.5485 44.2245 33.2326 44.2245C32.9242 44.2245 32.6825 44.3178 32.5074 44.5043C32.3322 44.6871 32.2447 44.9383 32.2447 45.2581V46.2403C32.2447 46.5601 32.3322 46.8132 32.5074 46.9997C32.6825 47.1825 32.9242 47.2738 33.2326 47.2738Z" fill="#391881"/>
<path d="M12.1534 56.4526V56.1291L13.1337 55.0679C13.3272 54.8617 13.4811 54.6919 13.5953 54.5587C13.7127 54.4255 13.7983 54.3065 13.8523 54.2018C13.9062 54.0971 13.9332 53.9861 13.9332 53.8687C13.9332 53.6752 13.8761 53.5261 13.7619 53.4214C13.6477 53.3167 13.497 53.2644 13.3098 53.2644C13.1194 53.2644 12.9577 53.3199 12.8244 53.4309C12.6912 53.5388 12.5992 53.6926 12.5484 53.8925L12.1249 53.7831C12.1661 53.5927 12.2423 53.4277 12.3533 53.2882C12.4643 53.1486 12.6023 53.0407 12.7673 52.9646C12.9323 52.8884 13.1131 52.8504 13.3098 52.8504C13.5255 52.8504 13.7143 52.8932 13.8761 52.9788C14.041 53.0613 14.1695 53.1771 14.2615 53.3262C14.3567 53.4753 14.4043 53.6482 14.4043 53.8449C14.4043 53.975 14.3773 54.1019 14.3234 54.2256C14.2695 54.3493 14.1901 54.481 14.0854 54.6206C13.9808 54.757 13.8443 54.9156 13.6762 55.0964L12.8006 56.0482H14.4804V56.4526H12.1534ZM16.1442 56.5097C15.957 56.5097 15.7825 56.4764 15.6207 56.4098C15.4589 56.3432 15.3194 56.2496 15.202 56.1291C15.0846 56.0053 14.9974 55.8594 14.9403 55.6913L15.3352 55.5295C15.4018 55.7071 15.5065 55.8451 15.6493 55.9435C15.792 56.0418 15.957 56.091 16.1442 56.091C16.2901 56.091 16.4202 56.0624 16.5344 56.0053C16.6486 55.9482 16.7374 55.8657 16.8009 55.7579C16.8675 55.65 16.9008 55.5199 16.9008 55.3677C16.9008 55.2122 16.8675 55.0822 16.8009 54.9775C16.7374 54.8696 16.6486 54.7871 16.5344 54.73C16.4202 54.6729 16.2885 54.6444 16.1394 54.6444C16.0918 54.6444 16.0395 54.6475 15.9824 54.6539C15.9285 54.6602 15.8825 54.6697 15.8444 54.6824L15.7445 54.4683L16.6914 53.3119H15.1211V52.9075H17.2196V53.2977L16.3155 54.4112L16.2869 54.2875C16.4995 54.2938 16.6867 54.343 16.8485 54.435C17.0103 54.527 17.1372 54.6523 17.2292 54.8109C17.3212 54.9664 17.3672 55.1488 17.3672 55.3582C17.3672 55.5739 17.3148 55.769 17.2101 55.9435C17.1054 56.1179 16.9611 56.2559 16.7771 56.3575C16.5931 56.459 16.3821 56.5097 16.1442 56.5097ZM19.0772 56.5097C18.8932 56.5097 18.7203 56.478 18.5585 56.4146C18.3967 56.3479 18.2555 56.2544 18.135 56.1338C18.0176 56.0101 17.9319 55.8657 17.878 55.7008L18.2587 55.539C18.3253 55.7135 18.4332 55.8499 18.5823 55.9482C18.7345 56.0434 18.8995 56.091 19.0772 56.091C19.2231 56.091 19.3516 56.0593 19.4626 55.9958C19.5768 55.9292 19.6657 55.8388 19.7291 55.7246C19.7925 55.6072 19.8243 55.4771 19.8243 55.3344C19.8243 55.1853 19.791 55.0536 19.7243 54.9394C19.6609 54.8252 19.5737 54.7364 19.4626 54.6729C19.3516 54.6063 19.2247 54.573 19.0819 54.573C18.936 54.573 18.8028 54.6063 18.6822 54.6729C18.5617 54.7395 18.4744 54.8236 18.4205 54.9251L18.0445 54.8442L18.3158 52.9075H20.1526V53.3119H18.4919L18.6727 53.1311L18.4633 54.6348L18.3015 54.5397C18.4062 54.4064 18.5283 54.3113 18.6679 54.2542C18.8107 54.1939 18.9645 54.1637 19.1295 54.1637C19.3611 54.1637 19.5641 54.2161 19.7386 54.3208C19.9131 54.4255 20.0495 54.5651 20.1479 54.7395C20.2462 54.914 20.2954 55.1123 20.2954 55.3344C20.2954 55.5564 20.2414 55.7563 20.1336 55.9339C20.0289 56.1116 19.8845 56.2528 19.7005 56.3575C19.5197 56.459 19.3119 56.5097 19.0772 56.5097ZM21.4289 56.4526V53.3119H20.758V52.9075H21.9V56.4526H21.4289Z" fill="#391881"/>
<circle cx="27.9568" cy="54.2781" r="1.30862" fill="#391881"/>
<circle cx="35.0948" cy="54.2781" r="1.30862" fill="#391881"/>
<circle cx="31.5254" cy="54.2781" r="1.30862" fill="#391881"/>
<circle cx="38.6634" cy="54.2781" r="1.30862" fill="#391881"/>
<circle cx="44.3738" cy="54.2781" r="1.30862" fill="#391881"/>
<circle cx="51.5117" cy="54.2781" r="1.30862" fill="#391881"/>
<circle cx="47.9422" cy="54.2781" r="1.30862" fill="#391881"/>
<circle cx="55.0803" cy="54.2781" r="1.30862" fill="#391881"/>
<circle cx="60.7906" cy="54.2781" r="1.30862" fill="#391881"/>
<circle cx="67.9285" cy="54.2781" r="1.30862" fill="#391881"/>
<circle cx="64.3592" cy="54.2781" r="1.30862" fill="#391881"/>
<circle cx="71.4971" cy="54.2781" r="1.30862" fill="#391881"/>
<defs>
<filter id="filter0_d_941_4571" x="90.3889" y="11.8965" width="19.4105" height="15.5846" filterUnits="userSpaceOnUse" color-interpolation-filters="sRGB">
<feFlood flood-opacity="0" result="BackgroundImageFix"/>
<feColorMatrix in="SourceAlpha" type="matrix" values="0 0 0 0 0 0 0 0 0 0 0 0 0 0 0 0 0 0 127 0" result="hardAlpha"/>
<feOffset dy="0.951724"/>
<feGaussianBlur stdDeviation="0.475862"/>
<feComposite in2="hardAlpha" operator="out"/>
<feColorMatrix type="matrix" values="0 0 0 0 0 0 0 0 0 0 0 0 0 0 0 0 0 0 0.25 0"/>
<feBlend mode="normal" in2="BackgroundImageFix" result="effect1_dropShadow_941_4571"/>
<feBlend mode="normal" in="SourceGraphic" in2="effect1_dropShadow_941_4571" result="shape"/>
</filter>
<filter id="filter1_d_941_4571" x="93.6201" y="11.9749" width="16.1793" height="15.4279" filterUnits="userSpaceOnUse" color-interpolation-filters="sRGB">
<feFlood flood-opacity="0" result="BackgroundImageFix"/>
<feColorMatrix in="SourceAlpha" type="matrix" values="0 0 0 0 0 0 0 0 0 0 0 0 0 0 0 0 0 0 127 0" result="hardAlpha"/>
<feOffset dy="0.951724"/>
<feGaussianBlur stdDeviation="0.475862"/>
<feComposite in2="hardAlpha" operator="out"/>
<feColorMatrix type="matrix" values="0 0 0 0 0 0 0 0 0 0 0 0 0 0 0 0 0 0 0.25 0"/>
<feBlend mode="normal" in2="BackgroundImageFix" result="effect1_dropShadow_941_4571"/>
<feBlend mode="normal" in="SourceGraphic" in2="effect1_dropShadow_941_4571" result="shape"/>
</filter>
<clipPath id="clip0_941_4571">
<rect width="17.507" height="13.681" fill="white" transform="translate(91.3406 11.8965)"/>
</clipPath>
</defs>
</svg>
