<svg width="379" height="266" viewBox="0 0 379 266" fill="none" xmlns="http://www.w3.org/2000/svg">
<rect width="378.607" height="266" rx="16" fill="#2D18BF"/>
<mask id="mask0_527_986" style="mask-type:alpha" maskUnits="userSpaceOnUse" x="0" y="0" width="379" height="266">
<rect width="378.607" height="266" rx="14.1867" fill="#2D18BF"/>
</mask>
<g mask="url(#mask0_527_986)">
<g style="mix-blend-mode:luminosity" opacity="0.32">
<path d="M204.435 267.129C297.954 150.997 318.18 209.773 426.557 75.1889C534.935 -59.3953 654.655 -76.6929 654.655 -76.6929L655.106 -76.3302L202.254 486.024C202.254 486.024 110.916 383.261 204.435 267.129Z" fill="#6C60FF"/>
<path d="M285.839 328.819C366.539 202.123 294.843 154.768 429.301 77.3981C563.759 0.027952 593.224 -126.162 593.224 -126.162L655.106 -76.3303L202.253 486.024L110.833 412.404C110.833 412.404 205.139 455.516 285.839 328.819Z" fill="#FF5B5B"/>
</g>
</g>
<g style="mix-blend-mode:soft-light">
<path d="M320.973 40.7867V72.7067M312.993 65.2103L315.331 66.9637C318.447 69.301 323.5 69.301 326.616 66.9637C329.732 64.6264 329.732 60.8369 326.616 58.4996C325.058 57.3309 323.015 56.7465 320.973 56.7467C319.045 56.7468 317.117 56.1625 315.646 54.9938C312.703 52.6565 312.703 48.867 315.646 46.5297C318.588 44.1924 323.358 44.1924 326.3 46.5297L327.404 47.4064M344.913 56.7467C344.913 69.9684 334.195 80.6867 320.973 80.6867C307.752 80.6867 297.033 69.9684 297.033 56.7467C297.033 43.525 307.752 32.8067 320.973 32.8067C334.195 32.8067 344.913 43.525 344.913 56.7467Z" stroke="white" stroke-width="3.99" stroke-linecap="round" stroke-linejoin="round"/>
</g>
</svg>
