<svg width="253" height="128" viewBox="0 0 253 128" fill="none" xmlns="http://www.w3.org/2000/svg">
<rect width="253" height="128" rx="16" fill="#CCFC56"/>
<path fill-rule="evenodd" clip-rule="evenodd" d="M216.836 59.3373C217.127 60.1516 217.978 60.5583 218.736 60.2457L230.383 55.4435C230.747 55.2934 231.041 54.9941 231.2 54.6115C231.358 54.2289 231.369 53.7942 231.229 53.4032L226.758 40.8931C226.467 40.0788 225.617 39.6721 224.859 39.9847C224.1 40.2973 223.722 41.2107 224.013 42.025L227.212 50.9758L225.082 49.9572C220.272 47.6573 216.609 43.7391 214.397 39.0636C214.184 38.6127 213.782 38.2988 213.317 38.2194C212.852 38.1401 212.379 38.3048 212.046 38.6624L204.644 46.6135L192.451 33.5171C191.876 32.9004 190.945 32.9004 190.371 33.5171C189.797 34.1339 189.797 35.1338 190.371 35.7505L203.604 49.9635C203.88 50.2597 204.254 50.4261 204.644 50.4261C205.034 50.4261 205.408 50.2597 205.683 49.9635L212.753 42.3706C215.302 46.8369 219.094 50.5512 223.886 52.8425L226.016 53.8611L217.682 57.297C216.924 57.6096 216.545 58.5231 216.836 59.3373Z" fill="#21147A"/>
</svg>
