<svg width="35" height="35" viewBox="0 0 35 35" fill="none" xmlns="http://www.w3.org/2000/svg">
<path fill-rule="evenodd" clip-rule="evenodd" d="M17.3961 3.26172C9.58988 3.26172 3.26172 9.58988 3.26172 17.3961C3.26172 25.2022 9.58988 31.5304 17.3961 31.5304C25.2022 31.5304 31.5304 25.2022 31.5304 17.3961C31.5304 9.58988 25.2022 3.26172 17.3961 3.26172ZM9.07777 8.80281C6.83217 10.977 5.43623 14.0235 5.43623 17.3961C5.43623 24.0013 10.7908 29.3559 17.3961 29.3559C24.0013 29.3559 29.3559 24.0013 29.3559 17.3961C29.3559 13.4016 27.3977 9.86458 24.3889 7.6925C23.8997 8.47396 23.249 9.14496 22.478 9.65897L20.6577 10.8725L20.8963 11.3497C21.2862 12.1295 20.7192 13.047 19.8473 13.047C19.6652 13.047 19.4857 13.0046 19.3228 12.9232L18.4473 12.4855C17.8194 12.1715 17.0611 12.2946 16.5647 12.791L16.3746 12.9811C15.7377 13.618 15.7377 14.6506 16.3746 15.2875L16.8025 15.7153C17.1749 16.0878 17.7043 16.2574 18.2238 16.1708L19.92 15.8881C20.3884 15.8101 20.8675 15.94 21.2322 16.2439L23.1593 17.8498C23.6241 18.2372 23.8262 18.8563 23.6795 19.4433C23.1251 21.6609 21.9784 23.6862 20.3621 25.3025L19.3144 26.3502C18.818 26.8466 18.0597 26.9696 17.4318 26.6557L17.2102 26.5449C16.6577 26.2686 16.3087 25.7039 16.3087 25.0862V23.5079C16.3087 23.0753 16.1369 22.6605 15.831 22.3547L13.8781 20.4018C13.3817 19.9054 13.2587 19.1471 13.5726 18.5192L14.1342 17.3961L11.7561 15.018C10.4742 13.7361 9.62493 12.0857 9.32689 10.2975L9.07777 8.80281Z" fill="white"/>
</svg>
