<svg width="37" height="37" viewBox="0 0 37 37" fill="none" xmlns="http://www.w3.org/2000/svg">
<path d="M17.238 5.77263C17.6782 5.33244 18.3919 5.33244 18.8321 5.77263L31.8914 18.832C32.3316 19.2722 33.0453 19.2722 33.4855 18.832C33.9257 18.3918 33.9257 17.6781 33.4855 17.2379L20.4261 4.17855C19.1056 2.85796 16.9645 2.85797 15.6439 4.17855L2.58454 17.2379C2.14435 17.6781 2.14435 18.3918 2.58454 18.832C3.02473 19.2722 3.73843 19.2722 4.17862 18.832L17.238 5.77263Z" fill="#2D18BF"/>
<path d="M18.035 8.16376L30.2973 20.4261C30.342 20.4707 30.3876 20.5139 30.4341 20.5555V29.8704C30.4341 31.4267 29.1724 32.6884 27.6161 32.6884H22.5438C21.9212 32.6884 21.4166 32.1837 21.4166 31.5612V24.7981C21.4166 24.1755 20.9119 23.6709 20.2894 23.6709H15.7806C15.1581 23.6709 14.6535 24.1755 14.6535 24.7981V31.5612C14.6535 32.1837 14.1488 32.6884 13.5263 32.6884H8.45393C6.8976 32.6884 5.63596 31.4267 5.63596 29.8704V20.5555C5.68244 20.5139 5.72804 20.4707 5.77271 20.4261L18.035 8.16376Z" fill="#2D18BF"/>
</svg>
