<svg width="61" height="61" viewBox="0 0 61 61" fill="none" xmlns="http://www.w3.org/2000/svg">
<rect width="60.5844" height="60.5844" rx="12.4675" fill="#2D18BF"/>
<path d="M29.2978 14.9939C29.847 14.4447 30.7374 14.4447 31.2866 14.9939L47.5791 31.2864C48.1283 31.8356 49.0187 31.8356 49.5678 31.2864C50.117 30.7372 50.117 29.8469 49.5678 29.2977L33.2753 13.0052C31.6278 11.3576 28.9566 11.3577 27.3091 13.0052L11.0166 29.2977C10.4674 29.8469 10.4674 30.7372 11.0166 31.2864C11.5658 31.8356 12.4562 31.8356 13.0053 31.2864L29.2978 14.9939Z" fill="white"/>
<path d="M30.2922 17.977L45.5903 33.2752C45.6461 33.3309 45.703 33.3847 45.761 33.4367V45.0577C45.761 46.9993 44.187 48.5733 42.2453 48.5733H35.9172C35.1406 48.5733 34.511 47.9437 34.511 47.167V38.7295C34.511 37.9529 33.8814 37.3233 33.1047 37.3233H27.4797C26.7031 37.3233 26.0735 37.9529 26.0735 38.7295V47.167C26.0735 47.9437 25.4439 48.5733 24.6672 48.5733H18.3391C16.3975 48.5733 14.8235 46.9993 14.8235 45.0577V33.4367C14.8814 33.3847 14.9383 33.3309 14.9941 33.2752L30.2922 17.977Z" fill="white"/>
</svg>
