<svg width="253" height="128" viewBox="0 0 253 128" fill="none" xmlns="http://www.w3.org/2000/svg">
<rect width="253" height="128" rx="16" fill="#F2622E"/>
<g style="mix-blend-mode:soft-light">
<path fill-rule="evenodd" clip-rule="evenodd" d="M216.443 35.1979C216.734 34.3837 217.585 33.977 218.343 34.2895L229.99 39.0917C230.354 39.2418 230.648 39.5411 230.806 39.9237C230.965 40.3063 230.976 40.741 230.836 41.132L226.365 53.6421C226.074 54.4564 225.223 54.8631 224.465 54.5505C223.707 54.238 223.329 53.3245 223.62 52.5102L226.818 43.5595L224.688 44.5781C219.879 46.8779 216.216 50.7961 214.004 55.4716C213.79 55.9225 213.389 56.2364 212.924 56.3158C212.459 56.3951 211.986 56.2304 211.653 55.8728L204.25 47.9217L192.057 61.0181C191.483 61.6348 190.552 61.6348 189.978 61.0181C189.404 60.4013 189.404 59.4014 189.978 58.7847L203.211 44.5717C203.487 44.2755 203.861 44.1091 204.25 44.1091C204.64 44.1091 205.014 44.2755 205.29 44.5717L212.359 52.1646C214.909 47.6983 218.701 43.984 223.492 41.6927L225.622 40.6741L217.289 37.2382C216.531 36.9256 216.152 36.0122 216.443 35.1979Z" fill="white"/>
</g>
</svg>
