<svg width="46" height="46" viewBox="0 0 46 46" fill="none" xmlns="http://www.w3.org/2000/svg">
<path fill-rule="evenodd" clip-rule="evenodd" d="M29.94 3.56812C23.0409 3.56812 17.4481 9.16092 17.4481 16.06C17.4481 16.7886 17.5106 17.5038 17.6309 18.2001C17.7553 18.9198 17.5717 19.5254 17.2217 19.8754L5.19437 31.9028C4.15317 32.944 3.56824 34.3561 3.56824 35.8286V41.0438C3.56824 41.8103 4.18966 42.4318 4.95622 42.4318H11.8962C12.6627 42.4318 13.2841 41.8103 13.2841 41.0438V38.2678H16.0601C16.8267 38.2678 17.4481 37.6464 17.4481 36.8798V34.1038H20.2241C20.5922 34.1038 20.9452 33.9576 21.2055 33.6973L26.1246 28.7783C26.4745 28.4283 27.0802 28.2447 27.7999 28.369C28.4962 28.4893 29.2113 28.5519 29.94 28.5519C36.8391 28.5519 42.4319 22.9591 42.4319 16.06C42.4319 9.16092 36.8391 3.56812 29.94 3.56812ZM29.94 9.12006C29.1734 9.12006 28.552 9.74149 28.552 10.5081C28.552 11.2746 29.1734 11.896 29.94 11.896C32.2397 11.896 34.104 13.7603 34.104 16.06C34.104 16.8266 34.7254 17.448 35.4919 17.448C36.2585 17.448 36.8799 16.8266 36.8799 16.06C36.8799 12.2272 33.7728 9.12006 29.94 9.12006Z" fill="white"/>
</svg>
