<svg width="164" height="70" viewBox="0 0 164 70" fill="none" xmlns="http://www.w3.org/2000/svg">
<path d="M91.9932 46.4642C89.1194 46.4642 86.8425 45.6684 85.1624 44.0768C83.4824 42.463 82.6423 40.164 82.6423 37.1797V31.609C82.6423 28.6247 83.4824 26.3367 85.1624 24.7451C86.8425 23.1313 89.1194 22.3245 91.9932 22.3245C94.8449 22.3245 97.0444 23.1092 98.5918 24.6787C100.161 26.2262 100.946 28.3594 100.946 31.0784V31.2774H96.6354V30.9458C96.6354 29.5752 96.2486 28.4478 95.4749 27.5636C94.7233 26.6793 93.5627 26.2372 91.9932 26.2372C90.4458 26.2372 89.2299 26.7125 88.3457 27.6631C87.4614 28.6136 87.0193 29.9068 87.0193 31.5427V37.246C87.0193 38.8598 87.4614 40.153 88.3457 41.1256C89.2299 42.0762 90.4458 42.5515 91.9932 42.5515C93.5627 42.5515 94.7233 42.1093 95.4749 41.2251C96.2486 40.3188 96.6354 39.1913 96.6354 37.8429V37.246H100.946V37.7102C100.946 40.4293 100.161 42.5736 98.5918 44.1431C97.0444 45.6905 94.8449 46.4642 91.9932 46.4642ZM109.752 46.4642C108.58 46.4642 107.53 46.2653 106.602 45.8674C105.673 45.4473 104.933 44.8505 104.38 44.0768C103.849 43.281 103.584 42.3193 103.584 41.1919C103.584 40.0645 103.849 39.125 104.38 38.3734C104.933 37.5997 105.684 37.025 106.635 36.6492C107.607 36.2512 108.713 36.0523 109.951 36.0523H114.46V35.1238C114.46 34.3501 114.217 33.7201 113.731 33.2338C113.244 32.7253 112.471 32.4711 111.41 32.4711C110.371 32.4711 109.597 32.7143 109.088 33.2006C108.58 33.6648 108.248 34.2728 108.094 35.0244L104.247 33.7312C104.513 32.8911 104.933 32.1285 105.507 31.4432C106.104 30.7358 106.889 30.1721 107.862 29.7521C108.856 29.31 110.061 29.0889 111.476 29.0889C113.642 29.0889 115.356 29.6305 116.616 30.7137C117.876 31.7969 118.506 33.3664 118.506 35.4223V41.5567C118.506 42.2199 118.815 42.5515 119.434 42.5515H120.76V46H117.975C117.157 46 116.483 45.801 115.952 45.4031C115.422 45.0052 115.157 44.4747 115.157 43.8115V43.7783H114.527C114.438 44.0436 114.239 44.3973 113.93 44.8394C113.62 45.2594 113.134 45.6353 112.471 45.9668C111.808 46.2984 110.901 46.4642 109.752 46.4642ZM110.481 43.082C111.653 43.082 112.603 42.7615 113.333 42.1204C114.084 41.4572 114.46 40.584 114.46 39.5008V39.1692H110.249C109.475 39.1692 108.867 39.335 108.425 39.6666C107.983 39.9982 107.762 40.4624 107.762 41.0593C107.762 41.6562 107.994 42.1425 108.458 42.5183C108.923 42.8941 109.597 43.082 110.481 43.082ZM123.815 52.6318V29.5531H127.927V31.5427H128.524C128.9 30.9016 129.485 30.3379 130.281 29.8516C131.077 29.3431 132.216 29.0889 133.697 29.0889C135.023 29.0889 136.25 29.4205 137.377 30.0837C138.505 30.7247 139.411 31.6753 140.096 32.9353C140.782 34.1954 141.124 35.7207 141.124 37.5113V38.0418C141.124 39.8324 140.782 41.3577 140.096 42.6178C139.411 43.8778 138.505 44.8394 137.377 45.5026C136.25 46.1437 135.023 46.4642 133.697 46.4642C132.702 46.4642 131.862 46.3426 131.177 46.0995C130.513 45.8784 129.972 45.591 129.552 45.2373C129.154 44.8615 128.833 44.4857 128.59 44.1099H127.993V52.6318H123.815ZM132.437 42.8167C133.741 42.8167 134.813 42.4078 135.653 41.5898C136.515 40.7498 136.946 39.534 136.946 37.9424V37.6108C136.946 36.0191 136.515 34.8144 135.653 33.9964C134.791 33.1564 133.719 32.7364 132.437 32.7364C131.154 32.7364 130.082 33.1564 129.22 33.9964C128.358 34.8144 127.927 36.0191 127.927 37.6108V37.9424C127.927 39.534 128.358 40.7498 129.22 41.5898C130.082 42.4078 131.154 42.8167 132.437 42.8167ZM146.751 52.6318V48.9843H155.704C156.323 48.9843 156.633 48.6527 156.633 47.9895V43.8447H156.036C155.859 44.2205 155.583 44.5963 155.207 44.9721C154.831 45.3479 154.322 45.6574 153.681 45.9005C153.04 46.1437 152.222 46.2653 151.228 46.2653C149.945 46.2653 148.818 45.9779 147.845 45.4031C146.895 44.8063 146.154 43.9884 145.624 42.9494C145.093 41.9104 144.828 40.7167 144.828 39.3682V29.5531H149.006V39.0366C149.006 40.2745 149.304 41.203 149.901 41.822C150.52 42.4409 151.393 42.7504 152.521 42.7504C153.803 42.7504 154.798 42.3304 155.505 41.4904C156.213 40.6282 156.566 39.4345 156.566 37.9092V29.5531H160.744V48.918C160.744 50.0454 160.413 50.9407 159.75 51.6039C159.086 52.2892 158.202 52.6318 157.097 52.6318H146.751Z" fill="white"/>
<path fill-rule="evenodd" clip-rule="evenodd" d="M36.0264 17.1727C34.6978 17.1727 33.6208 18.2498 33.6208 19.5784V36.418L30.734 36.418V25.352C30.734 24.0234 29.6569 22.9463 28.3283 22.9463H27.3661C26.0375 22.9463 24.9604 24.0234 24.9604 25.352V36.418H22.0736V31.1255C22.0736 29.7969 20.9966 28.7199 19.668 28.7199H18.7057C17.3771 28.7199 16.3 29.7969 16.3 31.1255V39.7859C16.3 39.7919 16.3001 39.7978 16.3001 39.8037L16.3001 40.1601C16.3001 41.6364 17.6809 42.8331 19.3843 42.8331L45.2914 42.8331C46.9947 42.8331 48.3755 41.6364 48.3755 40.1601V39.091C48.3755 37.6147 46.9947 36.418 45.2914 36.418H39.3944V19.5784C39.3944 18.2498 38.3173 17.1727 36.9887 17.1727H36.0264Z" fill="#F9F9F9" fill-opacity="0.55"/>
<g clip-path="url(#clip0_560_1707)">
<path d="M14.3755 22.3047L20.1491 16.5311L23.8325 20.2146C24.8621 18.1889 26.5677 16.4903 28.8054 15.4941L31.1496 14.4504M31.1496 14.4504L26.0677 12.4996M31.1496 14.4504L29.1988 19.5322" stroke="#F9F9F9" stroke-opacity="0.55" stroke-width="1.92453" stroke-linecap="round" stroke-linejoin="round"/>
</g>
<circle cx="34.6455" cy="34.6299" r="32.632" stroke="#F9F9F9" stroke-width="3.99576" stroke-dasharray="3.55 3.55"/>
<mask id="mask0_560_1707" style="mask-type:alpha" maskUnits="userSpaceOnUse" x="0" y="0" width="70" height="70">
<circle cx="34.6455" cy="34.6299" r="33.076" fill="#D9D9D9" stroke="#F9F9F9" stroke-width="3.10781"/>
</mask>
<g mask="url(#mask0_560_1707)">
<g clip-path="url(#clip1_560_1707)">
<path d="M30.1584 34.4988C30.1584 34.4988 30.5037 32.598 33.6165 31.992C36.7292 31.3861 41.5684 30.2639 43.2966 29.8305C43.7908 29.707 44.4272 29.5343 45.1398 29.3752C46.9188 28.9809 49.1751 28.683 50.9015 29.4836C53.322 30.6075 59.8911 37.3492 65.5089 36.6569C71.1267 35.9646 74.3257 34.6698 81.5854 34.3228C88.8451 33.9775 96.797 35.1014 101.032 38.5577C105.069 41.8532 108.947 47.1986 109.285 52.5709C109.629 58.0449 105.103 62.3103 103.021 66.9938C101.983 69.3279 101.983 70.8834 102.675 71.8347C103.039 72.3357 103.212 72.8181 103.259 73.2717C103.366 74.2924 102.884 75.0625 102.071 76.3286C99.0042 81.1102 98.8281 81.6079 98.7012 82.0767C98.4778 82.8993 98.4879 83.3225 98.0529 83.7626C97.1931 84.6309 95.7391 84.4109 94.2073 84.2382C92.7127 84.0706 90.5563 83.8828 87.8075 83.8371C88.3982 83.4664 89.2953 82.8824 90.3752 82.097C90.8508 81.7518 90.9354 81.6316 91.0675 81.5605C91.1216 81.5317 91.1673 81.5199 91.1809 81.5148C91.4822 81.4149 93.6944 80.4806 93.9906 80.3486C95.2296 79.79 97.386 77.681 97.1457 75.2064C96.995 73.6542 95.9608 72.576 95.4175 72.0953C95.4175 72.0953 94.4663 72.3543 94.4663 72.9603C94.4663 73.7321 95.6748 74.1451 95.9355 75.2944C96.0996 76.0188 95.7459 76.6299 95.0705 77.7572C94.7337 78.3191 93.9619 79.4989 92.0543 81.1678C90.8593 82.2121 90.2262 82.7673 89.1937 83.331L83.9212 85.0591C83.7215 84.8425 83.6758 84.6411 83.6622 84.5412C83.5979 84.0571 83.9737 83.5205 84.6135 83.2446C84.0228 83.4833 83.3897 83.7169 82.7127 83.9369C81.8291 84.223 80.9896 84.4498 80.2059 84.6292C80.3007 84.2856 80.4818 83.8438 80.8542 83.463C81.2723 83.0331 81.753 82.8638 81.7191 82.7707C81.6886 82.6912 81.3281 82.8063 80.7255 82.857C80.1094 82.9095 80.1196 82.8215 79.473 82.857L77.9175 83.0737C77.9175 83.0737 80.6832 81.4742 84.0972 80.6109C87.5113 79.746 88.7638 77.4559 88.6775 75.8563C88.5912 74.2568 85.9541 72.615 85.5224 70.3249C85.0908 68.0347 85.0908 67.3001 85.0908 67.3001C83.1291 68.0093 80.1094 68.837 76.362 68.8557C71.8139 68.8777 68.2458 67.6962 66.1622 66.8245C65.7289 67.8638 65.0823 69.4345 65.0383 71.4048C64.9926 73.4647 65.3396 75.0066 64.7793 77.7148C64.5508 78.8151 64.3291 79.2991 63.9584 79.702C63.2848 80.4366 62.6314 80.3503 60.3718 80.9545C58.7028 81.4014 58.867 81.4996 56.3535 82.2071C55.3599 82.488 54.5153 82.703 53.8907 82.8553C54.1751 81.7213 54.5948 81.2694 54.9283 81.0408C55.6206 80.5652 53.7621 81.6891 52.2489 81.6891H50.7357C50.7357 81.6891 51.6869 81.0849 52.3775 80.6956C53.0698 80.3063 54.2783 79.917 54.2783 79.917L50.734 80.0033C50.734 80.0033 56.1351 78.8794 57.0001 77.4965C57.865 76.1136 59.7658 73.7795 58.124 68.7236C56.4821 63.6678 52.0745 58.8269 52.0745 58.8269C52.0745 58.8269 45.5054 48.8438 43.9059 48.2395C42.3064 47.6352 35.392 48.4985 31.978 46.2947C28.5589 44.0926 28.5589 38.6914 29.2072 36.6603C29.8555 34.6291 30.1584 34.4988 30.1584 34.4988Z" fill="#F9F9F9"/>
<path d="M45.1399 34.2673C46.9376 34.2673 48.3948 34.0998 48.3948 33.8932C48.3948 33.6866 46.9376 33.5192 45.1399 33.5192C43.3423 33.5192 41.885 33.6866 41.885 33.8932C41.885 34.0998 43.3423 34.2673 45.1399 34.2673Z" fill="#050203"/>
<path d="M46.3502 35.2016C46.7484 35.2016 47.0713 34.8788 47.0713 34.4806C47.0713 34.0824 46.7484 33.7595 46.3502 33.7595C45.952 33.7595 45.6292 34.0824 45.6292 34.4806C45.6292 34.8788 45.952 35.2016 46.3502 35.2016Z" fill="#050203"/>
<path d="M44.9505 25.5923C45.0639 25.4671 45.2027 25.3757 45.3736 25.3333C46.3503 25.0896 47.4014 26.5537 47.6519 27.5236C47.9092 28.5273 48.0378 30.1472 48.0378 30.1472L45.3956 30.8411C45.3956 30.8411 44.3648 28.8354 44.4292 27.5236C44.4579 26.9261 44.5426 26.0409 44.9522 25.5906L44.9505 25.5923Z" fill="#F9F9F9"/>
<path d="M55.2347 27.026C55.3972 27.1005 55.5444 27.2241 55.6629 27.4069C56.345 28.4631 55.5816 30.4587 54.8606 31.2423C54.1141 32.0514 52.7702 33.0128 52.7702 33.0128L50.8948 30.1692C50.8948 30.1692 52.1389 27.9299 53.3068 27.3544C53.8399 27.092 54.6473 26.7552 55.2347 27.026Z" fill="#F9F9F9"/>
<path d="M45.5224 29.9678C45.3074 29.6513 45.0213 29.1198 44.9469 28.4072C44.913 28.0822 44.8792 27.764 45.0281 27.4593C45.2769 26.9482 45.9201 26.7112 46.4059 26.9431C46.8172 27.1394 47.0863 27.7183 47.1557 28.221C47.176 28.3666 47.1777 28.5206 47.1828 28.6679C47.1997 29.1063 47.198 29.5447 47.198 29.5447C47.198 29.5447 46.7309 29.6801 46.3907 29.7681C46.1808 29.8222 45.8863 29.895 45.5224 29.9661V29.9678Z" fill="#050203"/>
<path d="M51.6311 30.4011C51.7851 29.9762 52.083 29.3381 52.6518 28.7931C52.9107 28.5443 53.1646 28.3022 53.5048 28.2497C54.0753 28.1634 54.6254 28.6543 54.6914 29.2958C54.7455 29.8391 54.3985 30.4908 54.0075 30.8919C53.8941 31.0087 53.7638 31.112 53.6402 31.2152C53.2746 31.5216 52.9006 31.8093 52.9006 31.8093C52.9006 31.8093 52.5485 31.4336 52.3352 31.2C52.1643 31.0121 51.9222 30.743 51.6328 30.4011H51.6311Z" fill="#050203"/>
<path d="M32.5624 37.3211C32.6971 37.2758 32.6901 36.8943 32.5468 36.469C32.4036 36.0438 32.1783 35.7359 32.0436 35.7813C31.909 35.8266 31.9159 36.2081 32.0592 36.6333C32.2025 37.0586 32.4278 37.3665 32.5624 37.3211Z" fill="#050203"/>
<path d="M34.0228 36.6937C34.2726 36.321 34.3795 35.9547 34.2614 35.8756C34.1434 35.7965 33.8452 36.0345 33.5954 36.4072C33.3456 36.78 33.2388 37.1463 33.3568 37.2254C33.4748 37.3045 33.773 37.0665 34.0228 36.6937Z" fill="#050203"/>
<path d="M32.1242 43.3698C32.2934 42.9461 32.3095 42.5543 32.1602 42.4947C32.0108 42.4351 31.7526 42.7302 31.5834 43.1538C31.4143 43.5775 31.3981 43.9692 31.5475 44.0289C31.6968 44.0885 31.955 43.7934 32.1242 43.3698Z" fill="#050203"/>
<path d="M33.3339 43.4056C33.0478 43.0332 32.926 42.6659 33.0614 42.588C33.1968 42.5102 33.5387 42.7471 33.8248 43.1195C34.1108 43.4919 34.2327 43.8592 34.0973 43.9371C33.9619 44.0149 33.62 43.778 33.3339 43.4056Z" fill="#050203"/>
<path d="M32.4876 42.4863C32.6363 42.4863 32.7568 41.4481 32.7568 40.1674C32.7568 38.8867 32.6363 37.8485 32.4876 37.8485C32.339 37.8485 32.2185 38.8867 32.2185 40.1674C32.2185 41.4481 32.339 42.4863 32.4876 42.4863Z" fill="#050203"/>
<path d="M60.7983 58.6239C60.7983 58.6239 61.2029 58.7458 61.7648 60.0254C62.3268 61.305 62.4893 62.153 62.4893 62.153" fill="#050203"/>
<path d="M55.382 51.4794C55.382 51.4794 55.2331 51.8754 55.9118 53.0958C56.5906 54.3162 57.1677 54.9611 57.1677 54.9611" fill="#050203"/>
<path d="M54.8639 57.1361C54.8639 57.1361 54.7623 57.5457 55.5782 58.6815C56.394 59.8172 57.0406 60.3893 57.0406 60.3893" fill="#050203"/>
<path d="M59.6609 53.6562C59.6609 53.6562 60.0654 53.7781 60.6274 55.0577C61.1893 56.3374 61.3518 57.1854 61.3518 57.1854" fill="#050203"/>
<path d="M58.9822 59.2633C58.9822 59.2633 59.3512 59.4681 59.6254 60.8391C59.8996 62.2102 59.8776 63.0734 59.8776 63.0734" fill="#050203"/>
<path d="M59.2124 64.5537C59.2124 64.5537 59.5814 64.7585 59.8556 66.1295C60.1298 67.5006 60.1078 68.3638 60.1078 68.3638" fill="#050203"/>
</g>
</g>
<defs>
<clipPath id="clip0_560_1707">
<rect width="20.5283" height="20.5283" fill="white" transform="translate(12.4509 6.90857)"/>
</clipPath>
<clipPath id="clip1_560_1707">
<rect width="80.4301" height="59.7547" fill="white" transform="translate(28.8738 25.3063)"/>
</clipPath>
</defs>
</svg>
