<svg width="26" height="26" viewBox="0 0 26 26" fill="none" xmlns="http://www.w3.org/2000/svg">
<circle cx="13.0161" cy="12.7351" r="11.8863" stroke="#181818" stroke-width="1.45554" stroke-dasharray="1.29 1.29"/>
<mask id="mask0_231_1752" style="mask-type:alpha" maskUnits="userSpaceOnUse" x="0" y="0" width="26" height="26">
<circle cx="13.0161" cy="12.7351" r="12.048" fill="#D9D9D9" stroke="#F9F9F9" stroke-width="1.13209"/>
</mask>
<g mask="url(#mask0_231_1752)">
<g clip-path="url(#clip0_231_1752)">
<path d="M11.3821 12.6879C11.3821 12.6879 11.5079 11.9955 12.6418 11.7747C13.7757 11.554 15.5385 11.1452 16.168 10.9874C16.348 10.9424 16.5799 10.8795 16.8394 10.8215C17.4875 10.6779 18.3094 10.5693 18.9383 10.861C19.82 11.2704 22.2129 13.7262 24.2593 13.474C26.3057 13.2218 27.471 12.7502 30.1155 12.6238C32.76 12.498 35.6567 12.9074 37.1993 14.1664C38.6699 15.3669 40.0824 17.314 40.2057 19.271C40.3309 21.265 38.6822 22.8188 37.9238 24.5249C37.5458 25.3751 37.5458 25.9418 37.798 26.2883C37.9306 26.4708 37.9935 26.6465 38.0107 26.8117C38.0496 27.1835 37.8739 27.4641 37.5779 27.9253C36.4607 29.6671 36.3965 29.8484 36.3503 30.0192C36.2689 30.3188 36.2726 30.473 36.1142 30.6333C35.8009 30.9496 35.2713 30.8694 34.7133 30.8065C34.1689 30.7455 33.3834 30.677 32.382 30.6604C32.5972 30.5254 32.924 30.3126 33.3174 30.0266C33.4906 29.9008 33.5215 29.857 33.5696 29.8311C33.5893 29.8206 33.6059 29.8163 33.6109 29.8145C33.7206 29.7781 34.5265 29.4377 34.6344 29.3896C35.0857 29.1862 35.8712 28.4179 35.7837 27.5165C35.7288 26.9511 35.3521 26.5583 35.1542 26.3832C35.1542 26.3832 34.8076 26.4776 34.8076 26.6983C34.8076 26.9794 35.2479 27.1299 35.3428 27.5485C35.4026 27.8124 35.2738 28.035 35.0278 28.4457C34.9051 28.6504 34.6239 29.0801 33.929 29.6881C33.4937 30.0685 33.2631 30.2707 32.887 30.476L30.9664 31.1056C30.8936 31.0266 30.877 30.9533 30.872 30.9169C30.8486 30.7405 30.9855 30.5451 31.2186 30.4446C31.0034 30.5315 30.7728 30.6166 30.5261 30.6968C30.2043 30.801 29.8985 30.8836 29.613 30.949C29.6475 30.8238 29.7135 30.6629 29.8491 30.5241C30.0014 30.3675 30.1765 30.3059 30.1642 30.272C30.1531 30.243 30.0218 30.2849 29.8023 30.3034C29.5779 30.3225 29.5816 30.2905 29.346 30.3034L28.7794 30.3823C28.7794 30.3823 29.7869 29.7997 31.0305 29.4852C32.2741 29.1701 32.7304 28.3359 32.699 27.7532C32.6675 27.1706 31.7069 26.5725 31.5497 25.7383C31.3924 24.9041 31.3924 24.6365 31.3924 24.6365C30.6778 24.8948 29.5779 25.1963 28.2128 25.2031C26.556 25.2111 25.2563 24.7807 24.4973 24.4632C24.3394 24.8418 24.1039 25.414 24.0879 26.1317C24.0712 26.882 24.1976 27.4437 23.9935 28.4302C23.9103 28.831 23.8295 29.0074 23.6945 29.1541C23.4491 29.4217 23.2111 29.3903 22.388 29.6104C21.78 29.7731 21.8399 29.8089 20.9242 30.0666C20.5623 30.169 20.2546 30.2473 20.0271 30.3028C20.1307 29.8897 20.2836 29.7251 20.4051 29.6418C20.6573 29.4686 19.9803 29.878 19.4291 29.878H18.8778C18.8778 29.878 19.2243 29.6578 19.4759 29.516C19.7281 29.3742 20.1683 29.2324 20.1683 29.2324L18.8772 29.2639C18.8772 29.2639 20.8447 28.8545 21.1598 28.3507C21.4748 27.847 22.1673 26.9967 21.5692 25.155C20.9711 23.3133 19.3655 21.5499 19.3655 21.5499C19.3655 21.5499 16.9726 17.9133 16.39 17.6932C15.8073 17.4731 13.2886 17.7876 12.045 16.9848C10.7995 16.1826 10.7995 14.2151 11.0356 13.4752C11.2718 12.7354 11.3821 12.6879 11.3821 12.6879Z" fill="#181818"/>
<path d="M16.8391 12.6032C17.4937 12.6032 18.0243 12.5422 18.0243 12.467C18.0243 12.3918 17.4937 12.3308 16.8391 12.3308C16.1845 12.3308 15.6539 12.3918 15.6539 12.467C15.6539 12.5422 16.1845 12.6032 16.8391 12.6032Z" fill="white"/>
<path d="M17.2792 12.9413C17.4236 12.9413 17.5407 12.8243 17.5407 12.6799C17.5407 12.5355 17.4236 12.4185 17.2792 12.4185C17.1348 12.4185 17.0178 12.5355 17.0178 12.6799C17.0178 12.8243 17.1348 12.9413 17.2792 12.9413Z" fill="white"/>
<path d="M16.7705 9.44374C16.8118 9.39812 16.8623 9.36483 16.9246 9.34942C17.2803 9.26064 17.6631 9.7939 17.7544 10.1471C17.8481 10.5127 17.8949 11.1027 17.8949 11.1027L16.9326 11.3554C16.9326 11.3554 16.5572 10.6249 16.5806 10.1471C16.5911 9.92952 16.6219 9.6071 16.7711 9.44312L16.7705 9.44374Z" fill="#181818"/>
<path d="M20.5166 9.96586C20.5758 9.99299 20.6294 10.038 20.6725 10.1046C20.921 10.4893 20.643 11.2161 20.3803 11.5015C20.1085 11.7962 19.619 12.1464 19.619 12.1464L18.9359 11.1107C18.9359 11.1107 19.389 10.2951 19.8144 10.0855C20.0086 9.98991 20.3027 9.86723 20.5166 9.96586Z" fill="#181818"/>
<path d="M16.9787 11.0365C16.9004 10.9213 16.7963 10.7279 16.7692 10.4686C16.7569 10.3503 16.7446 10.2345 16.7988 10.1237C16.8894 9.93763 17.1234 9.8514 17.3002 9.93579C17.4499 10.0072 17.5478 10.2179 17.5731 10.4008C17.5805 10.4538 17.5811 10.5099 17.5829 10.5635C17.5891 10.723 17.5885 10.8825 17.5885 10.8825C17.5885 10.8825 17.4185 10.9318 17.2947 10.9638C17.2183 10.9835 17.1111 11.01 16.9787 11.0359V11.0365Z" fill="white"/>
<path d="M19.2041 11.1942C19.2602 11.0396 19.3686 10.8074 19.5755 10.609C19.6698 10.5185 19.7622 10.4304 19.886 10.4113C20.0936 10.3799 20.2937 10.5585 20.3178 10.792C20.3375 10.9897 20.2112 11.2268 20.0689 11.3728C20.0276 11.4153 19.9802 11.4529 19.9353 11.4905C19.8022 11.602 19.6661 11.7067 19.6661 11.7067C19.6661 11.7067 19.538 11.5699 19.4603 11.4849C19.3981 11.4166 19.31 11.3186 19.2047 11.1942H19.2041Z" fill="white"/>
<path d="M12.2571 13.7149C12.3061 13.6984 12.3035 13.5598 12.2515 13.4052C12.1994 13.2506 12.1175 13.1387 12.0685 13.1552C12.0196 13.1717 12.0221 13.3104 12.0742 13.4649C12.1263 13.6195 12.2082 13.7314 12.2571 13.7149Z" fill="white"/>
<path d="M12.7889 13.488C12.8797 13.3525 12.9186 13.2193 12.8757 13.1906C12.8328 13.1618 12.7244 13.2483 12.6336 13.3838C12.5428 13.5193 12.5039 13.6525 12.5468 13.6812C12.5897 13.71 12.6981 13.6234 12.7889 13.488Z" fill="white"/>
<path d="M12.0974 15.9198C12.1589 15.7658 12.1647 15.6234 12.1104 15.6018C12.0562 15.5801 11.9623 15.6873 11.9008 15.8413C11.8393 15.9953 11.8335 16.1377 11.8878 16.1594C11.942 16.181 12.0359 16.0738 12.0974 15.9198Z" fill="white"/>
<path d="M12.5381 15.9307C12.4344 15.7957 12.3902 15.6625 12.4393 15.6343C12.4884 15.606 12.6124 15.692 12.7161 15.827C12.8198 15.962 12.864 16.0952 12.8149 16.1234C12.7658 16.1516 12.6418 16.0657 12.5381 15.9307Z" fill="white"/>
<path d="M12.2304 15.5978C12.2846 15.5978 12.3284 15.2196 12.3284 14.7531C12.3284 14.2866 12.2846 13.9084 12.2304 13.9084C12.1763 13.9084 12.1324 14.2866 12.1324 14.7531C12.1324 15.2196 12.1763 15.5978 12.2304 15.5978Z" fill="white"/>
<path d="M22.5431 21.4761C22.5431 21.4761 22.6903 21.5204 22.8948 21.9861C23.0993 22.4518 23.1584 22.7604 23.1584 22.7604" fill="white"/>
<path d="M20.5701 18.873C20.5701 18.873 20.5159 19.0172 20.7629 19.4613C21.0099 19.9054 21.2199 20.1401 21.2199 20.1401" fill="white"/>
<path d="M20.3814 20.9338C20.3814 20.9338 20.3445 21.0829 20.6414 21.4962C20.9383 21.9095 21.1736 22.1177 21.1736 22.1177" fill="white"/>
<path d="M22.1288 19.6665C22.1288 19.6665 22.276 19.7109 22.4805 20.1765C22.685 20.6422 22.7441 20.9508 22.7441 20.9508" fill="white"/>
<path d="M21.8816 21.709C21.8816 21.709 22.0159 21.7835 22.1157 22.2824C22.2154 22.7814 22.2074 23.0955 22.2074 23.0955" fill="white"/>
<path d="M21.9655 23.6365C21.9655 23.6365 22.0997 23.711 22.1995 24.2099C22.2993 24.7089 22.2913 25.023 22.2913 25.023" fill="white"/>
</g>
<path opacity="0.15" d="M12.5476 19.1889C11.4964 19.1889 10.5685 19.0007 9.76393 18.6243C8.95933 18.248 8.32992 17.7094 7.87571 17.0087C7.4215 16.3079 7.1944 15.4643 7.1944 14.4781V13.933H9.72499V14.4781C9.72499 15.2956 9.97805 15.9121 10.4842 16.3273C10.9903 16.7296 11.6781 16.9308 12.5476 16.9308C13.43 16.9308 14.0854 16.7556 14.5137 16.4052C14.9549 16.0548 15.1755 15.6071 15.1755 15.062C15.1755 14.6857 15.0717 14.3807 14.8641 14.1471C14.6564 13.9135 14.3514 13.7254 13.9491 13.5826C13.5468 13.4269 13.0537 13.2841 12.4697 13.1544L12.022 13.057C11.0876 12.8494 10.283 12.5898 9.6082 12.2784C8.94635 11.954 8.43374 11.5322 8.07037 11.0131C7.71998 10.494 7.54479 9.81917 7.54479 8.98862C7.54479 8.15806 7.73945 7.45079 8.12877 6.86681C8.53107 6.26985 9.0891 5.81564 9.80286 5.50418C10.5296 5.17974 11.3796 5.01753 12.3529 5.01753C13.3262 5.01753 14.1892 5.18623 14.9419 5.52365C15.7076 5.84808 16.3045 6.34122 16.7328 7.00307C17.174 7.65194 17.3946 8.46952 17.3946 9.4558V10.0398H14.8641V9.4558C14.8641 8.93671 14.7602 8.52143 14.5526 8.20997C14.3579 7.88553 14.0724 7.65194 13.6961 7.50919C13.3197 7.35346 12.872 7.2756 12.3529 7.2756C11.5743 7.2756 10.9968 7.42484 10.6204 7.72332C10.2571 8.00882 10.0754 8.40463 10.0754 8.91075C10.0754 9.24816 10.1597 9.53367 10.3284 9.76726C10.5101 10.0009 10.7762 10.1955 11.1266 10.3512C11.4769 10.507 11.9247 10.6432 12.4697 10.76L12.9174 10.8574C13.8907 11.065 14.7343 11.331 15.448 11.6555C16.1618 11.9799 16.7133 12.4082 17.1027 12.9402C17.505 13.4723 17.7061 14.1536 17.7061 14.9842C17.7061 15.8147 17.492 16.548 17.0637 17.1839C16.6484 17.8068 16.0515 18.2999 15.2728 18.6633C14.5072 19.0137 13.5988 19.1889 12.5476 19.1889ZM11.3601 21.1744V3.03198H13.6961V21.1744H11.3601Z" fill="#050203"/>
</g>
<defs>
<clipPath id="clip0_231_1752">
<rect width="29.2984" height="21.7669" fill="white" transform="translate(10.9141 9.33936)"/>
</clipPath>
</defs>
</svg>
