<svg width="45" height="45" viewBox="0 0 45 45" fill="none" xmlns="http://www.w3.org/2000/svg">
<path fill-rule="evenodd" clip-rule="evenodd" d="M14.0624 11.25V12.6562H10.3366C8.53742 12.6562 7.02861 14.0146 6.84026 15.8038L4.47184 38.3038C4.25334 40.3796 5.88092 42.1875 7.96815 42.1875H37.032C39.1192 42.1875 40.7468 40.3796 40.5283 38.3038L38.1599 15.8038C37.9716 14.0146 36.4627 12.6562 34.6636 12.6562H30.9374V11.25C30.9374 6.5901 27.1598 2.8125 22.4999 2.8125C17.84 2.8125 14.0624 6.5901 14.0624 11.25ZM22.4999 5.625C19.3933 5.625 16.8749 8.1434 16.8749 11.25V12.6562H28.1249V11.25C28.1249 8.1434 25.6065 5.625 22.4999 5.625ZM16.8749 21.0938C16.8749 24.2004 19.3933 26.7188 22.4999 26.7188C25.6065 26.7188 28.1249 24.2004 28.1249 21.0938V19.6875C28.1249 18.9109 28.7545 18.2812 29.5312 18.2812C30.3078 18.2812 30.9374 18.9109 30.9374 19.6875V21.0938C30.9374 25.7537 27.1598 29.5312 22.4999 29.5312C17.84 29.5312 14.0624 25.7537 14.0624 21.0938V19.6875C14.0624 18.9109 14.692 18.2812 15.4687 18.2812C16.2453 18.2812 16.8749 18.9109 16.8749 19.6875V21.0938Z" fill="white"/>
</svg>
