<svg width="708" height="306" viewBox="0 0 708 306" fill="none" xmlns="http://www.w3.org/2000/svg">
<rect x="331" y="122.332" width="342.896" height="82.9626" rx="12" transform="rotate(-3.1841 331 122.332)" fill="#F2622E"/>
<path d="M6.8 95V57.72H17.04V95H6.8ZM11.92 38.2C14.1067 38.2 15.92 38.92 17.36 40.36C18.8 41.7467 19.52 43.56 19.52 45.8C19.52 48.04 18.8 49.88 17.36 51.32C15.92 52.7067 14.1067 53.4 11.92 53.4C9.78667 53.4 7.97333 52.7067 6.48 51.32C5.04 49.88 4.32 48.04 4.32 45.8C4.32 43.56 5.04 41.7467 6.48 40.36C7.97333 38.92 9.78667 38.2 11.92 38.2ZM50.3881 80.12C43.4548 80.12 37.9615 78.2 33.9081 74.36C29.8548 70.4667 27.8281 64.92 27.8281 57.72V44.28C27.8281 37.08 29.8548 31.56 33.9081 27.72C37.9615 23.8267 43.4548 21.88 50.3881 21.88C57.2681 21.88 62.5748 23.7733 66.3081 27.56C70.0948 31.2933 71.9881 36.44 71.9881 43V43.48H61.5881V42.68C61.5881 39.3733 60.6548 36.6533 58.7881 34.52C56.9748 32.3867 54.1748 31.32 50.3881 31.32C46.6548 31.32 43.7215 32.4667 41.5881 34.76C39.4548 37.0533 38.3881 40.1733 38.3881 44.12V57.88C38.3881 61.7733 39.4548 64.8933 41.5881 67.24C43.7215 69.5333 46.6548 70.68 50.3881 70.68C54.1748 70.68 56.9748 69.6133 58.7881 67.48C60.6548 65.2933 61.5881 62.5733 61.5881 59.32V57.88H71.9881V59C71.9881 65.56 70.0948 70.7333 66.3081 74.52C62.5748 78.2533 57.2681 80.12 50.3881 80.12ZM80.9125 79V39.32H90.8325V43.8H92.2725C92.8592 42.2 93.8192 41.0267 95.1525 40.28C96.5392 39.5333 98.1392 39.16 99.9525 39.16H104.753V48.12H99.7925C97.2325 48.12 95.1258 48.8133 93.4725 50.2C91.8192 51.5333 90.9925 53.6133 90.9925 56.44V79H80.9125ZM129.305 80.12C125.358 80.12 121.865 79.2933 118.825 77.64C115.838 75.9333 113.492 73.56 111.785 70.52C110.132 67.4267 109.305 63.8 109.305 59.64V58.68C109.305 54.52 110.132 50.92 111.785 47.88C113.438 44.7867 115.758 42.4133 118.745 40.76C121.732 39.0533 125.198 38.2 129.145 38.2C133.038 38.2 136.425 39.08 139.305 40.84C142.185 42.5467 144.425 44.9467 146.025 48.04C147.625 51.08 148.425 54.6267 148.425 58.68V62.12H119.545C119.652 64.84 120.665 67.0533 122.585 68.76C124.505 70.4667 126.852 71.32 129.625 71.32C132.452 71.32 134.532 70.7067 135.865 69.48C137.198 68.2533 138.212 66.8933 138.905 65.4L147.145 69.72C146.398 71.1067 145.305 72.6267 143.865 74.28C142.478 75.88 140.612 77.2667 138.265 78.44C135.918 79.56 132.932 80.12 129.305 80.12ZM119.625 54.6H138.185C137.972 52.3067 137.038 50.4667 135.385 49.08C133.785 47.6933 131.678 47 129.065 47C126.345 47 124.185 47.6933 122.585 49.08C120.985 50.4667 119.998 52.3067 119.625 54.6ZM169.717 80.12C166.89 80.12 164.357 79.64 162.117 78.68C159.877 77.6667 158.09 76.2267 156.757 74.36C155.477 72.44 154.837 70.12 154.837 67.4C154.837 64.68 155.477 62.4133 156.757 60.6C158.09 58.7333 159.904 57.3467 162.197 56.44C164.544 55.48 167.21 55 170.197 55H181.077V52.76C181.077 50.8933 180.49 49.3733 179.317 48.2C178.144 46.9733 176.277 46.36 173.717 46.36C171.21 46.36 169.344 46.9467 168.117 48.12C166.89 49.24 166.09 50.7067 165.717 52.52L156.437 49.4C157.077 47.3733 158.09 45.5333 159.477 43.88C160.917 42.1733 162.81 40.8133 165.157 39.8C167.557 38.7333 170.464 38.2 173.877 38.2C179.104 38.2 183.237 39.5067 186.277 42.12C189.317 44.7333 190.837 48.52 190.837 53.48V68.28C190.837 69.88 191.584 70.68 193.077 70.68H196.277V79H189.557C187.584 79 185.957 78.52 184.677 77.56C183.397 76.6 182.757 75.32 182.757 73.72V73.64H181.237C181.024 74.28 180.544 75.1333 179.797 76.2C179.05 77.2133 177.877 78.12 176.277 78.92C174.677 79.72 172.49 80.12 169.717 80.12ZM171.477 71.96C174.304 71.96 176.597 71.1867 178.357 69.64C180.17 68.04 181.077 65.9333 181.077 63.32V62.52H170.917C169.05 62.52 167.584 62.92 166.517 63.72C165.45 64.52 164.917 65.64 164.917 67.08C164.917 68.52 165.477 69.6933 166.597 70.6C167.717 71.5067 169.344 71.96 171.477 71.96ZM239.159 79C236.546 79 234.413 78.2 232.759 76.6C231.159 74.9467 230.359 72.76 230.359 70.04V47.64H220.439V39.32H230.359V27H240.439V39.32H251.319V47.64H240.439V68.28C240.439 69.88 241.186 70.68 242.679 70.68H250.359V79H239.159ZM275.564 79.64C272.47 79.64 269.75 78.9467 267.404 77.56C265.11 76.12 263.324 74.1467 262.044 71.64C260.764 69.1333 260.124 66.2533 260.124 63V39.32H270.204V62.2C270.204 65.1867 270.924 67.4267 272.364 68.92C273.857 70.4133 275.964 71.16 278.684 71.16C281.777 71.16 284.177 70.1467 285.884 68.12C287.59 66.04 288.444 63.16 288.444 59.48V39.32H298.524V79H288.604V73.8H287.164C286.524 75.1333 285.324 76.44 283.564 77.72C281.804 79 279.137 79.64 275.564 79.64ZM348.693 80.12C344.853 80.12 341.36 79.32 338.213 77.72C335.12 76.12 332.666 73.8 330.853 70.76C329.04 67.72 328.133 64.04 328.133 59.72V58.6C328.133 54.28 329.04 50.6 330.853 47.56C332.666 44.52 335.12 42.2 338.213 40.6C341.36 39 344.853 38.2 348.693 38.2C352.48 38.2 355.733 38.8667 358.453 40.2C361.173 41.5333 363.36 43.3733 365.013 45.72C366.72 48.0133 367.84 50.6267 368.373 53.56L358.613 55.64C358.4 54.04 357.92 52.6 357.173 51.32C356.426 50.04 355.36 49.0267 353.973 48.28C352.64 47.5333 350.96 47.16 348.933 47.16C346.906 47.16 345.066 47.6133 343.413 48.52C341.813 49.3733 340.533 50.68 339.573 52.44C338.666 54.1467 338.213 56.2533 338.213 58.76V59.56C338.213 62.0667 338.666 64.2 339.573 65.96C340.533 67.6667 341.813 68.9733 343.413 69.88C345.066 70.7333 346.906 71.16 348.933 71.16C351.973 71.16 354.266 70.3867 355.813 68.84C357.413 67.24 358.426 65.16 358.853 62.6L368.613 64.92C367.92 67.7467 366.72 70.3333 365.013 72.68C363.36 74.9733 361.173 76.7867 358.453 78.12C355.733 79.4533 352.48 80.12 348.693 80.12ZM392.048 79.64C388.955 79.64 386.235 78.9467 383.888 77.56C381.595 76.12 379.808 74.1467 378.528 71.64C377.248 69.1333 376.608 66.2533 376.608 63V39.32H386.688V62.2C386.688 65.1867 387.408 67.4267 388.848 68.92C390.341 70.4133 392.448 71.16 395.168 71.16C398.261 71.16 400.661 70.1467 402.368 68.12C404.075 66.04 404.928 63.16 404.928 59.48V39.32H415.008V79H405.088V73.8H403.648C403.008 75.1333 401.808 76.44 400.048 77.72C398.288 79 395.621 79.64 392.048 79.64ZM444.305 80.12C440.358 80.12 436.865 79.2933 433.825 77.64C430.838 75.9333 428.492 73.56 426.785 70.52C425.132 67.4267 424.305 63.8 424.305 59.64V58.68C424.305 54.52 425.132 50.92 426.785 47.88C428.438 44.7867 430.758 42.4133 433.745 40.76C436.732 39.0533 440.198 38.2 444.145 38.2C448.038 38.2 451.425 39.08 454.305 40.84C457.185 42.5467 459.425 44.9467 461.025 48.04C462.625 51.08 463.425 54.6267 463.425 58.68V62.12H434.545C434.652 64.84 435.665 67.0533 437.585 68.76C439.505 70.4667 441.852 71.32 444.625 71.32C447.452 71.32 449.532 70.7067 450.865 69.48C452.198 68.2533 453.212 66.8933 453.905 65.4L462.145 69.72C461.398 71.1067 460.305 72.6267 458.865 74.28C457.478 75.88 455.612 77.2667 453.265 78.44C450.918 79.56 447.932 80.12 444.305 80.12ZM434.625 54.6H453.185C452.972 52.3067 452.038 50.4667 450.385 49.08C448.785 47.6933 446.678 47 444.065 47C441.345 47 439.185 47.6933 437.585 49.08C435.985 50.4667 434.998 52.3067 434.625 54.6ZM472.397 79V39.32H482.317V44.52H483.757C484.397 43.1333 485.597 41.8267 487.357 40.6C489.117 39.32 491.784 38.68 495.357 38.68C498.45 38.68 501.144 39.4 503.437 40.84C505.784 42.2267 507.597 44.1733 508.877 46.68C510.157 49.1333 510.797 52.0133 510.797 55.32V79H500.717V56.12C500.717 53.1333 499.97 50.8933 498.477 49.4C497.037 47.9067 494.957 47.16 492.237 47.16C489.144 47.16 486.744 48.2 485.037 50.28C483.33 52.3067 482.477 55.16 482.477 58.84V79H472.397ZM535.8 79C533.187 79 531.053 78.2 529.4 76.6C527.8 74.9467 527 72.76 527 70.04V47.64H517.08V39.32H527V27H537.08V39.32H547.96V47.64H537.08V68.28C537.08 69.88 537.827 70.68 539.32 70.68H547V79H535.8ZM569.404 80.12C566.578 80.12 564.044 79.64 561.804 78.68C559.564 77.6667 557.778 76.2267 556.444 74.36C555.164 72.44 554.524 70.12 554.524 67.4C554.524 64.68 555.164 62.4133 556.444 60.6C557.778 58.7333 559.591 57.3467 561.884 56.44C564.231 55.48 566.898 55 569.884 55H580.764V52.76C580.764 50.8933 580.178 49.3733 579.004 48.2C577.831 46.9733 575.964 46.36 573.404 46.36C570.898 46.36 569.031 46.9467 567.804 48.12C566.578 49.24 565.778 50.7067 565.404 52.52L556.124 49.4C556.764 47.3733 557.778 45.5333 559.164 43.88C560.604 42.1733 562.498 40.8133 564.844 39.8C567.244 38.7333 570.151 38.2 573.564 38.2C578.791 38.2 582.924 39.5067 585.964 42.12C589.004 44.7333 590.524 48.52 590.524 53.48V68.28C590.524 69.88 591.271 70.68 592.764 70.68H595.964V79H589.244C587.271 79 585.644 78.52 584.364 77.56C583.084 76.6 582.444 75.32 582.444 73.72V73.64H580.924C580.711 74.28 580.231 75.1333 579.484 76.2C578.738 77.2133 577.564 78.12 575.964 78.92C574.364 79.72 572.178 80.12 569.404 80.12ZM571.164 71.96C573.991 71.96 576.284 71.1867 578.044 69.64C579.858 68.04 580.764 65.9333 580.764 63.32V62.52H570.604C568.738 62.52 567.271 62.92 566.204 63.72C565.138 64.52 564.604 65.64 564.604 67.08C564.604 68.52 565.164 69.6933 566.284 70.6C567.404 71.5067 569.031 71.96 571.164 71.96ZM627.967 95V86.2H649.567C651.06 86.2 651.807 85.4 651.807 83.8V73.8H650.367C649.94 74.7067 649.274 75.6133 648.367 76.52C647.46 77.4267 646.234 78.1733 644.687 78.76C643.14 79.3467 641.167 79.64 638.767 79.64C635.674 79.64 632.954 78.9467 630.607 77.56C628.314 76.12 626.527 74.1467 625.247 71.64C623.967 69.1333 623.327 66.2533 623.327 63V39.32H633.407V62.2C633.407 65.1867 634.127 67.4267 635.567 68.92C637.06 70.4133 639.167 71.16 641.887 71.16C644.98 71.16 647.38 70.1467 649.087 68.12C650.794 66.04 651.647 63.16 651.647 59.48V39.32H661.727V86.04C661.727 88.76 660.927 90.92 659.327 92.52C657.727 94.1733 655.594 95 652.927 95H627.967ZM5.6 181V125H15.68V181H5.6ZM26.85 181V125H36.93V181H26.85ZM66.18 182.12C62.2333 182.12 58.74 181.293 55.7 179.64C52.7133 177.933 50.3667 175.56 48.66 172.52C47.0067 169.427 46.18 165.8 46.18 161.64V160.68C46.18 156.52 47.0067 152.92 48.66 149.88C50.3133 146.787 52.6333 144.413 55.62 142.76C58.6067 141.053 62.0733 140.2 66.02 140.2C69.9133 140.2 73.3 141.08 76.18 142.84C79.06 144.547 81.3 146.947 82.9 150.04C84.5 153.08 85.3 156.627 85.3 160.68V164.12H56.42C56.5267 166.84 57.54 169.053 59.46 170.76C61.38 172.467 63.7267 173.32 66.5 173.32C69.3267 173.32 71.4067 172.707 72.74 171.48C74.0733 170.253 75.0867 168.893 75.78 167.4L84.02 171.72C83.2733 173.107 82.18 174.627 80.74 176.28C79.3533 177.88 77.4867 179.267 75.14 180.44C72.7933 181.56 69.8067 182.12 66.18 182.12ZM56.5 156.6H75.06C74.8467 154.307 73.9133 152.467 72.26 151.08C70.66 149.693 68.5533 149 65.94 149C63.22 149 61.06 149.693 59.46 151.08C57.86 152.467 56.8733 154.307 56.5 156.6ZM101.42 181L88.78 141.32H99.5L108.7 173.64H110.14L119.34 141.32H130.06L117.42 181H101.42ZM148.311 182.12C145.484 182.12 142.951 181.64 140.711 180.68C138.471 179.667 136.684 178.227 135.351 176.36C134.071 174.44 133.431 172.12 133.431 169.4C133.431 166.68 134.071 164.413 135.351 162.6C136.684 160.733 138.497 159.347 140.791 158.44C143.137 157.48 145.804 157 148.791 157H159.671V154.76C159.671 152.893 159.084 151.373 157.911 150.2C156.737 148.973 154.871 148.36 152.311 148.36C149.804 148.36 147.937 148.947 146.711 150.12C145.484 151.24 144.684 152.707 144.311 154.52L135.031 151.4C135.671 149.373 136.684 147.533 138.071 145.88C139.511 144.173 141.404 142.813 143.751 141.8C146.151 140.733 149.057 140.2 152.471 140.2C157.697 140.2 161.831 141.507 164.871 144.12C167.911 146.733 169.431 150.52 169.431 155.48V170.28C169.431 171.88 170.177 172.68 171.671 172.68H174.871V181H168.151C166.177 181 164.551 180.52 163.271 179.56C161.991 178.6 161.351 177.32 161.351 175.72V175.64H159.831C159.617 176.28 159.137 177.133 158.391 178.2C157.644 179.213 156.471 180.12 154.871 180.92C153.271 181.72 151.084 182.12 148.311 182.12ZM150.071 173.96C152.897 173.96 155.191 173.187 156.951 171.64C158.764 170.04 159.671 167.933 159.671 165.32V164.52H149.511C147.644 164.52 146.177 164.92 145.111 165.72C144.044 166.52 143.511 167.64 143.511 169.08C143.511 170.52 144.071 171.693 145.191 172.6C146.311 173.507 147.937 173.96 150.071 173.96ZM217.753 181C215.14 181 213.006 180.2 211.353 178.6C209.753 176.947 208.953 174.76 208.953 172.04V149.64H199.033V141.32H208.953V129H219.033V141.32H229.913V149.64H219.033V170.28C219.033 171.88 219.78 172.68 221.273 172.68H228.953V181H217.753ZM254.158 181.64C251.064 181.64 248.344 180.947 245.998 179.56C243.704 178.12 241.918 176.147 240.638 173.64C239.358 171.133 238.717 168.253 238.717 165V141.32H248.798V164.2C248.798 167.187 249.518 169.427 250.958 170.92C252.451 172.413 254.558 173.16 257.278 173.16C260.371 173.16 262.771 172.147 264.478 170.12C266.184 168.04 267.038 165.16 267.038 161.48V141.32H277.118V181H267.198V175.8H265.758C265.118 177.133 263.918 178.44 262.158 179.72C260.398 181 257.731 181.64 254.158 181.64ZM304.814 182.12C299.641 182.12 295.401 181 292.094 178.76C288.788 176.52 286.788 173.32 286.094 169.16L295.374 166.76C295.748 168.627 296.361 170.093 297.214 171.16C298.121 172.227 299.214 173 300.494 173.48C301.828 173.907 303.268 174.12 304.814 174.12C307.161 174.12 308.894 173.72 310.014 172.92C311.134 172.067 311.694 171.027 311.694 169.8C311.694 168.573 311.161 167.64 310.094 167C309.028 166.307 307.321 165.747 304.974 165.32L302.734 164.92C299.961 164.387 297.428 163.667 295.134 162.76C292.841 161.8 291.001 160.493 289.614 158.84C288.228 157.187 287.534 155.053 287.534 152.44C287.534 148.493 288.974 145.48 291.854 143.4C294.734 141.267 298.521 140.2 303.214 140.2C307.641 140.2 311.321 141.187 314.254 143.16C317.188 145.133 319.108 147.72 320.014 150.92L310.654 153.8C310.228 151.773 309.348 150.333 308.014 149.48C306.734 148.627 305.134 148.2 303.214 148.2C301.294 148.2 299.828 148.547 298.814 149.24C297.801 149.88 297.294 150.787 297.294 151.96C297.294 153.24 297.828 154.2 298.894 154.84C299.961 155.427 301.401 155.88 303.214 156.2L305.454 156.6C308.441 157.133 311.134 157.853 313.534 158.76C315.988 159.613 317.908 160.867 319.294 162.52C320.734 164.12 321.454 166.307 321.454 169.08C321.454 173.24 319.934 176.467 316.894 178.76C313.908 181 309.881 182.12 304.814 182.12ZM357.16 181V149.64H347.08V141.32H357.16V133.96C357.16 131.24 357.96 129.08 359.56 127.48C361.213 125.827 363.347 125 365.96 125H375.56V133.32H369.48C367.987 133.32 367.24 134.12 367.24 135.72V141.32H383.24V149.64H367.24V181H357.16ZM383.24 181V141.32H393.32V181H383.24ZM388.28 137C386.467 137 384.92 136.413 383.64 135.24C382.413 134.067 381.8 132.52 381.8 130.6C381.8 128.68 382.413 127.133 383.64 125.96C384.92 124.787 386.467 124.2 388.28 124.2C390.147 124.2 391.693 124.787 392.92 125.96C394.147 127.133 394.76 128.68 394.76 130.6C394.76 132.52 394.147 134.067 392.92 135.24C391.693 136.413 390.147 137 388.28 137ZM404.506 181V141.32H414.426V146.52H415.866C416.506 145.133 417.706 143.827 419.466 142.6C421.226 141.32 423.893 140.68 427.466 140.68C430.56 140.68 433.253 141.4 435.546 142.84C437.893 144.227 439.706 146.173 440.986 148.68C442.266 151.133 442.906 154.013 442.906 157.32V181H432.826V158.12C432.826 155.133 432.08 152.893 430.586 151.4C429.146 149.907 427.066 149.16 424.346 149.16C421.253 149.16 418.853 150.2 417.146 152.28C415.44 154.307 414.586 157.16 414.586 160.84V181H404.506ZM466.123 182.12C463.296 182.12 460.763 181.64 458.523 180.68C456.283 179.667 454.496 178.227 453.163 176.36C451.883 174.44 451.243 172.12 451.243 169.4C451.243 166.68 451.883 164.413 453.163 162.6C454.496 160.733 456.31 159.347 458.603 158.44C460.95 157.48 463.616 157 466.603 157H477.483V154.76C477.483 152.893 476.896 151.373 475.723 150.2C474.55 148.973 472.683 148.36 470.123 148.36C467.616 148.36 465.75 148.947 464.523 150.12C463.296 151.24 462.496 152.707 462.123 154.52L452.843 151.4C453.483 149.373 454.496 147.533 455.883 145.88C457.323 144.173 459.216 142.813 461.563 141.8C463.963 140.733 466.87 140.2 470.283 140.2C475.51 140.2 479.643 141.507 482.683 144.12C485.723 146.733 487.243 150.52 487.243 155.48V170.28C487.243 171.88 487.99 172.68 489.483 172.68H492.683V181H485.963C483.99 181 482.363 180.52 481.083 179.56C479.803 178.6 479.163 177.32 479.163 175.72V175.64H477.643C477.43 176.28 476.95 177.133 476.203 178.2C475.456 179.213 474.283 180.12 472.683 180.92C471.083 181.72 468.896 182.12 466.123 182.12ZM467.883 173.96C470.71 173.96 473.003 173.187 474.763 171.64C476.576 170.04 477.483 167.933 477.483 165.32V164.52H467.323C465.456 164.52 463.99 164.92 462.923 165.72C461.856 166.52 461.323 167.64 461.323 169.08C461.323 170.52 461.883 171.693 463.003 172.6C464.123 173.507 465.75 173.96 467.883 173.96ZM500.053 181V141.32H509.973V146.52H511.413C512.053 145.133 513.253 143.827 515.013 142.6C516.773 141.32 519.44 140.68 523.013 140.68C526.106 140.68 528.8 141.4 531.093 142.84C533.44 144.227 535.253 146.173 536.533 148.68C537.813 151.133 538.453 154.013 538.453 157.32V181H528.373V158.12C528.373 155.133 527.626 152.893 526.133 151.4C524.693 149.907 522.613 149.16 519.893 149.16C516.8 149.16 514.4 150.2 512.693 152.28C510.986 154.307 510.133 157.16 510.133 160.84V181H500.053ZM547.91 181V169L569.67 150.92V149.64H548.71V141.32H580.71V153.32L558.95 171.4V172.68H581.35V181H547.91ZM603.076 182.12C600.25 182.12 597.716 181.64 595.476 180.68C593.236 179.667 591.45 178.227 590.116 176.36C588.836 174.44 588.196 172.12 588.196 169.4C588.196 166.68 588.836 164.413 590.116 162.6C591.45 160.733 593.263 159.347 595.556 158.44C597.903 157.48 600.57 157 603.556 157H614.436V154.76C614.436 152.893 613.85 151.373 612.676 150.2C611.503 148.973 609.636 148.36 607.076 148.36C604.57 148.36 602.703 148.947 601.476 150.12C600.25 151.24 599.45 152.707 599.076 154.52L589.796 151.4C590.436 149.373 591.45 147.533 592.836 145.88C594.276 144.173 596.17 142.813 598.516 141.8C600.916 140.733 603.823 140.2 607.236 140.2C612.463 140.2 616.596 141.507 619.636 144.12C622.676 146.733 624.196 150.52 624.196 155.48V170.28C624.196 171.88 624.943 172.68 626.436 172.68H629.636V181H622.916C620.943 181 619.316 180.52 618.036 179.56C616.756 178.6 616.116 177.32 616.116 175.72V175.64H614.596C614.383 176.28 613.903 177.133 613.156 178.2C612.41 179.213 611.236 180.12 609.636 180.92C608.036 181.72 605.85 182.12 603.076 182.12ZM604.836 173.96C607.663 173.96 609.956 173.187 611.716 171.64C613.53 170.04 614.436 167.933 614.436 165.32V164.52H604.276C602.41 164.52 600.943 164.92 599.876 165.72C598.81 166.52 598.276 167.64 598.276 169.08C598.276 170.52 598.836 171.693 599.956 172.6C601.076 173.507 602.703 173.96 604.836 173.96ZM653.174 182.12C648 182.12 643.76 181 640.454 178.76C637.147 176.52 635.147 173.32 634.454 169.16L643.734 166.76C644.107 168.627 644.72 170.093 645.574 171.16C646.48 172.227 647.574 173 648.854 173.48C650.187 173.907 651.627 174.12 653.174 174.12C655.52 174.12 657.254 173.72 658.374 172.92C659.494 172.067 660.054 171.027 660.054 169.8C660.054 168.573 659.52 167.64 658.454 167C657.387 166.307 655.68 165.747 653.334 165.32L651.094 164.92C648.32 164.387 645.787 163.667 643.494 162.76C641.2 161.8 639.36 160.493 637.974 158.84C636.587 157.187 635.894 155.053 635.894 152.44C635.894 148.493 637.334 145.48 640.214 143.4C643.094 141.267 646.88 140.2 651.574 140.2C656 140.2 659.68 141.187 662.614 143.16C665.547 145.133 667.467 147.72 668.374 150.92L659.014 153.8C658.587 151.773 657.707 150.333 656.374 149.48C655.094 148.627 653.494 148.2 651.574 148.2C649.654 148.2 648.187 148.547 647.174 149.24C646.16 149.88 645.654 150.787 645.654 151.96C645.654 153.24 646.187 154.2 647.254 154.84C648.32 155.427 649.76 155.88 651.574 156.2L653.814 156.6C656.8 157.133 659.494 157.853 661.894 158.76C664.347 159.613 666.267 160.867 667.654 162.52C669.094 164.12 669.814 166.307 669.814 169.08C669.814 173.24 668.294 176.467 665.254 178.76C662.267 181 658.24 182.12 653.174 182.12ZM17.92 284.12C15.0933 284.12 12.56 283.64 10.32 282.68C8.08 281.667 6.29333 280.227 4.96 278.36C3.68 276.44 3.04 274.12 3.04 271.4C3.04 268.68 3.68 266.413 4.96 264.6C6.29333 262.733 8.10667 261.347 10.4 260.44C12.7467 259.48 15.4133 259 18.4 259H29.28V256.76C29.28 254.893 28.6933 253.373 27.52 252.2C26.3467 250.973 24.48 250.36 21.92 250.36C19.4133 250.36 17.5467 250.947 16.32 252.12C15.0933 253.24 14.2933 254.707 13.92 256.52L4.64 253.4C5.28 251.373 6.29333 249.533 7.68 247.88C9.12 246.173 11.0133 244.813 13.36 243.8C15.76 242.733 18.6667 242.2 22.08 242.2C27.3067 242.2 31.44 243.507 34.48 246.12C37.52 248.733 39.04 252.52 39.04 257.48V272.28C39.04 273.88 39.7867 274.68 41.28 274.68H44.48V283H37.76C35.7867 283 34.16 282.52 32.88 281.56C31.6 280.6 30.96 279.32 30.96 277.72V277.64H29.44C29.2267 278.28 28.7467 279.133 28 280.2C27.2533 281.213 26.08 282.12 24.48 282.92C22.88 283.72 20.6933 284.12 17.92 284.12ZM19.68 275.96C22.5067 275.96 24.8 275.187 26.56 273.64C28.3733 272.04 29.28 269.933 29.28 267.32V266.52H19.12C17.2533 266.52 15.7867 266.92 14.72 267.72C13.6533 268.52 13.12 269.64 13.12 271.08C13.12 272.52 13.68 273.693 14.8 274.6C15.92 275.507 17.5467 275.96 19.68 275.96ZM72.1625 283V227H82.2425V283H72.1625ZM112.293 284.12C108.346 284.12 104.799 283.32 101.653 281.72C98.5058 280.12 96.0258 277.8 94.2125 274.76C92.3992 271.72 91.4925 268.067 91.4925 263.8V262.52C91.4925 258.253 92.3992 254.6 94.2125 251.56C96.0258 248.52 98.5058 246.2 101.653 244.6C104.799 243 108.346 242.2 112.293 242.2C116.239 242.2 119.786 243 122.933 244.6C126.079 246.2 128.559 248.52 130.373 251.56C132.186 254.6 133.093 258.253 133.093 262.52V263.8C133.093 268.067 132.186 271.72 130.373 274.76C128.559 277.8 126.079 280.12 122.933 281.72C119.786 283.32 116.239 284.12 112.293 284.12ZM112.293 275.16C115.386 275.16 117.946 274.173 119.973 272.2C121.999 270.173 123.013 267.293 123.013 263.56V262.76C123.013 259.027 121.999 256.173 119.973 254.2C117.999 252.173 115.439 251.16 112.293 251.16C109.199 251.16 106.639 252.173 104.613 254.2C102.586 256.173 101.573 259.027 101.573 262.76V263.56C101.573 267.293 102.586 270.173 104.613 272.2C106.639 274.173 109.199 275.16 112.293 275.16ZM186.549 284.12C182.976 284.12 180.229 283.507 178.309 282.28C176.389 281.053 174.976 279.693 174.069 278.2H172.629V283H162.709V227H172.789V247.88H174.229C174.816 246.92 175.589 246.013 176.549 245.16C177.563 244.307 178.869 243.613 180.469 243.08C182.123 242.493 184.149 242.2 186.549 242.2C189.749 242.2 192.709 243 195.429 244.6C198.149 246.147 200.336 248.44 201.989 251.48C203.643 254.52 204.469 258.2 204.469 262.52V263.8C204.469 268.12 203.643 271.8 201.989 274.84C200.336 277.88 198.149 280.2 195.429 281.8C192.709 283.347 189.749 284.12 186.549 284.12ZM183.509 275.32C186.603 275.32 189.189 274.333 191.269 272.36C193.349 270.333 194.389 267.4 194.389 263.56V262.76C194.389 258.92 193.349 256.013 191.269 254.04C189.243 252.013 186.656 251 183.509 251C180.416 251 177.829 252.013 175.749 254.04C173.669 256.013 172.629 258.92 172.629 262.76V263.56C172.629 267.4 173.669 270.333 175.749 272.36C177.829 274.333 180.416 275.32 183.509 275.32ZM213.725 283V243.32H223.805V283H213.725ZM218.765 238.68C216.952 238.68 215.405 238.093 214.125 236.92C212.898 235.747 212.285 234.2 212.285 232.28C212.285 230.36 212.898 228.813 214.125 227.64C215.405 226.467 216.952 225.88 218.765 225.88C220.632 225.88 222.178 226.467 223.405 227.64C224.632 228.813 225.245 230.36 225.245 232.28C225.245 234.2 224.632 235.747 223.405 236.92C222.178 238.093 220.632 238.68 218.765 238.68ZM253.055 284.12C249.108 284.12 245.615 283.293 242.575 281.64C239.588 279.933 237.242 277.56 235.535 274.52C233.882 271.427 233.055 267.8 233.055 263.64V262.68C233.055 258.52 233.882 254.92 235.535 251.88C237.188 248.787 239.508 246.413 242.495 244.76C245.482 243.053 248.948 242.2 252.895 242.2C256.788 242.2 260.175 243.08 263.055 244.84C265.935 246.547 268.175 248.947 269.775 252.04C271.375 255.08 272.175 258.627 272.175 262.68V266.12H243.295C243.402 268.84 244.415 271.053 246.335 272.76C248.255 274.467 250.602 275.32 253.375 275.32C256.202 275.32 258.282 274.707 259.615 273.48C260.948 272.253 261.962 270.893 262.655 269.4L270.895 273.72C270.148 275.107 269.055 276.627 267.615 278.28C266.228 279.88 264.362 281.267 262.015 282.44C259.668 283.56 256.682 284.12 253.055 284.12ZM243.375 258.6H261.935C261.722 256.307 260.788 254.467 259.135 253.08C257.535 251.693 255.428 251 252.815 251C250.095 251 247.935 251.693 246.335 253.08C244.735 254.467 243.748 256.307 243.375 258.6ZM281.147 283V243.32H291.067V248.52H292.507C293.147 247.133 294.347 245.827 296.107 244.6C297.867 243.32 300.534 242.68 304.107 242.68C307.2 242.68 309.894 243.4 312.187 244.84C314.534 246.227 316.347 248.173 317.627 250.68C318.907 253.133 319.547 256.013 319.547 259.32V283H309.467V260.12C309.467 257.133 308.72 254.893 307.227 253.4C305.787 251.907 303.707 251.16 300.987 251.16C297.894 251.16 295.494 252.2 293.787 254.28C292.08 256.307 291.227 259.16 291.227 262.84V283H281.147ZM331.644 264.6V227H341.884V264.6H331.644ZM336.764 284.12C334.63 284.12 332.817 283.427 331.324 282.04C329.884 280.6 329.164 278.76 329.164 276.52C329.164 274.28 329.884 272.467 331.324 271.08C332.817 269.64 334.63 268.92 336.764 268.92C338.95 268.92 340.764 269.64 342.204 271.08C343.644 272.467 344.364 274.28 344.364 276.52C344.364 278.76 343.644 280.6 342.204 282.04C340.764 283.427 338.95 284.12 336.764 284.12Z" fill="#F9F9F9"/>
<line x1="69" y1="291.5" x2="331" y2="291.5" stroke="#CCFC56" stroke-width="3"/>
</svg>
