<svg width="630" height="282" viewBox="0 0 630 282" fill="none" xmlns="http://www.w3.org/2000/svg">
<rect x="180.426" y="89" width="265.285" height="82.9888" rx="11.0365" transform="rotate(4.4411 180.426 89)" fill="#CCFC56"/>
<path d="M22.6616 73.0301C19.1299 73.0301 15.9171 72.2453 13.0231 70.6756C10.1781 69.0569 7.89723 66.727 6.18044 63.6858C4.5127 60.5956 3.67883 56.8432 3.67883 52.4286V40.0677C3.67883 33.4458 5.54277 28.369 9.27066 24.8374C12.9985 21.2566 18.0508 19.4663 24.4274 19.4663C30.755 19.4663 35.6356 21.1585 39.0692 24.5431C42.5518 27.8785 44.2931 32.4158 44.2931 38.1547V38.449H34.7282V37.8604C34.7282 36.0455 34.3358 34.4023 33.551 32.9308C32.8152 31.4593 31.687 30.3066 30.1664 29.4727C28.6458 28.5898 26.7328 28.1483 24.4274 28.1483C20.9939 28.1483 18.2961 29.2029 16.334 31.3121C14.372 33.4213 13.391 36.2908 13.391 39.9206V52.5758C13.391 56.1565 14.372 59.0505 16.334 61.2578C18.2961 63.4161 21.0429 64.4952 24.5746 64.4952C28.1063 64.4952 30.6815 63.5632 32.3001 61.6993C33.9188 59.8353 34.7282 57.4809 34.7282 54.6359V53.9001H22.5145V45.6596H44.2931V72H35.3168V67.0704H33.9924C33.6491 67.9042 33.085 68.7872 32.3001 69.7191C31.5644 70.6511 30.4362 71.4359 28.9156 72.0736C27.395 72.7112 25.3104 73.0301 22.6616 73.0301ZM70.4945 73.0301C66.8647 73.0301 63.6518 72.2698 60.8559 70.7492C58.1091 69.1796 55.9508 66.9968 54.3812 64.2009C52.8606 61.3559 52.1003 58.0204 52.1003 54.1945V53.3115C52.1003 49.4855 52.8606 46.1746 54.3812 43.3787C55.9018 40.5337 58.0355 38.3509 60.7824 36.8304C63.5292 35.2607 66.7175 34.4759 70.3473 34.4759C73.9281 34.4759 77.0428 35.2853 79.6916 36.9039C82.3403 38.4736 84.4005 40.6809 85.872 43.5258C87.3435 46.3217 88.0793 49.5836 88.0793 53.3115V56.4753H61.5181C61.6162 58.9769 62.5482 61.0126 64.314 62.5822C66.0799 64.1518 68.2381 64.9366 70.7888 64.9366C73.3885 64.9366 75.3015 64.3726 76.5278 63.2444C77.754 62.1162 78.686 60.8654 79.3237 59.492L86.9021 63.4651C86.2154 64.7404 85.2098 66.1384 83.8854 67.659C82.6101 69.1305 80.8933 70.4058 78.7351 71.485C76.5768 72.515 73.8299 73.0301 70.4945 73.0301ZM61.5917 49.5591H78.6615C78.4653 47.4499 77.6069 45.7577 76.0863 44.4823C74.6148 43.207 72.6772 42.5693 70.2737 42.5693C67.7721 42.5693 65.7856 43.207 64.314 44.4823C62.8425 45.7577 61.9351 47.4499 61.5917 49.5591ZM109.161 72C106.757 72 104.795 71.2642 103.275 69.7927C101.803 68.2721 101.067 66.261 101.067 63.7594V43.158H91.9438V35.506H101.067V24.1752H110.338V35.506H120.344V43.158H110.338V62.1407C110.338 63.6123 111.025 64.348 112.398 64.348H119.461V72H109.161ZM162.574 73.0301C157.817 73.0301 153.917 72 150.876 69.9399C147.835 67.8797 145.995 64.9366 145.358 61.1107L153.892 58.9034C154.236 60.6201 154.8 61.9691 155.585 62.9501C156.419 63.9311 157.424 64.6423 158.601 65.0838C159.828 65.4762 161.152 65.6724 162.574 65.6724C164.733 65.6724 166.327 65.3045 167.357 64.5688C168.387 63.7839 168.902 62.8274 168.902 61.6993C168.902 60.5711 168.412 59.7127 167.431 59.1241C166.45 58.4864 164.88 57.9714 162.722 57.579L160.661 57.2111C158.111 56.7206 155.781 56.0584 153.672 55.2245C151.563 54.3416 149.87 53.1399 148.595 51.6193C147.32 50.0987 146.682 48.1366 146.682 45.7331C146.682 42.1034 148.006 39.332 150.655 37.419C153.304 35.4569 156.786 34.4759 161.103 34.4759C165.174 34.4759 168.559 35.3834 171.257 37.1982C173.954 39.0131 175.72 41.3921 176.554 44.3352L167.946 46.9839C167.553 45.12 166.744 43.7956 165.518 43.0108C164.34 42.226 162.869 41.8336 161.103 41.8336C159.337 41.8336 157.988 42.1524 157.056 42.7901C156.124 43.3787 155.658 44.2126 155.658 45.2917C155.658 46.4689 156.149 47.3518 157.13 47.9404C158.111 48.48 159.435 48.8969 161.103 49.1912L163.163 49.5591C165.91 50.0496 168.387 50.7118 170.594 51.5457C172.851 52.3305 174.617 53.4832 175.892 55.0038C177.216 56.4753 177.878 58.4864 177.878 61.0371C177.878 64.8631 176.48 67.8307 173.685 69.9399C170.938 72 167.234 73.0301 162.574 73.0301ZM199.263 72C196.86 72 194.898 71.2642 193.377 69.7927C191.906 68.2721 191.17 66.261 191.17 63.7594V43.158H182.046V35.506H191.17V24.1752H200.441V35.506H210.447V43.158H200.441V62.1407C200.441 63.6123 201.127 64.348 202.501 64.348H209.564V72H199.263ZM230.17 73.0301C227.57 73.0301 225.24 72.5886 223.18 71.7057C221.12 70.7737 219.476 69.4493 218.25 67.7326C217.073 65.9667 216.484 63.833 216.484 61.3314C216.484 58.8298 217.073 56.7451 218.25 55.0774C219.476 53.3606 221.144 52.0853 223.253 51.2514C225.412 50.3685 227.864 49.927 230.611 49.927H240.617V47.8669C240.617 46.1501 240.078 44.7521 238.999 43.673C237.92 42.5448 236.203 41.9807 233.848 41.9807C231.543 41.9807 229.826 42.5203 228.698 43.5994C227.57 44.6295 226.834 45.9784 226.491 47.6461L217.956 44.7766C218.544 42.9127 219.476 41.2204 220.752 39.6999C222.076 38.1302 223.817 36.8794 225.976 35.9474C228.183 34.9664 230.856 34.4759 233.996 34.4759C238.803 34.4759 242.604 35.6777 245.4 38.0812C248.196 40.4847 249.594 43.9673 249.594 48.529V62.1407C249.594 63.6123 250.281 64.348 251.654 64.348H254.597V72H248.417C246.602 72 245.106 71.5585 243.928 70.6756C242.751 69.7927 242.163 68.6155 242.163 67.1439V67.0704H240.765C240.568 67.659 240.127 68.4438 239.44 69.4248C238.754 70.3568 237.674 71.1907 236.203 71.9264C234.731 72.6622 232.72 73.0301 230.17 73.0301ZM231.788 65.5253C234.388 65.5253 236.497 64.814 238.116 63.3915C239.784 61.92 240.617 59.9825 240.617 57.579V56.8432H231.273C229.556 56.8432 228.208 57.2111 227.227 57.9469C226.245 58.6826 225.755 59.7127 225.755 61.0371C225.755 62.3615 226.27 63.4406 227.3 64.2745C228.33 65.1083 229.826 65.5253 231.788 65.5253ZM261.375 72V35.506H270.499V39.6263H271.823C272.363 38.1547 273.246 37.0756 274.472 36.3889C275.747 35.7022 277.219 35.3588 278.887 35.3588H283.301V43.5994H278.739C276.385 43.5994 274.447 44.2371 272.927 45.5124C271.406 46.7387 270.646 48.6517 270.646 51.2514V72H261.375ZM304.527 72C302.123 72 300.161 71.2642 298.641 69.7927C297.169 68.2721 296.433 66.261 296.433 63.7594V43.158H287.31V35.506H296.433V24.1752H305.704V35.506H315.71V43.158H305.704V62.1407C305.704 63.6123 306.391 64.348 307.764 64.348H314.828V72H304.527ZM339.437 73.0301C335.807 73.0301 332.595 72.2698 329.799 70.7492C327.052 69.1796 324.894 66.9968 323.324 64.2009C321.803 61.3559 321.043 58.0204 321.043 54.1945V53.3115C321.043 49.4855 321.803 46.1746 323.324 43.3787C324.845 40.5337 326.978 38.3509 329.725 36.8304C332.472 35.2607 335.66 34.4759 339.29 34.4759C342.871 34.4759 345.986 35.2853 348.634 36.9039C351.283 38.4736 353.343 40.6809 354.815 43.5258C356.286 46.3217 357.022 49.5836 357.022 53.3115V56.4753H330.461C330.559 58.9769 331.491 61.0126 333.257 62.5822C335.023 64.1518 337.181 64.9366 339.732 64.9366C342.331 64.9366 344.244 64.3726 345.471 63.2444C346.697 62.1162 347.629 60.8654 348.266 59.492L355.845 63.4651C355.158 64.7404 354.153 66.1384 352.828 67.659C351.553 69.1305 349.836 70.4058 347.678 71.485C345.52 72.515 342.773 73.0301 339.437 73.0301ZM330.534 49.5591H347.604C347.408 47.4499 346.55 45.7577 345.029 44.4823C343.558 43.207 341.62 42.5693 339.216 42.5693C336.715 42.5693 334.728 43.207 333.257 44.4823C331.785 45.7577 330.878 47.4499 330.534 49.5591ZM379.989 73.0301C377.095 73.0301 374.373 72.3188 371.822 70.8964C369.32 69.4248 367.309 67.2911 365.789 64.4952C364.268 61.6993 363.508 58.3147 363.508 54.3416V53.1644C363.508 49.1912 364.268 45.8067 365.789 43.0108C367.309 40.2149 369.32 38.1057 371.822 36.6832C374.323 35.2117 377.046 34.4759 379.989 34.4759C382.196 34.4759 384.036 34.7457 385.507 35.2853C387.028 35.7758 388.254 36.4134 389.186 37.1982C390.118 37.9831 390.829 38.8169 391.32 39.6999H392.644V20.4963H401.915V72H392.791V67.5854H391.467C390.633 68.9588 389.333 70.2096 387.567 71.3378C385.851 72.466 383.324 73.0301 379.989 73.0301ZM382.785 64.9366C385.63 64.9366 388.009 64.0292 389.922 62.2143C391.835 60.3504 392.791 57.6526 392.791 54.1209V53.3851C392.791 49.8534 391.835 47.1801 389.922 45.3653C388.058 43.5013 385.679 42.5693 382.785 42.5693C379.94 42.5693 377.561 43.5013 375.648 45.3653C373.735 47.1801 372.778 49.8534 372.778 53.3851V54.1209C372.778 57.6526 373.735 60.3504 375.648 62.2143C377.561 64.0292 379.94 64.9366 382.785 64.9366ZM442.205 73.0301C439.606 73.0301 437.276 72.5886 435.216 71.7057C433.155 70.7737 431.512 69.4493 430.286 67.7326C429.109 65.9667 428.52 63.833 428.52 61.3314C428.52 58.8298 429.109 56.7451 430.286 55.0774C431.512 53.3606 433.18 52.0853 435.289 51.2514C437.447 50.3685 439.9 49.927 442.647 49.927H452.653V47.8669C452.653 46.1501 452.114 44.7521 451.035 43.673C449.955 42.5448 448.239 41.9807 445.884 41.9807C443.579 41.9807 441.862 42.5203 440.734 43.5994C439.606 44.6295 438.87 45.9784 438.527 47.6461L429.992 44.7766C430.58 42.9127 431.512 41.2204 432.788 39.6999C434.112 38.1302 435.853 36.8794 438.012 35.9474C440.219 34.9664 442.892 34.4759 446.031 34.4759C450.838 34.4759 454.64 35.6777 457.436 38.0812C460.232 40.4847 461.63 43.9673 461.63 48.529V62.1407C461.63 63.6123 462.316 64.348 463.69 64.348H466.633V72H460.452C458.638 72 457.141 71.5585 455.964 70.6756C454.787 69.7927 454.198 68.6155 454.198 67.1439V67.0704H452.8C452.604 67.659 452.163 68.4438 451.476 69.4248C450.789 70.3568 449.71 71.1907 448.239 71.9264C446.767 72.6622 444.756 73.0301 442.205 73.0301ZM443.824 65.5253C446.424 65.5253 448.533 64.814 450.152 63.3915C451.819 61.92 452.653 59.9825 452.653 57.579V56.8432H443.309C441.592 56.8432 440.243 57.2111 439.262 57.9469C438.281 58.6826 437.791 59.7127 437.791 61.0371C437.791 62.3615 438.306 63.4406 439.336 64.2745C440.366 65.1083 441.862 65.5253 443.824 65.5253ZM473.411 72V35.506H482.535V40.2885H483.859C484.448 39.0131 485.551 37.8114 487.17 36.6832C488.789 35.506 491.241 34.9174 494.528 34.9174C497.373 34.9174 499.85 35.5796 501.959 36.9039C504.117 38.1793 505.785 39.9696 506.962 42.275C508.139 44.5314 508.728 47.1801 508.728 50.2213V72H499.457V50.9571C499.457 48.2102 498.771 46.1501 497.397 44.7766C496.073 43.4032 494.16 42.7165 491.658 42.7165C488.813 42.7165 486.606 43.673 485.036 45.586C483.467 47.4499 482.682 50.0742 482.682 53.4587V72H473.411ZM533.465 73.0301C530.571 73.0301 527.849 72.3188 525.298 70.8964C522.797 69.4248 520.785 67.2911 519.265 64.4952C517.744 61.6993 516.984 58.3147 516.984 54.3416V53.1644C516.984 49.1912 517.744 45.8067 519.265 43.0108C520.785 40.2149 522.797 38.1057 525.298 36.6832C527.8 35.2117 530.522 34.4759 533.465 34.4759C535.672 34.4759 537.512 34.7457 538.983 35.2853C540.504 35.7758 541.73 36.4134 542.662 37.1982C543.594 37.9831 544.305 38.8169 544.796 39.6999H546.12V20.4963H555.391V72H546.268V67.5854H544.943C544.109 68.9588 542.809 70.2096 541.044 71.3378C539.327 72.466 536.801 73.0301 533.465 73.0301ZM536.261 64.9366C539.106 64.9366 541.485 64.0292 543.398 62.2143C545.311 60.3504 546.268 57.6526 546.268 54.1209V53.3851C546.268 49.8534 545.311 47.1801 543.398 45.3653C541.534 43.5013 539.155 42.5693 536.261 42.5693C533.416 42.5693 531.037 43.5013 529.124 45.3653C527.211 47.1801 526.255 49.8534 526.255 53.3851V54.1209C526.255 57.6526 527.211 60.3504 529.124 62.2143C531.037 64.0292 533.416 64.9366 536.261 64.9366ZM19.1299 166C16.7264 166 14.7644 165.264 13.2438 163.793C11.7723 162.272 11.0365 160.261 11.0365 157.759V137.158H1.91299V129.506H11.0365V118.175H20.3072V129.506H30.3136V137.158H20.3072V156.141C20.3072 157.612 20.9939 158.348 22.3673 158.348H29.4307V166H19.1299ZM50.0361 167.03C47.4364 167.03 45.1065 166.589 43.0464 165.706C40.9862 164.774 39.343 163.449 38.1167 161.733C36.9395 159.967 36.3509 157.833 36.3509 155.331C36.3509 152.83 36.9395 150.745 38.1167 149.077C39.343 147.361 41.0107 146.085 43.1199 145.251C45.2782 144.368 47.7307 143.927 50.4776 143.927H60.484V141.867C60.484 140.15 59.9445 138.752 58.8653 137.673C57.7862 136.545 56.0694 135.981 53.715 135.981C51.4096 135.981 49.6928 136.52 48.5646 137.599C47.4364 138.629 46.7007 139.978 46.3573 141.646L37.8224 138.777C38.411 136.913 39.343 135.22 40.6183 133.7C41.9427 132.13 43.684 130.879 45.8423 129.947C48.0496 128.966 50.7229 128.476 53.8621 128.476C58.6691 128.476 62.4706 129.678 65.2665 132.081C68.0624 134.485 69.4604 137.967 69.4604 142.529V156.141C69.4604 157.612 70.1471 158.348 71.5205 158.348H74.4636V166H68.2832C66.4683 166 64.9722 165.559 63.795 164.676C62.6177 163.793 62.0291 162.615 62.0291 161.144V161.07H60.6312C60.435 161.659 59.9935 162.444 59.3068 163.425C58.6201 164.357 57.541 165.191 56.0694 165.926C54.5979 166.662 52.5868 167.03 50.0361 167.03ZM51.6548 159.525C54.2545 159.525 56.3637 158.814 57.9824 157.392C59.6502 155.92 60.484 153.982 60.484 151.579V150.843H51.1398C49.423 150.843 48.0741 151.211 47.0931 151.947C46.1121 152.683 45.6215 153.713 45.6215 155.037C45.6215 156.361 46.1366 157.441 47.1667 158.274C48.1967 159.108 49.6928 159.525 51.6548 159.525ZM81.2418 166V114.496H90.5125V142.971H91.8369L103.903 129.506H115.97L99.121 147.164L116.559 166H104.639L91.8369 151.505H90.5125V166H81.2418ZM137.173 167.03C133.544 167.03 130.331 166.27 127.535 164.749C124.788 163.18 122.63 160.997 121.06 158.201C119.539 155.356 118.779 152.02 118.779 148.194V147.312C118.779 143.486 119.539 140.175 121.06 137.379C122.581 134.534 124.714 132.351 127.461 130.83C130.208 129.261 133.396 128.476 137.026 128.476C140.607 128.476 143.722 129.285 146.37 130.904C149.019 132.474 151.079 134.681 152.551 137.526C154.022 140.322 154.758 143.584 154.758 147.312V150.475H128.197C128.295 152.977 129.227 155.013 130.993 156.582C132.759 158.152 134.917 158.937 137.468 158.937C140.067 158.937 141.98 158.373 143.207 157.244C144.433 156.116 145.365 154.865 146.003 153.492L153.581 157.465C152.894 158.74 151.889 160.138 150.564 161.659C149.289 163.131 147.572 164.406 145.414 165.485C143.256 166.515 140.509 167.03 137.173 167.03ZM128.271 143.559H145.34C145.144 141.45 144.286 139.758 142.765 138.482C141.294 137.207 139.356 136.569 136.953 136.569C134.451 136.569 132.464 137.207 130.993 138.482C129.521 139.758 128.614 141.45 128.271 143.559ZM476.261 167.03C472.631 167.03 469.369 166.294 466.475 164.823C463.581 163.351 461.3 161.218 459.633 158.422C457.965 155.626 457.131 152.266 457.131 148.342V147.164C457.131 143.24 457.965 139.88 459.633 137.084C461.3 134.288 463.581 132.155 466.475 130.683C469.369 129.212 472.631 128.476 476.261 128.476C479.891 128.476 483.153 129.212 486.047 130.683C488.941 132.155 491.222 134.288 492.889 137.084C494.557 139.88 495.391 143.24 495.391 147.164V148.342C495.391 152.266 494.557 155.626 492.889 158.422C491.222 161.218 488.941 163.351 486.047 164.823C483.153 166.294 479.891 167.03 476.261 167.03ZM476.261 158.789C479.106 158.789 481.46 157.882 483.324 156.067C485.188 154.203 486.12 151.554 486.12 148.121V147.385C486.12 143.952 485.188 141.327 483.324 139.512C481.51 137.648 479.155 136.716 476.261 136.716C473.416 136.716 471.062 137.648 469.198 139.512C467.334 141.327 466.402 143.952 466.402 147.385V148.121C466.402 151.554 467.334 154.203 469.198 156.067C471.062 157.882 473.416 158.789 476.261 158.789ZM508.832 166V137.158H499.561V129.506H508.832V122.737C508.832 120.235 509.568 118.249 511.039 116.777C512.56 115.257 514.522 114.496 516.925 114.496H526.49V122.148H520.163C518.789 122.148 518.103 122.884 518.103 124.356V129.506H527.668V137.158H518.103V166H508.832ZM9.1235 274.715V266.622H28.9892C30.3626 266.622 31.0493 265.886 31.0493 264.415V255.218H29.725C29.3326 256.051 28.7194 256.885 27.8855 257.719C27.0517 258.553 25.9235 259.24 24.501 259.779C23.0785 260.319 21.2637 260.589 19.0564 260.589C16.2114 260.589 13.7098 259.951 11.5515 258.676C9.44234 257.351 7.79912 255.536 6.6219 253.231C5.44467 250.926 4.85606 248.277 4.85606 245.285V223.506H14.1267V244.549C14.1267 247.296 14.7889 249.356 16.1133 250.729C17.4867 252.103 19.4242 252.789 21.9258 252.789C24.7708 252.789 26.9781 251.858 28.5477 249.994C30.1174 248.081 30.9022 245.432 30.9022 242.047V223.506H40.1728V266.475C40.1728 268.976 39.4371 270.963 37.9656 272.434C36.494 273.955 34.532 274.715 32.0794 274.715H9.1235ZM67.8532 261.03C64.2234 261.03 60.9615 260.294 58.0675 258.823C55.1735 257.351 52.8926 255.218 51.2249 252.422C49.5571 249.626 48.7233 246.266 48.7233 242.342V241.164C48.7233 237.24 49.5571 233.88 51.2249 231.084C52.8926 228.288 55.1735 226.155 58.0675 224.683C60.9615 223.212 64.2234 222.476 67.8532 222.476C71.483 222.476 74.7449 223.212 77.6389 224.683C80.5329 226.155 82.8138 228.288 84.4815 231.084C86.1492 233.88 86.9831 237.24 86.9831 241.164V242.342C86.9831 246.266 86.1492 249.626 84.4815 252.422C82.8138 255.218 80.5329 257.351 77.6389 258.823C74.7449 260.294 71.483 261.03 67.8532 261.03ZM67.8532 252.789C70.6982 252.789 73.0526 251.882 74.9165 250.067C76.7805 248.203 77.7125 245.554 77.7125 242.121V241.385C77.7125 237.952 76.7805 235.327 74.9165 233.512C73.1017 231.648 70.7472 230.716 67.8532 230.716C65.0082 230.716 62.6538 231.648 60.7898 233.512C58.9259 235.327 57.9939 237.952 57.9939 241.385V242.121C57.9939 245.554 58.9259 248.203 60.7898 250.067C62.6538 251.882 65.0082 252.789 67.8532 252.789ZM109.446 260.589C106.601 260.589 104.1 259.951 101.942 258.676C99.8324 257.351 98.1892 255.536 97.012 253.231C95.8347 250.926 95.2461 248.277 95.2461 245.285V223.506H104.517V244.549C104.517 247.296 105.179 249.356 106.503 250.729C107.877 252.103 109.814 252.789 112.316 252.789C115.161 252.789 117.368 251.858 118.938 249.994C120.507 248.081 121.292 245.432 121.292 242.047V223.506H130.563V260H121.439V255.218H120.115C119.526 256.444 118.423 257.646 116.804 258.823C115.185 260 112.733 260.589 109.446 260.589ZM140.879 260V223.506H150.003V227.626H151.327C151.867 226.155 152.75 225.076 153.976 224.389C155.251 223.702 156.723 223.359 158.39 223.359H162.805V231.599H158.243C155.889 231.599 153.951 232.237 152.431 233.512C150.91 234.739 150.15 236.652 150.15 239.251V260H140.879ZM194.766 260V231.158H185.495V223.506H194.766V216.737C194.766 214.235 195.502 212.249 196.973 210.777C198.494 209.257 200.456 208.496 202.859 208.496H211.689V216.148H206.097C204.723 216.148 204.037 216.884 204.037 218.356V223.506H218.752V231.158H204.037V260H194.766ZM218.752 260V223.506H228.023V260H218.752ZM223.387 219.533C221.72 219.533 220.297 218.993 219.12 217.914C217.992 216.835 217.428 215.413 217.428 213.647C217.428 211.881 217.992 210.458 219.12 209.379C220.297 208.3 221.72 207.761 223.387 207.761C225.104 207.761 226.527 208.3 227.655 209.379C228.783 210.458 229.347 211.881 229.347 213.647C229.347 215.413 228.783 216.835 227.655 217.914C226.527 218.993 225.104 219.533 223.387 219.533ZM238.311 260V223.506H247.434V228.288H248.759C249.347 227.013 250.451 225.811 252.07 224.683C253.688 223.506 256.141 222.917 259.427 222.917C262.272 222.917 264.749 223.58 266.858 224.904C269.017 226.179 270.684 227.97 271.862 230.275C273.039 232.531 273.628 235.18 273.628 238.221V260H264.357V238.957C264.357 236.21 263.67 234.15 262.297 232.777C260.972 231.403 259.059 230.716 256.558 230.716C253.713 230.716 251.505 231.673 249.936 233.586C248.366 235.45 247.581 238.074 247.581 241.459V260H238.311ZM294.98 261.03C292.381 261.03 290.051 260.589 287.99 259.706C285.93 258.774 284.287 257.449 283.061 255.733C281.884 253.967 281.295 251.833 281.295 249.331C281.295 246.83 281.884 244.745 283.061 243.077C284.287 241.361 285.955 240.085 288.064 239.251C290.222 238.368 292.675 237.927 295.422 237.927H305.428V235.867C305.428 234.15 304.889 232.752 303.809 231.673C302.73 230.545 301.014 229.981 298.659 229.981C296.354 229.981 294.637 230.52 293.509 231.599C292.381 232.629 291.645 233.978 291.301 235.646L282.767 232.777C283.355 230.913 284.287 229.22 285.562 227.7C286.887 226.13 288.628 224.879 290.786 223.947C292.994 222.966 295.667 222.476 298.806 222.476C303.613 222.476 307.415 223.678 310.211 226.081C313.007 228.485 314.404 231.967 314.404 236.529V250.141C314.404 251.612 315.091 252.348 316.465 252.348H319.408V260H313.227C311.412 260 309.916 259.559 308.739 258.676C307.562 257.793 306.973 256.615 306.973 255.144V255.07H305.575C305.379 255.659 304.938 256.444 304.251 257.425C303.564 258.357 302.485 259.191 301.014 259.926C299.542 260.662 297.531 261.03 294.98 261.03ZM296.599 253.525C299.199 253.525 301.308 252.814 302.927 251.392C304.594 249.92 305.428 247.982 305.428 245.579V244.843H296.084C294.367 244.843 293.018 245.211 292.037 245.947C291.056 246.683 290.566 247.713 290.566 249.037C290.566 250.361 291.081 251.441 292.111 252.274C293.141 253.108 294.637 253.525 296.599 253.525ZM326.186 260V223.506H335.309V228.288H336.634C337.222 227.013 338.326 225.811 339.945 224.683C341.563 223.506 344.016 222.917 347.302 222.917C350.147 222.917 352.624 223.58 354.734 224.904C356.892 226.179 358.56 227.97 359.737 230.275C360.914 232.531 361.503 235.18 361.503 238.221V260H352.232V238.957C352.232 236.21 351.545 234.15 350.172 232.777C348.848 231.403 346.935 230.716 344.433 230.716C341.588 230.716 339.381 231.673 337.811 233.586C336.241 235.45 335.457 238.074 335.457 241.459V260H326.186ZM388.668 261.03C385.136 261.03 381.924 260.294 379.03 258.823C376.185 257.351 373.928 255.218 372.26 252.422C370.593 249.626 369.759 246.241 369.759 242.268V241.238C369.759 237.265 370.593 233.88 372.26 231.084C373.928 228.288 376.185 226.155 379.03 224.683C381.924 223.212 385.136 222.476 388.668 222.476C392.151 222.476 395.143 223.089 397.644 224.315C400.146 225.542 402.157 227.234 403.678 229.392C405.247 231.501 406.277 233.905 406.768 236.603L397.792 238.516C397.595 237.044 397.154 235.72 396.467 234.542C395.78 233.365 394.799 232.433 393.524 231.747C392.298 231.06 390.753 230.716 388.889 230.716C387.025 230.716 385.333 231.133 383.812 231.967C382.34 232.752 381.163 233.954 380.28 235.573C379.446 237.142 379.03 239.08 379.03 241.385V242.121C379.03 244.426 379.446 246.388 380.28 248.007C381.163 249.577 382.34 250.778 383.812 251.612C385.333 252.397 387.025 252.789 388.889 252.789C391.685 252.789 393.794 252.078 395.216 250.656C396.688 249.184 397.62 247.271 398.012 244.917L406.989 247.051C406.351 249.65 405.247 252.029 403.678 254.187C402.157 256.297 400.146 257.964 397.644 259.191C395.143 260.417 392.151 261.03 388.668 261.03ZM431.264 261.03C427.635 261.03 424.422 260.27 421.626 258.749C418.879 257.18 416.721 254.997 415.151 252.201C413.63 249.356 412.87 246.02 412.87 242.194V241.312C412.87 237.486 413.63 234.175 415.151 231.379C416.672 228.534 418.805 226.351 421.552 224.83C424.299 223.261 427.487 222.476 431.117 222.476C434.698 222.476 437.813 223.285 440.461 224.904C443.11 226.474 445.17 228.681 446.642 231.526C448.113 234.322 448.849 237.584 448.849 241.312V244.475H422.288C422.386 246.977 423.318 249.013 425.084 250.582C426.85 252.152 429.008 252.937 431.559 252.937C434.158 252.937 436.071 252.373 437.298 251.244C438.524 250.116 439.456 248.865 440.094 247.492L447.672 251.465C446.985 252.74 445.98 254.138 444.655 255.659C443.38 257.131 441.663 258.406 439.505 259.485C437.347 260.515 434.6 261.03 431.264 261.03ZM422.362 237.559H439.431C439.235 235.45 438.377 233.758 436.856 232.482C435.385 231.207 433.447 230.569 431.044 230.569C428.542 230.569 426.555 231.207 425.084 232.482C423.612 233.758 422.705 235.45 422.362 237.559ZM472.257 261.03C467.499 261.03 463.6 260 460.559 257.94C457.518 255.88 455.678 252.937 455.041 249.111L463.575 246.903C463.919 248.62 464.483 249.969 465.268 250.95C466.102 251.931 467.107 252.642 468.284 253.084C469.511 253.476 470.835 253.672 472.257 253.672C474.416 253.672 476.01 253.305 477.04 252.569C478.07 251.784 478.585 250.827 478.585 249.699C478.585 248.571 478.095 247.713 477.113 247.124C476.132 246.486 474.563 245.971 472.405 245.579L470.344 245.211C467.794 244.721 465.464 244.058 463.355 243.225C461.245 242.342 459.553 241.14 458.278 239.619C457.003 238.099 456.365 236.137 456.365 233.733C456.365 230.103 457.689 227.332 460.338 225.419C462.987 223.457 466.469 222.476 470.786 222.476C474.857 222.476 478.242 223.383 480.939 225.198C483.637 227.013 485.403 229.392 486.237 232.335L477.629 234.984C477.236 233.12 476.427 231.796 475.201 231.011C474.023 230.226 472.552 229.834 470.786 229.834C469.02 229.834 467.671 230.152 466.739 230.79C465.807 231.379 465.341 232.213 465.341 233.292C465.341 234.469 465.832 235.352 466.813 235.94C467.794 236.48 469.118 236.897 470.786 237.191L472.846 237.559C475.593 238.05 478.07 238.712 480.277 239.546C482.534 240.331 484.299 241.483 485.575 243.004C486.899 244.475 487.561 246.486 487.561 249.037C487.561 252.863 486.163 255.831 483.368 257.94C480.621 260 476.917 261.03 472.257 261.03ZM496.789 243.077V208.496H506.207V243.077H496.789ZM501.571 261.03C499.56 261.03 497.868 260.392 496.495 259.117C495.17 257.793 494.508 256.1 494.508 254.04C494.508 251.98 495.17 250.312 496.495 249.037C497.868 247.713 499.56 247.051 501.571 247.051C503.533 247.051 505.177 247.713 506.501 249.037C507.825 250.312 508.488 251.98 508.488 254.04C508.488 256.1 507.825 257.793 506.501 259.117C505.177 260.392 503.533 261.03 501.571 261.03Z" fill="#F9F9F9"/>
<path d="M198.835 167.03C195.303 167.03 192.09 166.294 189.196 164.823C186.351 163.351 184.095 161.218 182.427 158.422C180.759 155.626 179.925 152.241 179.925 148.268V147.238C179.925 143.265 180.759 139.88 182.427 137.084C184.095 134.288 186.351 132.155 189.196 130.683C192.09 129.212 195.303 128.476 198.835 128.476C202.317 128.476 205.309 129.089 207.811 130.315C210.313 131.542 212.324 133.234 213.844 135.392C215.414 137.501 216.444 139.905 216.934 142.603L207.958 144.516C207.762 143.044 207.32 141.72 206.634 140.542C205.947 139.365 204.966 138.433 203.691 137.747C202.464 137.06 200.919 136.716 199.055 136.716C197.191 136.716 195.499 137.133 193.978 137.967C192.507 138.752 191.33 139.954 190.447 141.573C189.613 143.142 189.196 145.08 189.196 147.385V148.121C189.196 150.426 189.613 152.388 190.447 154.007C191.33 155.577 192.507 156.778 193.978 157.612C195.499 158.397 197.191 158.789 199.055 158.789C201.851 158.789 203.96 158.078 205.383 156.656C206.854 155.184 207.786 153.271 208.179 150.917L217.155 153.051C216.517 155.65 215.414 158.029 213.844 160.187C212.324 162.297 210.313 163.964 207.811 165.191C205.309 166.417 202.317 167.03 198.835 167.03ZM242.167 167.03C238.537 167.03 235.275 166.294 232.381 164.823C229.487 163.351 227.206 161.218 225.538 158.422C223.871 155.626 223.037 152.266 223.037 148.342V147.164C223.037 143.24 223.871 139.88 225.538 137.084C227.206 134.288 229.487 132.155 232.381 130.683C235.275 129.212 238.537 128.476 242.167 128.476C245.796 128.476 249.058 129.212 251.952 130.683C254.846 132.155 257.127 134.288 258.795 137.084C260.463 139.88 261.297 143.24 261.297 147.164V148.342C261.297 152.266 260.463 155.626 258.795 158.422C257.127 161.218 254.846 163.351 251.952 164.823C249.058 166.294 245.796 167.03 242.167 167.03ZM242.167 158.789C245.012 158.789 247.366 157.882 249.23 156.067C251.094 154.203 252.026 151.554 252.026 148.121V147.385C252.026 143.952 251.094 141.327 249.23 139.512C247.415 137.648 245.061 136.716 242.167 136.716C239.322 136.716 236.967 137.648 235.103 139.512C233.239 141.327 232.307 143.952 232.307 147.385V148.121C232.307 151.554 233.239 154.203 235.103 156.067C236.967 157.882 239.322 158.789 242.167 158.789ZM269.854 166V129.506H278.977V134.288H280.302C280.89 133.013 281.994 131.811 283.613 130.683C285.231 129.506 287.684 128.917 290.97 128.917C293.815 128.917 296.292 129.58 298.402 130.904C300.56 132.179 302.228 133.97 303.405 136.275C304.582 138.531 305.171 141.18 305.171 144.221V166H295.9V144.957C295.9 142.21 295.213 140.15 293.84 138.777C292.515 137.403 290.602 136.716 288.101 136.716C285.256 136.716 283.049 137.673 281.479 139.586C279.909 141.45 279.125 144.074 279.125 147.459V166H269.854ZM328.166 166C325.763 166 323.801 165.264 322.28 163.793C320.809 162.272 320.073 160.261 320.073 157.759V137.158H310.949V129.506H320.073V118.175H329.343V129.506H339.35V137.158H329.343V156.141C329.343 157.612 330.03 158.348 331.404 158.348H338.467V166H328.166ZM347.742 166V129.506H356.865V133.626H358.189C358.729 132.155 359.612 131.076 360.838 130.389C362.114 129.702 363.585 129.359 365.253 129.359H369.667V137.599H365.106C362.751 137.599 360.814 138.237 359.293 139.512C357.773 140.739 357.012 142.652 357.012 145.251V166H347.742ZM392.984 167.03C389.355 167.03 386.093 166.294 383.199 164.823C380.305 163.351 378.024 161.218 376.356 158.422C374.688 155.626 373.854 152.266 373.854 148.342V147.164C373.854 143.24 374.688 139.88 376.356 137.084C378.024 134.288 380.305 132.155 383.199 130.683C386.093 129.212 389.355 128.476 392.984 128.476C396.614 128.476 399.876 129.212 402.77 130.683C405.664 132.155 407.945 134.288 409.613 137.084C411.28 139.88 412.114 143.24 412.114 147.164V148.342C412.114 152.266 411.28 155.626 409.613 158.422C407.945 161.218 405.664 163.351 402.77 164.823C399.876 166.294 396.614 167.03 392.984 167.03ZM392.984 158.789C395.829 158.789 398.184 157.882 400.048 156.067C401.912 154.203 402.844 151.554 402.844 148.121V147.385C402.844 143.952 401.912 141.327 400.048 139.512C398.233 137.648 395.878 136.716 392.984 136.716C390.139 136.716 387.785 137.648 385.921 139.512C384.057 141.327 383.125 143.952 383.125 147.385V148.121C383.125 151.554 384.057 154.203 385.921 156.067C387.785 157.882 390.139 158.789 392.984 158.789ZM420.672 166V114.496H429.942V166H420.672Z" fill="#050203"/>
<line x1="197" y1="267.175" x2="493.146" y2="267.175" stroke="#2D18BF" stroke-width="2.75912"/>
</svg>
