<svg width="379" height="168" viewBox="0 0 379 168" fill="none" xmlns="http://www.w3.org/2000/svg">
<rect x="109.984" y="49" width="157.954" height="50.0394" rx="6.62745" transform="rotate(5.71646 109.984 49)" fill="#CCFC56"/>
<path d="M13.6074 43.6185C11.4868 43.6185 9.55761 43.1473 7.81986 42.2048C6.11157 41.2328 4.74199 39.8338 3.71112 38.0077C2.70971 36.1521 2.209 33.8989 2.209 31.2481V23.8259C2.209 19.8497 3.32823 16.8013 5.56668 14.6806C7.80513 12.5305 10.8388 11.4555 14.6678 11.4555C18.4672 11.4555 21.3978 12.4716 23.4596 14.5039C25.5508 16.5067 26.5964 19.2312 26.5964 22.6772V22.8539H20.853V22.5005C20.853 21.4107 20.6173 20.424 20.1461 19.5404C19.7043 18.6568 19.0269 17.9647 18.1138 17.464C17.2007 16.9338 16.0521 16.6687 14.6678 16.6687C12.606 16.6687 10.9861 17.302 9.80796 18.5685C8.62983 19.835 8.04076 21.558 8.04076 23.7375V31.3365C8.04076 33.4866 8.62983 35.2243 9.80796 36.5497C10.9861 37.8457 12.6355 38.4936 14.7561 38.4936C16.8768 38.4936 18.4231 37.934 19.395 36.8148C20.367 35.6956 20.853 34.2818 20.853 32.5735V32.1317H13.5191V27.1836H26.5964V43H21.2064V40.0399H20.4112C20.205 40.5406 19.8663 41.0708 19.395 41.6304C18.9532 42.19 18.2758 42.6613 17.3627 43.0442C16.4497 43.4271 15.1979 43.6185 13.6074 43.6185ZM42.3293 43.6185C40.1497 43.6185 38.2205 43.162 36.5417 42.2489C34.8923 41.3064 33.5964 39.9958 32.6539 38.3169C31.7408 36.6086 31.2843 34.6058 31.2843 32.3084V31.7783C31.2843 29.4809 31.7408 27.4928 32.6539 25.814C33.5669 24.1057 34.8481 22.795 36.4975 21.882C38.1469 20.9395 40.0614 20.4682 42.2409 20.4682C44.391 20.4682 46.2613 20.9542 47.8518 21.9261C49.4423 22.8686 50.6793 24.194 51.5629 25.9023C52.4465 27.5812 52.8883 29.5398 52.8883 31.7783V33.678H36.9393C36.9982 35.1801 37.5578 36.4025 38.6182 37.345C39.6785 38.2875 40.9744 38.7587 42.506 38.7587C44.067 38.7587 45.2157 38.42 45.952 37.7426C46.6884 37.0652 47.248 36.3141 47.6309 35.4894L52.1814 37.8751C51.7691 38.6409 51.1653 39.4803 50.37 40.3934C49.6042 41.277 48.5734 42.0428 47.2774 42.6907C45.9815 43.3093 44.3321 43.6185 42.3293 43.6185ZM36.9835 29.5251H47.2333C47.1154 28.2586 46.6 27.2425 45.687 26.4767C44.8034 25.7109 43.6399 25.328 42.1967 25.328C40.6946 25.328 39.5018 25.7109 38.6182 26.4767C37.7346 27.2425 37.1897 28.2586 36.9835 29.5251ZM65.5038 43C64.0605 43 62.8824 42.5582 61.9694 41.6746C61.0858 40.7615 60.644 39.554 60.644 38.0518V25.6814H55.1656V21.0867H60.644V14.283H66.2106V21.0867H72.2191V25.6814H66.2106V37.0799C66.2106 37.9635 66.623 38.4053 67.4477 38.4053H71.689V43H65.5038ZM97.5767 43.6185C94.7197 43.6185 92.3782 43 90.5521 41.763C88.726 40.5259 87.6215 38.7587 87.2386 36.4614L92.3635 35.136C92.5696 36.1668 92.9084 36.9768 93.3796 37.5659C93.8803 38.1549 94.4841 38.582 95.191 38.8471C95.9273 39.0827 96.7226 39.2005 97.5767 39.2005C98.8727 39.2005 99.8299 38.9796 100.448 38.5378C101.067 38.0666 101.376 37.4922 101.376 36.8148C101.376 36.1374 101.082 35.6219 100.493 35.2685C99.9035 34.8856 98.961 34.5763 97.6651 34.3407L96.428 34.1198C94.8965 33.8253 93.4974 33.4277 92.2309 32.927C90.9644 32.3968 89.9483 31.6752 89.1825 30.7621C88.4167 29.8491 88.0338 28.671 88.0338 27.2277C88.0338 25.0482 88.8291 23.3841 90.4195 22.2354C92.01 21.0573 94.1012 20.4682 96.6931 20.4682C99.1377 20.4682 101.17 21.0131 102.79 22.1029C104.41 23.1926 105.47 24.6211 105.971 26.3883L100.802 27.9788C100.566 26.8596 100.08 26.0643 99.3439 25.5931C98.637 25.1218 97.7534 24.8862 96.6931 24.8862C95.6328 24.8862 94.8228 25.0776 94.2632 25.4605C93.7036 25.814 93.4238 26.3147 93.4238 26.9627C93.4238 27.6695 93.7183 28.1997 94.3074 28.5531C94.8965 28.8771 95.6917 29.1275 96.6931 29.3042L97.9301 29.5251C99.5795 29.8196 101.067 30.2173 102.392 30.718C103.747 31.1892 104.808 31.8814 105.573 32.7944C106.369 33.678 106.766 34.8856 106.766 36.4172C106.766 38.7145 105.927 40.4965 104.248 41.763C102.599 43 100.375 43.6185 97.5767 43.6185ZM119.607 43C118.164 43 116.986 42.5582 116.073 41.6746C115.189 40.7615 114.747 39.554 114.747 38.0518V25.6814H109.269V21.0867H114.747V14.283H120.314V21.0867H126.322V25.6814H120.314V37.0799C120.314 37.9635 120.726 38.4053 121.551 38.4053H125.792V43H119.607ZM138.165 43.6185C136.604 43.6185 135.205 43.3534 133.968 42.8233C132.731 42.2637 131.744 41.4684 131.008 40.4376C130.301 39.3772 129.948 38.096 129.948 36.5939C129.948 35.0918 130.301 33.84 131.008 32.8386C131.744 31.8077 132.746 31.0419 134.012 30.5412C135.308 30.0111 136.781 29.746 138.43 29.746H144.439V28.509C144.439 27.4781 144.115 26.6387 143.467 25.9907C142.819 25.3133 141.788 24.9746 140.374 24.9746C138.99 24.9746 137.959 25.2985 137.281 25.9465C136.604 26.565 136.162 27.375 135.956 28.3764L130.831 26.6534C131.185 25.5342 131.744 24.518 132.51 23.605C133.305 22.6625 134.351 21.9114 135.647 21.3518C136.972 20.7627 138.577 20.4682 140.462 20.4682C143.349 20.4682 145.631 21.1898 147.31 22.633C148.989 24.0762 149.829 26.1674 149.829 28.9066V37.0799C149.829 37.9635 150.241 38.4053 151.066 38.4053H152.833V43H149.122C148.032 43 147.134 42.7349 146.427 42.2048C145.72 41.6746 145.366 40.9677 145.366 40.0841V40.0399H144.527C144.409 40.3934 144.144 40.8646 143.732 41.4537C143.319 42.0133 142.671 42.514 141.788 42.9558C140.904 43.3976 139.697 43.6185 138.165 43.6185ZM139.137 39.1122C140.698 39.1122 141.964 38.6851 142.936 37.8309C143.938 36.9473 144.439 35.7839 144.439 34.3407V33.8989H138.828C137.797 33.8989 136.987 34.1198 136.398 34.5616C135.809 35.0034 135.514 35.6219 135.514 36.4172C135.514 37.2124 135.823 37.8604 136.442 38.3611C137.061 38.8618 137.959 39.1122 139.137 39.1122ZM156.903 43V21.0867H162.381V23.5608H163.176C163.5 22.6772 164.031 22.0292 164.767 21.6169C165.533 21.2045 166.416 20.9984 167.418 20.9984H170.068V25.9465H167.329C165.916 25.9465 164.752 26.3294 163.839 27.0952C162.926 27.8315 162.47 28.9802 162.47 30.5412V43H156.903ZM182.814 43C181.371 43 180.192 42.5582 179.279 41.6746C178.396 40.7615 177.954 39.554 177.954 38.0518V25.6814H172.476V21.0867H177.954V14.283H183.521V21.0867H189.529V25.6814H183.521V37.0799C183.521 37.9635 183.933 38.4053 184.758 38.4053H188.999V43H182.814ZM203.776 43.6185C201.597 43.6185 199.667 43.162 197.989 42.2489C196.339 41.3064 195.043 39.9958 194.101 38.3169C193.188 36.6086 192.731 34.6058 192.731 32.3084V31.7783C192.731 29.4809 193.188 27.4928 194.101 25.814C195.014 24.1057 196.295 22.795 197.944 21.882C199.594 20.9395 201.508 20.4682 203.688 20.4682C205.838 20.4682 207.708 20.9542 209.299 21.9261C210.889 22.8686 212.126 24.194 213.01 25.9023C213.893 27.5812 214.335 29.5398 214.335 31.7783V33.678H198.386C198.445 35.1801 199.005 36.4025 200.065 37.345C201.125 38.2875 202.421 38.7587 203.953 38.7587C205.514 38.7587 206.663 38.42 207.399 37.7426C208.135 37.0652 208.695 36.3141 209.078 35.4894L213.628 37.8751C213.216 38.6409 212.612 39.4803 211.817 40.3934C211.051 41.277 210.02 42.0428 208.724 42.6907C207.428 43.3093 205.779 43.6185 203.776 43.6185ZM198.43 29.5251H208.68C208.562 28.2586 208.047 27.2425 207.134 26.4767C206.25 25.7109 205.087 25.328 203.644 25.328C202.141 25.328 200.949 25.7109 200.065 26.4767C199.181 27.2425 198.637 28.2586 198.43 29.5251ZM228.126 43.6185C226.388 43.6185 224.753 43.1914 223.222 42.3373C221.72 41.4537 220.512 40.1725 219.599 38.4936C218.686 36.8148 218.23 34.7825 218.23 32.3968V31.6899C218.23 29.3042 218.686 27.2719 219.599 25.5931C220.512 23.9142 221.72 22.6477 223.222 21.7936C224.724 20.91 226.359 20.4682 228.126 20.4682C229.451 20.4682 230.556 20.6302 231.439 20.9542C232.352 21.2487 233.089 21.6316 233.648 22.1029C234.208 22.5741 234.635 23.0748 234.93 23.605H235.725V12.074H241.291V43H235.813V40.3492H235.018C234.517 41.1739 233.737 41.925 232.676 42.6024C231.646 43.2798 230.129 43.6185 228.126 43.6185ZM229.805 38.7587C231.513 38.7587 232.941 38.2138 234.09 37.1241C235.239 36.0048 235.813 34.3849 235.813 32.2643V31.8225C235.813 29.7018 235.239 28.0966 234.09 27.0068C232.971 25.8876 231.542 25.328 229.805 25.328C228.096 25.328 226.668 25.8876 225.519 27.0068C224.371 28.0966 223.796 29.7018 223.796 31.8225V32.2643C223.796 34.3849 224.371 36.0048 225.519 37.1241C226.668 38.2138 228.096 38.7587 229.805 38.7587ZM265.485 43.6185C263.924 43.6185 262.524 43.3534 261.287 42.8233C260.05 42.2637 259.064 41.4684 258.327 40.4376C257.62 39.3772 257.267 38.096 257.267 36.5939C257.267 35.0918 257.62 33.84 258.327 32.8386C259.064 31.8077 260.065 31.0419 261.332 30.5412C262.628 30.0111 264.1 29.746 265.75 29.746H271.758V28.509C271.758 27.4781 271.434 26.6387 270.786 25.9907C270.138 25.3133 269.107 24.9746 267.694 24.9746C266.309 24.9746 265.278 25.2985 264.601 25.9465C263.924 26.565 263.482 27.375 263.276 28.3764L258.151 26.6534C258.504 25.5342 259.064 24.518 259.829 23.605C260.625 22.6625 261.67 21.9114 262.966 21.3518C264.292 20.7627 265.897 20.4682 267.782 20.4682C270.668 20.4682 272.951 21.1898 274.63 22.633C276.309 24.0762 277.148 26.1674 277.148 28.9066V37.0799C277.148 37.9635 277.56 38.4053 278.385 38.4053H280.152V43H276.441C275.351 43 274.453 42.7349 273.746 42.2048C273.039 41.6746 272.686 40.9677 272.686 40.0841V40.0399H271.846C271.729 40.3934 271.464 40.8646 271.051 41.4537C270.639 42.0133 269.991 42.514 269.107 42.9558C268.224 43.3976 267.016 43.6185 265.485 43.6185ZM266.456 39.1122C268.018 39.1122 269.284 38.6851 270.256 37.8309C271.257 36.9473 271.758 35.7839 271.758 34.3407V33.8989H266.147C265.116 33.8989 264.306 34.1198 263.717 34.5616C263.128 35.0034 262.834 35.6219 262.834 36.4172C262.834 37.2124 263.143 37.8604 263.762 38.3611C264.38 38.8618 265.278 39.1122 266.456 39.1122ZM284.222 43V21.0867H289.701V23.9584H290.496C290.849 23.1926 291.512 22.471 292.484 21.7936C293.456 21.0867 294.929 20.7333 296.902 20.7333C298.61 20.7333 300.098 21.1309 301.364 21.9261C302.66 22.6919 303.662 23.767 304.368 25.1513C305.075 26.5061 305.429 28.0966 305.429 29.9227V43H299.862V30.3645C299.862 28.7151 299.45 27.4781 298.625 26.6534C297.83 25.8287 296.681 25.4164 295.179 25.4164C293.471 25.4164 292.145 25.9907 291.203 27.1394C290.26 28.2586 289.789 29.8344 289.789 31.8666V43H284.222ZM320.283 43.6185C318.545 43.6185 316.91 43.1914 315.379 42.3373C313.876 41.4537 312.669 40.1725 311.756 38.4936C310.843 36.8148 310.386 34.7825 310.386 32.3968V31.6899C310.386 29.3042 310.843 27.2719 311.756 25.5931C312.669 23.9142 313.876 22.6477 315.379 21.7936C316.881 20.91 318.515 20.4682 320.283 20.4682C321.608 20.4682 322.712 20.6302 323.596 20.9542C324.509 21.2487 325.245 21.6316 325.805 22.1029C326.365 22.5741 326.792 23.0748 327.086 23.605H327.882V12.074H333.448V43H327.97V40.3492H327.175C326.674 41.1739 325.893 41.925 324.833 42.6024C323.802 43.2798 322.285 43.6185 320.283 43.6185ZM321.961 38.7587C323.67 38.7587 325.098 38.2138 326.247 37.1241C327.396 36.0048 327.97 34.3849 327.97 32.2643V31.8225C327.97 29.7018 327.396 28.0966 326.247 27.0068C325.128 25.8876 323.699 25.328 321.961 25.328C320.253 25.328 318.825 25.8876 317.676 27.0068C316.527 28.0966 315.953 29.7018 315.953 31.8225V32.2643C315.953 34.3849 316.527 36.0048 317.676 37.1241C318.825 38.2138 320.253 38.7587 321.961 38.7587ZM11.4868 99C10.0436 99 8.86545 98.5582 7.9524 97.6746C7.0688 96.7615 6.627 95.554 6.627 94.0518V81.6814H1.14868V77.0867H6.627V70.283H12.1937V77.0867H18.2022V81.6814H12.1937V93.0799C12.1937 93.9635 12.606 94.4053 13.4307 94.4053H17.672V99H11.4868ZM30.0448 99.6185C28.4838 99.6185 27.0848 99.3534 25.8477 98.8233C24.6107 98.2637 23.624 97.4684 22.8877 96.4376C22.1808 95.3772 21.8273 94.096 21.8273 92.5939C21.8273 91.0918 22.1808 89.84 22.8877 88.8386C23.624 87.8077 24.6254 87.0419 25.8919 86.5412C27.1878 86.0111 28.6605 85.746 30.3099 85.746H36.3184V84.509C36.3184 83.4781 35.9944 82.6387 35.3464 81.9907C34.6984 81.3133 33.6676 80.9746 32.2538 80.9746C30.8695 80.9746 29.8386 81.2985 29.1612 81.9465C28.4838 82.565 28.042 83.375 27.8358 84.3764L22.7109 82.6534C23.0644 81.5342 23.624 80.518 24.3898 79.605C25.185 78.6625 26.2306 77.9114 27.5266 77.3518C28.852 76.7627 30.4572 76.4682 32.3422 76.4682C35.2286 76.4682 37.5112 77.1898 39.1901 78.633C40.8689 80.0762 41.7083 82.1674 41.7083 84.9066V93.0799C41.7083 93.9635 42.1207 94.4053 42.9454 94.4053H44.7126V99H41.0015C39.9117 99 39.0134 98.7349 38.3065 98.2048C37.5996 97.6746 37.2462 96.9677 37.2462 96.0841V96.0399H36.4067C36.2889 96.3934 36.0238 96.8646 35.6115 97.4537C35.1992 98.0133 34.5512 98.514 33.6676 98.9558C32.784 99.3976 31.5764 99.6185 30.0448 99.6185ZM31.0168 95.1122C32.5778 95.1122 33.8443 94.6851 34.8163 93.8309C35.8177 92.9473 36.3184 91.7839 36.3184 90.3407V89.8989H30.7075C29.6767 89.8989 28.8667 90.1198 28.2776 90.5616C27.6886 91.0034 27.394 91.6219 27.394 92.4172C27.394 93.2124 27.7033 93.8604 28.3218 94.3611C28.9403 94.8618 29.8386 95.1122 31.0168 95.1122ZM48.7827 99V68.074H54.3493V85.1717H55.1446L62.3901 77.0867H69.6356L59.5184 87.6899L69.9891 99H62.8319L55.1446 90.2965H54.3493V99H48.7827ZM82.3674 99.6185C80.1878 99.6185 78.2587 99.162 76.5798 98.2489C74.9304 97.3064 73.6345 95.9958 72.692 94.3169C71.7789 92.6086 71.3224 90.6058 71.3224 88.3084V87.7783C71.3224 85.4809 71.7789 83.4928 72.692 81.814C73.605 80.1057 74.8862 78.795 76.5356 77.882C78.185 76.9395 80.0995 76.4682 82.279 76.4682C84.4291 76.4682 86.2994 76.9542 87.8899 77.9261C89.4804 78.8686 90.7174 80.194 91.601 81.9023C92.4846 83.5812 92.9264 85.5398 92.9264 87.7783V89.678H76.9774C77.0363 91.1801 77.596 92.4025 78.6563 93.345C79.7166 94.2875 81.0125 94.7587 82.5441 94.7587C84.1051 94.7587 85.2538 94.42 85.9902 93.7426C86.7265 93.0652 87.2861 92.3141 87.669 91.4894L92.2195 93.8751C91.8072 94.6409 91.2034 95.4803 90.4082 96.3934C89.6424 97.277 88.6115 98.0428 87.3156 98.6907C86.0196 99.3093 84.3702 99.6185 82.3674 99.6185ZM77.0216 85.5251H87.2714C87.1536 84.2586 86.6381 83.2425 85.7251 82.4767C84.8415 81.7109 83.6781 81.328 82.2349 81.328C80.7327 81.328 79.5399 81.7109 78.6563 82.4767C77.7727 83.2425 77.2278 84.2586 77.0216 85.5251ZM285.977 99.6185C283.797 99.6185 281.839 99.1767 280.101 98.2931C278.363 97.4095 276.994 96.1283 275.992 94.4495C274.991 92.7706 274.49 90.7531 274.49 88.3968V87.6899C274.49 85.3337 274.991 83.3161 275.992 81.6373C276.994 79.9584 278.363 78.6772 280.101 77.7936C281.839 76.91 283.797 76.4682 285.977 76.4682C288.156 76.4682 290.115 76.91 291.853 77.7936C293.59 78.6772 294.96 79.9584 295.961 81.6373C296.963 83.3161 297.464 85.3337 297.464 87.6899V88.3968C297.464 90.7531 296.963 92.7706 295.961 94.4495C294.96 96.1283 293.59 97.4095 291.853 98.2931C290.115 99.1767 288.156 99.6185 285.977 99.6185ZM285.977 94.6704C287.685 94.6704 289.099 94.1255 290.218 93.0357C291.337 91.9165 291.897 90.326 291.897 88.2643V87.8225C291.897 85.7607 291.337 84.185 290.218 83.0952C289.128 81.976 287.715 81.4164 285.977 81.4164C284.268 81.4164 282.855 81.976 281.736 83.0952C280.616 84.185 280.057 85.7607 280.057 87.8225V88.2643C280.057 90.326 280.616 91.9165 281.736 93.0357C282.855 94.1255 284.268 94.6704 285.977 94.6704ZM305.491 99V81.6814H299.925V77.0867H305.491V73.0222C305.491 71.52 305.933 70.3272 306.817 69.4436C307.73 68.5305 308.908 68.074 310.351 68.074H316.094V72.6687H312.295C311.47 72.6687 311.058 73.1105 311.058 73.9941V77.0867H316.801V81.6814H311.058V99H305.491ZM5.47832 163.836V158.976H17.4069C18.2316 158.976 18.644 158.534 18.644 157.651V152.128H17.8487C17.6131 152.629 17.2449 153.13 16.7442 153.63C16.2435 154.131 15.5661 154.543 14.7119 154.867C13.8578 155.191 12.768 155.353 11.4426 155.353C9.73433 155.353 8.23221 154.971 6.93626 154.205C5.66977 153.41 4.68308 152.32 3.9762 150.935C3.26932 149.551 2.91588 147.961 2.91588 146.164V133.087H8.48256V145.722C8.48256 147.372 8.88018 148.609 9.67542 149.433C10.5001 150.258 11.6635 150.67 13.1656 150.67C14.8739 150.67 16.1993 150.111 17.1418 148.992C18.0843 147.843 18.5556 146.252 18.5556 144.22V133.087H24.1223V158.888C24.1223 160.39 23.6805 161.583 22.7969 162.466C21.9133 163.379 20.7351 163.836 19.2625 163.836H5.47832ZM40.7433 155.619C38.5637 155.619 36.6051 155.177 34.8673 154.293C33.1296 153.41 31.76 152.128 30.7586 150.449C29.7572 148.771 29.2565 146.753 29.2565 144.397V143.69C29.2565 141.334 29.7572 139.316 30.7586 137.637C31.76 135.958 33.1296 134.677 34.8673 133.794C36.6051 132.91 38.5637 132.468 40.7433 132.468C42.9228 132.468 44.8815 132.91 46.6192 133.794C48.357 134.677 49.7265 135.958 50.728 137.637C51.7294 139.316 52.2301 141.334 52.2301 143.69V144.397C52.2301 146.753 51.7294 148.771 50.728 150.449C49.7265 152.128 48.357 153.41 46.6192 154.293C44.8815 155.177 42.9228 155.619 40.7433 155.619ZM40.7433 150.67C42.4516 150.67 43.8653 150.125 44.9846 149.036C46.1038 147.916 46.6634 146.326 46.6634 144.264V143.822C46.6634 141.761 46.1038 140.185 44.9846 139.095C43.8948 137.976 42.481 137.416 40.7433 137.416C39.035 137.416 37.6212 137.976 36.502 139.095C35.3828 140.185 34.8232 141.761 34.8232 143.822V144.264C34.8232 146.326 35.3828 147.916 36.502 149.036C37.6212 150.125 39.035 150.67 40.7433 150.67ZM65.7184 155.353C64.0101 155.353 62.508 154.971 61.2121 154.205C59.9456 153.41 58.9589 152.32 58.252 150.935C57.5451 149.551 57.1917 147.961 57.1917 146.164V133.087H62.7584V145.722C62.7584 147.372 63.156 148.609 63.9512 149.433C64.7759 150.258 65.9393 150.67 67.4415 150.67C69.1498 150.67 70.4752 150.111 71.4177 148.992C72.3602 147.843 72.8314 146.252 72.8314 144.22V133.087H78.3981V155H72.9198V152.128H72.1245C71.7711 152.865 71.1084 153.586 70.1364 154.293C69.1645 155 67.6918 155.353 65.7184 155.353ZM84.5926 155V133.087H90.0709V135.561H90.8662C91.1902 134.677 91.7203 134.029 92.4567 133.617C93.2224 133.205 94.106 132.998 95.1075 132.998H97.7583V137.947H95.0191C93.6053 137.947 92.4419 138.329 91.5289 139.095C90.6158 139.832 90.1593 140.98 90.1593 142.541V155H84.5926ZM116.95 155V137.681H111.383V133.087H116.95V129.022C116.95 127.52 117.391 126.327 118.275 125.444C119.188 124.531 120.366 124.074 121.809 124.074H127.111V128.669H123.753C122.929 128.669 122.516 129.111 122.516 129.994V133.087H131.352V137.681H122.516V155H116.95ZM131.352 155V133.087H136.919V155H131.352ZM134.136 130.701C133.134 130.701 132.28 130.377 131.573 129.729C130.896 129.081 130.557 128.227 130.557 127.167C130.557 126.106 130.896 125.252 131.573 124.604C132.28 123.956 133.134 123.632 134.136 123.632C135.167 123.632 136.021 123.956 136.698 124.604C137.376 125.252 137.714 126.106 137.714 127.167C137.714 128.227 137.376 129.081 136.698 129.729C136.021 130.377 135.167 130.701 134.136 130.701ZM143.097 155V133.087H148.575V135.958H149.37C149.724 135.193 150.386 134.471 151.358 133.794C152.33 133.087 153.803 132.733 155.776 132.733C157.485 132.733 158.972 133.131 160.238 133.926C161.534 134.692 162.536 135.767 163.243 137.151C163.95 138.506 164.303 140.097 164.303 141.923V155H158.736V142.365C158.736 140.715 158.324 139.478 157.499 138.653C156.704 137.829 155.555 137.416 154.053 137.416C152.345 137.416 151.02 137.991 150.077 139.139C149.135 140.259 148.663 141.834 148.663 143.867V155H143.097ZM177.125 155.619C175.564 155.619 174.164 155.353 172.927 154.823C171.69 154.264 170.704 153.468 169.967 152.438C169.26 151.377 168.907 150.096 168.907 148.594C168.907 147.092 169.26 145.84 169.967 144.839C170.704 143.808 171.705 143.042 172.972 142.541C174.268 142.011 175.74 141.746 177.39 141.746H183.398V140.509C183.398 139.478 183.074 138.639 182.426 137.991C181.778 137.313 180.747 136.975 179.334 136.975C177.949 136.975 176.918 137.299 176.241 137.947C175.564 138.565 175.122 139.375 174.916 140.376L169.791 138.653C170.144 137.534 170.704 136.518 171.469 135.605C172.265 134.662 173.31 133.911 174.606 133.352C175.932 132.763 177.537 132.468 179.422 132.468C182.308 132.468 184.591 133.19 186.27 134.633C187.949 136.076 188.788 138.167 188.788 140.907V149.08C188.788 149.963 189.2 150.405 190.025 150.405H191.792V155H188.081C186.991 155 186.093 154.735 185.386 154.205C184.679 153.675 184.326 152.968 184.326 152.084V152.04H183.486C183.369 152.393 183.104 152.865 182.691 153.454C182.279 154.013 181.631 154.514 180.747 154.956C179.864 155.398 178.656 155.619 177.125 155.619ZM178.096 151.112C179.658 151.112 180.924 150.685 181.896 149.831C182.897 148.947 183.398 147.784 183.398 146.341V145.899H177.787C176.756 145.899 175.946 146.12 175.357 146.562C174.768 147.003 174.474 147.622 174.474 148.417C174.474 149.212 174.783 149.86 175.402 150.361C176.02 150.862 176.918 151.112 178.096 151.112ZM195.862 155V133.087H201.341V135.958H202.136C202.489 135.193 203.152 134.471 204.124 133.794C205.096 133.087 206.569 132.733 208.542 132.733C210.25 132.733 211.738 133.131 213.004 133.926C214.3 134.692 215.302 135.767 216.008 137.151C216.715 138.506 217.069 140.097 217.069 141.923V155H211.502V142.365C211.502 140.715 211.09 139.478 210.265 138.653C209.47 137.829 208.321 137.416 206.819 137.416C205.111 137.416 203.785 137.991 202.843 139.139C201.9 140.259 201.429 141.834 201.429 143.867V155H195.862ZM233.381 155.619C231.26 155.619 229.331 155.177 227.593 154.293C225.885 153.41 224.53 152.128 223.528 150.449C222.527 148.771 222.026 146.738 222.026 144.353V143.734C222.026 141.348 222.527 139.316 223.528 137.637C224.53 135.958 225.885 134.677 227.593 133.794C229.331 132.91 231.26 132.468 233.381 132.468C235.472 132.468 237.268 132.836 238.77 133.573C240.273 134.309 241.48 135.325 242.393 136.621C243.336 137.888 243.954 139.331 244.249 140.951L238.859 142.099C238.741 141.216 238.476 140.421 238.064 139.714C237.651 139.007 237.062 138.447 236.296 138.035C235.56 137.623 234.632 137.416 233.513 137.416C232.394 137.416 231.378 137.667 230.465 138.167C229.581 138.639 228.874 139.36 228.344 140.332C227.843 141.275 227.593 142.438 227.593 143.822V144.264C227.593 145.649 227.843 146.827 228.344 147.799C228.874 148.741 229.581 149.463 230.465 149.963C231.378 150.435 232.394 150.67 233.513 150.67C235.192 150.67 236.458 150.243 237.313 149.389C238.196 148.506 238.756 147.357 238.991 145.943L244.381 147.224C243.998 148.785 243.336 150.214 242.393 151.51C241.48 152.776 240.273 153.778 238.77 154.514C237.268 155.25 235.472 155.619 233.381 155.619ZM258.958 155.619C256.778 155.619 254.849 155.162 253.17 154.249C251.521 153.306 250.225 151.996 249.283 150.317C248.369 148.609 247.913 146.606 247.913 144.308V143.778C247.913 141.481 248.369 139.493 249.283 137.814C250.196 136.106 251.477 134.795 253.126 133.882C254.776 132.939 256.69 132.468 258.87 132.468C261.02 132.468 262.89 132.954 264.48 133.926C266.071 134.869 267.308 136.194 268.192 137.902C269.075 139.581 269.517 141.54 269.517 143.778V145.678H253.568C253.627 147.18 254.187 148.402 255.247 149.345C256.307 150.287 257.603 150.759 259.135 150.759C260.696 150.759 261.844 150.42 262.581 149.743C263.317 149.065 263.877 148.314 264.26 147.489L268.81 149.875C268.398 150.641 267.794 151.48 266.999 152.393C266.233 153.277 265.202 154.043 263.906 154.691C262.61 155.309 260.961 155.619 258.958 155.619ZM253.612 141.525H263.862C263.744 140.259 263.229 139.242 262.316 138.477C261.432 137.711 260.269 137.328 258.825 137.328C257.323 137.328 256.13 137.711 255.247 138.477C254.363 139.242 253.818 140.259 253.612 141.525ZM283.573 155.619C280.716 155.619 278.374 155 276.548 153.763C274.722 152.526 273.618 150.759 273.235 148.461L278.36 147.136C278.566 148.167 278.904 148.977 279.376 149.566C279.876 150.155 280.48 150.582 281.187 150.847C281.923 151.083 282.719 151.201 283.573 151.201C284.869 151.201 285.826 150.98 286.444 150.538C287.063 150.067 287.372 149.492 287.372 148.815C287.372 148.137 287.078 147.622 286.489 147.268C285.9 146.886 284.957 146.576 283.661 146.341L282.424 146.12C280.893 145.825 279.493 145.428 278.227 144.927C276.96 144.397 275.944 143.675 275.179 142.762C274.413 141.849 274.03 140.671 274.03 139.228C274.03 137.048 274.825 135.384 276.416 134.235C278.006 133.057 280.097 132.468 282.689 132.468C285.134 132.468 287.166 133.013 288.786 134.103C290.406 135.193 291.466 136.621 291.967 138.388L286.798 139.979C286.562 138.86 286.076 138.064 285.34 137.593C284.633 137.122 283.749 136.886 282.689 136.886C281.629 136.886 280.819 137.078 280.259 137.461C279.7 137.814 279.42 138.315 279.42 138.963C279.42 139.67 279.714 140.2 280.303 140.553C280.893 140.877 281.688 141.127 282.689 141.304L283.926 141.525C285.576 141.82 287.063 142.217 288.388 142.718C289.743 143.189 290.804 143.881 291.569 144.794C292.365 145.678 292.762 146.886 292.762 148.417C292.762 150.715 291.923 152.496 290.244 153.763C288.595 155 286.371 155.619 283.573 155.619ZM298.303 144.839V124.074H303.958V144.839H298.303ZM301.131 155.619C299.952 155.619 298.951 155.236 298.126 154.47C297.331 153.675 296.933 152.658 296.933 151.421C296.933 150.184 297.331 149.183 298.126 148.417C298.951 147.622 299.952 147.224 301.131 147.224C302.338 147.224 303.34 147.622 304.135 148.417C304.93 149.183 305.328 150.184 305.328 151.421C305.328 152.658 304.93 153.675 304.135 154.47C303.34 155.236 302.338 155.619 301.131 155.619Z" fill="#F9F9F9"/>
<path d="M119.393 99.6185C117.272 99.6185 115.343 99.1767 113.605 98.2931C111.897 97.4095 110.542 96.1283 109.541 94.4495C108.539 92.7706 108.038 90.7383 108.038 88.3526V87.7341C108.038 85.3484 108.539 83.3161 109.541 81.6373C110.542 79.9584 111.897 78.6772 113.605 77.7936C115.343 76.91 117.272 76.4682 119.393 76.4682C121.484 76.4682 123.28 76.8364 124.783 77.5727C126.285 78.309 127.492 79.3252 128.405 80.6211C129.348 81.8876 129.966 83.3308 130.261 84.9508L124.871 86.0994C124.753 85.2158 124.488 84.4206 124.076 83.7137C123.663 83.0068 123.074 82.4472 122.309 82.0349C121.572 81.6225 120.644 81.4164 119.525 81.4164C118.406 81.4164 117.39 81.6667 116.477 82.1674C115.593 82.6387 114.886 83.3603 114.356 84.3322C113.855 85.2747 113.605 86.4382 113.605 87.8225V88.2643C113.605 89.6486 113.855 90.8267 114.356 91.7987C114.886 92.7412 115.593 93.4628 116.477 93.9635C117.39 94.4347 118.406 94.6704 119.525 94.6704C121.204 94.6704 122.471 94.2433 123.325 93.3891C124.208 92.5055 124.768 91.3569 125.004 89.9431L130.393 91.2243C130.011 92.7853 129.348 94.2138 128.405 95.5098C127.492 96.7763 126.285 97.7777 124.783 98.514C123.28 99.2504 121.484 99.6185 119.393 99.6185ZM145.412 99.6185C143.232 99.6185 141.274 99.1767 139.536 98.2931C137.798 97.4095 136.429 96.1283 135.427 94.4495C134.426 92.7706 133.925 90.7531 133.925 88.3968V87.6899C133.925 85.3337 134.426 83.3161 135.427 81.6373C136.429 79.9584 137.798 78.6772 139.536 77.7936C141.274 76.91 143.232 76.4682 145.412 76.4682C147.591 76.4682 149.55 76.91 151.288 77.7936C153.026 78.6772 154.395 79.9584 155.397 81.6373C156.398 83.3161 156.899 85.3337 156.899 87.6899V88.3968C156.899 90.7531 156.398 92.7706 155.397 94.4495C154.395 96.1283 153.026 97.4095 151.288 98.2931C149.55 99.1767 147.591 99.6185 145.412 99.6185ZM145.412 94.6704C147.12 94.6704 148.534 94.1255 149.653 93.0357C150.772 91.9165 151.332 90.326 151.332 88.2643V87.8225C151.332 85.7607 150.772 84.185 149.653 83.0952C148.563 81.976 147.15 81.4164 145.412 81.4164C143.704 81.4164 142.29 81.976 141.171 83.0952C140.051 84.185 139.492 85.7607 139.492 87.8225V88.2643C139.492 90.326 140.051 91.9165 141.171 93.0357C142.29 94.1255 143.704 94.6704 145.412 94.6704ZM162.037 99V77.0867H167.515V79.9584H168.311C168.664 79.1926 169.327 78.471 170.299 77.7936C171.271 77.0867 172.743 76.7333 174.717 76.7333C176.425 76.7333 177.912 77.1309 179.179 77.9261C180.475 78.6919 181.476 79.767 182.183 81.1513C182.89 82.5061 183.243 84.0966 183.243 85.9227V99H177.677V86.3645C177.677 84.7151 177.264 83.4781 176.44 82.6534C175.644 81.8287 174.496 81.4164 172.994 81.4164C171.285 81.4164 169.96 81.9907 169.017 83.1394C168.075 84.2586 167.604 85.8344 167.604 87.8666V99H162.037ZM197.051 99C195.608 99 194.43 98.5582 193.517 97.6746C192.633 96.7615 192.192 95.554 192.192 94.0518V81.6814H186.713V77.0867H192.192V70.283H197.758V77.0867H203.767V81.6814H197.758V93.0799C197.758 93.9635 198.171 94.4053 198.995 94.4053H203.237V99H197.051ZM208.806 99V77.0867H214.284V79.5608H215.079C215.403 78.6772 215.933 78.0292 216.67 77.6169C217.436 77.2045 218.319 76.9984 219.321 76.9984H221.971V81.9465H219.232C217.818 81.9465 216.655 82.3294 215.742 83.0952C214.829 83.8315 214.372 84.9802 214.372 86.5412V99H208.806ZM235.972 99.6185C233.793 99.6185 231.834 99.1767 230.096 98.2931C228.359 97.4095 226.989 96.1283 225.988 94.4495C224.986 92.7706 224.485 90.7531 224.485 88.3968V87.6899C224.485 85.3337 224.986 83.3161 225.988 81.6373C226.989 79.9584 228.359 78.6772 230.096 77.7936C231.834 76.91 233.793 76.4682 235.972 76.4682C238.152 76.4682 240.11 76.91 241.848 77.7936C243.586 78.6772 244.956 79.9584 245.957 81.6373C246.958 83.3161 247.459 85.3337 247.459 87.6899V88.3968C247.459 90.7531 246.958 92.7706 245.957 94.4495C244.956 96.1283 243.586 97.4095 241.848 98.2931C240.11 99.1767 238.152 99.6185 235.972 99.6185ZM235.972 94.6704C237.681 94.6704 239.094 94.1255 240.214 93.0357C241.333 91.9165 241.892 90.326 241.892 88.2643V87.8225C241.892 85.7607 241.333 84.185 240.214 83.0952C239.124 81.976 237.71 81.4164 235.972 81.4164C234.264 81.4164 232.85 81.976 231.731 83.0952C230.612 84.185 230.052 85.7607 230.052 87.8225V88.2643C230.052 90.326 230.612 91.9165 231.731 93.0357C232.85 94.1255 234.264 94.6704 235.972 94.6704ZM252.597 99V68.074H258.164V99H252.597Z" fill="#050203"/>
<line x1="115.5" y1="160.44" x2="293.337" y2="160.44" stroke="#2D18BF" stroke-width="1.65686"/>
</svg>
