<svg width="685" height="306" viewBox="0 0 685 306" fill="none" xmlns="http://www.w3.org/2000/svg">
<rect x="398.05" y="99.4191" width="286" height="90.6038" rx="12" transform="rotate(5.71646 398.05 99.4191)" fill="#CCFC56"/>
<path d="M6.8 95V57.72H17.04V95H6.8ZM11.92 38.2C14.1067 38.2 15.92 38.92 17.36 40.36C18.8 41.7467 19.52 43.56 19.52 45.8C19.52 48.04 18.8 49.88 17.36 51.32C15.92 52.7067 14.1067 53.4 11.92 53.4C9.78667 53.4 7.97333 52.7067 6.48 51.32C5.04 49.88 4.32 48.04 4.32 45.8C4.32 43.56 5.04 41.7467 6.48 40.36C7.97333 38.92 9.78667 38.2 11.92 38.2ZM29.1081 79V23H52.1481C55.6681 23 58.7615 23.72 61.4281 25.16C64.1481 26.5467 66.2548 28.52 67.7481 31.08C69.2948 33.64 70.0681 36.68 70.0681 40.2V41.32C70.0681 44.7867 69.2681 47.8267 67.6681 50.44C66.1215 53 63.9881 55 61.2681 56.44C58.6015 57.8267 55.5615 58.52 52.1481 58.52H39.6681V79H29.1081ZM39.6681 48.92H51.1081C53.6148 48.92 55.6415 48.2267 57.1881 46.84C58.7348 45.4533 59.5081 43.56 59.5081 41.16V40.36C59.5081 37.96 58.7348 36.0667 57.1881 34.68C55.6415 33.2933 53.6148 32.6 51.1081 32.6H39.6681V48.92ZM94.8519 80.12C90.9052 80.12 87.4119 79.2933 84.3719 77.64C81.3852 75.9333 79.0385 73.56 77.3319 70.52C75.6785 67.4267 74.8519 63.8 74.8519 59.64V58.68C74.8519 54.52 75.6785 50.92 77.3319 47.88C78.9852 44.7867 81.3052 42.4133 84.2919 40.76C87.2785 39.0533 90.7452 38.2 94.6919 38.2C98.5852 38.2 101.972 39.08 104.852 40.84C107.732 42.5467 109.972 44.9467 111.572 48.04C113.172 51.08 113.972 54.6267 113.972 58.68V62.12H85.0919C85.1985 64.84 86.2119 67.0533 88.1319 68.76C90.0519 70.4667 92.3985 71.32 95.1719 71.32C97.9985 71.32 100.079 70.7067 101.412 69.48C102.745 68.2533 103.759 66.8933 104.452 65.4L112.692 69.72C111.945 71.1067 110.852 72.6267 109.412 74.28C108.025 75.88 106.159 77.2667 103.812 78.44C101.465 79.56 98.4785 80.12 94.8519 80.12ZM85.1719 54.6H103.732C103.519 52.3067 102.585 50.4667 100.932 49.08C99.3319 47.6933 97.2252 47 94.6119 47C91.8919 47 89.7319 47.6933 88.1319 49.08C86.5319 50.4667 85.5452 52.3067 85.1719 54.6ZM88.6119 34.84L94.5319 23H105.892L97.4119 34.84H88.6119ZM121.024 59.32V58.04C121.024 53.88 121.85 50.3333 123.504 47.4C125.157 44.4133 127.344 42.1467 130.064 40.6C132.837 39 135.85 38.2 139.104 38.2C142.73 38.2 145.477 38.84 147.344 40.12C149.21 41.4 150.57 42.7333 151.424 44.12H152.864V39.32H162.784V86.04C162.784 88.76 161.984 90.92 160.384 92.52C158.784 94.1733 156.65 95 153.984 95H127.424V86.2H150.464C151.957 86.2 152.704 85.4 152.704 83.8V73.48H151.264C150.73 74.3333 149.984 75.2133 149.024 76.12C148.064 76.9733 146.784 77.6933 145.184 78.28C143.584 78.8667 141.557 79.16 139.104 79.16C135.85 79.16 132.837 78.3867 130.064 76.84C127.344 75.24 125.157 72.9733 123.504 70.04C121.85 67.0533 121.024 63.48 121.024 59.32ZM141.984 70.36C145.077 70.36 147.664 69.3733 149.744 67.4C151.824 65.4267 152.864 62.6533 152.864 59.08V58.28C152.864 54.6533 151.824 51.88 149.744 49.96C147.717 47.9867 145.13 47 141.984 47C138.89 47 136.304 47.9867 134.224 49.96C132.144 51.88 131.104 54.6533 131.104 58.28V59.08C131.104 62.6533 132.144 65.4267 134.224 67.4C136.304 69.3733 138.89 70.36 141.984 70.36ZM186.279 80.12C183.453 80.12 180.919 79.64 178.679 78.68C176.439 77.6667 174.653 76.2267 173.319 74.36C172.039 72.44 171.399 70.12 171.399 67.4C171.399 64.68 172.039 62.4133 173.319 60.6C174.653 58.7333 176.466 57.3467 178.759 56.44C181.106 55.48 183.773 55 186.759 55H197.639V52.76C197.639 50.8933 197.053 49.3733 195.879 48.2C194.706 46.9733 192.839 46.36 190.279 46.36C187.773 46.36 185.906 46.9467 184.679 48.12C183.453 49.24 182.653 50.7067 182.279 52.52L172.999 49.4C173.639 47.3733 174.653 45.5333 176.039 43.88C177.479 42.1733 179.373 40.8133 181.719 39.8C184.119 38.7333 187.026 38.2 190.439 38.2C195.666 38.2 199.799 39.5067 202.839 42.12C205.879 44.7333 207.399 48.52 207.399 53.48V68.28C207.399 69.88 208.146 70.68 209.639 70.68H212.839V79H206.119C204.146 79 202.519 78.52 201.239 77.56C199.959 76.6 199.319 75.32 199.319 73.72V73.64H197.799C197.586 74.28 197.106 75.1333 196.359 76.2C195.613 77.2133 194.439 78.12 192.839 78.92C191.239 79.72 189.053 80.12 186.279 80.12ZM188.039 71.96C190.866 71.96 193.159 71.1867 194.919 69.64C196.733 68.04 197.639 65.9333 197.639 63.32V62.52H187.479C185.613 62.52 184.146 62.92 183.079 63.72C182.013 64.52 181.479 65.64 181.479 67.08C181.479 68.52 182.039 69.6933 183.159 70.6C184.279 71.5067 185.906 71.96 188.039 71.96ZM232.519 79C229.905 79 227.772 78.2 226.119 76.6C224.519 74.9467 223.719 72.76 223.719 70.04V47.64H213.799V39.32H223.719V27H233.799V39.32H244.679V47.64H233.799V68.28C233.799 69.88 234.545 70.68 236.039 70.68H243.719V79H232.519ZM270.477 80.12C266.53 80.12 263.037 79.2933 259.997 77.64C257.01 75.9333 254.664 73.56 252.957 70.52C251.304 67.4267 250.477 63.8 250.477 59.64V58.68C250.477 54.52 251.304 50.92 252.957 47.88C254.61 44.7867 256.93 42.4133 259.917 40.76C262.904 39.0533 266.37 38.2 270.317 38.2C274.21 38.2 277.597 39.08 280.477 40.84C283.357 42.5467 285.597 44.9467 287.197 48.04C288.797 51.08 289.597 54.6267 289.597 58.68V62.12H260.717C260.824 64.84 261.837 67.0533 263.757 68.76C265.677 70.4667 268.024 71.32 270.797 71.32C273.624 71.32 275.704 70.7067 277.037 69.48C278.37 68.2533 279.384 66.8933 280.077 65.4L288.317 69.72C287.57 71.1067 286.477 72.6267 285.037 74.28C283.65 75.88 281.784 77.2667 279.437 78.44C277.09 79.56 274.104 80.12 270.477 80.12ZM260.797 54.6H279.357C279.144 52.3067 278.21 50.4667 276.557 49.08C274.957 47.6933 272.85 47 270.237 47C267.517 47 265.357 47.6933 263.757 49.08C262.157 50.4667 261.17 52.3067 260.797 54.6ZM318.881 79V23H328.961V79H318.881ZM352.451 80.12C349.625 80.12 347.091 79.64 344.851 78.68C342.611 77.6667 340.825 76.2267 339.491 74.36C338.211 72.44 337.571 70.12 337.571 67.4C337.571 64.68 338.211 62.4133 339.491 60.6C340.825 58.7333 342.638 57.3467 344.931 56.44C347.278 55.48 349.945 55 352.931 55H363.811V52.76C363.811 50.8933 363.225 49.3733 362.051 48.2C360.878 46.9733 359.011 46.36 356.451 46.36C353.945 46.36 352.078 46.9467 350.851 48.12C349.625 49.24 348.825 50.7067 348.451 52.52L339.171 49.4C339.811 47.3733 340.825 45.5333 342.211 43.88C343.651 42.1733 345.545 40.8133 347.891 39.8C350.291 38.7333 353.198 38.2 356.611 38.2C361.838 38.2 365.971 39.5067 369.011 42.12C372.051 44.7333 373.571 48.52 373.571 53.48V68.28C373.571 69.88 374.318 70.68 375.811 70.68H379.011V79H372.291C370.318 79 368.691 78.52 367.411 77.56C366.131 76.6 365.491 75.32 365.491 73.72V73.64H363.971C363.758 74.28 363.278 75.1333 362.531 76.2C361.785 77.2133 360.611 78.12 359.011 78.92C357.411 79.72 355.225 80.12 352.451 80.12ZM354.211 71.96C357.038 71.96 359.331 71.1867 361.091 69.64C362.905 68.04 363.811 65.9333 363.811 63.32V62.52H353.651C351.785 62.52 350.318 62.92 349.251 63.72C348.185 64.52 347.651 65.64 347.651 67.08C347.651 68.52 348.211 69.6933 349.331 70.6C350.451 71.5067 352.078 71.96 354.211 71.96ZM5.6 181V141.32H15.68V181H5.6ZM10.64 136.68C8.82667 136.68 7.28 136.093 6 134.92C4.77333 133.747 4.16 132.2 4.16 130.28C4.16 128.36 4.77333 126.813 6 125.64C7.28 124.467 8.82667 123.88 10.64 123.88C12.5067 123.88 14.0533 124.467 15.28 125.64C16.5067 126.813 17.12 128.36 17.12 130.28C17.12 132.2 16.5067 133.747 15.28 134.92C14.0533 136.093 12.5067 136.68 10.64 136.68ZM26.85 181V141.32H36.77V146.52H38.21C38.85 145.133 40.05 143.827 41.81 142.6C43.57 141.32 46.2367 140.68 49.81 140.68C52.9033 140.68 55.5967 141.4 57.89 142.84C60.2367 144.227 62.05 146.173 63.33 148.68C64.61 151.133 65.25 154.013 65.25 157.32V181H55.17V158.12C55.17 155.133 54.4233 152.893 52.93 151.4C51.49 149.907 49.41 149.16 46.69 149.16C43.5967 149.16 41.1967 150.2 39.49 152.28C37.7833 154.307 36.93 157.16 36.93 160.84V181H26.85ZM76.1469 181V141.32H86.2269V181H76.1469ZM81.1869 136.68C79.3735 136.68 77.8269 136.093 76.5469 134.92C75.3202 133.747 74.7069 132.2 74.7069 130.28C74.7069 128.36 75.3202 126.813 76.5469 125.64C77.8269 124.467 79.3735 123.88 81.1869 123.88C83.0535 123.88 84.6002 124.467 85.8269 125.64C87.0535 126.813 87.6669 128.36 87.6669 130.28C87.6669 132.2 87.0535 133.747 85.8269 134.92C84.6002 136.093 83.0535 136.68 81.1869 136.68ZM116.037 182.12C112.197 182.12 108.704 181.32 105.557 179.72C102.464 178.12 100.01 175.8 98.1969 172.76C96.3835 169.72 95.4769 166.04 95.4769 161.72V160.6C95.4769 156.28 96.3835 152.6 98.1969 149.56C100.01 146.52 102.464 144.2 105.557 142.6C108.704 141 112.197 140.2 116.037 140.2C119.824 140.2 123.077 140.867 125.797 142.2C128.517 143.533 130.704 145.373 132.357 147.72C134.064 150.013 135.184 152.627 135.717 155.56L125.957 157.64C125.744 156.04 125.264 154.6 124.517 153.32C123.77 152.04 122.704 151.027 121.317 150.28C119.984 149.533 118.304 149.16 116.277 149.16C114.25 149.16 112.41 149.613 110.757 150.52C109.157 151.373 107.877 152.68 106.917 154.44C106.01 156.147 105.557 158.253 105.557 160.76V161.56C105.557 164.067 106.01 166.2 106.917 167.96C107.877 169.667 109.157 170.973 110.757 171.88C112.41 172.733 114.25 173.16 116.277 173.16C119.317 173.16 121.61 172.387 123.157 170.84C124.757 169.24 125.77 167.16 126.197 164.6L135.957 166.92C135.264 169.747 134.064 172.333 132.357 174.68C130.704 176.973 128.517 178.787 125.797 180.12C123.077 181.453 119.824 182.12 116.037 182.12ZM144.272 181V141.32H154.352V181H144.272ZM149.312 136.68C147.499 136.68 145.952 136.093 144.672 134.92C143.445 133.747 142.832 132.2 142.832 130.28C142.832 128.36 143.445 126.813 144.672 125.64C145.952 124.467 147.499 123.88 149.312 123.88C151.179 123.88 152.725 124.467 153.952 125.64C155.179 126.813 155.792 128.36 155.792 130.28C155.792 132.2 155.179 133.747 153.952 134.92C152.725 136.093 151.179 136.68 149.312 136.68ZM177.842 182.12C175.015 182.12 172.482 181.64 170.242 180.68C168.002 179.667 166.215 178.227 164.882 176.36C163.602 174.44 162.962 172.12 162.962 169.4C162.962 166.68 163.602 164.413 164.882 162.6C166.215 160.733 168.029 159.347 170.322 158.44C172.669 157.48 175.335 157 178.322 157H189.202V154.76C189.202 152.893 188.615 151.373 187.442 150.2C186.269 148.973 184.402 148.36 181.842 148.36C179.335 148.36 177.469 148.947 176.242 150.12C175.015 151.24 174.215 152.707 173.842 154.52L164.562 151.4C165.202 149.373 166.215 147.533 167.602 145.88C169.042 144.173 170.935 142.813 173.282 141.8C175.682 140.733 178.589 140.2 182.002 140.2C187.229 140.2 191.362 141.507 194.402 144.12C197.442 146.733 198.962 150.52 198.962 155.48V170.28C198.962 171.88 199.709 172.68 201.202 172.68H204.402V181H197.682C195.709 181 194.082 180.52 192.802 179.56C191.522 178.6 190.882 177.32 190.882 175.72V175.64H189.362C189.149 176.28 188.669 177.133 187.922 178.2C187.175 179.213 186.002 180.12 184.402 180.92C182.802 181.72 180.615 182.12 177.842 182.12ZM179.602 173.96C182.429 173.96 184.722 173.187 186.482 171.64C188.295 170.04 189.202 167.933 189.202 165.32V164.52H179.042C177.175 164.52 175.709 164.92 174.642 165.72C173.575 166.52 173.042 167.64 173.042 169.08C173.042 170.52 173.602 171.693 174.722 172.6C175.842 173.507 177.469 173.96 179.602 173.96ZM226.991 182.12C223.844 182.12 220.884 181.347 218.111 179.8C215.391 178.2 213.204 175.88 211.551 172.84C209.897 169.8 209.071 166.12 209.071 161.8V160.52C209.071 156.2 209.897 152.52 211.551 149.48C213.204 146.44 215.391 144.147 218.111 142.6C220.831 141 223.791 140.2 226.991 140.2C229.391 140.2 231.391 140.493 232.991 141.08C234.644 141.613 235.977 142.307 236.991 143.16C238.004 144.013 238.777 144.92 239.311 145.88H240.751V125H250.831V181H240.911V176.2H239.471C238.564 177.693 237.151 179.053 235.231 180.28C233.364 181.507 230.617 182.12 226.991 182.12ZM230.031 173.32C233.124 173.32 235.711 172.333 237.791 170.36C239.871 168.333 240.911 165.4 240.911 161.56V160.76C240.911 156.92 239.871 154.013 237.791 152.04C235.764 150.013 233.177 149 230.031 149C226.937 149 224.351 150.013 222.271 152.04C220.191 154.013 219.151 156.92 219.151 160.76V161.56C219.151 165.4 220.191 168.333 222.271 170.36C224.351 172.333 226.937 173.32 230.031 173.32ZM274.326 182.12C271.5 182.12 268.966 181.64 266.726 180.68C264.486 179.667 262.7 178.227 261.366 176.36C260.086 174.44 259.446 172.12 259.446 169.4C259.446 166.68 260.086 164.413 261.366 162.6C262.7 160.733 264.513 159.347 266.806 158.44C269.153 157.48 271.82 157 274.806 157H285.686V154.76C285.686 152.893 285.1 151.373 283.926 150.2C282.753 148.973 280.886 148.36 278.326 148.36C275.82 148.36 273.953 148.947 272.726 150.12C271.5 151.24 270.7 152.707 270.326 154.52L261.046 151.4C261.686 149.373 262.7 147.533 264.086 145.88C265.526 144.173 267.42 142.813 269.766 141.8C272.166 140.733 275.073 140.2 278.486 140.2C283.713 140.2 287.846 141.507 290.886 144.12C293.926 146.733 295.446 150.52 295.446 155.48V170.28C295.446 171.88 296.193 172.68 297.686 172.68H300.886V181H294.166C292.193 181 290.566 180.52 289.286 179.56C288.006 178.6 287.366 177.32 287.366 175.72V175.64H285.846C285.633 176.28 285.153 177.133 284.406 178.2C283.66 179.213 282.486 180.12 280.886 180.92C279.286 181.72 277.1 182.12 274.326 182.12ZM276.086 173.96C278.913 173.96 281.206 173.187 282.966 171.64C284.78 170.04 285.686 167.933 285.686 165.32V164.52H275.526C273.66 164.52 272.193 164.92 271.126 165.72C270.06 166.52 269.526 167.64 269.526 169.08C269.526 170.52 270.086 171.693 271.206 172.6C272.326 173.507 273.953 173.96 276.086 173.96ZM332.889 197V188.2H354.489C355.982 188.2 356.729 187.4 356.729 185.8V175.8H355.289C354.862 176.707 354.195 177.613 353.289 178.52C352.382 179.427 351.155 180.173 349.609 180.76C348.062 181.347 346.089 181.64 343.689 181.64C340.595 181.64 337.875 180.947 335.529 179.56C333.235 178.12 331.449 176.147 330.169 173.64C328.889 171.133 328.249 168.253 328.249 165V141.32H338.329V164.2C338.329 167.187 339.049 169.427 340.489 170.92C341.982 172.413 344.089 173.16 346.809 173.16C349.902 173.16 352.302 172.147 354.009 170.12C355.715 168.04 356.569 165.16 356.569 161.48V141.32H366.649V188.04C366.649 190.76 365.849 192.92 364.249 194.52C362.649 196.173 360.515 197 357.849 197H332.889ZM20.8 283C18.1867 283 16.0533 282.2 14.4 280.6C12.8 278.947 12 276.76 12 274.04V251.64H2.08V243.32H12V231H22.08V243.32H32.96V251.64H22.08V272.28C22.08 273.88 22.8267 274.68 24.32 274.68H32V283H20.8ZM57.2044 283.64C54.111 283.64 51.391 282.947 49.0444 281.56C46.751 280.12 44.9644 278.147 43.6844 275.64C42.4044 273.133 41.7644 270.253 41.7644 267V243.32H51.8444V266.2C51.8444 269.187 52.5644 271.427 54.0044 272.92C55.4977 274.413 57.6044 275.16 60.3244 275.16C63.4177 275.16 65.8177 274.147 67.5244 272.12C69.231 270.04 70.0844 267.16 70.0844 263.48V243.32H80.1644V283H70.2444V277.8H68.8044C68.1644 279.133 66.9644 280.44 65.2044 281.72C63.4444 283 60.7777 283.64 57.2044 283.64ZM107.861 284.12C102.688 284.12 98.4479 283 95.1413 280.76C91.8346 278.52 89.8346 275.32 89.1413 271.16L98.4213 268.76C98.7946 270.627 99.4079 272.093 100.261 273.16C101.168 274.227 102.261 275 103.541 275.48C104.875 275.907 106.315 276.12 107.861 276.12C110.208 276.12 111.941 275.72 113.061 274.92C114.181 274.067 114.741 273.027 114.741 271.8C114.741 270.573 114.208 269.64 113.141 269C112.075 268.307 110.368 267.747 108.021 267.32L105.781 266.92C103.008 266.387 100.475 265.667 98.1813 264.76C95.8879 263.8 94.0479 262.493 92.6613 260.84C91.2746 259.187 90.5813 257.053 90.5813 254.44C90.5813 250.493 92.0213 247.48 94.9013 245.4C97.7813 243.267 101.568 242.2 106.261 242.2C110.688 242.2 114.368 243.187 117.301 245.16C120.235 247.133 122.155 249.72 123.061 252.92L113.701 255.8C113.275 253.773 112.395 252.333 111.061 251.48C109.781 250.627 108.181 250.2 106.261 250.2C104.341 250.2 102.875 250.547 101.861 251.24C100.848 251.88 100.341 252.787 100.341 253.96C100.341 255.24 100.875 256.2 101.941 256.84C103.008 257.427 104.448 257.88 106.261 258.2L108.501 258.6C111.488 259.133 114.181 259.853 116.581 260.76C119.035 261.613 120.955 262.867 122.341 264.52C123.781 266.12 124.501 268.307 124.501 271.08C124.501 275.24 122.981 278.467 119.941 280.76C116.955 283 112.928 284.12 107.861 284.12ZM160.207 283V251.64H150.127V243.32H160.207V235.96C160.207 233.24 161.007 231.08 162.607 229.48C164.26 227.827 166.394 227 169.007 227H178.607V235.32H172.527C171.034 235.32 170.287 236.12 170.287 237.72V243.32H186.287V251.64H170.287V283H160.207ZM186.287 283V243.32H196.367V283H186.287ZM191.327 239C189.514 239 187.967 238.413 186.687 237.24C185.46 236.067 184.847 234.52 184.847 232.6C184.847 230.68 185.46 229.133 186.687 227.96C187.967 226.787 189.514 226.2 191.327 226.2C193.194 226.2 194.74 226.787 195.967 227.96C197.194 229.133 197.807 230.68 197.807 232.6C197.807 234.52 197.194 236.067 195.967 237.24C194.74 238.413 193.194 239 191.327 239ZM207.553 283V243.32H217.473V248.52H218.913C219.553 247.133 220.753 245.827 222.513 244.6C224.273 243.32 226.94 242.68 230.513 242.68C233.606 242.68 236.3 243.4 238.593 244.84C240.94 246.227 242.753 248.173 244.033 250.68C245.313 253.133 245.953 256.013 245.953 259.32V283H235.873V260.12C235.873 257.133 235.126 254.893 233.633 253.4C232.193 251.907 230.113 251.16 227.393 251.16C224.3 251.16 221.9 252.2 220.193 254.28C218.486 256.307 217.633 259.16 217.633 262.84V283H207.553ZM269.17 284.12C266.343 284.12 263.81 283.64 261.57 282.68C259.33 281.667 257.543 280.227 256.21 278.36C254.93 276.44 254.29 274.12 254.29 271.4C254.29 268.68 254.93 266.413 256.21 264.6C257.543 262.733 259.357 261.347 261.65 260.44C263.997 259.48 266.663 259 269.65 259H280.53V256.76C280.53 254.893 279.943 253.373 278.77 252.2C277.597 250.973 275.73 250.36 273.17 250.36C270.663 250.36 268.797 250.947 267.57 252.12C266.343 253.24 265.543 254.707 265.17 256.52L255.89 253.4C256.53 251.373 257.543 249.533 258.93 247.88C260.37 246.173 262.263 244.813 264.61 243.8C267.01 242.733 269.917 242.2 273.33 242.2C278.557 242.2 282.69 243.507 285.73 246.12C288.77 248.733 290.29 252.52 290.29 257.48V272.28C290.29 273.88 291.037 274.68 292.53 274.68H295.73V283H289.01C287.037 283 285.41 282.52 284.13 281.56C282.85 280.6 282.21 279.32 282.21 277.72V277.64H280.69C280.477 278.28 279.997 279.133 279.25 280.2C278.503 281.213 277.33 282.12 275.73 282.92C274.13 283.72 271.943 284.12 269.17 284.12ZM270.93 275.96C273.757 275.96 276.05 275.187 277.81 273.64C279.623 272.04 280.53 269.933 280.53 267.32V266.52H270.37C268.503 266.52 267.037 266.92 265.97 267.72C264.903 268.52 264.37 269.64 264.37 271.08C264.37 272.52 264.93 273.693 266.05 274.6C267.17 275.507 268.797 275.96 270.93 275.96ZM303.1 283V243.32H313.02V248.52H314.46C315.1 247.133 316.3 245.827 318.06 244.6C319.82 243.32 322.487 242.68 326.06 242.68C329.153 242.68 331.847 243.4 334.14 244.84C336.487 246.227 338.3 248.173 339.58 250.68C340.86 253.133 341.5 256.013 341.5 259.32V283H331.42V260.12C331.42 257.133 330.673 254.893 329.18 253.4C327.74 251.907 325.66 251.16 322.94 251.16C319.847 251.16 317.447 252.2 315.74 254.28C314.033 256.307 313.18 259.16 313.18 262.84V283H303.1ZM350.957 283V271L372.717 252.92V251.64H351.757V243.32H383.757V255.32L361.997 273.4V274.68H384.397V283H350.957ZM406.123 284.12C403.296 284.12 400.763 283.64 398.523 282.68C396.283 281.667 394.496 280.227 393.163 278.36C391.883 276.44 391.243 274.12 391.243 271.4C391.243 268.68 391.883 266.413 393.163 264.6C394.496 262.733 396.31 261.347 398.603 260.44C400.95 259.48 403.616 259 406.603 259H417.483V256.76C417.483 254.893 416.896 253.373 415.723 252.2C414.55 250.973 412.683 250.36 410.123 250.36C407.616 250.36 405.75 250.947 404.523 252.12C403.296 253.24 402.496 254.707 402.123 256.52L392.843 253.4C393.483 251.373 394.496 249.533 395.883 247.88C397.323 246.173 399.216 244.813 401.563 243.8C403.963 242.733 406.87 242.2 410.283 242.2C415.51 242.2 419.643 243.507 422.683 246.12C425.723 248.733 427.243 252.52 427.243 257.48V272.28C427.243 273.88 427.99 274.68 429.483 274.68H432.683V283H425.963C423.99 283 422.363 282.52 421.083 281.56C419.803 280.6 419.163 279.32 419.163 277.72V277.64H417.643C417.43 278.28 416.95 279.133 416.203 280.2C415.456 281.213 414.283 282.12 412.683 282.92C411.083 283.72 408.896 284.12 406.123 284.12ZM407.883 275.96C410.71 275.96 413.003 275.187 414.763 273.64C416.576 272.04 417.483 269.933 417.483 267.32V266.52H407.323C405.456 266.52 403.99 266.92 402.923 267.72C401.856 268.52 401.323 269.64 401.323 271.08C401.323 272.52 401.883 273.693 403.003 274.6C404.123 275.507 405.75 275.96 407.883 275.96ZM456.221 284.12C451.047 284.12 446.807 283 443.501 280.76C440.194 278.52 438.194 275.32 437.501 271.16L446.781 268.76C447.154 270.627 447.767 272.093 448.621 273.16C449.527 274.227 450.621 275 451.901 275.48C453.234 275.907 454.674 276.12 456.221 276.12C458.567 276.12 460.301 275.72 461.421 274.92C462.541 274.067 463.101 273.027 463.101 271.8C463.101 270.573 462.567 269.64 461.501 269C460.434 268.307 458.727 267.747 456.381 267.32L454.141 266.92C451.367 266.387 448.834 265.667 446.541 264.76C444.247 263.8 442.407 262.493 441.021 260.84C439.634 259.187 438.941 257.053 438.941 254.44C438.941 250.493 440.381 247.48 443.261 245.4C446.141 243.267 449.927 242.2 454.621 242.2C459.047 242.2 462.727 243.187 465.661 245.16C468.594 247.133 470.514 249.72 471.421 252.92L462.061 255.8C461.634 253.773 460.754 252.333 459.421 251.48C458.141 250.627 456.541 250.2 454.621 250.2C452.701 250.2 451.234 250.547 450.221 251.24C449.207 251.88 448.701 252.787 448.701 253.96C448.701 255.24 449.234 256.2 450.301 256.84C451.367 257.427 452.807 257.88 454.621 258.2L456.861 258.6C459.847 259.133 462.541 259.853 464.941 260.76C467.394 261.613 469.314 262.867 470.701 264.52C472.141 266.12 472.861 268.307 472.861 271.08C472.861 275.24 471.341 278.467 468.301 280.76C465.314 283 461.287 284.12 456.221 284.12ZM482.894 264.6V227H493.134V264.6H482.894ZM488.014 284.12C485.88 284.12 484.067 283.427 482.574 282.04C481.134 280.6 480.414 278.76 480.414 276.52C480.414 274.28 481.134 272.467 482.574 271.08C484.067 269.64 485.88 268.92 488.014 268.92C490.2 268.92 492.014 269.64 493.454 271.08C494.894 272.467 495.614 274.28 495.614 276.52C495.614 278.76 494.894 280.6 493.454 282.04C492.014 283.427 490.2 284.12 488.014 284.12Z" fill="#F9F9F9"/>
<path d="M398.178 181V141.32H408.098V145.64H409.538C410.231 144.307 411.378 143.16 412.978 142.2C414.578 141.187 416.685 140.68 419.298 140.68C422.125 140.68 424.391 141.24 426.098 142.36C427.805 143.427 429.111 144.84 430.018 146.6H431.458C432.365 144.893 433.645 143.48 435.298 142.36C436.951 141.24 439.298 140.68 442.338 140.68C444.791 140.68 447.005 141.213 448.978 142.28C451.005 143.293 452.605 144.867 453.778 147C455.005 149.08 455.618 151.72 455.618 154.92V181H445.538V155.64C445.538 153.453 444.978 151.827 443.858 150.76C442.738 149.64 441.165 149.08 439.138 149.08C436.845 149.08 435.058 149.827 433.778 151.32C432.551 152.76 431.938 154.84 431.938 157.56V181H421.858V155.64C421.858 153.453 421.298 151.827 420.178 150.76C419.058 149.64 417.485 149.08 415.458 149.08C413.165 149.08 411.378 149.827 410.098 151.32C408.871 152.76 408.258 154.84 408.258 157.56V181H398.178ZM478.779 182.12C475.953 182.12 473.419 181.64 471.179 180.68C468.939 179.667 467.153 178.227 465.819 176.36C464.539 174.44 463.899 172.12 463.899 169.4C463.899 166.68 464.539 164.413 465.819 162.6C467.153 160.733 468.966 159.347 471.259 158.44C473.606 157.48 476.273 157 479.259 157H490.139V154.76C490.139 152.893 489.553 151.373 488.379 150.2C487.206 148.973 485.339 148.36 482.779 148.36C480.273 148.36 478.406 148.947 477.179 150.12C475.953 151.24 475.153 152.707 474.779 154.52L465.499 151.4C466.139 149.373 467.153 147.533 468.539 145.88C469.979 144.173 471.873 142.813 474.219 141.8C476.619 140.733 479.526 140.2 482.939 140.2C488.166 140.2 492.299 141.507 495.339 144.12C498.379 146.733 499.899 150.52 499.899 155.48V170.28C499.899 171.88 500.646 172.68 502.139 172.68H505.339V181H498.619C496.646 181 495.019 180.52 493.739 179.56C492.459 178.6 491.819 177.32 491.819 175.72V175.64H490.299C490.086 176.28 489.606 177.133 488.859 178.2C488.113 179.213 486.939 180.12 485.339 180.92C483.739 181.72 481.553 182.12 478.779 182.12ZM480.539 173.96C483.366 173.96 485.659 173.187 487.419 171.64C489.233 170.04 490.139 167.933 490.139 165.32V164.52H479.979C478.113 164.52 476.646 164.92 475.579 165.72C474.513 166.52 473.979 167.64 473.979 169.08C473.979 170.52 474.539 171.693 475.659 172.6C476.779 173.507 478.406 173.96 480.539 173.96ZM512.709 181V141.32H522.629V146.52H524.069C524.709 145.133 525.909 143.827 527.669 142.6C529.429 141.32 532.096 140.68 535.669 140.68C538.763 140.68 541.456 141.4 543.749 142.84C546.096 144.227 547.909 146.173 549.189 148.68C550.469 151.133 551.109 154.013 551.109 157.32V181H541.029V158.12C541.029 155.133 540.283 152.893 538.789 151.4C537.349 149.907 535.269 149.16 532.549 149.16C529.456 149.16 527.056 150.2 525.349 152.28C523.643 154.307 522.789 157.16 522.789 160.84V181H512.709ZM580.086 182.12C576.14 182.12 572.646 181.293 569.606 179.64C566.62 177.933 564.273 175.56 562.566 172.52C560.913 169.427 560.086 165.8 560.086 161.64V160.68C560.086 156.52 560.913 152.92 562.566 149.88C564.22 146.787 566.54 144.413 569.526 142.76C572.513 141.053 575.98 140.2 579.926 140.2C583.82 140.2 587.206 141.08 590.086 142.84C592.966 144.547 595.206 146.947 596.806 150.04C598.406 153.08 599.206 156.627 599.206 160.68V164.12H570.326C570.433 166.84 571.446 169.053 573.366 170.76C575.286 172.467 577.633 173.32 580.406 173.32C583.233 173.32 585.313 172.707 586.646 171.48C587.98 170.253 588.993 168.893 589.686 167.4L597.926 171.72C597.18 173.107 596.086 174.627 594.646 176.28C593.26 177.88 591.393 179.267 589.046 180.44C586.7 181.56 583.713 182.12 580.086 182.12ZM570.406 156.6H588.966C588.753 154.307 587.82 152.467 586.166 151.08C584.566 149.693 582.46 149 579.846 149C577.126 149 574.966 149.693 573.366 151.08C571.766 152.467 570.78 154.307 570.406 156.6ZM600.818 197V188.36H606.098C607.591 188.36 608.338 187.56 608.338 185.96V141.32H618.418V188.04C618.418 190.76 617.618 192.92 616.018 194.52C614.418 196.173 612.285 197 609.618 197H600.818ZM613.378 136.68C611.565 136.68 610.018 136.093 608.738 134.92C607.511 133.747 606.898 132.2 606.898 130.28C606.898 128.36 607.511 126.813 608.738 125.64C610.018 124.467 611.565 123.88 613.378 123.88C615.245 123.88 616.791 124.467 618.018 125.64C619.245 126.813 619.858 128.36 619.858 130.28C619.858 132.2 619.245 133.747 618.018 134.92C616.791 136.093 615.245 136.68 613.378 136.68ZM641.904 182.12C639.078 182.12 636.544 181.64 634.304 180.68C632.064 179.667 630.278 178.227 628.944 176.36C627.664 174.44 627.024 172.12 627.024 169.4C627.024 166.68 627.664 164.413 628.944 162.6C630.278 160.733 632.091 159.347 634.384 158.44C636.731 157.48 639.398 157 642.384 157H653.264V154.76C653.264 152.893 652.678 151.373 651.504 150.2C650.331 148.973 648.464 148.36 645.904 148.36C643.398 148.36 641.531 148.947 640.304 150.12C639.078 151.24 638.278 152.707 637.904 154.52L628.624 151.4C629.264 149.373 630.278 147.533 631.664 145.88C633.104 144.173 634.998 142.813 637.344 141.8C639.744 140.733 642.651 140.2 646.064 140.2C651.291 140.2 655.424 141.507 658.464 144.12C661.504 146.733 663.024 150.52 663.024 155.48V170.28C663.024 171.88 663.771 172.68 665.264 172.68H668.464V181H661.744C659.771 181 658.144 180.52 656.864 179.56C655.584 178.6 654.944 177.32 654.944 175.72V175.64H653.424C653.211 176.28 652.731 177.133 651.984 178.2C651.238 179.213 650.064 180.12 648.464 180.92C646.864 181.72 644.678 182.12 641.904 182.12ZM643.664 173.96C646.491 173.96 648.784 173.187 650.544 171.64C652.358 170.04 653.264 167.933 653.264 165.32V164.52H643.104C641.238 164.52 639.771 164.92 638.704 165.72C637.638 166.52 637.104 167.64 637.104 169.08C637.104 170.52 637.664 171.693 638.784 172.6C639.904 173.507 641.531 173.96 643.664 173.96Z" fill="#050203"/>
</svg>
