<svg width="48" height="51" viewBox="0 0 48 51" fill="none" xmlns="http://www.w3.org/2000/svg">
<g style="mix-blend-mode:soft-light">
<path fill-rule="evenodd" clip-rule="evenodd" d="M30.4431 13.1979C30.7342 12.3837 31.5846 11.977 32.3427 12.2895L43.9901 17.0917C44.3541 17.2418 44.6478 17.5411 44.8064 17.9237C44.965 18.3063 44.9756 18.741 44.8358 19.132L40.3648 31.6421C40.0738 32.4564 39.2234 32.8631 38.4653 32.5505C37.7072 32.238 37.3285 31.3245 37.6195 30.5102L40.8184 21.5595L38.6884 22.5781C33.8791 24.8779 30.216 28.7961 28.0036 33.4716C27.7902 33.9225 27.3887 34.2364 26.9236 34.3158C26.4585 34.3951 25.9862 34.2304 25.6532 33.8728L18.2505 25.9217L6.0573 39.0181C5.48311 39.6348 4.55215 39.6348 3.97796 39.0181C3.40377 38.4013 3.40377 37.4014 3.97796 36.7847L17.2108 22.5717C17.4865 22.2755 17.8605 22.1091 18.2505 22.1091C18.6404 22.1091 19.0144 22.2755 19.2901 22.5717L26.3594 30.1646C28.9091 25.6983 32.7008 21.984 37.4924 19.6927L39.6224 18.6741L31.2889 15.2382C30.5308 14.9256 30.1521 14.0122 30.4431 13.1979Z" fill="white"/>
</g>
</svg>
