<svg width="228" height="228" viewBox="0 0 228 228" fill="none" xmlns="http://www.w3.org/2000/svg">
<rect width="228" height="228" rx="114" fill="#A8F25D"/>
<path fill-rule="evenodd" clip-rule="evenodd" d="M85.5 76C85.5 60.2599 98.2599 47.5 114 47.5C129.74 47.5 142.5 60.2599 142.5 76C142.5 91.7401 129.74 104.5 114 104.5C98.2599 104.5 85.5 91.7401 85.5 76Z" fill="black"/>
<path fill-rule="evenodd" clip-rule="evenodd" d="M61.7579 165.334C62.2477 136.899 85.4492 114 114 114C142.551 114 165.753 136.9 166.242 165.336C166.275 167.222 165.188 168.948 163.474 169.735C148.407 176.648 131.648 180.5 114.002 180.5C96.3544 180.5 79.5937 176.647 64.526 169.733C62.8118 168.946 61.7254 167.22 61.7579 165.334Z" fill="black"/>
</svg>
