<svg width="53" height="53" viewBox="0 0 53 53" fill="none" xmlns="http://www.w3.org/2000/svg">
<rect width="53" height="53" rx="7.06667" fill="#141414"/>
<path fill-rule="evenodd" clip-rule="evenodd" d="M11.7873 10.5613C12.4645 10.5613 13.0134 11.1102 13.0134 11.7873V12.6691L16.0184 11.9179C19.7095 10.9951 23.609 11.4232 27.0121 13.1247L27.1882 13.2128C30.0101 14.6237 33.2374 15.0007 36.3085 14.2781L41.3919 13.082C41.7792 12.9909 42.1866 13.0933 42.4847 13.3568C42.7827 13.6202 42.9345 14.0119 42.8916 14.4075C42.5923 17.1707 42.4387 19.9781 42.4387 22.8218C42.4387 25.6892 42.5949 28.5197 42.8992 31.3053C42.9664 31.9209 42.564 32.49 41.9612 32.6319L36.8701 33.8298C33.2406 34.6838 29.4266 34.2383 26.0916 32.5708L25.9155 32.4827C23.0359 31.043 19.7364 30.6808 16.6131 31.4616L13.0134 32.3615V41.2127C13.0134 41.8898 12.4645 42.4387 11.7873 42.4387C11.1102 42.4387 10.5613 41.8898 10.5613 41.2127V11.7873C10.5613 11.1102 11.1102 10.5613 11.7873 10.5613Z" fill="#A8F25D"/>
</svg>
