<svg width="205" height="266" viewBox="0 0 205 266" fill="none" xmlns="http://www.w3.org/2000/svg">
<rect width="205" height="266" rx="16" fill="#111111"/>
<mask id="mask0_356_963" style="mask-type:alpha" maskUnits="userSpaceOnUse" x="0" y="0" width="205" height="266">
<rect width="205" height="266" rx="16" fill="#111111"/>
</mask>
<g mask="url(#mask0_356_963)">
<g opacity="0.66" filter="url(#filter0_f_356_963)">
<path d="M272.146 289.449C352.325 255.093 371.938 173.014 315.953 106.121V106.121C259.968 39.2276 149.586 12.8514 69.4067 47.2078L45.1768 57.5902C-35.0021 91.9466 -54.6152 174.026 1.36989 240.919V240.919C57.3549 307.812 167.738 334.188 247.917 299.832L272.146 289.449Z" fill="url(#paint0_radial_356_963)"/>
<path d="M272.146 289.449C352.325 255.093 371.938 173.014 315.953 106.121V106.121C259.968 39.2276 149.586 12.8514 69.4067 47.2078L45.1768 57.5902C-35.0021 91.9466 -54.6152 174.026 1.36989 240.919V240.919C57.3549 307.812 167.738 334.188 247.917 299.832L272.146 289.449Z" stroke="#2D18BF" stroke-width="33.7216"/>
</g>
<g opacity="0.33" filter="url(#filter1_f_356_963)">
<path d="M110.268 131.951C162.455 109.865 175.436 56.5999 139.26 12.9803V12.9803C103.085 -30.6393 31.4525 -48.0959 -20.7351 -26.01L-36.506 -19.3357C-88.6936 2.75019 -101.674 56.015 -65.4986 99.6346V99.6346C-29.3232 143.254 42.3092 160.711 94.4968 138.625L110.268 131.951Z" fill="url(#paint1_radial_356_963)"/>
<path d="M110.268 131.951C162.455 109.865 175.436 56.5999 139.26 12.9803V12.9803C103.085 -30.6393 31.4525 -48.0959 -20.7351 -26.01L-36.506 -19.3357C-88.6936 2.75019 -101.674 56.015 -65.4986 99.6346V99.6346C-29.3232 143.254 42.3092 160.711 94.4968 138.625L110.268 131.951Z" stroke="#A8F25D" stroke-width="21.9072"/>
</g>
<g style="mix-blend-mode:overlay" opacity="0.19">
<path d="M181.77 194.763C181.77 200.708 176.952 205.526 171.007 205.526C165.062 205.526 160.245 200.708 160.245 194.763C160.245 188.818 165.062 184 171.007 184C176.952 184 181.77 188.818 181.77 194.763Z" fill="white"/>
<path d="M181.77 194.763C181.77 200.708 176.952 205.526 171.007 205.526C165.062 205.526 160.245 200.708 160.245 194.763C160.245 188.818 165.062 184 171.007 184C176.952 184 181.77 188.818 181.77 194.763Z" fill="white"/>
<path d="M113.765 262.773C107.82 262.773 103.001 257.955 103.001 252.01C103.001 246.065 107.82 241.247 113.765 241.247C119.71 241.247 124.528 246.065 124.528 252.01C124.528 257.955 119.71 262.773 113.765 262.773Z" fill="white"/>
<path d="M211.482 222.285C217.426 222.285 222.245 217.466 222.245 211.522C222.245 205.578 217.426 200.759 211.482 200.759C205.538 200.759 200.719 205.578 200.719 211.522C200.719 217.466 205.538 222.285 211.482 222.285Z" fill="white"/>
<path d="M211.482 222.285C217.426 222.285 222.245 217.466 222.245 211.522C222.245 205.578 217.426 200.759 211.482 200.759C205.538 200.759 200.719 205.578 200.719 211.522C200.719 217.466 205.538 222.285 211.482 222.285Z" fill="white"/>
<path d="M122.927 219.146C118.73 214.949 118.73 208.122 122.927 203.925C127.124 199.728 133.951 199.728 138.148 203.925C142.346 208.122 142.346 214.949 138.148 219.146C133.951 223.344 127.124 223.344 122.927 219.146Z" fill="white"/>
</g>
<g style="mix-blend-mode:overlay" opacity="0.1">
<path d="M86.9446 14.9373L75.563 -27.97C60.9841 -23.7452 47.8388 -18.4379 37.3091 -12.8306C42.6066 -23.6854 47.5777 -37.2205 51.4561 -52.2106L9.31115 -63.1148C5.43783 -48.1444 3.22059 -33.8967 2.58376 -21.8151C-3.90511 -31.8257 -12.8269 -42.8425 -23.5273 -53.6078L-54.2904 -21.6046C-43.5899 -10.8393 -32.6573 -1.91868 -22.7644 4.55556C-34.5508 5.39976 -48.4429 7.91734 -63.0217 12.1421L-51.6405 55.0503C-37.0617 50.8256 -23.9164 45.5182 -13.3867 39.9109C-18.6842 50.7657 -23.6553 64.3008 -27.5336 79.2909L14.6113 90.1951C18.4846 75.2247 20.7019 60.977 21.3387 48.8954C27.8276 58.906 36.7493 69.9228 47.4498 80.6881L78.2133 48.684C67.5129 37.9187 56.5797 28.999 46.6868 22.5248C58.4732 21.6805 72.3658 19.1621 86.9446 14.9373Z" fill="white"/>
</g>
<g clip-path="url(#clip0_356_963)">
<path d="M35.092 98.7463C35.092 98.7463 36.9981 88.2532 54.1814 84.9081C71.3647 81.563 98.0787 75.3681 107.619 72.9761C110.347 72.294 113.86 71.3409 117.794 70.4626C127.615 68.2855 140.07 66.6409 149.601 71.0606C162.962 77.2649 199.226 114.481 230.238 110.66C261.25 106.838 278.91 99.6901 318.986 97.7746C359.061 95.8684 402.958 102.073 426.337 121.153C448.622 139.345 470.028 168.853 471.897 198.51C473.794 228.728 448.809 252.275 437.316 278.129C431.588 291.014 431.588 299.601 435.41 304.852C437.419 307.618 438.372 310.281 438.633 312.785C439.222 318.42 436.559 322.671 432.074 329.66C415.143 356.057 414.171 358.804 413.47 361.392C412.237 365.933 412.293 368.269 409.892 370.698C405.145 375.492 397.119 374.277 388.662 373.324C380.412 372.399 368.508 371.362 353.333 371.11C356.594 369.063 361.547 365.84 367.508 361.504C370.134 359.598 370.601 358.935 371.33 358.542C371.629 358.383 371.881 358.318 371.956 358.29C373.619 357.739 385.831 352.581 387.466 351.852C394.306 348.768 406.21 337.126 404.883 323.465C404.052 314.897 398.343 308.945 395.343 306.291C395.343 306.291 390.092 307.721 390.092 311.066C390.092 315.327 396.764 317.607 398.202 323.951C399.109 327.95 397.156 331.324 393.428 337.547C391.568 340.649 387.308 347.161 376.777 356.374C370.18 362.139 366.686 365.204 360.986 368.316L331.88 377.856C330.777 376.66 330.525 375.548 330.45 374.997C330.095 372.324 332.17 369.362 335.702 367.839C332.441 369.157 328.946 370.446 325.208 371.661C320.331 373.24 315.696 374.492 311.37 375.482C311.894 373.586 312.893 371.147 314.949 369.045C317.257 366.671 319.911 365.737 319.724 365.223C319.555 364.784 317.565 365.419 314.239 365.7C310.838 365.989 310.894 365.503 307.324 365.7L298.737 366.896C298.737 366.896 314.005 358.066 332.852 353.3C351.698 348.526 358.613 335.883 358.136 327.053C357.66 318.223 343.102 309.16 340.719 296.518C338.337 283.876 338.337 279.82 338.337 279.82C327.507 283.735 310.838 288.305 290.15 288.407C265.044 288.529 245.347 282.007 233.845 277.195C231.453 282.932 227.883 291.603 227.64 302.479C227.388 313.851 229.303 322.363 226.211 337.313C224.949 343.386 223.725 346.059 221.679 348.283C217.96 352.338 214.353 351.861 201.879 355.197C192.666 357.664 193.573 358.206 179.697 362.111C174.212 363.663 169.55 364.849 166.102 365.69C167.672 359.43 169.989 356.935 171.83 355.674C175.651 353.048 165.392 359.252 157.038 359.252H148.685C148.685 359.252 153.936 355.916 157.748 353.767C161.57 351.618 168.242 349.469 168.242 349.469L148.676 349.946C148.676 349.946 178.492 343.741 183.266 336.108C188.041 328.474 198.534 315.589 189.471 287.679C180.407 259.769 156.076 233.045 156.076 233.045C156.076 233.045 119.812 177.935 110.983 174.6C102.153 171.264 63.9831 176.029 45.1366 163.863C26.2621 151.707 26.2621 121.891 29.8408 110.678C33.4194 99.4658 35.092 98.7463 35.092 98.7463Z" fill="white"/>
<path d="M117.794 97.4662C127.718 97.4662 135.762 96.5417 135.762 95.4012C135.762 94.2608 127.718 93.3362 117.794 93.3362C107.871 93.3362 99.826 94.2608 99.826 95.4012C99.826 96.5417 107.871 97.4662 117.794 97.4662Z" fill="#050203"/>
<path d="M124.475 102.624C126.673 102.624 128.455 100.842 128.455 98.6436C128.455 96.4452 126.673 94.6631 124.475 94.6631C122.277 94.6631 120.495 96.4452 120.495 98.6436C120.495 100.842 122.277 102.624 124.475 102.624Z" fill="#050203"/>
<path d="M116.748 49.5791C117.374 48.8877 118.14 48.3831 119.084 48.1495C124.475 46.804 130.278 54.8864 131.66 60.2404C133.081 65.7813 133.791 74.7233 133.791 74.7233L119.205 78.5543C119.205 78.5543 113.515 67.4819 113.87 60.2404C114.029 56.942 114.496 52.0552 116.757 49.5698L116.748 49.5791Z" fill="white"/>
<path d="M173.521 57.4933C174.418 57.9045 175.231 58.5865 175.885 59.5957C179.65 65.4262 175.436 76.4426 171.456 80.7688C167.335 85.2351 159.916 90.5424 159.916 90.5424L149.563 74.8448C149.563 74.8448 156.431 62.4829 162.878 59.306C165.821 57.8577 170.278 55.9983 173.521 57.4933Z" fill="white"/>
<path d="M119.906 73.7329C118.719 71.9856 117.14 69.0516 116.729 65.1179C116.542 63.3239 116.355 61.5672 117.177 59.8853C118.551 57.0635 122.102 55.7554 124.783 57.0355C127.054 58.1194 128.54 61.3149 128.923 64.0901C129.035 64.8936 129.044 65.7439 129.072 66.5568C129.166 68.9769 129.156 71.3969 129.156 71.3969C129.156 71.3969 126.577 72.1444 124.699 72.6303C123.541 72.9293 121.915 73.3311 119.906 73.7235V73.7329Z" fill="#050203"/>
<path d="M153.628 76.1249C154.478 73.7796 156.123 70.257 159.262 67.2483C160.692 65.8747 162.093 64.5386 163.971 64.2489C167.12 63.7724 170.157 66.4821 170.521 70.0234C170.82 73.0228 168.905 76.6201 166.747 78.8346C166.121 79.4793 165.401 80.0493 164.719 80.6193C162.701 82.3105 160.636 83.899 160.636 83.899C160.636 83.899 158.692 81.8246 157.515 80.5352C156.571 79.498 155.235 78.0124 153.637 76.1249H153.628Z" fill="#050203"/>
<path d="M48.3626 114.325C49.1059 114.075 49.0673 111.969 48.2765 109.621C47.4856 107.274 46.2418 105.574 45.4985 105.825C44.7552 106.075 44.7937 108.181 45.5846 110.528C46.3755 112.876 47.6192 114.576 48.3626 114.325Z" fill="#050203"/>
<path d="M56.4238 110.862C57.8028 108.805 58.3926 106.783 57.741 106.346C57.0894 105.909 55.4432 107.223 54.0642 109.281C52.6852 111.339 52.0955 113.361 52.7471 113.797C53.3986 114.234 55.0448 112.92 56.4238 110.862Z" fill="#050203"/>
<path d="M45.9429 147.714C46.8769 145.376 46.9658 143.213 46.1415 142.884C45.3172 142.555 43.8919 144.184 42.9579 146.522C42.0239 148.861 41.9349 151.024 42.7592 151.353C43.5835 151.682 45.0089 150.053 45.9429 147.714Z" fill="#050203"/>
<path d="M52.6209 147.914C51.0418 145.858 50.3691 143.83 51.1166 143.4C51.8641 142.971 53.7515 144.279 55.3306 146.334C56.9097 148.39 57.5825 150.418 56.835 150.848C56.0875 151.277 54.2 149.969 52.6209 147.914Z" fill="#050203"/>
<path d="M47.949 142.84C48.7696 142.84 49.4347 137.109 49.4347 130.039C49.4347 122.969 48.7696 117.238 47.949 117.238C47.1285 117.238 46.4634 122.969 46.4634 130.039C46.4634 137.109 47.1285 142.84 47.949 142.84Z" fill="#050203"/>
<path d="M204.234 231.924C204.234 231.924 206.467 232.597 209.569 239.661C212.671 246.725 213.568 251.406 213.568 251.406" fill="#050203"/>
<path d="M174.334 192.484C174.334 192.484 173.511 194.67 177.258 201.407C181.005 208.144 184.191 211.704 184.191 211.704" fill="#050203"/>
<path d="M171.474 223.711C171.474 223.711 170.914 225.972 175.418 232.242C179.921 238.511 183.491 241.67 183.491 241.67" fill="#050203"/>
<path d="M197.955 204.5C197.955 204.5 200.188 205.173 203.29 212.236C206.392 219.3 207.289 223.982 207.289 223.982" fill="#050203"/>
<path d="M194.208 235.456C194.208 235.456 196.245 236.586 197.759 244.155C199.272 251.723 199.151 256.489 199.151 256.489" fill="#050203"/>
<path d="M195.479 264.655C195.479 264.655 197.516 265.786 199.029 273.354C200.543 280.923 200.422 285.688 200.422 285.688" fill="#050203"/>
</g>
</g>
<defs>
<filter id="filter0_f_356_963" x="-210.154" y="-143.117" width="737.631" height="633.273" filterUnits="userSpaceOnUse" color-interpolation-filters="sRGB">
<feFlood flood-opacity="0" result="BackgroundImageFix"/>
<feBlend mode="normal" in="SourceGraphic" in2="BackgroundImageFix" result="shape"/>
<feGaussianBlur stdDeviation="80.358" result="effect1_foregroundBlur_356_963"/>
</filter>
<filter id="filter1_f_356_963" x="-202.675" y="-149.437" width="479.112" height="411.49" filterUnits="userSpaceOnUse" color-interpolation-filters="sRGB">
<feFlood flood-opacity="0" result="BackgroundImageFix"/>
<feBlend mode="normal" in="SourceGraphic" in2="BackgroundImageFix" result="shape"/>
<feGaussianBlur stdDeviation="52.2044" result="effect1_foregroundBlur_356_963"/>
</filter>
<radialGradient id="paint0_radial_356_963" cx="0" cy="0" r="1" gradientUnits="userSpaceOnUse" gradientTransform="translate(145.147 202.574) rotate(-152.53) scale(193.068 158.286)">
<stop stop-color="#581ED4"/>
<stop offset="0.725406" stop-color="#F2622E" stop-opacity="0"/>
</radialGradient>
<radialGradient id="paint1_radial_356_963" cx="0" cy="0" r="1" gradientUnits="userSpaceOnUse" gradientTransform="translate(28.0166 75.1427) rotate(-152.273) scale(125.426 102.83)">
<stop stop-color="#A8F25D"/>
<stop offset="0.725406" stop-color="#2D18BF"/>
</radialGradient>
<clipPath id="clip0_356_963">
<rect width="444" height="329.865" fill="white" transform="translate(28 48)"/>
</clipPath>
</defs>
</svg>
