<svg width="1440" height="1478" viewBox="0 0 1440 1478" fill="none" xmlns="http://www.w3.org/2000/svg">
<g clip-path="url(#clip0_1209_3394)">
<rect width="1440" height="1478" fill="#030018"/>
<g opacity="0.66" filter="url(#filter0_f_1209_3394)">
<path d="M252.344 1681.51C394.302 1593.71 441.506 1405.48 357.779 1261.09L329.678 1212.63C245.95 1068.23 62.9954 1022.35 -78.9625 1110.15V1110.15C-220.92 1197.94 -268.125 1386.17 -184.397 1530.57L-156.296 1579.03C-72.5686 1723.43 110.386 1769.31 252.344 1681.51V1681.51Z" fill="url(#paint0_radial_1209_3394)"/>
<path d="M252.344 1681.51C394.302 1593.71 441.506 1405.48 357.779 1261.09L329.678 1212.63C245.95 1068.23 62.9954 1022.35 -78.9625 1110.15V1110.15C-220.92 1197.94 -268.125 1386.17 -184.397 1530.57L-156.296 1579.03C-72.5686 1723.43 110.386 1769.31 252.344 1681.51V1681.51Z" stroke="#2D18BF" stroke-width="55.1061"/>
</g>
<g opacity="0.41" filter="url(#filter1_f_1209_3394)">
<path d="M1479.34 532.596C1621.3 444.799 1668.51 256.569 1584.78 112.174L1556.68 63.711C1472.95 -80.6845 1290 -126.566 1148.04 -38.769V-38.769C1006.08 49.0284 958.875 237.258 1042.6 381.653L1070.7 430.116C1154.43 574.512 1337.39 620.393 1479.34 532.596V532.596Z" fill="url(#paint1_radial_1209_3394)"/>
<path d="M1479.34 532.596C1621.3 444.799 1668.51 256.569 1584.78 112.174L1556.68 63.711C1472.95 -80.6845 1290 -126.566 1148.04 -38.769V-38.769C1006.08 49.0284 958.875 237.258 1042.6 381.653L1070.7 430.116C1154.43 574.512 1337.39 620.393 1479.34 532.596V532.596Z" stroke="#A8F25D" stroke-width="55.1061"/>
</g>
<g style="mix-blend-mode:overlay" opacity="0.33">
<path d="M1528.59 97.1218C1527.74 85.4422 1522.14 76.3376 1478.51 79.5709C1446.11 81.9853 1401.91 90.5283 1381.59 99.5703C1393.8 81.0267 1409.49 38.7347 1417.16 7.15063C1427.51 -35.4015 1419.43 -42.4193 1408.07 -45.1819C1396.71 -47.9446 1386.31 -45.4162 1375.97 -2.86401C1368.31 28.6185 1362.85 73.2178 1365.13 95.3563C1351.28 77.9003 1316.26 49.8472 1288.81 32.6684C1251.72 9.45403 1242.54 14.9313 1236.33 24.8586C1230.12 34.7859 1229.24 45.4721 1266.34 68.6526C1293.89 85.8899 1334.59 105.176 1356.26 109.872C1335.43 117.608 1297.84 142.422 1272.98 163.341C1239.52 191.524 1241.86 201.95 1249.42 210.923C1256.98 219.896 1266.8 224.004 1300.31 195.796C1325.17 174.877 1356.04 142.049 1367.19 122.819C1368.14 145.026 1380.15 188.458 1392.39 218.54C1408.9 259.086 1419.52 260.054 1430.37 255.63C1441.23 251.206 1448.15 243.065 1431.68 202.527C1419.43 172.445 1397.72 132.964 1382.9 116.419C1404.31 122.342 1449.31 124.245 1481.67 121.822C1525.31 118.555 1529.49 108.743 1528.61 97.021L1528.59 97.1218Z" fill="url(#paint2_linear_1209_3394)"/>
</g>
<g style="mix-blend-mode:overlay" opacity="0.32">
<path d="M136.671 1303.04L137.359 1255.36C120.783 1255.02 105.396 1256.25 92.6696 1258.63C101.442 1249.19 110.661 1236.89 119.16 1222.75L78.0612 1198.05C69.5728 1212.17 63.039 1226.07 58.8058 1238.27C54.9354 1225.91 48.8036 1211.75 40.7273 1197.27L-1.05962 1220.24C7.01667 1234.72 15.8813 1247.38 24.3741 1257.2C11.7316 1254.29 -3.61852 1252.41 -20.1943 1252.07L-20.8829 1299.75C-4.30712 1300.09 11.0806 1298.86 23.8066 1296.49C15.0346 1305.93 5.81523 1318.22 -2.68428 1332.36L38.415 1357.07C46.9034 1342.95 53.4373 1329.04 57.6704 1316.85C61.5408 1329.2 67.6726 1343.37 75.7489 1357.85L117.537 1334.87C109.46 1320.39 100.595 1307.73 92.1022 1297.91C104.745 1300.83 120.095 1302.7 136.671 1303.04Z" fill="url(#paint3_linear_1209_3394)"/>
</g>
</g>
<defs>
<filter id="filter0_f_1209_3394" x="-515.665" y="775.031" width="1204.71" height="1241.59" filterUnits="userSpaceOnUse" color-interpolation-filters="sRGB">
<feFlood flood-opacity="0" result="BackgroundImageFix"/>
<feBlend mode="normal" in="SourceGraphic" in2="BackgroundImageFix" result="shape"/>
<feGaussianBlur stdDeviation="131.317" result="effect1_foregroundBlur_1209_3394"/>
</filter>
<filter id="filter1_f_1209_3394" x="711.335" y="-373.883" width="1204.71" height="1241.59" filterUnits="userSpaceOnUse" color-interpolation-filters="sRGB">
<feFlood flood-opacity="0" result="BackgroundImageFix"/>
<feBlend mode="normal" in="SourceGraphic" in2="BackgroundImageFix" result="shape"/>
<feGaussianBlur stdDeviation="131.317" result="effect1_foregroundBlur_1209_3394"/>
</filter>
<radialGradient id="paint0_radial_1209_3394" cx="0" cy="0" r="1" gradientUnits="userSpaceOnUse" gradientTransform="translate(64.6058 1464.36) rotate(-143.115) scale(349.98 336.562)">
<stop stop-color="#581ED4"/>
<stop offset="0.725406" stop-color="#F2622E" stop-opacity="0"/>
</radialGradient>
<radialGradient id="paint1_radial_1209_3394" cx="0" cy="0" r="1" gradientUnits="userSpaceOnUse" gradientTransform="translate(1291.61 315.442) rotate(-143.115) scale(349.98 336.562)">
<stop stop-color="#A8F25D"/>
<stop offset="0.725406" stop-color="#2D18BF"/>
</radialGradient>
<linearGradient id="paint2_linear_1209_3394" x1="1408.24" y1="-45.1418" x2="1339.51" y2="237.579" gradientUnits="userSpaceOnUse">
<stop stop-color="white"/>
<stop offset="1" stop-color="#999999" stop-opacity="0"/>
</linearGradient>
<linearGradient id="paint3_linear_1209_3394" x1="-40.5" y1="1366" x2="222.5" y2="1163" gradientUnits="userSpaceOnUse">
<stop stop-color="white"/>
<stop offset="1" stop-color="#999999" stop-opacity="0"/>
</linearGradient>
<clipPath id="clip0_1209_3394">
<rect width="1440" height="1478" fill="white"/>
</clipPath>
</defs>
</svg>
