<svg width="1440" height="1024" viewBox="0 0 1440 1024" fill="none" xmlns="http://www.w3.org/2000/svg">
<g clip-path="url(#clip0_377_4677)">
<rect width="1440" height="1024" fill="#030018"/>
<g opacity="0.66" filter="url(#filter0_f_377_4677)">
<path d="M272.141 1156.51C403.165 1100.37 435.216 966.242 343.728 856.929V856.929C252.24 747.616 71.859 704.513 -59.165 760.657L-98.7601 777.623C-229.784 833.766 -261.835 967.895 -170.347 1077.21V1077.21C-78.8591 1186.52 101.522 1229.62 232.546 1173.48L272.141 1156.51Z" fill="url(#paint0_radial_377_4677)"/>
<path d="M272.141 1156.51C403.165 1100.37 435.216 966.242 343.728 856.929V856.929C252.24 747.616 71.859 704.513 -59.165 760.657L-98.7601 777.623C-229.784 833.766 -261.835 967.895 -170.347 1077.21V1077.21C-78.8591 1186.52 101.522 1229.62 232.546 1173.48L272.141 1156.51Z" stroke="#2D18BF" stroke-width="55.1061"/>
</g>
<g opacity="0.41" filter="url(#filter1_f_377_4677)">
<path d="M1499.14 360.514C1630.17 304.371 1662.22 170.242 1570.73 60.9289V60.9289C1479.24 -48.3842 1298.86 -91.4868 1167.83 -35.3434L1128.24 -18.377C997.216 37.7664 965.165 171.895 1056.65 281.208V281.208C1148.14 390.522 1328.52 433.624 1459.55 377.481L1499.14 360.514Z" fill="url(#paint1_radial_377_4677)"/>
<path d="M1499.14 360.514C1630.17 304.371 1662.22 170.242 1570.73 60.9289V60.9289C1479.24 -48.3842 1298.86 -91.4868 1167.83 -35.3434L1128.24 -18.377C997.216 37.7664 965.165 171.895 1056.65 281.208V281.208C1148.14 390.522 1328.52 433.624 1459.55 377.481L1499.14 360.514Z" stroke="#A8F25D" stroke-width="55.1061"/>
</g>
<g style="mix-blend-mode:overlay" opacity="0.33">
<path d="M1528.59 97.1217C1527.74 85.4421 1522.14 76.3375 1478.51 79.5708C1446.11 81.9852 1401.91 90.5282 1381.59 99.5702C1393.8 81.0266 1409.49 38.7346 1417.16 7.15054C1427.51 -35.4016 1419.44 -42.4194 1408.07 -45.182C1396.71 -47.9447 1386.31 -45.4163 1375.97 -2.8641C1368.31 28.6184 1362.85 73.2177 1365.13 95.3562C1351.28 77.9002 1316.26 49.8471 1288.81 32.6683C1251.72 9.45394 1242.54 14.9312 1236.33 24.8585C1230.12 34.7858 1229.24 45.472 1266.34 68.6525C1293.89 85.8898 1334.59 105.176 1356.26 109.872C1335.43 117.608 1297.84 142.422 1272.98 163.341C1239.52 191.524 1241.86 201.95 1249.42 210.923C1256.98 219.896 1266.8 224.004 1300.31 195.795C1325.17 174.877 1356.04 142.049 1367.2 122.819C1368.14 145.026 1380.15 188.458 1392.39 218.539C1408.9 259.086 1419.52 260.054 1430.37 255.63C1441.23 251.206 1448.15 243.065 1431.68 202.527C1419.43 172.445 1397.72 132.964 1382.9 116.419C1404.31 122.341 1449.31 124.245 1481.67 121.822C1525.31 118.555 1529.49 108.743 1528.61 97.0209L1528.59 97.1217Z" fill="url(#paint2_linear_377_4677)"/>
</g>
<g style="mix-blend-mode:overlay" opacity="0.32">
<path d="M147.671 992.041L148.359 944.36C131.783 944.019 116.395 945.249 103.67 947.626C112.442 938.186 121.661 925.891 130.16 911.753L89.061 887.045C80.5727 901.165 74.0388 915.075 69.8057 927.269C65.9353 914.915 59.8035 900.748 51.7272 886.269L9.94026 909.243C18.0165 923.722 26.8811 936.383 35.3739 946.199C22.7315 943.285 7.38136 941.413 -9.19444 941.072L-9.88304 988.754C6.69276 989.095 22.0805 987.865 34.8064 985.488C26.0344 994.928 16.8151 1007.22 8.3156 1021.36L49.4149 1046.07C57.9033 1031.95 64.4371 1018.04 68.6703 1005.85C72.5407 1018.2 78.6725 1032.37 86.7488 1046.85L128.536 1023.87C120.46 1009.39 111.595 996.732 103.102 986.915C115.744 989.829 131.095 991.7 147.671 992.041Z" fill="url(#paint3_linear_377_4677)"/>
</g>
</g>
<defs>
<filter id="filter0_f_377_4677" x="-516.007" y="449.639" width="1205.4" height="1034.86" filterUnits="userSpaceOnUse" color-interpolation-filters="sRGB">
<feFlood flood-opacity="0" result="BackgroundImageFix"/>
<feBlend mode="normal" in="SourceGraphic" in2="BackgroundImageFix" result="shape"/>
<feGaussianBlur stdDeviation="131.317" result="effect1_foregroundBlur_377_4677"/>
</filter>
<filter id="filter1_f_377_4677" x="710.993" y="-346.361" width="1205.4" height="1034.86" filterUnits="userSpaceOnUse" color-interpolation-filters="sRGB">
<feFlood flood-opacity="0" result="BackgroundImageFix"/>
<feBlend mode="normal" in="SourceGraphic" in2="BackgroundImageFix" result="shape"/>
<feGaussianBlur stdDeviation="131.317" result="effect1_foregroundBlur_377_4677"/>
</filter>
<radialGradient id="paint0_radial_377_4677" cx="0" cy="0" r="1" gradientUnits="userSpaceOnUse" gradientTransform="translate(64.6057 1014.55) rotate(-152.53) scale(315.501 258.662)">
<stop stop-color="#581ED4"/>
<stop offset="0.725406" stop-color="#F2622E" stop-opacity="0"/>
</radialGradient>
<radialGradient id="paint1_radial_377_4677" cx="0" cy="0" r="1" gradientUnits="userSpaceOnUse" gradientTransform="translate(1291.61 218.547) rotate(-152.53) scale(315.501 258.662)">
<stop stop-color="#A8F25D"/>
<stop offset="0.725406" stop-color="#2D18BF"/>
</radialGradient>
<linearGradient id="paint2_linear_377_4677" x1="1408.24" y1="-45.1419" x2="1339.51" y2="237.579" gradientUnits="userSpaceOnUse">
<stop stop-color="white"/>
<stop offset="1" stop-color="#999999" stop-opacity="0"/>
</linearGradient>
<linearGradient id="paint3_linear_377_4677" x1="-29.5001" y1="1055" x2="233.5" y2="852" gradientUnits="userSpaceOnUse">
<stop stop-color="white"/>
<stop offset="1" stop-color="#999999" stop-opacity="0"/>
</linearGradient>
<clipPath id="clip0_377_4677">
<rect width="1440" height="1024" fill="white"/>
</clipPath>
</defs>
</svg>
