<svg width="45" height="46" viewBox="0 0 45 46" fill="none" xmlns="http://www.w3.org/2000/svg">
<path d="M32.7944 16.3457C32.7944 19.1845 28.1917 21.4858 22.514 21.4858C16.8363 21.4858 12.2336 19.1845 12.2336 16.3457M32.7944 16.3457C32.7944 13.5068 28.1917 11.2055 22.514 11.2055C16.8363 11.2055 12.2336 13.5068 12.2336 16.3457M32.7944 16.3457V30.3644C32.7944 33.2032 28.1917 35.5045 22.514 35.5045C16.8363 35.5045 12.2336 33.2032 12.2336 30.3644V16.3457M32.7944 16.3457V21.0186M12.2336 16.3457V21.0186M32.7944 21.0186V25.6915C32.7944 28.5303 28.1917 30.8316 22.514 30.8316C16.8363 30.8316 12.2336 28.5303 12.2336 25.6915V21.0186M32.7944 21.0186C32.7944 23.8574 28.1917 26.1587 22.514 26.1587C16.8363 26.1587 12.2336 23.8574 12.2336 21.0186" stroke="white" stroke-width="1.8266" stroke-linecap="round" stroke-linejoin="round"/>
</svg>
