<svg width="286" height="164" viewBox="0 0 286 164" fill="none" xmlns="http://www.w3.org/2000/svg">
<rect width="286" height="163.436" rx="13.5258" fill="#2D18BF"/>
<g clip-path="url(#clip0_1719_7274)">
<path d="M223.077 29.6817C220.125 29.6817 217.731 32.0749 217.731 35.0271V36.3634H255.149V35.0271C255.149 32.0749 252.756 29.6817 249.803 29.6817H223.077Z" fill="#F9F9F9"/>
<path fill-rule="evenodd" clip-rule="evenodd" d="M255.149 40.3724H217.731V53.7358C217.731 56.6879 220.125 59.0811 223.077 59.0811H249.803C252.756 59.0811 255.149 56.6879 255.149 53.7358V40.3724ZM223.077 47.0541C223.077 46.3161 223.675 45.7178 224.413 45.7178H235.104C235.842 45.7178 236.44 46.3161 236.44 47.0541C236.44 47.7921 235.842 48.3904 235.104 48.3904H224.413C223.675 48.3904 223.077 47.7921 223.077 47.0541ZM224.413 51.0631C223.675 51.0631 223.077 51.6614 223.077 52.3994C223.077 53.1375 223.675 53.7358 224.413 53.7358H229.758C230.496 53.7358 231.095 53.1375 231.095 52.3994C231.095 51.6614 230.496 51.0631 229.758 51.0631H224.413Z" fill="#F9F9F9"/>
</g>
<defs>
<clipPath id="clip0_1719_7274">
<rect width="50.4163" height="32.4055" fill="white" transform="translate(207.405 28.1786)"/>
</clipPath>
</defs>
</svg>
