<svg width="286" height="164" viewBox="0 0 286 164" fill="none" xmlns="http://www.w3.org/2000/svg">
<rect width="286" height="163.436" rx="13.5258" fill="#A8F25D"/>
<g clip-path="url(#clip0_1719_7206)">
<path d="M235.825 39.0941C236.194 38.8008 236.633 38.5875 237.103 38.4542V42.996C236.624 42.86 236.186 42.6433 235.825 42.3562C235.185 41.8479 234.937 41.2499 234.937 40.7251C234.937 40.2003 235.185 39.6023 235.825 39.0941Z" fill="#2D18BF"/>
<path d="M239.54 50.3315V45.7437C240.104 45.8809 240.619 46.1133 241.037 46.4272C241.73 46.947 241.978 47.5418 241.978 48.0376C241.978 48.5334 241.73 49.1282 241.037 49.648C240.619 49.9619 240.104 50.1943 239.54 50.3315Z" fill="#2D18BF"/>
<path fill-rule="evenodd" clip-rule="evenodd" d="M238.321 28.5376C229.571 28.5376 222.478 35.6311 222.478 44.3814C222.478 53.1317 229.571 60.2251 238.321 60.2251C247.072 60.2251 254.165 53.1317 254.165 44.3814C254.165 35.6311 247.072 28.5376 238.321 28.5376ZM239.54 34.6314C239.54 33.9583 238.995 33.4126 238.321 33.4126C237.648 33.4126 237.103 33.9583 237.103 34.6314V35.9568C236.084 36.1373 235.113 36.5468 234.309 37.1855C233.151 38.1051 232.5 39.3785 232.5 40.7251C232.5 42.0718 233.151 43.3452 234.309 44.2648C235.125 44.9134 236.099 45.3158 237.103 45.4934V50.3314C236.539 50.1942 236.024 49.9618 235.606 49.648L234.178 48.5768C233.639 48.1729 232.875 48.2821 232.471 48.8205C232.068 49.359 232.177 50.1229 232.715 50.5268L234.143 51.5979C235.01 52.2478 236.043 52.6454 237.103 52.8157V54.1314C237.103 54.8045 237.648 55.3501 238.321 55.3501C238.995 55.3501 239.54 54.8045 239.54 54.1314V52.8157C240.6 52.6455 241.633 52.2479 242.5 51.5979C243.711 50.6899 244.415 49.4132 244.415 48.0376C244.415 46.662 243.711 45.3853 242.5 44.4773C241.633 43.8273 240.6 43.4297 239.54 43.2595V38.4543C240.01 38.5876 240.449 38.8009 240.818 39.0941L241.492 39.6297C242.019 40.0483 242.785 39.9605 243.204 39.4335C243.623 38.9064 243.535 38.1398 243.008 37.7211L242.334 37.1855C241.53 36.5469 240.559 36.1374 239.54 35.9569V34.6314Z" fill="#2D18BF"/>
</g>
<defs>
<clipPath id="clip0_1719_7206">
<rect width="46.6535" height="32.4055" fill="white" transform="translate(211.168 28.1787)"/>
</clipPath>
</defs>
</svg>
