<svg width="286" height="164" viewBox="0 0 286 164" fill="none" xmlns="http://www.w3.org/2000/svg">
<rect width="286" height="163.436" rx="13.5258" fill="#A8F25D"/>
<g clip-path="url(#clip0_1719_3548)" filter="url(#filter0_d_1719_3548)">
<g filter="url(#filter1_d_1719_3548)">
<path d="M238.305 42.2846C236.849 40.8093 235.428 39.297 234.128 37.687C232.901 36.1713 231.518 34.494 231.059 32.5741C230.746 31.2538 231.01 29.856 232.178 29.0173C233.273 28.2325 234.691 28.3471 235.973 28.4077C240.585 28.6367 245.19 29.2632 249.26 31.5232C250.236 32.0655 251.164 32.692 252.023 33.3993C254.091 35.1036 254.723 37.9463 253.879 40.395C253.524 41.4257 252.77 42.2879 252.77 42.2879C252.77 42.2879 256.363 44.74 257.25 47.4917C258.136 50.2435 258.713 56.6498 253.256 58.8863C244.763 62.3656 233.895 59.2534 228.411 55.4878C226.402 54.1068 223.82 52.2914 224.018 50.1964C224.348 46.6969 232.275 44.1337 235.598 43.0592C236.689 42.7056 237.621 42.4563 238.305 42.2846Z" fill="#F9F9F9"/>
</g>
</g>
<defs>
<filter id="filter0_d_1719_3548" x="214.099" y="28.1787" width="45.9765" height="36.914" filterUnits="userSpaceOnUse" color-interpolation-filters="sRGB">
<feFlood flood-opacity="0" result="BackgroundImageFix"/>
<feColorMatrix in="SourceAlpha" type="matrix" values="0 0 0 0 0 0 0 0 0 0 0 0 0 0 0 0 0 0 127 0" result="hardAlpha"/>
<feOffset dy="2.25429"/>
<feGaussianBlur stdDeviation="1.12715"/>
<feComposite in2="hardAlpha" operator="out"/>
<feColorMatrix type="matrix" values="0 0 0 0 0 0 0 0 0 0 0 0 0 0 0 0 0 0 0.25 0"/>
<feBlend mode="normal" in2="BackgroundImageFix" result="effect1_dropShadow_1719_3548"/>
<feBlend mode="normal" in="SourceGraphic" in2="effect1_dropShadow_1719_3548" result="shape"/>
</filter>
<filter id="filter1_d_1719_3548" x="221.753" y="28.3641" width="38.323" height="36.5433" filterUnits="userSpaceOnUse" color-interpolation-filters="sRGB">
<feFlood flood-opacity="0" result="BackgroundImageFix"/>
<feColorMatrix in="SourceAlpha" type="matrix" values="0 0 0 0 0 0 0 0 0 0 0 0 0 0 0 0 0 0 127 0" result="hardAlpha"/>
<feOffset dy="2.25429"/>
<feGaussianBlur stdDeviation="1.12715"/>
<feComposite in2="hardAlpha" operator="out"/>
<feColorMatrix type="matrix" values="0 0 0 0 0 0 0 0 0 0 0 0 0 0 0 0 0 0 0.25 0"/>
<feBlend mode="normal" in2="BackgroundImageFix" result="effect1_dropShadow_1719_3548"/>
<feBlend mode="normal" in="SourceGraphic" in2="effect1_dropShadow_1719_3548" result="shape"/>
</filter>
<clipPath id="clip0_1719_3548">
<rect width="41.4679" height="32.4055" fill="white" transform="translate(216.353 28.1787)"/>
</clipPath>
</defs>
</svg>
