<svg width="61" height="61" viewBox="0 0 61 61" fill="none" xmlns="http://www.w3.org/2000/svg">
<rect width="60.5844" height="60.5844" rx="12.4675" fill="#A8F25D"/>
<path d="M16.2297 19.7454C16.2297 15.4738 19.6925 12.011 23.9641 12.011C28.2357 12.011 31.6985 15.4738 31.6985 19.7454C31.6985 24.0169 28.2357 27.4797 23.9641 27.4797C19.6925 27.4797 16.2297 24.0169 16.2297 19.7454Z" fill="#141414"/>
<path d="M34.511 23.9641C34.511 20.4692 37.3442 17.636 40.8391 17.636C44.334 17.636 47.1672 20.4692 47.1672 23.9641C47.1672 27.459 44.334 30.2922 40.8391 30.2922C37.3442 30.2922 34.511 27.459 34.511 23.9641Z" fill="#141414"/>
<path d="M10.6047 43.6516C10.6047 36.2734 16.5859 30.2922 23.9641 30.2922C31.3423 30.2922 37.3235 36.2734 37.3235 43.6516V43.6564C37.3234 43.731 37.3228 43.806 37.3215 43.8802C37.3134 44.3649 37.0561 44.8113 36.6408 45.0613C32.9373 47.2912 28.5983 48.5735 23.9641 48.5735C19.3299 48.5735 14.9909 47.2912 11.2873 45.0613C10.872 44.8113 10.6148 44.3649 10.6066 43.8802C10.6054 43.8042 10.6047 43.728 10.6047 43.6516Z" fill="#141414"/>
<path d="M40.1357 43.6575C40.1356 43.7476 40.1348 43.838 40.1333 43.9275C40.1227 44.5625 39.9695 45.1755 39.6966 45.7271C40.0745 45.7496 40.4553 45.761 40.8388 45.761C43.8307 45.761 46.6648 45.0678 49.1855 43.8321C49.6486 43.605 49.9503 43.1427 49.9716 42.6273C49.9768 42.5006 49.9794 42.3732 49.9794 42.2454C49.9794 37.1971 45.887 33.1047 40.8388 33.1047C39.4392 33.1047 38.1131 33.4193 36.9273 33.9816C38.9424 36.6787 40.1357 40.0258 40.1357 43.6516V43.6575Z" fill="#141414"/>
</svg>
