<svg width="46" height="46" viewBox="0 0 46 46" fill="none" xmlns="http://www.w3.org/2000/svg">
<path fill-rule="evenodd" clip-rule="evenodd" d="M24.7828 5.02237C24.5575 4.72017 24.2189 4.52263 23.8449 4.47516C23.4709 4.4277 23.0937 4.53439 22.8 4.77072C19.339 7.55561 16.9251 11.5958 16.2511 16.2014C15.036 15.3205 13.9688 14.2474 13.0946 13.0265C12.8541 12.6906 12.4765 12.4793 12.0644 12.4501C11.6524 12.4208 11.2487 12.5766 10.9632 12.8751C8.10316 15.8646 6.34418 19.922 6.34418 24.3873C6.34418 33.5861 13.8013 41.0432 23 41.0432C32.1988 41.0432 39.6559 33.5861 39.6559 24.3873C39.6559 17.6123 35.6109 11.785 29.81 9.18313C27.7573 8.18101 26.0622 6.73802 24.7828 5.02237ZM29.94 27.164C29.94 30.9968 26.8328 34.104 23 34.104C19.1672 34.104 16.0601 30.9968 16.0601 27.164C16.0601 26.4065 16.1815 25.6773 16.4058 24.9948C17.5689 25.8547 18.9058 26.4928 20.3542 26.8468C20.7537 24.2545 22.0498 21.958 23.9159 20.284C27.3158 20.7322 29.94 23.6417 29.94 27.164Z" fill="white"/>
</svg>
