<svg width="476" height="258" viewBox="0 0 476 258" fill="none" xmlns="http://www.w3.org/2000/svg">
<g clip-path="url(#clip0_1207_3323)">
<rect width="476" height="258" rx="17.3304" fill="#F3F3F5" fill-opacity="0.12"/>
<rect y="-86.1714" width="476.043" height="367.358" rx="17.3897" fill="#111111"/>
<mask id="mask0_1207_3323" style="mask-type:alpha" maskUnits="userSpaceOnUse" x="0" y="-87" width="477" height="369">
<rect y="-86.1714" width="476.043" height="367.358" rx="17.3897" fill="#111111"/>
</mask>
<g mask="url(#mask0_1207_3323)">
<g opacity="0.66" filter="url(#filter0_f_1207_3323)">
<path d="M952.241 231.953C961.548 229.582 962.746 223.149 954.917 217.586L512.473 -96.814C504.644 -102.377 490.753 -104.964 481.447 -102.593L-215.365 74.9808C-224.672 77.3524 -225.87 83.7849 -218.041 89.348L224.403 403.748C232.232 409.311 246.123 411.899 255.43 409.527L952.241 231.953Z" fill="url(#paint0_radial_1207_3323)"/>
<path d="M952.241 231.953C961.548 229.582 962.746 223.149 954.917 217.586L512.473 -96.814C504.644 -102.377 490.753 -104.964 481.447 -102.593L-215.365 74.9808C-224.672 77.3524 -225.87 83.7849 -218.041 89.348L224.403 403.748C232.232 409.311 246.123 411.899 255.43 409.527L952.241 231.953Z" stroke="#2D18BF" stroke-width="36.6506"/>
</g>
<g style="mix-blend-mode:overlay" opacity="0.7">
<path d="M454.455 191.4C454.455 196.436 449.526 200.518 443.445 200.518C437.364 200.518 432.436 196.436 432.436 191.4C432.436 186.364 437.364 182.282 443.445 182.282C449.526 182.282 454.455 186.364 454.455 191.4Z" fill="white" fill-opacity="0.44"/>
<path d="M454.455 191.4C454.455 196.436 449.526 200.518 443.445 200.518C437.364 200.518 432.436 196.436 432.436 191.4C432.436 186.364 437.364 182.282 443.445 182.282C449.526 182.282 454.455 186.364 454.455 191.4Z" fill="white" fill-opacity="0.44"/>
<path d="M384.89 249.012C378.809 249.012 373.88 244.931 373.88 239.895C373.88 234.858 378.809 230.777 384.89 230.777C390.972 230.777 395.9 234.858 395.9 239.895C395.9 244.931 390.972 249.012 384.89 249.012Z" fill="white" fill-opacity="0.44"/>
<path d="M484.847 214.715C490.928 214.715 495.858 210.632 495.858 205.597C495.858 200.561 490.928 196.479 484.847 196.479C478.767 196.479 473.838 200.561 473.838 205.597C473.838 210.632 478.767 214.715 484.847 214.715Z" fill="white" fill-opacity="0.44"/>
<path d="M484.847 214.715C490.928 214.715 495.858 210.632 495.858 205.597C495.858 200.561 490.928 196.479 484.847 196.479C478.767 196.479 473.838 200.561 473.838 205.597C473.838 210.632 478.767 214.715 484.847 214.715Z" fill="white" fill-opacity="0.44"/>
<path d="M394.262 212.056C389.969 208.5 389.969 202.717 394.262 199.161C398.556 195.605 405.539 195.605 409.833 199.161C414.126 202.717 414.126 208.5 409.833 212.056C405.539 215.611 398.556 215.611 394.262 212.056Z" fill="white" fill-opacity="0.44"/>
</g>
<g style="mix-blend-mode:overlay" opacity="0.68">
<path d="M98.9162 -30.0108L89.1885 -57.4222C74.9012 -54.435 61.9724 -50.7772 51.5744 -46.9743C57.0537 -54.059 62.2987 -62.8631 66.5276 -72.5837L25.9389 -78.8293C21.7155 -69.1214 19.1226 -59.9092 18.1313 -52.1203C12.1392 -58.4452 3.81574 -65.3731 -6.24271 -72.1065L-37.1034 -50.9407C-27.045 -44.2073 -16.7041 -38.6656 -7.29734 -34.6796C-18.7687 -33.9198 -32.3365 -32.0442 -46.6238 -29.057L-36.8966 -1.64504C-22.6092 -4.63225 -9.68052 -8.29002 0.717558 -12.0929C-4.76174 -5.00819 -10.0068 3.79593 -14.2356 13.5165L26.353 19.762C30.5764 10.0542 33.1693 0.841956 34.1606 -6.94689C40.1527 -0.622011 48.4762 6.30591 58.5346 13.0393L89.3958 -8.12715C79.3374 -14.8605 68.996 -20.4016 59.5893 -24.3876C71.0606 -25.1474 84.6289 -27.0236 98.9162 -30.0108Z" fill="white"/>
</g>
<g opacity="0.33" filter="url(#filter1_f_1207_3323)">
<path d="M458.626 45.0745C467.94 42.7304 469.163 36.293 461.358 30.6961L185.412 -167.186C177.607 -172.783 163.73 -175.42 154.417 -173.076L-287.339 -61.8913C-296.653 -59.5472 -297.876 -53.1098 -290.072 -47.513L-14.1252 150.37C-6.3205 155.966 7.55665 158.603 16.8703 156.259L458.626 45.0745Z" fill="url(#paint1_radial_1207_3323)"/>
<path d="M458.626 45.0745C467.94 42.7304 469.163 36.293 461.358 30.6961L185.412 -167.186C177.607 -172.783 163.73 -175.42 154.417 -173.076L-287.339 -61.8913C-296.653 -59.5472 -297.876 -53.1098 -290.072 -47.513L-14.1252 150.37C-6.3205 155.966 7.55665 158.603 16.8703 156.259L458.626 45.0745Z" stroke="#A8F25D" stroke-width="23.81"/>
</g>
</g>
</g>
<defs>
<filter id="filter0_f_1207_3323" x="-421.092" y="-289.69" width="1579.06" height="886.314" filterUnits="userSpaceOnUse" color-interpolation-filters="sRGB">
<feFlood flood-opacity="0" result="BackgroundImageFix"/>
<feBlend mode="normal" in="SourceGraphic" in2="BackgroundImageFix" result="shape"/>
<feGaussianBlur stdDeviation="87.3376" result="effect1_foregroundBlur_1207_3323"/>
</filter>
<filter id="filter1_f_1207_3323" x="-423.751" y="-294.933" width="1018.79" height="573.049" filterUnits="userSpaceOnUse" color-interpolation-filters="sRGB">
<feFlood flood-opacity="0" result="BackgroundImageFix"/>
<feBlend mode="normal" in="SourceGraphic" in2="BackgroundImageFix" result="shape"/>
<feGaussianBlur stdDeviation="56.7387" result="effect1_foregroundBlur_1207_3323"/>
</filter>
<radialGradient id="paint0_radial_1207_3323" cx="0" cy="0" r="1" gradientUnits="userSpaceOnUse" gradientTransform="translate(337.055 193.592) rotate(-162.818) scale(416.367 235.384)">
<stop stop-color="#581ED4"/>
<stop offset="0.725406" stop-color="#F2622E" stop-opacity="0"/>
</radialGradient>
<radialGradient id="paint1_radial_1207_3323" cx="0" cy="0" r="1" gradientUnits="userSpaceOnUse" gradientTransform="translate(65.0591 17.604) rotate(-162.641) scale(270.119 153.128)">
<stop stop-color="#A8F25D"/>
<stop offset="0.725406" stop-color="#2D18BF"/>
</radialGradient>
<clipPath id="clip0_1207_3323">
<rect width="476" height="258" rx="17.3304" fill="white"/>
</clipPath>
</defs>
</svg>
