<svg width="678" height="426" viewBox="0 0 678 426" fill="none" xmlns="http://www.w3.org/2000/svg">
<rect width="678" height="426" rx="16" fill="#111111"/>
<mask id="mask0_221_3328" style="mask-type:alpha" maskUnits="userSpaceOnUse" x="0" y="0" width="678" height="426">
<rect width="678" height="426" rx="16" fill="#111111"/>
</mask>
<g mask="url(#mask0_221_3328)">
<g opacity="0.66" filter="url(#filter0_f_221_3328)">
<path d="M1364.55 367.179C1373.21 365.384 1374.02 360.341 1366.37 355.915L723.544 -16.0098C715.896 -20.4351 702.681 -22.5672 694.029 -20.7719L-315.065 188.606C-323.718 190.402 -324.531 195.444 -316.883 199.87L325.944 571.795C333.593 576.22 346.807 578.352 355.459 576.557L1364.55 367.179Z" fill="url(#paint0_radial_221_3328)"/>
<path d="M1364.55 367.179C1373.21 365.384 1374.02 360.341 1366.37 355.915L723.544 -16.0098C715.896 -20.4351 702.681 -22.5672 694.029 -20.7719L-315.065 188.606C-323.718 190.402 -324.531 195.444 -316.883 199.87L325.944 571.795C333.593 576.22 346.807 578.352 355.459 576.557L1364.55 367.179Z" stroke="#2D18BF" stroke-width="33.7216"/>
</g>
<g style="mix-blend-mode:overlay" opacity="0.7">
<path d="M652.043 339.483C652.043 345.814 647.086 350.946 640.97 350.946C634.853 350.946 629.897 345.814 629.897 339.483C629.897 333.152 634.853 328.02 640.97 328.02C647.086 328.02 652.043 333.152 652.043 339.483Z" fill="white"/>
<path d="M652.043 339.483C652.043 345.814 647.086 350.946 640.97 350.946C634.853 350.946 629.897 345.814 629.897 339.483C629.897 333.152 634.853 328.02 640.97 328.02C647.086 328.02 652.043 333.152 652.043 339.483Z" fill="white"/>
<path d="M582.077 411.913C575.96 411.913 571.003 406.782 571.003 400.45C571.003 394.119 575.96 388.988 582.077 388.988C588.193 388.988 593.15 394.119 593.15 400.45C593.15 406.782 588.193 411.913 582.077 411.913Z" fill="white"/>
<path d="M682.611 368.794C688.727 368.794 693.685 363.662 693.685 357.331C693.685 351.001 688.727 345.868 682.611 345.868C676.495 345.868 671.538 351.001 671.538 357.331C671.538 363.662 676.495 368.794 682.611 368.794Z" fill="white"/>
<path d="M682.611 368.794C688.727 368.794 693.685 363.662 693.685 357.331C693.685 351.001 688.727 345.868 682.611 345.868C676.495 345.868 671.538 351.001 671.538 357.331C671.538 363.662 676.495 368.794 682.611 368.794Z" fill="white"/>
<path d="M591.503 365.451C587.184 360.981 587.184 353.71 591.503 349.24C595.821 344.77 602.845 344.77 607.163 349.24C611.482 353.71 611.482 360.981 607.163 365.451C602.845 369.921 595.821 369.921 591.503 365.451Z" fill="white"/>
</g>
<g style="mix-blend-mode:overlay" opacity="0.68">
<path d="M89.4513 15.9083L77.7415 -29.788C62.7424 -25.2887 49.2181 -19.6363 38.3848 -13.6645C43.835 -25.2249 48.9494 -39.6398 52.9396 -55.6042L9.57957 -67.2172C5.59457 -51.2737 3.31341 -36.0999 2.65821 -23.2331C-4.01773 -33.8943 -13.1967 -45.6272 -24.2057 -57.0922L-55.8557 -23.0088C-44.8467 -11.5438 -33.5988 -2.04336 -23.4207 4.85171C-35.547 5.75079 -49.8396 8.432 -64.8387 12.9314L-53.1294 58.6286C-38.1303 54.1293 -24.606 48.4769 -13.7727 42.5051C-19.2229 54.0655 -24.3373 68.4804 -28.3275 84.4449L15.0325 96.0578C19.0175 80.1143 21.2987 64.9405 21.9539 52.0737C28.6298 62.7349 37.8088 74.4678 48.8178 85.9328L80.4683 51.8485C69.4593 40.3834 58.2109 30.884 48.0328 23.9889C60.159 23.0898 74.4522 20.4076 89.4513 15.9083Z" fill="white"/>
</g>
<g opacity="0.33" filter="url(#filter1_f_221_3328)">
<path d="M661.538 150.487C670.194 148.713 671.026 143.663 663.395 139.207L257.761 -97.6318C250.13 -102.087 236.927 -104.261 228.27 -102.487L-417.584 29.8658C-426.241 31.6398 -427.072 36.6898 -419.441 41.1454L-13.8081 277.985C-6.1771 282.44 7.02669 284.614 15.6833 282.84L661.538 150.487Z" fill="url(#paint1_radial_221_3328)"/>
<path d="M661.538 150.487C670.194 148.713 671.026 143.663 663.395 139.207L257.761 -97.6318C250.13 -102.087 236.927 -104.261 228.27 -102.487L-417.584 29.8658C-426.241 31.6398 -427.072 36.6898 -419.441 41.1454L-13.8081 277.985C-6.1771 282.44 7.02669 284.614 15.6833 282.84L661.538 150.487Z" stroke="#A8F25D" stroke-width="21.9072"/>
</g>
</g>
<defs>
<filter id="filter0_f_221_3328" x="-504.878" y="-191.239" width="2059.24" height="938.263" filterUnits="userSpaceOnUse" color-interpolation-filters="sRGB">
<feFlood flood-opacity="0" result="BackgroundImageFix"/>
<feBlend mode="normal" in="SourceGraphic" in2="BackgroundImageFix" result="shape"/>
<feGaussianBlur stdDeviation="80.358" result="effect1_foregroundBlur_221_3328"/>
</filter>
<filter id="filter1_f_221_3328" x="-543.376" y="-213.461" width="1330.71" height="607.274" filterUnits="userSpaceOnUse" color-interpolation-filters="sRGB">
<feFlood flood-opacity="0" result="BackgroundImageFix"/>
<feBlend mode="normal" in="SourceGraphic" in2="BackgroundImageFix" result="shape"/>
<feGaussianBlur stdDeviation="52.2044" result="effect1_foregroundBlur_221_3328"/>
</filter>
<radialGradient id="paint0_radial_221_3328" cx="0" cy="0" r="1" gradientUnits="userSpaceOnUse" gradientTransform="translate(480.047 324.423) rotate(-165.869) scale(584.221 277.064)">
<stop stop-color="#581ED4"/>
<stop offset="0.725406" stop-color="#F2622E" stop-opacity="0"/>
</radialGradient>
<radialGradient id="paint1_radial_221_3328" cx="0" cy="0" r="1" gradientUnits="userSpaceOnUse" gradientTransform="translate(92.6597 120.341) rotate(-165.72) scale(378.899 180.298)">
<stop stop-color="#A8F25D"/>
<stop offset="0.725406" stop-color="#2D18BF"/>
</radialGradient>
</defs>
</svg>
