<svg width="328" height="258" viewBox="0 0 328 258" fill="none" xmlns="http://www.w3.org/2000/svg">
<g clip-path="url(#clip0_1684_1371)">
<rect width="328" height="258" fill="#F3F3F5" fill-opacity="0.12"/>
<rect y="-86.1714" width="476.043" height="367.358" rx="17.3897" fill="#111111"/>
<mask id="mask0_1684_1371" style="mask-type:alpha" maskUnits="userSpaceOnUse" x="0" y="-87" width="477" height="369">
<rect y="-86.1714" width="476.043" height="367.358" rx="17.3897" fill="#111111"/>
</mask>
<g mask="url(#mask0_1684_1371)">
<g opacity="0.66" filter="url(#filter0_f_1684_1371)">
<path d="M952.241 231.953C961.548 229.582 962.746 223.149 954.917 217.586L512.473 -96.814C504.644 -102.377 490.753 -104.964 481.447 -102.593L-215.365 74.9808C-224.672 77.3524 -225.87 83.7849 -218.041 89.348L224.403 403.748C232.232 409.311 246.123 411.899 255.43 409.527L952.241 231.953Z" fill="url(#paint0_radial_1684_1371)"/>
<path d="M952.241 231.953C961.548 229.582 962.746 223.149 954.917 217.586L512.473 -96.814C504.644 -102.377 490.753 -104.964 481.447 -102.593L-215.365 74.9808C-224.672 77.3524 -225.87 83.7849 -218.041 89.348L224.403 403.748C232.232 409.311 246.123 411.899 255.43 409.527L952.241 231.953Z" stroke="#2D18BF" stroke-width="36.6506"/>
</g>
<g opacity="0.33" filter="url(#filter1_f_1684_1371)">
<path d="M458.626 45.0745C467.94 42.7304 469.163 36.293 461.358 30.6961L185.412 -167.186C177.607 -172.783 163.73 -175.42 154.417 -173.076L-287.339 -61.8913C-296.653 -59.5472 -297.876 -53.1098 -290.072 -47.513L-14.1252 150.37C-6.3205 155.966 7.55665 158.603 16.8703 156.259L458.626 45.0745Z" fill="url(#paint1_radial_1684_1371)"/>
<path d="M458.626 45.0745C467.94 42.7304 469.163 36.293 461.358 30.6961L185.412 -167.186C177.607 -172.783 163.73 -175.42 154.417 -173.076L-287.339 -61.8913C-296.653 -59.5472 -297.876 -53.1098 -290.072 -47.513L-14.1252 150.37C-6.3205 155.966 7.55665 158.603 16.8703 156.259L458.626 45.0745Z" stroke="#A8F25D" stroke-width="23.81"/>
</g>
</g>
<g style="mix-blend-mode:overlay" opacity="0.68">
<path d="M86.8144 -2.0789L80.2278 -29.0069C67.8245 -25.7298 56.5404 -21.8189 47.4108 -17.8209C52.5423 -24.9591 57.5821 -33.7948 61.811 -43.5154L27.5045 -48.7943C23.2811 -39.0864 20.483 -29.9058 19.1439 -22.1704C14.4202 -28.3001 7.74142 -34.975 -0.432951 -41.4184L-28.1526 -19.7693C-19.9783 -13.3258 -11.4872 -8.06878 -3.6966 -4.33149C-13.5518 -3.32299 -25.2697 -1.16269 -37.673 2.11443L-31.0868 29.043C-18.6836 25.7659 -7.39951 21.8551 1.73016 17.857C-3.40139 24.9952 -8.44117 33.8309 -12.6701 43.5515L21.6364 48.8304C25.8598 39.1225 28.6579 29.9419 29.997 22.2065C34.7207 28.3362 41.3995 35.0111 49.5739 41.4546L77.294 19.8048C69.1196 13.3613 60.6281 8.1049 52.8375 4.36761C62.6927 3.35911 74.4111 1.19823 86.8144 -2.0789Z" fill="white"/>
</g>
<g style="mix-blend-mode:overlay" opacity="0.7">
<path d="M315.028 175.101C315.028 180.128 310.989 184.203 306.006 184.203C301.023 184.203 296.984 180.128 296.984 175.101C296.984 170.074 301.023 166 306.006 166C310.989 166 315.028 170.074 315.028 175.101Z" fill="white" fill-opacity="0.44"/>
<path d="M315.028 175.101C315.028 180.128 310.989 184.203 306.006 184.203C301.023 184.203 296.984 180.128 296.984 175.101C296.984 170.074 301.023 166 306.006 166C310.989 166 315.028 170.074 315.028 175.101Z" fill="white" fill-opacity="0.44"/>
<path d="M258.024 232.61C253.04 232.61 249.001 228.536 249.001 223.509C249.001 218.482 253.04 214.408 258.024 214.408C263.007 214.408 267.045 218.482 267.045 223.509C267.045 228.536 263.007 232.61 258.024 232.61Z" fill="white" fill-opacity="0.44"/>
<path d="M278.463 264.167C274.944 267.716 269.222 267.716 265.704 264.167C262.185 260.617 262.185 254.844 265.704 251.295C269.222 247.746 274.944 247.746 278.463 251.295C281.981 254.844 281.981 260.617 278.463 264.167Z" fill="white" fill-opacity="0.44"/>
<path d="M278.463 264.167C274.944 267.716 269.222 267.716 265.704 264.167C262.185 260.617 262.185 254.844 265.704 251.295C269.222 247.746 274.944 247.746 278.463 251.295C281.981 254.844 281.981 260.617 278.463 264.167Z" fill="white" fill-opacity="0.44"/>
<path d="M265.703 195.72C262.185 192.17 262.185 186.398 265.703 182.849C269.222 179.299 274.944 179.299 278.463 182.849C281.981 186.398 281.981 192.17 278.463 195.72C274.944 199.269 269.222 199.269 265.703 195.72Z" fill="white" fill-opacity="0.44"/>
</g>
</g>
<defs>
<filter id="filter0_f_1684_1371" x="-421.091" y="-289.69" width="1579.06" height="886.314" filterUnits="userSpaceOnUse" color-interpolation-filters="sRGB">
<feFlood flood-opacity="0" result="BackgroundImageFix"/>
<feBlend mode="normal" in="SourceGraphic" in2="BackgroundImageFix" result="shape"/>
<feGaussianBlur stdDeviation="87.3376" result="effect1_foregroundBlur_1684_1371"/>
</filter>
<filter id="filter1_f_1684_1371" x="-423.751" y="-294.933" width="1018.79" height="573.049" filterUnits="userSpaceOnUse" color-interpolation-filters="sRGB">
<feFlood flood-opacity="0" result="BackgroundImageFix"/>
<feBlend mode="normal" in="SourceGraphic" in2="BackgroundImageFix" result="shape"/>
<feGaussianBlur stdDeviation="56.7387" result="effect1_foregroundBlur_1684_1371"/>
</filter>
<radialGradient id="paint0_radial_1684_1371" cx="0" cy="0" r="1" gradientUnits="userSpaceOnUse" gradientTransform="translate(337.055 193.592) rotate(-162.818) scale(416.367 235.384)">
<stop stop-color="#581ED4"/>
<stop offset="0.725406" stop-color="#F2622E" stop-opacity="0"/>
</radialGradient>
<radialGradient id="paint1_radial_1684_1371" cx="0" cy="0" r="1" gradientUnits="userSpaceOnUse" gradientTransform="translate(65.0591 17.604) rotate(-162.641) scale(270.119 153.128)">
<stop stop-color="#A8F25D"/>
<stop offset="0.725406" stop-color="#2D18BF"/>
</radialGradient>
<clipPath id="clip0_1684_1371">
<rect width="328" height="258" fill="white"/>
</clipPath>
</defs>
</svg>
