<svg width="61" height="61" viewBox="0 0 61 61" fill="none" xmlns="http://www.w3.org/2000/svg">
<rect width="60.5844" height="60.5844" rx="12.4675" fill="#F2622E"/>
<path fill-rule="evenodd" clip-rule="evenodd" d="M23.261 20.4485C23.261 16.5652 26.409 13.4172 30.2922 13.4172C34.1755 13.4172 37.3235 16.5652 37.3235 20.4485C37.3235 24.3317 34.1755 27.4797 30.2922 27.4797C26.409 27.4797 23.261 24.3317 23.261 20.4485Z" fill="#F9F9F9"/>
<path fill-rule="evenodd" clip-rule="evenodd" d="M37.3235 26.0735C37.3235 22.9669 39.8419 20.4485 42.9485 20.4485C46.0551 20.4485 48.5735 22.9669 48.5735 26.0735C48.5735 29.1801 46.0551 31.6985 42.9485 31.6985C39.8419 31.6985 37.3235 29.1801 37.3235 26.0735Z" fill="#F9F9F9"/>
<path fill-rule="evenodd" clip-rule="evenodd" d="M12.011 26.0735C12.011 22.9669 14.5294 20.4485 17.636 20.4485C20.7426 20.4485 23.261 22.9669 23.261 26.0735C23.261 29.1801 20.7426 31.6985 17.636 31.6985C14.5294 31.6985 12.011 29.1801 12.011 26.0735Z" fill="#F9F9F9"/>
<path fill-rule="evenodd" clip-rule="evenodd" d="M19.6232 36.1376C21.8694 32.6255 25.8079 30.2922 30.2922 30.2922C34.7771 30.2922 38.716 32.6261 40.9621 36.1389C42.5148 38.5674 43.1866 41.4957 42.8715 44.3508C42.8223 44.797 42.563 45.1929 42.1736 45.4163C38.6724 47.4253 34.6142 48.5735 30.2922 48.5735C25.9702 48.5735 21.9121 47.4253 18.4108 45.4163C18.0214 45.1929 17.7621 44.797 17.7129 44.3508C17.3977 41.4952 18.0698 38.5664 19.6232 36.1376Z" fill="#F9F9F9"/>
<path d="M17.3215 34.5179C17.2989 34.5526 17.2765 34.5874 17.2542 34.6222C15.4439 37.4527 14.6155 40.8235 14.8698 44.1466C13.7297 43.9735 12.6235 43.6949 11.5618 43.321L11.3462 43.2451C10.953 43.1066 10.6783 42.7495 10.6452 42.3339L10.6271 42.1061C10.6122 41.9199 10.6047 41.7318 10.6047 41.5422C10.6047 37.7644 13.5842 34.6824 17.3215 34.5179Z" fill="#F9F9F9"/>
<path d="M45.7153 44.1465C45.9695 40.8241 45.1415 37.4539 43.3319 34.6238C43.3093 34.5884 43.2865 34.5531 43.2636 34.5179C47.0006 34.6828 49.9797 37.7646 49.9797 41.5422C49.9797 41.7318 49.9722 41.9199 49.9573 42.1061L49.9392 42.3339C49.9062 42.7495 49.6314 43.1066 49.2382 43.2451L49.0227 43.321C47.9611 43.6948 46.8551 43.9734 45.7153 44.1465Z" fill="#F9F9F9"/>
</svg>
