<svg width="153" height="15" viewBox="0 0 153 15" fill="none" xmlns="http://www.w3.org/2000/svg">
<ellipse cx="6.7305" cy="7.4643" rx="5.89888" ry="5.89286" fill="#CCFC56"/>
<path d="M25.5322 12.1416C24.9108 12.1416 24.3367 12.0315 23.8097 11.8112C23.2828 11.5831 22.8266 11.2646 22.4412 10.8556C22.0558 10.4466 21.753 9.96685 21.5328 9.41629C21.3204 8.86573 21.2142 8.26404 21.2142 7.61123C21.2142 6.95056 21.3204 6.34494 21.5328 5.79438C21.7451 5.24382 22.044 4.76404 22.4294 4.35505C22.8148 3.94606 23.271 3.63146 23.7979 3.41123C24.3249 3.18314 24.899 3.0691 25.5204 3.0691C26.126 3.0691 26.6687 3.17528 27.1485 3.38764C27.6361 3.6 28.0451 3.87528 28.3755 4.21348C28.7137 4.55168 28.9535 4.91348 29.0951 5.29887L28.0569 5.80618C27.8524 5.29494 27.5339 4.88988 27.1013 4.59101C26.6687 4.29213 26.1417 4.14269 25.5204 4.14269C24.9069 4.14269 24.3603 4.2882 23.8805 4.57921C23.4086 4.87022 23.0389 5.27528 22.7715 5.79438C22.5041 6.31348 22.3704 6.9191 22.3704 7.61123C22.3704 8.2955 22.5041 8.89719 22.7715 9.41629C23.0468 9.93539 23.4204 10.3404 23.8923 10.6315C24.3721 10.9225 24.9187 11.068 25.5322 11.068C26.067 11.068 26.5507 10.9539 26.9833 10.7258C27.4159 10.4978 27.758 10.1831 28.0097 9.78202C28.2614 9.3809 28.3873 8.91685 28.3873 8.38989V7.84719L28.9182 8.3427H25.5204V7.33989H29.5552V8.11854C29.5552 8.73202 29.4491 9.28652 29.2367 9.78202C29.0243 10.2775 28.7333 10.7022 28.3637 11.0562C27.994 11.4022 27.5653 11.6697 27.0777 11.8584C26.5901 12.0472 26.0749 12.1416 25.5322 12.1416ZM32.8513 12.1416C32.4345 12.1416 32.0648 12.0669 31.7423 11.9174C31.4277 11.7601 31.18 11.5478 30.9991 11.2803C30.8182 11.0051 30.7277 10.6904 30.7277 10.3365C30.7277 9.99831 30.7985 9.6955 30.9401 9.42809C31.0895 9.15281 31.3176 8.92079 31.6244 8.73202C31.939 8.54326 32.3322 8.40955 32.8041 8.3309L35.1637 7.94157V8.8618L33.0519 9.21573C32.6429 9.28652 32.344 9.41629 32.1553 9.60506C31.9744 9.79382 31.8839 10.0258 31.8839 10.3011C31.8839 10.5607 31.9862 10.777 32.1906 10.95C32.403 11.123 32.6665 11.2096 32.9811 11.2096C33.3822 11.2096 33.7283 11.127 34.0193 10.9618C34.3182 10.7888 34.5502 10.5567 34.7154 10.2657C34.8884 9.97472 34.9749 9.65225 34.9749 9.29831V7.68202C34.9749 7.33595 34.8451 7.05674 34.5856 6.84438C34.3339 6.62416 33.9996 6.51404 33.5828 6.51404C33.221 6.51404 32.8985 6.60842 32.6154 6.79719C32.3401 6.97809 32.1356 7.22191 32.0019 7.52865L31.0463 7.03314C31.1642 6.74213 31.353 6.48258 31.6126 6.25449C31.8721 6.01854 32.1749 5.83371 32.521 5.7C32.8671 5.56629 33.2288 5.49944 33.6064 5.49944C34.094 5.49944 34.5227 5.59382 34.8923 5.78258C35.262 5.96348 35.5491 6.2191 35.7536 6.54944C35.9659 6.87191 36.0721 7.24944 36.0721 7.68202V12H34.9985V10.7966L35.1991 10.8674C35.0654 11.1191 34.8845 11.3393 34.6564 11.5281C34.4283 11.7169 34.1609 11.8663 33.8541 11.9764C33.5474 12.0865 33.2131 12.1416 32.8513 12.1416ZM40.0503 12.1416C39.4132 12.1416 38.8587 11.9843 38.3868 11.6697C37.9149 11.3551 37.5806 10.9303 37.384 10.3955L38.257 9.97079C38.4379 10.3483 38.6856 10.6472 39.0003 10.8674C39.3149 11.0876 39.6649 11.1978 40.0503 11.1978C40.3963 11.1978 40.6834 11.1152 40.9115 10.95C41.1396 10.7848 41.2536 10.5685 41.2536 10.3011C41.2536 10.1124 41.1986 9.96292 41.0885 9.85281C40.9862 9.73483 40.8604 9.64438 40.7109 9.58146C40.5615 9.51067 40.4239 9.45955 40.298 9.42809L39.3424 9.15674C38.7682 8.99157 38.3474 8.75562 38.08 8.44887C37.8205 8.14213 37.6907 7.78427 37.6907 7.37528C37.6907 6.99775 37.7851 6.67135 37.9739 6.39607C38.1705 6.11292 38.434 5.89269 38.7643 5.73539C39.1025 5.57809 39.48 5.49944 39.8969 5.49944C40.4553 5.49944 40.9548 5.64101 41.3952 5.92415C41.8435 6.2073 42.1621 6.60449 42.3508 7.11573L41.4542 7.52865C41.3126 7.19831 41.1003 6.93876 40.8171 6.75C40.534 6.55337 40.2154 6.45505 39.8615 6.45505C39.539 6.45505 39.2834 6.53764 39.0946 6.70281C38.9059 6.86011 38.8115 7.06067 38.8115 7.30449C38.8115 7.48539 38.8587 7.63483 38.9531 7.75281C39.0474 7.86292 39.1615 7.94944 39.2952 8.01236C39.4289 8.06741 39.5587 8.11461 39.6845 8.15393L40.7227 8.46067C41.2418 8.61011 41.643 8.84213 41.9261 9.15674C42.2171 9.47135 42.3626 9.84888 42.3626 10.2893C42.3626 10.6433 42.2643 10.9618 42.0677 11.2449C41.871 11.5281 41.5997 11.7483 41.2536 11.9056C40.9076 12.0629 40.5064 12.1416 40.0503 12.1416ZM46.3826 12.0708C45.7613 12.0708 45.2815 11.8938 44.9433 11.5399C44.6129 11.186 44.4478 10.6865 44.4478 10.0416V6.69101H43.2916V5.64101H43.5276C43.8107 5.64101 44.0349 5.55449 44.2 5.38146C44.3652 5.20842 44.4478 4.98033 44.4478 4.69719V4.17809H45.545V5.64101H46.9725V6.69101H45.545V10.0062C45.545 10.2185 45.5764 10.4034 45.6394 10.5607C45.7101 10.718 45.8242 10.8438 45.9815 10.9382C46.1388 11.0247 46.3472 11.068 46.6068 11.068C46.6618 11.068 46.7287 11.064 46.8073 11.0562C46.8938 11.0483 46.9725 11.0404 47.0433 11.0326V12C46.941 12.0236 46.827 12.0393 46.7011 12.0472C46.5753 12.0629 46.4691 12.0708 46.3826 12.0708ZM51.3239 12.1416C50.7105 12.1416 50.156 12 49.6605 11.7169C49.1649 11.4258 48.7717 11.0287 48.4807 10.5253C48.1897 10.0219 48.0442 9.45168 48.0442 8.81461C48.0442 8.17753 48.1857 7.61123 48.4689 7.11573C48.7599 6.62022 49.1531 6.22696 49.6487 5.93595C50.1442 5.64494 50.7026 5.49944 51.3239 5.49944C51.9374 5.49944 52.4919 5.64494 52.9874 5.93595C53.4829 6.2191 53.8723 6.60842 54.1554 7.10393C54.4464 7.59944 54.5919 8.16966 54.5919 8.81461C54.5919 9.45955 54.4425 10.0337 54.1436 10.5371C53.8447 11.0326 53.4475 11.4258 52.952 11.7169C52.4644 12 51.9217 12.1416 51.3239 12.1416ZM51.3239 11.0798C51.7172 11.0798 52.0711 10.9815 52.3857 10.7848C52.7082 10.5882 52.9599 10.3169 53.1408 9.97079C53.3296 9.62472 53.4239 9.23932 53.4239 8.81461C53.4239 8.38202 53.3296 8.00056 53.1408 7.67022C52.9599 7.33202 52.7082 7.0646 52.3857 6.86798C52.0711 6.66348 51.7172 6.56123 51.3239 6.56123C50.9228 6.56123 50.561 6.66348 50.2385 6.86798C49.9239 7.0646 49.6722 7.33202 49.4835 7.67022C49.2947 8.00056 49.2003 8.38202 49.2003 8.81461C49.2003 9.23932 49.2947 9.62472 49.4835 9.97079C49.6722 10.3169 49.9239 10.5882 50.2385 10.7848C50.561 10.9815 50.9228 11.0798 51.3239 11.0798ZM58.2999 12.1416C57.6628 12.1416 57.1083 11.9843 56.6364 11.6697C56.1645 11.3551 55.8302 10.9303 55.6336 10.3955L56.5067 9.97079C56.6876 10.3483 56.9353 10.6472 57.2499 10.8674C57.5645 11.0876 57.9145 11.1978 58.2999 11.1978C58.646 11.1978 58.9331 11.1152 59.1611 10.95C59.3892 10.7848 59.5033 10.5685 59.5033 10.3011C59.5033 10.1124 59.4482 9.96292 59.3381 9.85281C59.2359 9.73483 59.11 9.64438 58.9606 9.58146C58.8111 9.51067 58.6735 9.45955 58.5477 9.42809L57.592 9.15674C57.0179 8.99157 56.5971 8.75562 56.3297 8.44887C56.0701 8.14213 55.9404 7.78427 55.9404 7.37528C55.9404 6.99775 56.0347 6.67135 56.2235 6.39607C56.4201 6.11292 56.6836 5.89269 57.014 5.73539C57.3522 5.57809 57.7297 5.49944 58.1465 5.49944C58.705 5.49944 59.2044 5.64101 59.6449 5.92415C60.0932 6.2073 60.4117 6.60449 60.6005 7.11573L59.7038 7.52865C59.5623 7.19831 59.3499 6.93876 59.0668 6.75C58.7836 6.55337 58.4651 6.45505 58.1111 6.45505C57.7887 6.45505 57.5331 6.53764 57.3443 6.70281C57.1555 6.86011 57.0611 7.06067 57.0611 7.30449C57.0611 7.48539 57.1083 7.63483 57.2027 7.75281C57.2971 7.86292 57.4111 7.94944 57.5449 8.01236C57.6786 8.06741 57.8083 8.11461 57.9342 8.15393L58.9724 8.46067C59.4915 8.61011 59.8926 8.84213 60.1758 9.15674C60.4668 9.47135 60.6123 9.84888 60.6123 10.2893C60.6123 10.6433 60.514 10.9618 60.3173 11.2449C60.1207 11.5281 59.8494 11.7483 59.5033 11.9056C59.1572 12.0629 58.7561 12.1416 58.2999 12.1416Z" fill="white"/>
<ellipse cx="89.3148" cy="7.4643" rx="5.89888" ry="5.89286" fill="#F2622E"/>
<path d="M104.058 12V3.21067H105.214V12H104.058ZM107.039 12V5.64101H108.113V6.87977L107.936 6.77359C108.093 6.37247 108.345 6.0618 108.691 5.84157C109.045 5.61348 109.458 5.49944 109.929 5.49944C110.386 5.49944 110.791 5.60168 111.145 5.80618C111.506 6.01067 111.79 6.29382 111.994 6.65562C112.206 7.01741 112.313 7.4264 112.313 7.88258V12H111.204V8.23652C111.204 7.88258 111.141 7.58371 111.015 7.33989C110.889 7.09607 110.708 6.9073 110.472 6.77359C110.244 6.63202 109.981 6.56123 109.682 6.56123C109.383 6.56123 109.115 6.63202 108.879 6.77359C108.651 6.9073 108.47 7.1 108.337 7.35168C108.203 7.5955 108.136 7.89045 108.136 8.23652V12H107.039ZM116.915 14.5955C116.466 14.5955 116.05 14.5247 115.664 14.3831C115.287 14.2416 114.96 14.0449 114.685 13.7933C114.417 13.5494 114.213 13.2624 114.071 12.932L115.098 12.4601C115.208 12.759 115.416 13.0107 115.723 13.2152C116.038 13.4275 116.431 13.5337 116.903 13.5337C117.265 13.5337 117.591 13.4629 117.882 13.3213C118.181 13.1876 118.417 12.9831 118.59 12.7079C118.763 12.4404 118.85 12.114 118.85 11.7287V10.3011L119.05 10.5135C118.83 10.9461 118.511 11.2764 118.094 11.5045C117.685 11.7326 117.233 11.8466 116.738 11.8466C116.14 11.8466 115.605 11.709 115.133 11.4337C114.661 11.1506 114.292 10.7691 114.024 10.2893C113.757 9.80168 113.623 9.26292 113.623 8.67303C113.623 8.07528 113.757 7.53652 114.024 7.05674C114.292 6.57696 114.657 6.19944 115.121 5.92415C115.593 5.64101 116.128 5.49944 116.726 5.49944C117.221 5.49944 117.67 5.61348 118.071 5.84157C118.48 6.0618 118.806 6.36854 119.05 6.7618L118.885 7.05674V5.64101H119.958V11.7287C119.958 12.2792 119.829 12.7708 119.569 13.2034C119.31 13.636 118.948 13.9742 118.484 14.218C118.028 14.4697 117.505 14.5955 116.915 14.5955ZM116.832 10.7848C117.21 10.7848 117.548 10.6904 117.847 10.5017C118.153 10.3129 118.397 10.0612 118.578 9.74663C118.759 9.42416 118.85 9.06629 118.85 8.67303C118.85 8.28764 118.759 7.93371 118.578 7.61123C118.397 7.28876 118.153 7.03314 117.847 6.84438C117.548 6.65562 117.21 6.56123 116.832 6.56123C116.447 6.56123 116.097 6.65562 115.782 6.84438C115.467 7.03314 115.22 7.28876 115.039 7.61123C114.866 7.92584 114.779 8.27977 114.779 8.67303C114.779 9.06629 114.866 9.42416 115.039 9.74663C115.22 10.0612 115.464 10.3129 115.77 10.5017C116.085 10.6904 116.439 10.7848 116.832 10.7848ZM121.659 12V5.64101H122.733V6.80899L122.615 6.64382C122.765 6.28202 122.993 6.0146 123.299 5.84157C123.606 5.66067 123.98 5.57022 124.42 5.57022H124.809V6.60842H124.255C123.807 6.60842 123.445 6.75 123.17 7.03314C122.894 7.30843 122.757 7.70168 122.757 8.21292V12H121.659ZM128.71 12.1416C128.096 12.1416 127.55 11.9961 127.07 11.7051C126.59 11.414 126.213 11.0169 125.937 10.5135C125.662 10.0022 125.525 9.43202 125.525 8.80281C125.525 8.16573 125.658 7.59944 125.926 7.10393C126.201 6.60842 126.571 6.2191 127.035 5.93595C127.507 5.64494 128.034 5.49944 128.616 5.49944C129.087 5.49944 129.504 5.58595 129.866 5.75899C130.236 5.92415 130.546 6.15224 130.798 6.44326C131.058 6.7264 131.254 7.05281 131.388 7.42247C131.53 7.78427 131.6 8.1618 131.6 8.55505C131.6 8.64157 131.593 8.73989 131.577 8.85C131.569 8.95225 131.557 9.05056 131.541 9.14494H126.327V8.20112H130.904L130.385 8.62584C130.456 8.21685 130.417 7.85112 130.267 7.52865C130.118 7.20618 129.898 6.95056 129.607 6.7618C129.316 6.57303 128.985 6.47865 128.616 6.47865C128.246 6.47865 127.908 6.57303 127.601 6.7618C127.294 6.95056 127.054 7.22191 126.881 7.57584C126.716 7.92191 126.649 8.33483 126.681 8.81461C126.649 9.27865 126.72 9.68764 126.893 10.0416C127.074 10.3876 127.326 10.659 127.648 10.8556C127.978 11.0444 128.336 11.1388 128.722 11.1388C129.146 11.1388 129.504 11.0404 129.795 10.8438C130.086 10.6472 130.322 10.3955 130.503 10.0888L131.423 10.5607C131.298 10.8517 131.101 11.1191 130.834 11.3629C130.574 11.5989 130.263 11.7876 129.902 11.9292C129.548 12.0708 129.15 12.1416 128.71 12.1416ZM135.308 12.1416C134.671 12.1416 134.116 11.9843 133.644 11.6697C133.173 11.3551 132.838 10.9303 132.642 10.3955L133.515 9.97079C133.696 10.3483 133.943 10.6472 134.258 10.8674C134.573 11.0876 134.923 11.1978 135.308 11.1978C135.654 11.1978 135.941 11.1152 136.169 10.95C136.397 10.7848 136.511 10.5685 136.511 10.3011C136.511 10.1124 136.456 9.96292 136.346 9.85281C136.244 9.73483 136.118 9.64438 135.969 9.58146C135.819 9.51067 135.682 9.45955 135.556 9.42809L134.6 9.15674C134.026 8.99157 133.605 8.75562 133.338 8.44887C133.078 8.14213 132.948 7.78427 132.948 7.37528C132.948 6.99775 133.043 6.67135 133.232 6.39607C133.428 6.11292 133.692 5.89269 134.022 5.73539C134.36 5.57809 134.738 5.49944 135.155 5.49944C135.713 5.49944 136.212 5.64101 136.653 5.92415C137.101 6.2073 137.42 6.60449 137.608 7.11573L136.712 7.52865C136.57 7.19831 136.358 6.93876 136.075 6.75C135.792 6.55337 135.473 6.45505 135.119 6.45505C134.797 6.45505 134.541 6.53764 134.352 6.70281C134.164 6.86011 134.069 7.06067 134.069 7.30449C134.069 7.48539 134.116 7.63483 134.211 7.75281C134.305 7.86292 134.419 7.94944 134.553 8.01236C134.687 8.06741 134.816 8.11461 134.942 8.15393L135.98 8.46067C136.5 8.61011 136.901 8.84213 137.184 9.15674C137.475 9.47135 137.62 9.84888 137.62 10.2893C137.62 10.6433 137.522 10.9618 137.325 11.2449C137.129 11.5281 136.857 11.7483 136.511 11.9056C136.165 12.0629 135.764 12.1416 135.308 12.1416ZM142.077 12.1416C141.463 12.1416 140.909 12 140.413 11.7169C139.918 11.4258 139.525 11.0287 139.234 10.5253C138.943 10.0219 138.797 9.45168 138.797 8.81461C138.797 8.17753 138.939 7.61123 139.222 7.11573C139.513 6.62022 139.906 6.22696 140.402 5.93595C140.897 5.64494 141.455 5.49944 142.077 5.49944C142.69 5.49944 143.245 5.64494 143.74 5.93595C144.236 6.2191 144.625 6.60842 144.908 7.10393C145.199 7.59944 145.345 8.16966 145.345 8.81461C145.345 9.45955 145.195 10.0337 144.896 10.5371C144.598 11.0326 144.2 11.4258 143.705 11.7169C143.217 12 142.675 12.1416 142.077 12.1416ZM142.077 11.0798C142.47 11.0798 142.824 10.9815 143.139 10.7848C143.461 10.5882 143.713 10.3169 143.894 9.97079C144.082 9.62472 144.177 9.23932 144.177 8.81461C144.177 8.38202 144.082 8.00056 143.894 7.67022C143.713 7.33202 143.461 7.0646 143.139 6.86798C142.824 6.66348 142.47 6.56123 142.077 6.56123C141.676 6.56123 141.314 6.66348 140.991 6.86798C140.677 7.0646 140.425 7.33202 140.236 7.67022C140.048 8.00056 139.953 8.38202 139.953 8.81461C139.953 9.23932 140.048 9.62472 140.236 9.97079C140.425 10.3169 140.677 10.5882 140.991 10.7848C141.314 10.9815 141.676 11.0798 142.077 11.0798ZM149.053 12.1416C148.416 12.1416 147.861 11.9843 147.389 11.6697C146.917 11.3551 146.583 10.9303 146.386 10.3955L147.26 9.97079C147.44 10.3483 147.688 10.6472 148.003 10.8674C148.317 11.0876 148.667 11.1978 149.053 11.1978C149.399 11.1978 149.686 11.1152 149.914 10.95C150.142 10.7848 150.256 10.5685 150.256 10.3011C150.256 10.1124 150.201 9.96292 150.091 9.85281C149.989 9.73483 149.863 9.64438 149.713 9.58146C149.564 9.51067 149.426 9.45955 149.301 9.42809L148.345 9.15674C147.771 8.99157 147.35 8.75562 147.083 8.44887C146.823 8.14213 146.693 7.78427 146.693 7.37528C146.693 6.99775 146.788 6.67135 146.976 6.39607C147.173 6.11292 147.436 5.89269 147.767 5.73539C148.105 5.57809 148.483 5.49944 148.899 5.49944C149.458 5.49944 149.957 5.64101 150.398 5.92415C150.846 6.2073 151.165 6.60449 151.353 7.11573L150.457 7.52865C150.315 7.19831 150.103 6.93876 149.82 6.75C149.536 6.55337 149.218 6.45505 148.864 6.45505C148.542 6.45505 148.286 6.53764 148.097 6.70281C147.908 6.86011 147.814 7.06067 147.814 7.30449C147.814 7.48539 147.861 7.63483 147.956 7.75281C148.05 7.86292 148.164 7.94944 148.298 8.01236C148.431 8.06741 148.561 8.11461 148.687 8.15393L149.725 8.46067C150.244 8.61011 150.645 8.84213 150.929 9.15674C151.22 9.47135 151.365 9.84888 151.365 10.2893C151.365 10.6433 151.267 10.9618 151.07 11.2449C150.874 11.5281 150.602 11.7483 150.256 11.9056C149.91 12.0629 149.509 12.1416 149.053 12.1416Z" fill="white"/>
</svg>
