<svg width="45" height="46" viewBox="0 0 45 46" fill="none" xmlns="http://www.w3.org/2000/svg">
<rect x="0.0841064" y="0.401886" width="44.8598" height="44.8598" rx="22.4299" fill="#CCFC56"/>
<path fill-rule="evenodd" clip-rule="evenodd" d="M11.2991 15.3552C11.2991 13.2906 12.9728 11.6169 15.0374 11.6169H17.8411C19.9057 11.6169 21.5794 13.2906 21.5794 15.3552V18.159C21.5794 20.2236 19.9057 21.8973 17.8411 21.8973H15.0374C12.9728 21.8973 11.2991 20.2236 11.2991 18.159V15.3552ZM23.4486 15.3552C23.4486 13.2906 25.1223 11.6169 27.1869 11.6169H29.9907C32.0553 11.6169 33.729 13.2906 33.729 15.3552V18.159C33.729 20.2236 32.0553 21.8973 29.9907 21.8973H27.1869C25.1223 21.8973 23.4486 20.2236 23.4486 18.159V15.3552ZM11.2991 27.5048C11.2991 25.4401 12.9728 23.7664 15.0374 23.7664H17.8411C19.9057 23.7664 21.5794 25.4401 21.5794 27.5048V30.3085C21.5794 32.3731 19.9057 34.0468 17.8411 34.0468H15.0374C12.9728 34.0468 11.2991 32.3731 11.2991 30.3085V27.5048ZM23.4486 27.5048C23.4486 25.4401 25.1223 23.7664 27.1869 23.7664H29.9907C32.0553 23.7664 33.729 25.4401 33.729 27.5048V30.3085C33.729 32.3731 32.0553 34.0468 29.9907 34.0468H27.1869C25.1223 34.0468 23.4486 32.3731 23.4486 30.3085V27.5048Z" fill="#1E1E1E"/>
</svg>
