<svg width="139" height="49" viewBox="0 0 139 49" fill="none" xmlns="http://www.w3.org/2000/svg">
<path d="M54.0015 30.3652V18.2506H55.3024V29.1456H60.6686V30.3652H54.0015ZM66.5429 30.5604C65.719 30.5604 64.971 30.3652 64.2989 29.975C63.6268 29.5739 63.0901 29.0318 62.689 28.3488C62.2988 27.655 62.1036 26.8691 62.1036 25.991C62.1036 25.1237 62.2988 24.3486 62.689 23.6656C63.0793 22.9826 63.6051 22.446 64.2664 22.0558C64.9385 21.6546 65.6974 21.4541 66.5429 21.4541C67.3885 21.4541 68.142 21.6492 68.8033 22.0395C69.4754 22.4298 70.0012 22.9664 70.3806 23.6494C70.7709 24.3323 70.966 25.1129 70.966 25.991C70.966 26.8799 70.7654 27.6713 70.3643 28.3651C69.9632 29.0481 69.4266 29.5847 68.7545 29.975C68.0932 30.3652 67.356 30.5604 66.5429 30.5604ZM66.5429 29.3408C67.1284 29.3408 67.6541 29.1944 68.1203 28.9017C68.5973 28.609 68.9713 28.2079 69.2423 27.6984C69.5242 27.1889 69.6651 26.6197 69.6651 25.991C69.6651 25.3622 69.5242 24.7985 69.2423 24.2998C68.9713 23.8011 68.5973 23.4054 68.1203 23.1127C67.6541 22.82 67.1284 22.6737 66.5429 22.6737C65.9575 22.6737 65.4263 22.82 64.9493 23.1127C64.4832 23.4054 64.1092 23.8011 63.8273 24.2998C63.5455 24.7985 63.4045 25.3622 63.4045 25.991C63.4045 26.6197 63.5455 27.1889 63.8273 27.6984C64.1092 28.2079 64.4832 28.609 64.9493 28.9017C65.4263 29.1944 65.9575 29.3408 66.5429 29.3408ZM77.2473 33.9427C76.651 33.9427 76.0982 33.8506 75.5886 33.6663C75.09 33.482 74.6563 33.2272 74.2877 32.902C73.93 32.5876 73.6535 32.219 73.4584 31.7962L74.5804 31.1946C74.7539 31.6065 75.0629 31.9643 75.5073 32.2678C75.9518 32.5713 76.5209 32.7231 77.2148 32.7231C77.746 32.7231 78.2338 32.6201 78.6783 32.4141C79.1227 32.2082 79.4805 31.9046 79.7515 31.5035C80.0225 31.1024 80.158 30.6092 80.158 30.0237V28.0887L80.3532 28.2675C80.0496 28.8963 79.5997 29.3841 79.0035 29.731C78.4072 30.0671 77.7568 30.2351 77.0521 30.2351C76.2391 30.2351 75.5073 30.04 74.8569 29.6497C74.2064 29.2595 73.6915 28.7337 73.3121 28.0724C72.9435 27.4003 72.7592 26.6577 72.7592 25.8446C72.7592 25.0207 72.9435 24.2781 73.3121 23.6168C73.6915 22.9555 74.201 22.4298 74.8406 22.0395C75.4911 21.6492 76.2282 21.4541 77.0521 21.4541C77.7568 21.4541 78.3964 21.6167 78.971 21.9419C79.5564 22.2671 80.0171 22.7062 80.3532 23.2591L80.158 23.6006V21.6492H81.3776V30.0237C81.3776 30.7718 81.1988 31.4385 80.841 32.0239C80.4941 32.6201 80.0063 33.0863 79.3775 33.4223C78.7596 33.7692 78.0495 33.9427 77.2473 33.9427ZM77.1172 29.0156C77.6809 29.0156 78.1904 28.8746 78.6457 28.5928C79.1011 28.3001 79.4642 27.9152 79.7352 27.4382C80.0171 26.9504 80.158 26.4192 80.158 25.8446C80.158 25.2701 80.0171 24.7443 79.7352 24.2673C79.4642 23.7794 79.1011 23.3946 78.6457 23.1127C78.1904 22.82 77.6809 22.6737 77.1172 22.6737C76.5426 22.6737 76.0223 22.82 75.5561 23.1127C75.09 23.3946 74.7214 23.774 74.4503 24.251C74.1902 24.728 74.0601 25.2592 74.0601 25.8446C74.0601 26.4192 74.1902 26.9504 74.4503 27.4382C74.7214 27.9152 75.0845 28.3001 75.5399 28.5928C76.006 28.8746 76.5318 29.0156 77.1172 29.0156ZM92.5333 30.5604C91.6877 30.5604 90.8964 30.4086 90.1592 30.1051C89.4329 29.7907 88.7933 29.357 88.2404 28.8042C87.6875 28.2404 87.2539 27.5791 86.9395 26.8203C86.6251 26.0506 86.4679 25.2104 86.4679 24.2998C86.4679 23.3892 86.6251 22.5544 86.9395 21.7956C87.2539 21.0259 87.6875 20.3646 88.2404 19.8117C88.7933 19.248 89.4329 18.8143 90.1592 18.5108C90.8964 18.2073 91.6877 18.0555 92.5333 18.0555C93.3789 18.0555 94.1649 18.2127 94.8912 18.5271C95.6284 18.8306 96.2734 19.2642 96.8263 19.828C97.3792 20.3808 97.8128 21.0367 98.1272 21.7956C98.4416 22.5544 98.5988 23.3892 98.5988 24.2998C98.5988 25.2104 98.4416 26.0506 98.1272 26.8203C97.8128 27.5791 97.3792 28.2404 96.8263 28.8042C96.2734 29.357 95.6284 29.7907 94.8912 30.1051C94.1649 30.4086 93.3789 30.5604 92.5333 30.5604ZM92.5333 29.3408C93.238 29.3408 93.8776 29.2107 94.4522 28.9505C95.0376 28.6903 95.5417 28.3272 95.9645 27.861C96.3872 27.3949 96.7125 26.8582 96.9401 26.2511C97.1786 25.6441 97.2979 24.9936 97.2979 24.2998C97.2979 23.6168 97.1786 22.9718 96.9401 22.3647C96.7125 21.7576 96.3872 21.221 95.9645 20.7549C95.5417 20.2887 95.0376 19.9255 94.4522 19.6654C93.8776 19.4052 93.238 19.2751 92.5333 19.2751C91.8287 19.2751 91.1837 19.4052 90.5982 19.6654C90.0237 19.9255 89.525 20.2887 89.1022 20.7549C88.6794 21.221 88.3488 21.7576 88.1103 22.3647C87.8826 22.9718 87.7688 23.6168 87.7688 24.2998C87.7688 24.9936 87.8826 25.6441 88.1103 26.2511C88.3488 26.8582 88.6794 27.3949 89.1022 27.861C89.525 28.3272 90.0291 28.6903 90.6145 28.9505C91.1999 29.2107 91.8395 29.3408 92.5333 29.3408ZM104.013 30.5604C103.406 30.5604 102.853 30.4194 102.354 30.1376C101.855 29.8449 101.46 29.4438 101.167 28.9342C100.885 28.4139 100.744 27.8176 100.744 27.1455V21.6492H101.964V26.9992C101.964 27.4653 102.056 27.8773 102.24 28.235C102.435 28.5819 102.701 28.8529 103.037 29.0481C103.384 29.2432 103.78 29.3408 104.224 29.3408C104.668 29.3408 105.064 29.2432 105.411 29.0481C105.758 28.8421 106.029 28.5548 106.224 28.1862C106.419 27.8068 106.517 27.3569 106.517 26.8365V21.6492H107.736V30.3652H106.517V28.6741L106.793 28.7391C106.587 29.3028 106.235 29.7473 105.736 30.0725C105.238 30.3978 104.663 30.5604 104.013 30.5604ZM113.578 30.4628C112.798 30.4628 112.196 30.2351 111.773 29.7798C111.35 29.3245 111.139 28.6741 111.139 27.8285V22.8688H109.529V21.6492H109.936C110.304 21.6492 110.597 21.53 110.814 21.2915C111.031 21.0421 111.139 20.7332 111.139 20.3646V19.6328H112.359V21.6492H114.277V22.8688H112.359V27.8285C112.359 28.1212 112.402 28.3814 112.489 28.609C112.575 28.8258 112.722 28.9993 112.928 29.1294C113.145 29.2595 113.432 29.3245 113.79 29.3245C113.876 29.3245 113.979 29.3191 114.099 29.3083C114.218 29.2974 114.321 29.2866 114.407 29.2757V30.3652C114.277 30.3978 114.131 30.4194 113.968 30.4303C113.806 30.452 113.676 30.4628 113.578 30.4628Z" fill="#FF4545"/>
<rect x="0.400962" y="0.400962" width="138.198" height="47.3135" rx="6.72724" stroke="#FF4545" stroke-width="0.801923"/>
<path d="M24.3075 20.6853V16.5216C24.3075 15.1419 25.426 14.0234 26.8057 14.0234H33.4676C34.8473 14.0234 35.9658 15.1419 35.9658 16.5216V31.5109C35.9658 32.8906 34.8473 34.0091 33.4676 34.0091H26.8057C25.426 34.0091 24.3075 32.8906 24.3075 31.5109V27.3472M20.9766 27.3472L17.6457 24.0163M17.6457 24.0163L20.9766 20.6853M17.6457 24.0163L31.8021 24.0162" stroke="#FF4545" stroke-width="1.33654" stroke-linecap="round" stroke-linejoin="round"/>
</svg>
