<svg width="51" height="51" viewBox="0 0 51 51" fill="none" xmlns="http://www.w3.org/2000/svg">
<path fill-rule="evenodd" clip-rule="evenodd" d="M26.0625 12.4286C25.1009 12.4286 24.3214 13.2081 24.3214 14.1696V26.3571H22.2321V18.3482C22.2321 17.3866 21.4526 16.6071 20.4911 16.6071H19.7946C18.8331 16.6071 18.0536 17.3866 18.0536 18.3482V26.3571H15.9643V22.5268C15.9643 21.5652 15.1848 20.7857 14.2232 20.7857H13.5268C12.5652 20.7857 11.7857 21.5652 11.7857 22.5268V28.7946C11.7857 28.7965 11.7857 28.7983 11.7857 28.8002L11.7857 29.0655C11.7857 30.1339 12.7851 31 14.0179 31H32.7679C34.0006 31 35 30.1339 35 29.0655V28.2917C35 27.2233 34.0006 26.3571 32.7679 26.3571H28.5V14.1696C28.5 13.2081 27.7205 12.4286 26.7589 12.4286H26.0625Z" fill="#F9F9F9" fill-opacity="0.55"/>
<g clip-path="url(#clip0_234_4479)">
<path d="M10.3929 16.1429L14.5715 11.9643L17.2373 14.6302C17.9825 13.1641 19.2169 11.9348 20.8364 11.2137L22.533 10.4583M22.533 10.4583L18.855 9.04652M22.533 10.4583L21.1211 14.1363" stroke="#F9F9F9" stroke-opacity="0.55" stroke-width="1.39286" stroke-linecap="round" stroke-linejoin="round"/>
</g>
<circle cx="25.063" cy="25.063" r="23.6171" stroke="#F9F9F9" stroke-width="2.89189" stroke-dasharray="2.57 2.57"/>
<mask id="mask0_234_4479" style="mask-type:alpha" maskUnits="userSpaceOnUse" x="0" y="0" width="51" height="51">
<circle cx="25.063" cy="25.063" r="23.9384" fill="#D9D9D9" stroke="#F9F9F9" stroke-width="2.24925"/>
</mask>
<g mask="url(#mask0_234_4479)">
<g clip-path="url(#clip1_234_4479)">
<path d="M21.8156 24.9682C21.8156 24.9682 22.0655 23.5925 24.3183 23.1539C26.5711 22.7154 30.0735 21.9032 31.3242 21.5896C31.6819 21.5001 32.1425 21.3752 32.6583 21.26C33.9458 20.9746 35.5787 20.759 36.8282 21.3384C38.58 22.1519 43.3343 27.0311 47.4001 26.5301C51.466 26.029 53.7813 25.0919 59.0354 24.8408C64.2895 24.5909 70.0446 25.4043 73.1096 27.9058C76.0313 30.2909 78.8378 34.1595 79.0828 38.0477C79.3315 42.0094 76.0558 45.0965 74.549 48.4861C73.7981 50.1754 73.7981 51.3012 74.2991 51.9896C74.5625 52.3523 74.6875 52.7014 74.7218 53.0297C74.7989 53.7684 74.4498 54.3258 73.8618 55.2421C71.6421 58.7028 71.5147 59.0629 71.4228 59.4022C71.2611 59.9976 71.2684 60.3039 70.9536 60.6224C70.3313 61.2508 69.279 61.0915 68.1703 60.9666C67.0887 60.8453 65.528 60.7093 63.5385 60.6763C63.9661 60.408 64.6153 59.9853 65.3969 59.4169C65.7411 59.167 65.8024 59.0801 65.8979 59.0286C65.9371 59.0078 65.9702 58.9992 65.98 58.9955C66.1981 58.9233 67.7992 58.247 68.0135 58.1515C68.9103 57.7472 70.4709 56.2209 70.297 54.4299C70.188 53.3065 69.4395 52.5262 69.0462 52.1783C69.0462 52.1783 68.3578 52.3657 68.3578 52.8043C68.3578 53.3629 69.2324 53.6618 69.4211 54.4936C69.5399 55.0179 69.2839 55.4601 68.7951 56.276C68.5513 56.6827 67.9927 57.5365 66.6121 58.7444C65.7473 59.5002 65.2891 59.902 64.5418 60.31L60.7259 61.5607C60.5814 61.4039 60.5483 61.2581 60.5385 61.1859C60.4919 60.8355 60.7639 60.4472 61.2269 60.2475C60.7994 60.4202 60.3412 60.5893 59.8512 60.7485C59.2118 60.9556 58.6042 61.1197 58.037 61.2496C58.1056 61.0009 58.2367 60.6812 58.5062 60.4055C58.8088 60.0944 59.1567 59.9719 59.1322 59.9045C59.1101 59.8469 58.8492 59.9302 58.4131 59.967C57.9672 60.005 57.9745 59.9412 57.5066 59.967L56.3808 60.1238C56.3808 60.1238 58.3824 58.9661 60.8533 58.3414C63.3242 57.7154 64.2307 56.0579 64.1682 54.9003C64.1057 53.7426 62.1972 52.5544 61.8848 50.8969C61.5724 49.2395 61.5724 48.7078 61.5724 48.7078C60.1526 49.2211 57.9672 49.8201 55.255 49.8336C51.9633 49.8495 49.381 48.9945 47.873 48.3636C47.5594 49.1158 47.0914 50.2526 47.0596 51.6785C47.0265 53.1693 47.2776 54.2853 46.8722 56.2454C46.7068 57.0416 46.5463 57.392 46.278 57.6835C45.7905 58.2152 45.3176 58.1527 43.6822 58.59C42.4743 58.9135 42.5932 58.9845 40.774 59.4966C40.0549 59.6999 39.4436 59.8555 38.9916 59.9657C39.1974 59.145 39.5012 58.8179 39.7425 58.6525C40.2436 58.3083 38.8985 59.1217 37.8033 59.1217H36.7082C36.7082 59.1217 37.3966 58.6844 37.8964 58.4026C38.3975 58.1209 39.2721 57.8391 39.2721 57.8391L36.707 57.9016C36.707 57.9016 40.616 57.0882 41.242 56.0873C41.868 55.0865 43.2437 53.3972 42.0554 49.7381C40.8671 46.0789 37.6772 42.5754 37.6772 42.5754C37.6772 42.5754 32.9229 35.3502 31.7652 34.9129C30.6076 34.4755 25.6034 35.1003 23.1325 33.5053C20.658 31.9116 20.658 28.0025 21.1272 26.5325C21.5963 25.0625 21.8156 24.9682 21.8156 24.9682Z" fill="#F9F9F9"/>
<path d="M32.6583 24.8005C33.9593 24.8005 35.014 24.6793 35.014 24.5298C35.014 24.3803 33.9593 24.2591 32.6583 24.2591C31.3572 24.2591 30.3026 24.3803 30.3026 24.5298C30.3026 24.6793 31.3572 24.8005 32.6583 24.8005Z" fill="#050203"/>
<path d="M33.5342 25.4767C33.8224 25.4767 34.056 25.2431 34.056 24.9549C34.056 24.6666 33.8224 24.433 33.5342 24.433C33.246 24.433 33.0123 24.6666 33.0123 24.9549C33.0123 25.2431 33.246 25.4767 33.5342 25.4767Z" fill="#050203"/>
<path d="M32.5211 18.5222C32.6031 18.4316 32.7036 18.3654 32.8273 18.3348C33.5342 18.1584 34.2949 19.2181 34.4762 19.92C34.6624 20.6464 34.7555 21.8188 34.7555 21.8188L32.8432 22.321C32.8432 22.321 32.0972 20.8694 32.1438 19.92C32.1646 19.4876 32.2258 18.8469 32.5223 18.521L32.5211 18.5222Z" fill="#F9F9F9"/>
<path d="M39.9643 19.5597C40.0819 19.6136 40.1884 19.703 40.2742 19.8353C40.7679 20.5997 40.2154 22.044 39.6935 22.6112C39.1533 23.1968 38.1806 23.8926 38.1806 23.8926L36.8233 21.8346C36.8233 21.8346 37.7237 20.2139 38.569 19.7973C38.9548 19.6075 39.5392 19.3637 39.9643 19.5597Z" fill="#F9F9F9"/>
<path d="M32.9351 21.6888C32.7795 21.4598 32.5725 21.0751 32.5186 20.5594C32.4941 20.3242 32.4696 20.0939 32.5774 19.8734C32.7575 19.5034 33.223 19.3319 33.5746 19.4997C33.8722 19.6418 34.067 20.0608 34.1172 20.4246C34.1319 20.53 34.1332 20.6415 34.1368 20.748C34.1491 21.0653 34.1479 21.3826 34.1479 21.3826C34.1479 21.3826 33.8098 21.4806 33.5635 21.5443C33.4116 21.5835 33.1985 21.6362 32.9351 21.6876V21.6888Z" fill="#050203"/>
<path d="M37.3562 22.0024C37.4677 21.6949 37.6833 21.2331 38.0949 20.8386C38.2823 20.6586 38.4661 20.4834 38.7123 20.4454C39.1251 20.3829 39.5233 20.7382 39.571 21.2025C39.6102 21.5957 39.3591 22.0673 39.0761 22.3577C38.9941 22.4422 38.8997 22.5169 38.8103 22.5916C38.5457 22.8134 38.275 23.0216 38.275 23.0216C38.275 23.0216 38.0202 22.7497 37.8658 22.5806C37.7421 22.4446 37.5669 22.2499 37.3574 22.0024H37.3562Z" fill="#050203"/>
<path d="M23.5555 27.0107C23.6529 26.9779 23.6479 26.7018 23.5442 26.394C23.4405 26.0863 23.2775 25.8634 23.18 25.8963C23.0825 25.9291 23.0876 26.2052 23.1913 26.5129C23.295 26.8207 23.458 27.0435 23.5555 27.0107Z" fill="#050203"/>
<path d="M24.6124 26.5567C24.7932 26.2869 24.8705 26.0218 24.785 25.9646C24.6996 25.9073 24.4838 26.0796 24.303 26.3494C24.1222 26.6191 24.0449 26.8842 24.1303 26.9415C24.2158 26.9987 24.4316 26.8265 24.6124 26.5567Z" fill="#050203"/>
<path d="M23.2383 31.3884C23.3607 31.0818 23.3724 30.7983 23.2643 30.7551C23.1562 30.712 22.9694 30.9255 22.8469 31.2321C22.7244 31.5388 22.7128 31.8223 22.8209 31.8655C22.9289 31.9086 23.1158 31.6951 23.2383 31.3884Z" fill="#050203"/>
<path d="M24.1137 31.4143C23.9067 31.1448 23.8185 30.879 23.9165 30.8226C24.0145 30.7663 24.2619 30.9378 24.469 31.2073C24.676 31.4768 24.7642 31.7426 24.6662 31.799C24.5682 31.8553 24.3207 31.6838 24.1137 31.4143Z" fill="#050203"/>
<path d="M23.5012 30.7491C23.6088 30.7491 23.696 29.9977 23.696 29.0708C23.696 28.1439 23.6088 27.3925 23.5012 27.3925C23.3937 27.3925 23.3065 28.1439 23.3065 29.0708C23.3065 29.9977 23.3937 30.7491 23.5012 30.7491Z" fill="#050203"/>
<path d="M43.9909 42.4284C43.9909 42.4284 44.2837 42.5166 44.6904 43.4427C45.0971 44.3688 45.2147 44.9826 45.2147 44.9826" fill="#050203"/>
<path d="M40.0708 37.2576C40.0708 37.2576 39.963 37.5443 40.4543 38.4275C40.9455 39.3108 41.3632 39.7775 41.3632 39.7775" fill="#050203"/>
<path d="M39.696 41.3517C39.696 41.3517 39.6225 41.6481 40.213 42.4701C40.8035 43.2921 41.2714 43.7062 41.2714 43.7062" fill="#050203"/>
<path d="M43.1677 38.8331C43.1677 38.8331 43.4605 38.9213 43.8672 39.8474C44.2739 40.7735 44.3915 41.3873 44.3915 41.3873" fill="#050203"/>
<path d="M42.6765 42.8912C42.6765 42.8912 42.9435 43.0395 43.142 44.0317C43.3404 45.024 43.3245 45.6488 43.3245 45.6488" fill="#050203"/>
<path d="M42.8431 46.7201C42.8431 46.7201 43.1101 46.8683 43.3086 47.8606C43.507 48.8528 43.4911 49.4776 43.4911 49.4776" fill="#050203"/>
</g>
</g>
<defs>
<clipPath id="clip0_234_4479">
<rect width="14.8571" height="14.8571" fill="white" transform="translate(9 5)"/>
</clipPath>
<clipPath id="clip1_234_4479">
<rect width="58.2105" height="43.2469" fill="white" transform="translate(20.8858 18.3151)"/>
</clipPath>
</defs>
</svg>
