<svg width="286" height="164" viewBox="0 0 286 164" fill="none" xmlns="http://www.w3.org/2000/svg">
<rect width="286" height="163.436" rx="13.5258" fill="#F9F9F9"/>
<g clip-path="url(#clip0_1719_3769)">
<path d="M230.507 31.6023H216.285V57.1605H230.507V31.6023Z" fill="#FF5F00"/>
<path d="M217.188 44.3814C217.186 41.92 217.744 39.4903 218.819 37.2763C219.895 35.0623 221.46 33.122 223.396 31.6023C220.998 29.7176 218.119 28.5455 215.086 28.22C212.054 27.8945 208.991 28.4288 206.248 29.7617C203.504 31.0947 201.192 33.1726 199.573 35.7579C197.955 38.3431 197.097 41.3315 197.097 44.3814C197.097 47.4313 197.955 50.4197 199.573 53.0049C201.192 55.5902 203.504 57.6681 206.248 59.0011C208.991 60.334 212.054 60.8683 215.086 60.5428C218.119 60.2173 220.998 59.0452 223.396 57.1605C221.46 55.6408 219.895 53.7005 218.819 51.4865C217.744 49.2725 217.186 46.8428 217.188 44.3814Z" fill="#EB001B"/>
<path d="M249.694 44.3814C249.695 47.4313 248.837 50.4196 247.219 53.0049C245.601 55.5902 243.288 57.668 240.545 59.001C237.802 60.334 234.739 60.8683 231.706 60.5428C228.674 60.2173 225.794 59.0452 223.396 57.1605C225.331 55.6393 226.895 53.6987 227.97 51.485C229.046 49.2714 229.604 46.8424 229.604 44.3814C229.604 41.9204 229.046 39.4914 227.97 37.2778C226.895 35.0641 225.331 33.1235 223.396 31.6023C225.794 29.7176 228.674 28.5455 231.706 28.22C234.739 27.8945 237.802 28.4288 240.545 29.7618C243.288 31.0948 245.601 33.1726 247.219 35.7579C248.837 38.3432 249.695 41.3315 249.694 44.3814Z" fill="#F79E1B"/>
<path d="M248.144 54.4535V53.9302H248.355V53.8236H247.817V53.9302H248.028V54.4535H248.144ZM249.187 54.4535V53.8226H249.022L248.833 54.2565L248.643 53.8226H248.478V54.4535H248.595V53.9776L248.772 54.3879H248.893L249.071 53.9765V54.4535H249.187Z" fill="#F79E1B"/>
</g>
<defs>
<clipPath id="clip0_1719_3769">
<rect width="76.4663" height="32.4055" fill="white" transform="translate(181.355 28.1787)"/>
</clipPath>
</defs>
</svg>
