<svg width="286" height="164" viewBox="0 0 286 164" fill="none" xmlns="http://www.w3.org/2000/svg">
<rect width="286" height="163.436" rx="13.5258" fill="#F9F9F9"/>
<g clip-path="url(#clip0_1719_3696)" filter="url(#filter0_d_1719_3696)">
<path d="M162.85 28.8814H158.631C158.146 28.8814 157.75 29.2777 157.75 29.7666V33.3488C157.75 33.8377 158.146 34.234 158.631 34.234H162.846C163.335 34.234 163.728 33.8377 163.728 33.3488V29.7666C163.728 29.2777 163.332 28.8814 162.846 28.8814H162.85Z" fill="#391881"/>
<path d="M188.529 28.8814H184.902C184.407 28.8814 184.02 29.284 184.02 29.7666V44.2712C184.02 44.5652 183.633 44.6738 183.493 44.4118L175.063 29.2681C174.922 29.0188 174.676 28.8814 174.382 28.8814H168.352C167.857 28.8814 167.47 29.284 167.47 29.7666V52.9439C167.47 53.4392 167.873 53.829 168.352 53.829H171.979C172.475 53.829 172.861 53.4264 172.861 52.9439V38.0047C172.861 37.7107 173.248 37.6021 173.388 37.8641L182.052 53.4552C182.192 53.7044 182.438 53.8418 182.732 53.8418H188.497C188.992 53.8418 189.379 53.4392 189.379 52.9567V29.7666C189.379 29.2713 188.976 28.8814 188.497 28.8814H188.529Z" fill="#391881"/>
<path d="M210.335 44.7824C210.335 38.2507 206.089 35.0073 201.423 35.0073C195.364 35.0073 191.907 39.2126 191.907 44.8911C191.907 51.3461 196.246 54.417 201.282 54.417C206.319 54.417 209.265 51.8095 210.054 48.4286C210.163 47.994 209.914 47.6073 209.265 47.6073H206.415C206.089 47.6073 205.811 47.7767 205.67 48.1026C204.957 49.6684 203.81 50.4929 201.608 50.4929C199.113 50.4929 197.438 48.9271 197.192 45.7443H209.45C209.978 45.7443 210.332 45.3576 210.332 44.7824H210.335ZM197.393 42.3155C197.921 39.9731 199.285 38.9346 201.346 38.9346C203.19 38.9346 204.772 40.0051 204.989 42.3155H197.397H197.393Z" fill="#391881"/>
<path d="M256.939 35.4738H253.296C252.807 35.4738 252.414 35.8701 252.414 36.359V52.9599C252.414 53.4488 252.811 53.845 253.296 53.845H256.939C257.428 53.845 257.821 53.4488 257.821 52.9599V36.359C257.821 35.8701 257.425 35.4738 256.939 35.4738Z" fill="#391881"/>
<path d="M229.895 35.4738H226.268C225.773 35.4738 225.386 35.8765 225.386 36.359V37.2601C224.3 35.9883 222.52 35.1031 220.178 35.1031C214.94 35.1031 212.167 39.8517 212.167 44.8783C212.167 49.269 214.445 54.187 220.069 54.187C222.085 54.187 224.223 53.2251 225.386 51.8606V58.9963C225.386 59.4916 225.789 59.8814 226.268 59.8814H229.895C230.391 59.8814 230.777 59.4788 230.777 58.9963V36.375C230.777 35.8797 230.375 35.4898 229.895 35.4898V35.4738ZM221.635 50.2756C219.248 50.2756 217.573 48.5213 217.573 44.7537C217.573 40.9862 219.248 39.0145 221.635 39.0145C224.022 39.0145 225.696 40.8296 225.696 44.7537C225.696 48.6778 224.022 50.2756 221.635 50.2756Z" fill="#391881"/>
<path d="M249.206 35.4738H245.579C245.084 35.4738 244.697 35.8765 244.697 36.359V45.7443C244.697 48.7705 243.349 49.6525 241.63 49.6525C239.91 49.6525 238.562 48.7673 238.562 45.7443V36.359C238.562 35.8637 238.159 35.4738 237.68 35.4738H234.053C233.558 35.4738 233.171 35.8765 233.171 36.359V46.1342C233.171 51.9533 236.379 54.2956 241.649 54.2956C246.918 54.2956 250.126 51.9373 250.126 46.1342V36.359C250.126 35.8637 249.724 35.4738 249.245 35.4738H249.213H249.206Z" fill="#391881"/>
</g>
<defs>
<filter id="filter0_d_1719_3696" x="147.842" y="28.1786" width="112.234" height="36.914" filterUnits="userSpaceOnUse" color-interpolation-filters="sRGB">
<feFlood flood-opacity="0" result="BackgroundImageFix"/>
<feColorMatrix in="SourceAlpha" type="matrix" values="0 0 0 0 0 0 0 0 0 0 0 0 0 0 0 0 0 0 127 0" result="hardAlpha"/>
<feOffset dy="2.25429"/>
<feGaussianBlur stdDeviation="1.12715"/>
<feComposite in2="hardAlpha" operator="out"/>
<feColorMatrix type="matrix" values="0 0 0 0 0 0 0 0 0 0 0 0 0 0 0 0 0 0 0.25 0"/>
<feBlend mode="normal" in2="BackgroundImageFix" result="effect1_dropShadow_1719_3696"/>
<feBlend mode="normal" in="SourceGraphic" in2="effect1_dropShadow_1719_3696" result="shape"/>
</filter>
<clipPath id="clip0_1719_3696">
<rect width="107.725" height="32.4055" fill="white" transform="translate(150.096 28.1786)"/>
</clipPath>
</defs>
</svg>
