<svg width="42" height="14" viewBox="0 0 42 14" fill="none" xmlns="http://www.w3.org/2000/svg">
<path d="M2.44018 0.898682H0.685089C0.482988 0.898682 0.318115 1.06355 0.318115 1.26699V2.75748C0.318115 2.96092 0.482988 3.12579 0.685089 3.12579H2.43885C2.64228 3.12579 2.80583 2.96092 2.80583 2.75748V1.26699C2.80583 1.06355 2.64095 0.898682 2.43885 0.898682H2.44018Z" fill="#391881"/>
<path d="M13.125 0.898682H11.6158C11.4098 0.898682 11.2489 1.06621 11.2489 1.26699V7.30211C11.2489 7.42444 11.088 7.46964 11.0295 7.36061L7.52196 1.05957C7.46346 0.955855 7.36108 0.898682 7.23875 0.898682H4.72977C4.52368 0.898682 4.36279 1.06621 4.36279 1.26699V10.9107C4.36279 11.1168 4.53032 11.279 4.72977 11.279H6.23888C6.44497 11.279 6.60586 11.1115 6.60586 10.9107V4.69473C6.60586 4.57241 6.76674 4.5272 6.82524 4.63623L10.4298 11.1234C10.4883 11.2271 10.5907 11.2843 10.713 11.2843H13.1117C13.3178 11.2843 13.4786 11.1168 13.4786 10.916V1.26699C13.4786 1.06089 13.3111 0.898682 13.1117 0.898682H13.125Z" fill="#391881"/>
<path d="M22.1984 7.5148C22.1984 4.79707 20.4314 3.44751 18.4901 3.44751C15.9692 3.44751 14.5305 5.19728 14.5305 7.56001C14.5305 10.2458 16.3361 11.5236 18.4316 11.5236C20.5271 11.5236 21.753 10.4386 22.0814 9.0319C22.1266 8.85107 22.0229 8.69018 21.753 8.69018H20.567C20.4314 8.69018 20.3157 8.76065 20.2572 8.89628C19.9607 9.54779 19.4833 9.89083 18.5672 9.89083C17.5288 9.89083 16.8321 9.23932 16.7297 7.91502H21.8301C22.0495 7.91502 22.1971 7.75413 22.1971 7.5148H22.1984ZM16.8135 6.48834C17.0329 5.51373 17.6006 5.08161 18.4582 5.08161C19.2254 5.08161 19.8836 5.52703 19.974 6.48834H16.8148H16.8135Z" fill="#391881"/>
<path d="M41.5893 3.6416H40.0735C39.8701 3.6416 39.7065 3.80647 39.7065 4.00991V10.9173C39.7065 11.1207 39.8714 11.2856 40.0735 11.2856H41.5893C41.7927 11.2856 41.9563 11.1207 41.9563 10.9173V4.00991C41.9563 3.80647 41.7914 3.6416 41.5893 3.6416Z" fill="#391881"/>
<path d="M30.3369 3.64154H28.8278C28.6217 3.64154 28.4608 3.80907 28.4608 4.00984V4.3848C28.0088 3.85561 27.2682 3.4873 26.2936 3.4873C24.1143 3.4873 22.9602 5.46311 22.9602 7.5546C22.9602 9.38149 23.9082 11.4278 26.2483 11.4278C27.0873 11.4278 27.9768 11.0276 28.4608 10.4598V13.4288C28.4608 13.6349 28.6284 13.7971 28.8278 13.7971H30.3369C30.543 13.7971 30.7039 13.6296 30.7039 13.4288V4.01649C30.7039 3.8104 30.5364 3.64819 30.3369 3.64819V3.64154ZM26.8999 9.80032C25.9066 9.80032 25.2099 9.07036 25.2099 7.50274C25.2099 5.93513 25.9066 5.11475 26.8999 5.11475C27.8931 5.11475 28.5898 5.86998 28.5898 7.50274C28.5898 9.13551 27.8931 9.80032 26.8999 9.80032Z" fill="#391881"/>
<path d="M38.372 3.6416H36.8629C36.6568 3.6416 36.4959 3.80913 36.4959 4.00991V7.91499C36.4959 9.17413 35.9348 9.54111 35.2194 9.54111C34.5041 9.54111 33.943 9.1728 33.943 7.91499V4.00991C33.943 3.80381 33.7755 3.6416 33.576 3.6416H32.0669C31.8608 3.6416 31.7 3.80913 31.7 4.00991V8.0772C31.7 10.4984 33.0349 11.473 35.2274 11.473C37.42 11.473 38.7549 10.4918 38.7549 8.0772V4.00991C38.7549 3.80381 38.5874 3.6416 38.3879 3.6416H38.3746H38.372Z" fill="#391881"/>
</svg>
