<svg width="69" height="31" viewBox="0 0 69 31" fill="none" xmlns="http://www.w3.org/2000/svg">
<path d="M12.2863 20V9.57H13.9523L19.5523 16.948L18.6563 17.158V9.57H20.8263V20H19.1463L13.6443 12.566L14.4563 12.356V20H12.2863ZM26.3169 20.168C25.5609 20.168 24.8703 19.9953 24.2449 19.65C23.6289 19.3047 23.1343 18.8333 22.7609 18.236C22.3969 17.6293 22.2149 16.9433 22.2149 16.178C22.2149 15.4033 22.3969 14.7173 22.7609 14.12C23.1343 13.5227 23.6289 13.0513 24.2449 12.706C24.8703 12.3607 25.5609 12.188 26.3169 12.188C27.0729 12.188 27.7589 12.3607 28.3749 12.706C28.9909 13.0513 29.4809 13.5227 29.8449 14.12C30.2183 14.7173 30.4049 15.4033 30.4049 16.178C30.4049 16.9433 30.2183 17.6293 29.8449 18.236C29.4809 18.8333 28.9909 19.3047 28.3749 19.65C27.7589 19.9953 27.0729 20.168 26.3169 20.168ZM26.3169 18.278C26.6996 18.278 27.0309 18.1893 27.3109 18.012C27.6003 17.8347 27.8243 17.5873 27.9829 17.27C28.1509 16.9527 28.2349 16.5887 28.2349 16.178C28.2349 15.7673 28.1509 15.408 27.9829 15.1C27.8243 14.7827 27.6003 14.5353 27.3109 14.358C27.0309 14.1713 26.6996 14.078 26.3169 14.078C25.9343 14.078 25.5983 14.1713 25.3089 14.358C25.0196 14.5353 24.7909 14.7827 24.6229 15.1C24.4643 15.408 24.3849 15.7673 24.3849 16.178C24.3849 16.5887 24.4643 16.9527 24.6229 17.27C24.7909 17.5873 25.0196 17.8347 25.3089 18.012C25.5983 18.1893 25.9343 18.278 26.3169 18.278ZM33.8994 20L30.8894 12.356H33.1574L35.2434 18.138H34.3754L36.4614 12.356H38.7294L35.7194 20H33.8994ZM39.6538 20V12.356H41.7538V20H39.6538ZM39.6538 11.67V9.57H41.7538V11.67H39.6538ZM47.0425 20.168C46.2772 20.168 45.5865 19.9953 44.9705 19.65C44.3638 19.2953 43.8785 18.8147 43.5145 18.208C43.1598 17.6013 42.9825 16.92 42.9825 16.164C42.9825 15.408 43.1598 14.7313 43.5145 14.134C43.8692 13.5273 44.3545 13.0513 44.9705 12.706C45.5865 12.3607 46.2772 12.188 47.0425 12.188C47.6118 12.188 48.1392 12.286 48.6245 12.482C49.1098 12.678 49.5252 12.9533 49.8705 13.308C50.2158 13.6533 50.4632 14.064 50.6125 14.54L48.7925 15.324C48.6618 14.9413 48.4378 14.638 48.1205 14.414C47.8125 14.19 47.4532 14.078 47.0425 14.078C46.6785 14.078 46.3518 14.1667 46.0625 14.344C45.7825 14.5213 45.5585 14.7687 45.3905 15.086C45.2318 15.4033 45.1525 15.7673 45.1525 16.178C45.1525 16.5887 45.2318 16.9527 45.3905 17.27C45.5585 17.5873 45.7825 17.8347 46.0625 18.012C46.3518 18.1893 46.6785 18.278 47.0425 18.278C47.4625 18.278 47.8265 18.166 48.1345 17.942C48.4425 17.718 48.6618 17.4147 48.7925 17.032L50.6125 17.83C50.4725 18.278 50.2298 18.6793 49.8845 19.034C49.5392 19.3887 49.1238 19.6687 48.6385 19.874C48.1532 20.07 47.6212 20.168 47.0425 20.168ZM55.5311 20.168C54.7191 20.168 54.0144 19.9907 53.4171 19.636C52.8198 19.272 52.3578 18.7867 52.0311 18.18C51.7044 17.5733 51.5411 16.9013 51.5411 16.164C51.5411 15.3987 51.7091 14.7173 52.0451 14.12C52.3904 13.5227 52.8524 13.0513 53.4311 12.706C54.0098 12.3607 54.6631 12.188 55.3911 12.188C55.9978 12.188 56.5344 12.286 57.0011 12.482C57.4678 12.6687 57.8598 12.9347 58.1771 13.28C58.5038 13.6253 58.7511 14.0267 58.9191 14.484C59.0871 14.932 59.1711 15.422 59.1711 15.954C59.1711 16.1033 59.1618 16.2527 59.1431 16.402C59.1338 16.542 59.1104 16.6633 59.0731 16.766H53.3471V15.226H57.8831L56.8891 15.954C56.9824 15.5527 56.9778 15.198 56.8751 14.89C56.7724 14.5727 56.5904 14.3253 56.3291 14.148C56.0771 13.9613 55.7644 13.868 55.3911 13.868C55.0271 13.868 54.7144 13.9567 54.4531 14.134C54.1918 14.3113 53.9958 14.5727 53.8651 14.918C53.7344 15.2633 53.6831 15.6833 53.7111 16.178C53.6738 16.6073 53.7251 16.9853 53.8651 17.312C54.0051 17.6387 54.2198 17.8953 54.5091 18.082C54.7984 18.2593 55.1484 18.348 55.5591 18.348C55.9324 18.348 56.2498 18.2733 56.5111 18.124C56.7818 17.9747 56.9918 17.7693 57.1411 17.508L58.8211 18.306C58.6718 18.6793 58.4338 19.006 58.1071 19.286C57.7898 19.566 57.4118 19.7853 56.9731 19.944C56.5344 20.0933 56.0538 20.168 55.5311 20.168Z" fill="#A8F25D"/>
<rect x="0.5" y="0.5" width="68" height="30" rx="15" stroke="#A8F25D"/>
</svg>
