<svg width="61" height="61" viewBox="0 0 61 61" fill="none" xmlns="http://www.w3.org/2000/svg">
<rect width="60.5844" height="60.5844" rx="12.4675" fill="#979797"/>
<path fill-rule="evenodd" clip-rule="evenodd" d="M24.6672 16.2297C25.2951 16.2297 25.8469 16.646 26.0193 17.2497L27.5441 22.5863C28.2115 24.9221 30.0373 26.748 32.3732 27.4153L37.7098 28.9401C38.3135 29.1126 38.7297 29.6644 38.7297 30.2922C38.7297 30.9201 38.3135 31.4719 37.7098 31.6444L32.3732 33.1691C30.0373 33.8365 28.2115 35.6624 27.5441 37.9982L26.0193 43.3348C25.8469 43.9385 25.2951 44.3547 24.6672 44.3547C24.0393 44.3547 23.4876 43.9385 23.3151 43.3348L21.7903 37.9982C21.1229 35.6624 19.2971 33.8365 16.9612 33.1691L11.6246 31.6444C11.0209 31.4719 10.6047 30.9201 10.6047 30.2922C10.6047 29.6644 11.0209 29.1126 11.6246 28.9401L16.9612 27.4153C19.2971 26.748 21.1229 24.9221 21.7903 22.5863L23.3151 17.2497C23.4876 16.646 24.0393 16.2297 24.6672 16.2297Z" fill="#F9F9F9"/>
<path fill-rule="evenodd" clip-rule="evenodd" d="M41.5422 10.6047C42.1875 10.6047 42.75 11.0439 42.9065 11.6699L43.3918 13.6114C43.8327 15.3748 45.2096 16.7517 46.973 17.1926L48.9145 17.678C49.5405 17.8345 49.9797 18.397 49.9797 19.0422C49.9797 19.6875 49.5405 20.25 48.9145 20.4065L46.973 20.8919C45.2096 21.3327 43.8327 22.7096 43.3918 24.4731L42.9065 26.4146C42.75 27.0406 42.1875 27.4797 41.5422 27.4797C40.8969 27.4797 40.3344 27.0406 40.1779 26.4146L39.6926 24.4731C39.2517 22.7096 37.8748 21.3327 36.1114 20.8919L34.1699 20.4065C33.5439 20.25 33.1047 19.6875 33.1047 19.0422C33.1047 18.397 33.5439 17.8345 34.1699 17.678L36.1114 17.1926C37.8748 16.7517 39.2517 15.3748 39.6926 13.6114L40.1779 11.6699C40.3344 11.0439 40.8969 10.6047 41.5422 10.6047Z" fill="#F9F9F9"/>
<path fill-rule="evenodd" clip-rule="evenodd" d="M38.7297 35.9172C39.335 35.9172 39.8724 36.3046 40.0638 36.8788L40.803 39.0964C41.0829 39.9362 41.742 40.5953 42.5818 40.8752L44.7994 41.6144C45.3736 41.8058 45.761 42.3432 45.761 42.9485C45.761 43.5538 45.3736 44.0912 44.7994 44.2826L42.5818 45.0218C41.742 45.3017 41.0829 45.9607 40.803 46.8006L40.0638 49.0182C39.8724 49.5924 39.335 49.9797 38.7297 49.9797C38.1244 49.9797 37.587 49.5924 37.3956 49.0182L36.6564 46.8006C36.3765 45.9607 35.7175 45.3017 34.8776 45.0218L32.66 44.2826C32.0858 44.0912 31.6985 43.5538 31.6985 42.9485C31.6985 42.3432 32.0858 41.8058 32.66 41.6144L34.8776 40.8752C35.7175 40.5953 36.3765 39.9362 36.6564 39.0964L37.3956 36.8788C37.587 36.3046 38.1244 35.9172 38.7297 35.9172Z" fill="#F9F9F9"/>
</svg>
