<svg width="286" height="164" viewBox="0 0 286 164" fill="none" xmlns="http://www.w3.org/2000/svg">
<rect width="286" height="163.436" rx="13.5258" fill="#C4C4C4"/>
<g clip-path="url(#clip0_1719_7240)">
<path fill-rule="evenodd" clip-rule="evenodd" d="M222.693 44.3814C222.693 35.6844 229.743 28.634 238.44 28.634C247.137 28.634 254.187 35.6844 254.187 44.3814C254.187 53.0784 247.137 60.1288 238.44 60.1288C229.743 60.1288 222.693 53.0784 222.693 44.3814ZM241.069 38.0554C239.633 36.7993 237.247 36.7993 235.812 38.0554C235.308 38.496 234.543 38.445 234.103 37.9415C233.662 37.438 233.713 36.6727 234.217 36.2322C236.565 34.1769 240.315 34.1769 242.664 36.2322C245.108 38.3705 245.108 41.9129 242.664 44.0512C242.25 44.414 241.793 44.7111 241.312 44.944C240.22 45.4726 239.652 46.1938 239.652 46.8041V48.0154C239.652 48.6844 239.109 49.2267 238.44 49.2267C237.771 49.2267 237.229 48.6844 237.229 48.0154V46.8041C237.229 44.7383 238.94 43.4004 240.256 42.7633C240.551 42.6206 240.825 42.4416 241.069 42.228C242.41 41.0549 242.41 39.2285 241.069 38.0554ZM238.44 54.0721C239.109 54.0721 239.651 53.5298 239.651 52.8608C239.651 52.1918 239.109 51.6494 238.44 51.6494C237.771 51.6494 237.229 52.1918 237.229 52.8608C237.229 53.5298 237.771 54.0721 238.44 54.0721Z" fill="#F9F9F9"/>
</g>
<defs>
<clipPath id="clip0_1719_7240">
<rect width="46.4163" height="32.4055" fill="white" transform="translate(211.405 28.1787)"/>
</clipPath>
</defs>
</svg>
