<svg width="61" height="61" viewBox="0 0 61 61" fill="none" xmlns="http://www.w3.org/2000/svg">
<rect width="60.5844" height="60.5844" rx="12.4675" fill="#665EA4"/>
<path fill-rule="evenodd" clip-rule="evenodd" d="M25.2578 22.0116C30.659 15.0728 39.0945 10.6051 48.5734 10.6047C48.9464 10.6047 49.3041 10.7529 49.5678 11.0166C49.8316 11.2803 49.9797 11.638 49.9797 12.011C49.9797 21.4903 45.5121 29.9266 38.5731 35.3282C38.6762 35.9788 38.7297 36.6453 38.7297 37.3235C38.7297 44.3133 33.0633 49.9797 26.0735 49.9797C25.2968 49.9797 24.6672 49.3501 24.6672 48.5735V40.8268C24.6499 40.8143 24.6328 40.8014 24.6159 40.7881C22.8309 39.3727 21.2134 37.7552 19.7981 35.9702C19.7843 35.9528 19.7709 35.9352 19.7581 35.9172H12.011C11.2343 35.9172 10.6047 35.2876 10.6047 34.511C10.6047 27.5211 16.2711 21.8547 23.261 21.8547C23.9397 21.8547 24.6067 21.9083 25.2578 22.0116ZM35.9172 20.4485C33.5873 20.4485 31.6985 22.3373 31.6985 24.6672C31.6985 26.9972 33.5873 28.886 35.9172 28.886C38.2472 28.886 40.136 26.9972 40.136 24.6672C40.136 22.3373 38.2472 20.4485 35.9172 20.4485Z" fill="#F9F9F9"/>
<path d="M17.6554 40.1207C18.2779 39.6563 18.4061 38.7752 17.9417 38.1526C17.4773 37.5301 16.5962 37.4019 15.9737 37.8663C13.5711 39.6586 12.011 42.5277 12.011 45.7608C12.011 46.2775 12.0509 46.7858 12.1281 47.2825C12.2221 47.8876 12.6967 48.3622 13.3018 48.4562C13.7985 48.5334 14.3068 48.5733 14.8235 48.5733C18.0566 48.5733 20.9257 47.0132 22.718 44.6106C23.1823 43.9881 23.0542 43.107 22.4316 42.6426C21.8091 42.1782 20.928 42.3064 20.4636 42.9289C19.1793 44.6505 17.1312 45.7608 14.8235 45.7608C14.8235 43.4531 15.9338 41.405 17.6554 40.1207Z" fill="#F9F9F9"/>
</svg>
