<svg width="46" height="46" viewBox="0 0 46 46" fill="none" xmlns="http://www.w3.org/2000/svg">
<path fill-rule="evenodd" clip-rule="evenodd" d="M23 4.9563C13.0347 4.9563 4.95618 13.0348 4.95618 23.0001C4.95618 32.9655 13.0347 41.044 23 41.044C32.9653 41.044 41.0438 32.9655 41.0438 23.0001C41.0438 13.0348 32.9653 4.9563 23 4.9563ZM12.3809 12.03C9.5142 14.8056 7.73215 18.6948 7.73215 23.0001C7.73215 31.4323 14.5678 38.268 23 38.268C31.4322 38.268 38.2679 31.4323 38.2679 23.0001C38.2679 17.9009 35.768 13.3855 31.927 10.6126C31.3025 11.6102 30.4719 12.4668 29.4876 13.123L27.1638 14.6722L27.4684 15.2814C27.9662 16.2769 27.2423 17.4482 26.1293 17.4482C25.8968 17.4482 25.6676 17.3941 25.4597 17.2901L24.342 16.7313C23.5405 16.3305 22.5724 16.4876 21.9388 17.1213L21.6961 17.364C20.883 18.177 20.883 19.4953 21.6961 20.3084L22.2422 20.8545C22.7177 21.33 23.3935 21.5465 24.0567 21.436L26.2221 21.0751C26.82 20.9755 27.4316 21.1413 27.8972 21.5293L30.3573 23.5794C30.9507 24.0739 31.2087 24.8643 31.0214 25.6136C30.3137 28.4446 28.8498 31.03 26.7864 33.0935L25.4489 34.4309C24.8153 35.0646 23.8472 35.2217 23.0457 34.8209L22.7628 34.6795C22.0574 34.3268 21.6119 33.6059 21.6119 32.8173V30.8025C21.6119 30.2503 21.3925 29.7207 21.0021 29.3303L18.509 26.8372C17.8753 26.2035 17.7182 25.2355 18.119 24.4339L18.8359 23.0001L15.8001 19.9644C14.1637 18.3279 13.0794 16.221 12.6989 13.9382L12.3809 12.03Z" fill="#141414"/>
</svg>
