<svg width="139" height="139" viewBox="0 0 139 139" fill="none" xmlns="http://www.w3.org/2000/svg">
<path d="M47.7812 43.4375V35.3768C47.7812 28.8033 52.6752 23.2255 59.2261 22.6818C61.388 22.5023 63.557 22.3476 65.7327 22.2179M91.2188 104.25H104.25C111.447 104.25 117.281 98.4157 117.281 91.2187V35.3768C117.281 28.8033 112.387 23.2255 105.836 22.6818C103.674 22.5023 101.506 22.3476 99.3299 22.2179M91.2188 108.594V97.7344C91.2188 86.9389 82.4673 78.1875 71.6719 78.1875H62.9844C59.3859 78.1875 56.4688 75.2704 56.4688 71.6719V62.9844C56.4688 52.1889 47.7173 43.4375 36.9219 43.4375H30.4062M99.3299 22.2179C97.6895 16.8976 92.7337 13.0312 86.875 13.0312H78.1875C72.3288 13.0312 67.373 16.8976 65.7327 22.2179M99.3299 22.2179C99.7045 23.4332 99.9062 24.7243 99.9062 26.0625V30.4062H65.1562V26.0625C65.1562 24.7243 65.358 23.4332 65.7327 22.2179M39.0938 43.4375H28.2344C24.6359 43.4375 21.7188 46.3546 21.7188 49.9531V119.453C21.7188 123.052 24.6359 125.969 28.2344 125.969H84.7031C88.3016 125.969 91.2188 123.052 91.2188 119.453V95.5625C91.2188 66.7747 67.8816 43.4375 39.0938 43.4375Z" stroke="#979797" stroke-opacity="0.36" stroke-width="8.6875" stroke-linecap="round" stroke-linejoin="round"/>
</svg>
