<svg width="45" height="46" viewBox="0 0 45 46" fill="none" xmlns="http://www.w3.org/2000/svg">
<path d="M33.729 22.8784C33.729 21.3299 32.4738 20.0746 30.9253 20.0746H26.2524C26.2524 22.1392 24.5787 23.8129 22.5141 23.8129C20.4495 23.8129 18.7758 22.1392 18.7758 20.0746H14.1029C12.5544 20.0746 11.2991 21.3299 11.2991 22.8784M33.729 22.8784V30.355C33.729 31.9035 32.4738 33.1587 30.9253 33.1587H14.1029C12.5544 33.1587 11.2991 31.9035 11.2991 30.355V22.8784M33.729 22.8784V19.14M11.2991 22.8784V19.14M33.729 19.14C33.729 17.5916 32.4738 16.3363 30.9253 16.3363H14.1029C12.5544 16.3363 11.2991 17.5916 11.2991 19.14M33.729 19.14V15.4017C33.729 13.8533 32.4738 12.598 30.9253 12.598H14.1029C12.5544 12.598 11.2991 13.8533 11.2991 15.4017V19.14" stroke="white" stroke-width="1.8243" stroke-linecap="round" stroke-linejoin="round"/>
</svg>
