<svg width="61" height="61" viewBox="0 0 61 61" fill="none" xmlns="http://www.w3.org/2000/svg">
<rect width="60.5844" height="60.5844" rx="12.4675" fill="#F2622E"/>
<path fill-rule="evenodd" clip-rule="evenodd" d="M21.8547 19.0422V20.4485H18.1288C16.3297 20.4485 14.8209 21.8068 14.6325 23.5961L12.2641 46.0961C12.0456 48.1718 13.6732 49.9797 15.7604 49.9797H44.8243C46.9115 49.9797 48.5391 48.1718 48.3206 46.0961L45.9522 23.5961C45.7638 21.8068 44.255 20.4485 42.4559 20.4485H38.7297V19.0422C38.7297 14.3823 34.9521 10.6047 30.2922 10.6047C25.6323 10.6047 21.8547 14.3823 21.8547 19.0422ZM30.2922 13.4172C27.1856 13.4172 24.6672 15.9356 24.6672 19.0422V20.4485H35.9172V19.0422C35.9172 15.9356 33.3988 13.4172 30.2922 13.4172ZM24.6672 28.886C24.6672 31.9926 27.1856 34.511 30.2922 34.511C33.3988 34.511 35.9172 31.9926 35.9172 28.886V27.4797C35.9172 26.7031 36.5468 26.0735 37.3235 26.0735C38.1001 26.0735 38.7297 26.7031 38.7297 27.4797V28.886C38.7297 33.5459 34.9521 37.3235 30.2922 37.3235C25.6323 37.3235 21.8547 33.5459 21.8547 28.886V27.4797C21.8547 26.7031 22.4843 26.0735 23.261 26.0735C24.0376 26.0735 24.6672 26.7031 24.6672 27.4797V28.886Z" fill="white"/>
</svg>
