<svg width="37" height="37" viewBox="0 0 37 37" fill="none" xmlns="http://www.w3.org/2000/svg">
<path d="M3.38122 3.38123C2.75876 3.38123 2.25415 3.88583 2.25415 4.50829C2.25415 5.13076 2.75876 5.63536 3.38122 5.63536H5.46357C5.71888 5.63536 5.9423 5.80701 6.00808 6.05369L9.85173 20.4674C7.42631 21.0965 5.63535 23.3004 5.63535 25.9226C5.63535 26.545 6.13996 27.0497 6.76242 27.0497H30.4309C31.0533 27.0497 31.5579 26.545 31.5579 25.9226C31.5579 25.3001 31.0533 24.7955 30.4309 24.7955H8.08189C8.54606 23.4823 9.7985 22.5414 11.2707 22.5414H28.129C28.5601 22.5414 28.9534 22.2955 29.1422 21.908C30.8481 18.4073 32.3368 14.7812 33.5907 11.0472C33.6905 10.7501 33.662 10.4249 33.5122 10.1496C33.3624 9.87437 33.1048 9.67391 32.8012 9.59637C25.5551 7.74586 17.9634 6.76243 10.1436 6.76243C9.60589 6.76243 9.06924 6.76708 8.53369 6.77635L8.1861 5.47288C7.85718 4.23943 6.74011 3.38123 5.46357 3.38123H3.38122Z" fill="#A8F25D"/>
<path d="M5.63535 30.4309C5.63535 29.1859 6.64457 28.1767 7.88949 28.1767C9.13442 28.1767 10.1436 29.1859 10.1436 30.4309C10.1436 31.6758 9.13442 32.685 7.88949 32.685C6.64457 32.685 5.63535 31.6758 5.63535 30.4309Z" fill="#A8F25D"/>
<path d="M24.7955 30.4309C24.7955 29.1859 25.8047 28.1767 27.0496 28.1767C28.2946 28.1767 29.3038 29.1859 29.3038 30.4309C29.3038 31.6758 28.2946 32.685 27.0496 32.685C25.8047 32.685 24.7955 31.6758 24.7955 30.4309Z" fill="#A8F25D"/>
</svg>
