<svg width="53" height="53" viewBox="0 0 53 53" fill="none" xmlns="http://www.w3.org/2000/svg">
<rect width="53" height="53" rx="7.06667" fill="white"/>
<path fill-rule="evenodd" clip-rule="evenodd" d="M15.3284 11.1683V12.5697C13.6367 12.8117 11.9625 13.1086 10.3079 13.4584C9.66455 13.5944 9.24306 14.2137 9.35251 14.862C10.187 19.805 14.3051 23.6308 19.3875 24.0159C20.6718 25.0648 22.1983 25.8308 23.8707 26.2171C23.7091 28.1268 23.0613 29.8963 22.0515 31.4042H20.8452C19.1524 31.4042 17.7801 32.7765 17.7801 34.4693V38.7605H16.5539C14.5225 38.7605 12.8757 40.4073 12.8757 42.4387C12.8757 43.1158 13.4246 43.6647 14.1018 43.6647H38.6229C39.3 43.6647 39.8489 43.1158 39.8489 42.4387C39.8489 40.4073 38.2022 38.7605 36.1708 38.7605H34.9449V34.4693C34.9449 32.7765 33.5726 31.4042 31.8797 31.4042H30.6726C29.6631 29.8965 29.0158 28.127 28.8543 26.2173C30.527 25.8311 32.0538 25.065 33.3383 24.0159C38.4207 23.6308 42.5389 19.805 43.3733 14.862C43.4828 14.2137 43.0613 13.5944 42.418 13.4584C40.7633 13.1086 39.0892 12.8117 37.3974 12.5697V11.1683C37.3974 10.5499 36.9368 10.0282 36.3231 9.95171C33.0597 9.54477 29.7355 9.33521 26.3629 9.33521C22.9903 9.33521 19.6662 9.54477 16.4028 9.95171C15.789 10.0282 15.3284 10.5499 15.3284 11.1683ZM15.3284 15.4655C15.3284 17.4209 15.8376 19.258 16.7298 20.8507C14.5112 19.8575 12.7907 17.9499 12.0489 15.6075C13.1339 15.3972 14.2272 15.2104 15.3284 15.0476V15.4655ZM37.3974 15.4655V15.0476C38.4986 15.2104 39.5919 15.3972 40.6769 15.6075C39.9351 17.9499 38.2146 19.8575 35.996 20.8507C36.8882 19.258 37.3974 17.4209 37.3974 15.4655Z" fill="#F2622E"/>
</svg>
