<svg width="50" height="50" viewBox="0 0 50 50" fill="none" xmlns="http://www.w3.org/2000/svg">
<circle cx="25" cy="25" r="24.5" stroke="#A8F25D"/>
<path d="M33.9375 28.0312V25.0781C33.9375 22.9812 32.2376 21.2812 30.1406 21.2812H28.4531C27.7541 21.2812 27.1875 20.7146 27.1875 20.0156V18.3281C27.1875 16.2312 25.4876 14.5312 23.3906 14.5312H21.2812M28.875 28.0313L25.5 24.6563M25.5 24.6563L22.125 28.0312M25.5 24.6563L25.5 31.4062M23.8125 14.5312H18.3281C17.6291 14.5312 17.0625 15.0979 17.0625 15.7969V35.2031C17.0625 35.9021 17.6291 36.4688 18.3281 36.4688H32.6719C33.3709 36.4688 33.9375 35.9021 33.9375 35.2031V24.6562C33.9375 19.0644 29.4044 14.5312 23.8125 14.5312Z" stroke="#A8F25D" stroke-width="1.6875" stroke-linecap="round" stroke-linejoin="round"/>
</svg>
