<svg width="63" height="63" viewBox="0 0 63 63" fill="none" xmlns="http://www.w3.org/2000/svg">
<rect width="63" height="63" rx="31.5" fill="#A8F25D"/>
<path fill-rule="evenodd" clip-rule="evenodd" d="M23.625 21C23.625 16.6508 27.1508 13.125 31.5 13.125C35.8492 13.125 39.375 16.6508 39.375 21C39.375 25.3492 35.8492 28.875 31.5 28.875C27.1508 28.875 23.625 25.3492 23.625 21Z" fill="black"/>
<path fill-rule="evenodd" clip-rule="evenodd" d="M17.0647 45.6843C17.2 37.8272 23.611 31.5 31.5 31.5C39.3892 31.5 45.8003 37.8275 45.9353 45.6849C45.9443 46.206 45.6441 46.683 45.1704 46.9004C41.0073 48.8106 36.3764 49.875 31.5006 49.875C26.6243 49.875 21.993 48.8104 17.8296 46.8998C17.3559 46.6825 17.0557 46.2054 17.0647 45.6843Z" fill="black"/>
</svg>
