<svg width="639" height="368" viewBox="0 0 639 368" fill="none" xmlns="http://www.w3.org/2000/svg">
<rect x="175" y="197.19" width="309.478" height="81.6559" rx="10.8305" transform="rotate(-3.1841 175 197.19)" fill="#F2622E"/>
<path d="M6.13729 85.4407V51.7939H15.3793V85.4407H6.13729ZM10.8305 34.1763C12.7559 34.1763 14.3685 34.8261 15.6681 36.1258C16.9678 37.3773 17.6176 39.0139 17.6176 41.0356C17.6176 43.0573 16.9678 44.718 15.6681 46.0176C14.3685 47.2692 12.7559 47.8949 10.8305 47.8949C8.85695 47.8949 7.19627 47.2692 5.84847 46.0176C4.54881 44.718 3.89898 43.0573 3.89898 41.0356C3.89898 39.0139 4.54881 37.3773 5.84847 36.1258C7.19627 34.8261 8.85695 34.1763 10.8305 34.1763ZM45.4774 72.0108C39.2198 72.0108 34.2618 70.278 30.6035 66.8122C26.9452 63.2983 25.1161 58.2922 25.1161 51.7939V39.6637C25.1161 33.1654 26.9452 28.1834 30.6035 24.7176C34.2618 21.2037 39.2198 19.4468 45.4774 19.4468C51.6869 19.4468 56.4764 21.1556 59.8459 24.5732C63.2635 27.9427 64.9723 32.5878 64.9723 38.5085V38.9417H55.5859V38.2197C55.5859 35.2353 54.7435 32.7803 53.0588 30.8549C51.4222 28.9295 48.895 27.9668 45.4774 27.9668C42.1079 27.9668 39.4605 29.0017 37.535 31.0715C35.6096 33.1414 34.6469 35.9573 34.6469 39.5193V51.9383C34.6469 55.4522 35.6096 58.2681 37.535 60.3861C39.4605 62.4559 42.1079 63.4908 45.4774 63.4908C48.895 63.4908 51.4222 62.5281 53.0588 60.6027C54.7435 58.6292 55.5859 56.1742 55.5859 53.238V51.9383H64.9723V52.9492C64.9723 58.8698 63.2635 63.539 59.8459 66.9566C56.4764 70.3261 51.6869 72.0108 45.4774 72.0108ZM73.027 71V35.1871H81.9802V39.2305H83.2798C83.8093 37.7864 84.6758 36.7275 85.8792 36.0536C87.1307 35.3797 88.5748 35.0427 90.2114 35.0427H94.5436V43.1295H90.067C87.7564 43.1295 85.8551 43.7553 84.3629 45.0068C82.8707 46.2102 82.1246 48.0875 82.1246 50.6386V71H73.027ZM116.703 72.0108C113.141 72.0108 109.988 71.2647 107.245 69.7725C104.549 68.2322 102.431 66.0902 100.891 63.3464C99.3985 60.5546 98.6524 57.2814 98.6524 53.5268V52.6603C98.6524 48.9058 99.3985 45.6566 100.891 42.9129C102.383 40.121 104.477 37.979 107.172 36.4868C109.868 34.9464 112.997 34.1763 116.559 34.1763C120.073 34.1763 123.129 34.9705 125.729 36.559C128.328 38.0993 130.35 40.2654 131.794 43.0573C133.238 45.801 133.96 49.002 133.96 52.6603V55.7651H107.894C107.991 58.22 108.905 60.2176 110.638 61.758C112.371 63.2983 114.489 64.0685 116.992 64.0685C119.543 64.0685 121.421 63.5149 122.624 62.4078C123.827 61.3007 124.742 60.0732 125.368 58.7254L132.805 62.6244C132.131 63.8759 131.144 65.2478 129.844 66.74C128.593 68.1841 126.908 69.4356 124.79 70.4946C122.672 71.5054 119.976 72.0108 116.703 72.0108ZM107.967 48.978H124.718C124.525 46.9081 123.683 45.2475 122.191 43.9959C120.747 42.7444 118.845 42.1186 116.487 42.1186C114.032 42.1186 112.082 42.7444 110.638 43.9959C109.194 45.2475 108.304 46.9081 107.967 48.978ZM153.177 72.0108C150.625 72.0108 148.339 71.5776 146.317 70.7112C144.296 69.7966 142.683 68.4969 141.48 66.8122C140.324 65.0793 139.747 62.9854 139.747 60.5305C139.747 58.0756 140.324 56.0298 141.48 54.3932C142.683 52.7085 144.32 51.4569 146.39 50.6386C148.508 49.7722 150.914 49.339 153.61 49.339H163.43V47.3173C163.43 45.6325 162.9 44.2607 161.841 43.2017C160.782 42.0946 159.097 41.541 156.787 41.541C154.524 41.541 152.84 42.0705 151.733 43.1295C150.625 44.1403 149.903 45.4641 149.566 47.1007L141.191 44.2847C141.769 42.4556 142.683 40.7949 143.935 39.3027C145.234 37.7624 146.943 36.5349 149.061 35.6203C151.227 34.6576 153.851 34.1763 156.931 34.1763C161.649 34.1763 165.379 35.3556 168.123 37.7142C170.866 40.0729 172.238 43.4905 172.238 47.9671V61.3247C172.238 62.7688 172.912 63.4908 174.26 63.4908H177.148V71H171.083C169.302 71 167.834 70.5668 166.679 69.7003C165.523 68.8339 164.946 67.6786 164.946 66.2346V66.1624H163.574C163.381 66.74 162.948 67.5102 162.274 68.4729C161.6 69.3875 160.541 70.2058 159.097 70.9278C157.653 71.6498 155.68 72.0108 153.177 72.0108ZM154.765 64.6461C157.316 64.6461 159.386 63.9481 160.975 62.5522C162.611 61.1081 163.43 59.2068 163.43 56.8481V56.1261H154.26C152.575 56.1261 151.251 56.4871 150.289 57.2092C149.326 57.9312 148.844 58.942 148.844 60.2417C148.844 61.5414 149.35 62.6003 150.361 63.4186C151.372 64.2369 152.84 64.6461 154.765 64.6461ZM194.91 71C192.551 71 190.626 70.278 189.133 68.8339C187.689 67.3417 186.967 65.3681 186.967 62.9132V42.6963H178.014V35.1871H186.967V24.0678H196.065V35.1871H205.885V42.6963H196.065V61.3247C196.065 62.7688 196.739 63.4908 198.087 63.4908H205.018V71H194.91ZM229.168 72.0108C225.606 72.0108 222.454 71.2647 219.71 69.7725C217.014 68.2322 214.896 66.0902 213.356 63.3464C211.864 60.5546 211.118 57.2814 211.118 53.5268V52.6603C211.118 48.9058 211.864 45.6566 213.356 42.9129C214.848 40.121 216.942 37.979 219.638 36.4868C222.333 34.9464 225.462 34.1763 229.024 34.1763C232.538 34.1763 235.595 34.9705 238.194 36.559C240.793 38.0993 242.815 40.2654 244.259 43.0573C245.703 45.801 246.425 49.002 246.425 52.6603V55.7651H220.36C220.456 58.22 221.371 60.2176 223.103 61.758C224.836 63.2983 226.954 64.0685 229.457 64.0685C232.008 64.0685 233.886 63.5149 235.089 62.4078C236.293 61.3007 237.207 60.0732 237.833 58.7254L245.27 62.6244C244.596 63.8759 243.609 65.2478 242.309 66.74C241.058 68.1841 239.373 69.4356 237.255 70.4946C235.137 71.5054 232.442 72.0108 229.168 72.0108ZM220.432 48.978H237.183C236.991 46.9081 236.148 45.2475 234.656 43.9959C233.212 42.7444 231.311 42.1186 228.952 42.1186C226.497 42.1186 224.547 42.7444 223.103 43.9959C221.659 45.2475 220.769 46.9081 220.432 48.978ZM276.754 85.4407V77.4983H296.249C297.597 77.4983 298.271 76.7763 298.271 75.3322V66.3068H296.971C296.586 67.1251 295.985 67.9434 295.166 68.7617C294.348 69.58 293.241 70.2539 291.845 70.7834C290.449 71.3129 288.668 71.5776 286.502 71.5776C283.71 71.5776 281.255 70.9519 279.137 69.7003C277.067 68.4007 275.455 66.6197 274.3 64.3573C273.144 62.0949 272.567 59.4956 272.567 56.5593V35.1871H281.664V55.8373C281.664 58.5329 282.314 60.5546 283.614 61.9024C284.962 63.2502 286.863 63.9241 289.318 63.9241C292.11 63.9241 294.276 63.0095 295.816 61.1803C297.356 59.3031 298.127 56.7037 298.127 53.3824V35.1871H307.224V77.3539C307.224 79.8088 306.502 81.7583 305.058 83.2024C303.614 84.6946 301.689 85.4407 299.282 85.4407H276.754ZM334.388 72.0108C330.826 72.0108 327.625 71.2888 324.785 69.8447C321.945 68.4007 319.707 66.3068 318.07 63.5631C316.433 60.8193 315.615 57.522 315.615 53.6712V52.5159C315.615 48.6651 316.433 45.3678 318.07 42.6241C319.707 39.8803 321.945 37.7864 324.785 36.3424C327.625 34.8983 330.826 34.1763 334.388 34.1763C337.95 34.1763 341.151 34.8983 343.991 36.3424C346.831 37.7864 349.069 39.8803 350.706 42.6241C352.343 45.3678 353.161 48.6651 353.161 52.5159V53.6712C353.161 57.522 352.343 60.8193 350.706 63.5631C349.069 66.3068 346.831 68.4007 343.991 69.8447C341.151 71.2888 337.95 72.0108 334.388 72.0108ZM334.388 63.9241C337.18 63.9241 339.49 63.0336 341.319 61.2525C343.149 59.4234 344.063 56.8241 344.063 53.4546V52.7325C344.063 49.3631 343.149 46.7878 341.319 45.0068C339.538 43.1776 337.228 42.2631 334.388 42.2631C331.596 42.2631 329.286 43.1776 327.456 45.0068C325.627 46.7878 324.713 49.3631 324.713 52.7325V53.4546C324.713 56.8241 325.627 59.4234 327.456 61.2525C329.286 63.0336 331.596 63.9241 334.388 63.9241ZM375.205 71.5776C372.413 71.5776 369.958 70.9519 367.84 69.7003C365.77 68.4007 364.158 66.6197 363.003 64.3573C361.847 62.0949 361.27 59.4956 361.27 56.5593V35.1871H370.367V55.8373C370.367 58.5329 371.017 60.5546 372.317 61.9024C373.665 63.2502 375.566 63.9241 378.021 63.9241C380.813 63.9241 382.979 63.0095 384.519 61.1803C386.059 59.3031 386.83 56.7037 386.83 53.3824V35.1871H395.927V71H386.974V66.3068H385.674C385.097 67.5102 384.014 68.6895 382.425 69.8447C380.837 71 378.43 71.5776 375.205 71.5776ZM406.051 71V35.1871H415.004V39.2305H416.304C416.833 37.7864 417.7 36.7275 418.903 36.0536C420.155 35.3797 421.599 35.0427 423.235 35.0427H427.568V43.1295H423.091C420.78 43.1295 418.879 43.7553 417.387 45.0068C415.895 46.2102 415.149 48.0875 415.149 50.6386V71H406.051ZM16.1736 164.011C13.6224 164.011 11.3359 163.578 9.31424 162.711C7.29254 161.797 5.68 160.497 4.47661 158.812C3.32136 157.079 2.74373 154.985 2.74373 152.531C2.74373 150.076 3.32136 148.03 4.47661 146.393C5.68 144.708 7.31661 143.457 9.38644 142.639C11.5044 141.772 13.9112 141.339 16.6068 141.339H26.4264V139.317C26.4264 137.633 25.8969 136.261 24.838 135.202C23.779 134.095 22.0942 133.541 19.7837 133.541C17.5214 133.541 15.8366 134.071 14.7295 135.129C13.6224 136.14 12.9003 137.464 12.5634 139.101L4.1878 136.285C4.76542 134.456 5.68 132.795 6.93152 131.303C8.23119 129.762 9.94 128.535 12.058 127.62C14.2241 126.658 16.8475 126.176 19.9281 126.176C24.6454 126.176 28.3759 127.356 31.1197 129.714C33.8634 132.073 35.2353 135.491 35.2353 139.967V153.325C35.2353 154.769 35.9092 155.491 37.2569 155.491H40.1451V163H34.08C32.299 163 30.8308 162.567 29.6756 161.7C28.5203 160.834 27.9427 159.679 27.9427 158.235V158.162H26.5708C26.3783 158.74 25.9451 159.51 25.2712 160.473C24.5973 161.387 23.5383 162.206 22.0942 162.928C20.6502 163.65 18.6766 164.011 16.1736 164.011ZM17.762 156.646C20.3132 156.646 22.3831 155.948 23.9715 154.552C25.6081 153.108 26.4264 151.207 26.4264 148.848V148.126H17.2566C15.5719 148.126 14.2481 148.487 13.2854 149.209C12.3227 149.931 11.8414 150.942 11.8414 152.242C11.8414 153.541 12.3468 154.6 13.3576 155.419C14.3685 156.237 15.8366 156.646 17.762 156.646ZM62.9151 164.011C59.4493 164.011 56.2965 163.289 53.4565 161.845C50.6646 160.401 48.4504 158.307 46.8137 155.563C45.1771 152.819 44.3588 149.498 44.3588 145.599V144.588C44.3588 140.689 45.1771 137.368 46.8137 134.624C48.4504 131.88 50.6646 129.786 53.4565 128.342C56.2965 126.898 59.4493 126.176 62.9151 126.176C66.3327 126.176 69.269 126.778 71.7239 127.981C74.1788 129.185 76.1524 130.845 77.6446 132.963C79.1849 135.033 80.1958 137.392 80.6771 140.039L71.8683 141.917C71.6758 140.473 71.2426 139.173 70.5687 138.018C69.8948 136.862 68.932 135.948 67.6805 135.274C66.4771 134.6 64.9609 134.263 63.1317 134.263C61.3026 134.263 59.6419 134.672 58.1497 135.491C56.7056 136.261 55.5504 137.44 54.6839 139.028C53.8656 140.569 53.4565 142.47 53.4565 144.733V145.455C53.4565 147.717 53.8656 149.642 54.6839 151.231C55.5504 152.771 56.7056 153.951 58.1497 154.769C59.6419 155.539 61.3026 155.924 63.1317 155.924C65.8754 155.924 67.9453 155.226 69.3412 153.83C70.7853 152.386 71.6998 150.509 72.0849 148.198L80.8937 150.292C80.268 152.843 79.1849 155.178 77.6446 157.296C76.1524 159.366 74.1788 161.002 71.7239 162.206C69.269 163.409 66.3327 164.011 62.9151 164.011ZM105.222 164.011C101.756 164.011 98.6031 163.289 95.7631 161.845C92.9713 160.401 90.757 158.307 89.1204 155.563C87.4838 152.819 86.6655 149.498 86.6655 145.599V144.588C86.6655 140.689 87.4838 137.368 89.1204 134.624C90.757 131.88 92.9713 129.786 95.7631 128.342C98.6031 126.898 101.756 126.176 105.222 126.176C108.639 126.176 111.576 126.778 114.031 127.981C116.486 129.185 118.459 130.845 119.951 132.963C121.492 135.033 122.502 137.392 122.984 140.039L114.175 141.917C113.982 140.473 113.549 139.173 112.875 138.018C112.201 136.862 111.239 135.948 109.987 135.274C108.784 134.6 107.268 134.263 105.438 134.263C103.609 134.263 101.949 134.672 100.456 135.491C99.0123 136.261 97.857 137.44 96.9906 139.028C96.1723 140.569 95.7631 142.47 95.7631 144.733V145.455C95.7631 147.717 96.1723 149.642 96.9906 151.231C97.857 152.771 99.0123 153.951 100.456 154.769C101.949 155.539 103.609 155.924 105.438 155.924C108.182 155.924 110.252 155.226 111.648 153.83C113.092 152.386 114.007 150.509 114.392 148.198L123.2 150.292C122.575 152.843 121.492 155.178 119.951 157.296C118.459 159.366 116.486 161.002 114.031 162.206C111.576 163.409 108.639 164.011 105.222 164.011ZM147.745 164.011C144.183 164.011 140.982 163.289 138.142 161.845C135.302 160.401 133.064 158.307 131.427 155.563C129.79 152.819 128.972 149.522 128.972 145.671V144.516C128.972 140.665 129.79 137.368 131.427 134.624C133.064 131.88 135.302 129.786 138.142 128.342C140.982 126.898 144.183 126.176 147.745 126.176C151.307 126.176 154.508 126.898 157.348 128.342C160.188 129.786 162.426 131.88 164.063 134.624C165.7 137.368 166.518 140.665 166.518 144.516V145.671C166.518 149.522 165.7 152.819 164.063 155.563C162.426 158.307 160.188 160.401 157.348 161.845C154.508 163.289 151.307 164.011 147.745 164.011ZM147.745 155.924C150.537 155.924 152.847 155.034 154.677 153.253C156.506 151.423 157.42 148.824 157.42 145.455V144.733C157.42 141.363 156.506 138.788 154.677 137.007C152.896 135.178 150.585 134.263 147.745 134.263C144.953 134.263 142.643 135.178 140.814 137.007C138.984 138.788 138.07 141.363 138.07 144.733V145.455C138.07 148.824 138.984 151.423 140.814 153.253C142.643 155.034 144.953 155.924 147.745 155.924ZM188.562 163.578C185.77 163.578 183.315 162.952 181.197 161.7C179.127 160.401 177.515 158.62 176.36 156.357C175.204 154.095 174.627 151.496 174.627 148.559V127.187H183.724V147.837C183.724 150.533 184.374 152.555 185.674 153.902C187.022 155.25 188.923 155.924 191.378 155.924C194.17 155.924 196.336 155.009 197.876 153.18C199.417 151.303 200.187 148.704 200.187 145.382V127.187H209.284V163H200.331V158.307H199.031C198.454 159.51 197.371 160.689 195.782 161.845C194.194 163 191.787 163.578 188.562 163.578ZM219.408 163V127.187H228.361V131.88H229.661C230.239 130.629 231.322 129.449 232.91 128.342C234.499 127.187 236.905 126.609 240.13 126.609C242.922 126.609 245.353 127.259 247.423 128.559C249.541 129.811 251.178 131.567 252.333 133.83C253.488 136.044 254.066 138.643 254.066 141.628V163H244.968V142.35C244.968 139.654 244.294 137.633 242.946 136.285C241.647 134.937 239.769 134.263 237.314 134.263C234.523 134.263 232.357 135.202 230.816 137.079C229.276 138.908 228.506 141.483 228.506 144.805V163H219.408ZM276.632 163C274.273 163 272.348 162.278 270.856 160.834C269.412 159.342 268.69 157.368 268.69 154.913V134.696H259.736V127.187H268.69V116.068H277.787V127.187H287.607V134.696H277.787V153.325C277.787 154.769 278.461 155.491 279.809 155.491H286.741V163H276.632ZM325.294 164.011C322.743 164.011 320.457 163.578 318.435 162.711C316.413 161.797 314.801 160.497 313.597 158.812C312.442 157.079 311.864 154.985 311.864 152.531C311.864 150.076 312.442 148.03 313.597 146.393C314.801 144.708 316.437 143.457 318.507 142.639C320.625 141.772 323.032 141.339 325.728 141.339H335.547V139.317C335.547 137.633 335.018 136.261 333.959 135.202C332.9 134.095 331.215 133.541 328.904 133.541C326.642 133.541 324.957 134.071 323.85 135.129C322.743 136.14 322.021 137.464 321.684 139.101L313.309 136.285C313.886 134.456 314.801 132.795 316.052 131.303C317.352 129.762 319.061 128.535 321.179 127.62C323.345 126.658 325.968 126.176 329.049 126.176C333.766 126.176 337.497 127.356 340.24 129.714C342.984 132.073 344.356 135.491 344.356 139.967V153.325C344.356 154.769 345.03 155.491 346.378 155.491H349.266V163H343.201C341.42 163 339.952 162.567 338.796 161.7C337.641 160.834 337.063 159.679 337.063 158.235V158.162H335.692C335.499 158.74 335.066 159.51 334.392 160.473C333.718 161.387 332.659 162.206 331.215 162.928C329.771 163.65 327.797 164.011 325.294 164.011ZM326.883 156.646C329.434 156.646 331.504 155.948 333.092 154.552C334.729 153.108 335.547 151.207 335.547 148.848V148.126H326.377C324.693 148.126 323.369 148.487 322.406 149.209C321.443 149.931 320.962 150.942 320.962 152.242C320.962 153.541 321.468 154.6 322.478 155.419C323.489 156.237 324.957 156.646 326.883 156.646ZM355.918 163V127.187H364.871V131.88H366.17C366.748 130.629 367.831 129.449 369.42 128.342C371.008 127.187 373.415 126.609 376.64 126.609C379.432 126.609 381.863 127.259 383.932 128.559C386.05 129.811 387.687 131.567 388.842 133.83C389.998 136.044 390.575 138.643 390.575 141.628V163H381.478V142.35C381.478 139.654 380.804 137.633 379.456 136.285C378.156 134.937 376.279 134.263 373.824 134.263C371.032 134.263 368.866 135.202 367.326 137.079C365.785 138.908 365.015 141.483 365.015 144.805V163H355.918ZM414.851 164.011C412.011 164.011 409.339 163.313 406.836 161.917C404.381 160.473 402.408 158.379 400.915 155.635C399.423 152.892 398.677 149.57 398.677 145.671V144.516C398.677 140.617 399.423 137.296 400.915 134.552C402.408 131.808 404.381 129.738 406.836 128.342C409.291 126.898 411.963 126.176 414.851 126.176C417.017 126.176 418.822 126.441 420.266 126.971C421.758 127.452 422.962 128.078 423.876 128.848C424.791 129.618 425.489 130.436 425.97 131.303H427.27V112.458H436.367V163H427.414V158.668H426.114C425.296 160.016 424.021 161.243 422.288 162.35C420.603 163.457 418.124 164.011 414.851 164.011ZM417.594 156.068C420.386 156.068 422.721 155.178 424.598 153.397C426.475 151.568 427.414 148.92 427.414 145.455V144.733C427.414 141.267 426.475 138.643 424.598 136.862C422.769 135.033 420.434 134.119 417.594 134.119C414.803 134.119 412.468 135.033 410.591 136.862C408.713 138.643 407.775 141.267 407.775 144.733V145.455C407.775 148.92 408.713 151.568 410.591 153.397C412.468 155.178 414.803 156.068 417.594 156.068ZM463.054 145.238V144.083C463.054 140.328 463.8 137.127 465.292 134.48C466.784 131.784 468.758 129.738 471.213 128.342C473.716 126.898 476.436 126.176 479.372 126.176C482.645 126.176 485.124 126.754 486.809 127.909C488.493 129.064 489.721 130.268 490.491 131.519H491.791V127.187H500.744V169.354C500.744 171.809 500.022 173.758 498.578 175.202C497.134 176.695 495.208 177.441 492.802 177.441H468.83V169.498H489.625C490.972 169.498 491.646 168.776 491.646 167.332V158.018H490.347C489.865 158.788 489.191 159.582 488.325 160.401C487.459 161.171 486.303 161.821 484.859 162.35C483.415 162.88 481.586 163.144 479.372 163.144C476.436 163.144 473.716 162.446 471.213 161.051C468.758 159.606 466.784 157.561 465.292 154.913C463.8 152.218 463.054 148.993 463.054 145.238ZM481.971 155.202C484.763 155.202 487.098 154.312 488.975 152.531C490.852 150.749 491.791 148.246 491.791 145.021V144.299C491.791 141.026 490.852 138.523 488.975 136.79C487.146 135.009 484.811 134.119 481.971 134.119C479.179 134.119 476.845 135.009 474.967 136.79C473.09 138.523 472.151 141.026 472.151 144.299V145.021C472.151 148.246 473.09 150.749 474.967 152.531C476.845 154.312 479.179 155.202 481.971 155.202ZM527.148 164.011C523.586 164.011 520.434 163.265 517.69 161.773C514.994 160.232 512.876 158.09 511.336 155.346C509.844 152.555 509.098 149.281 509.098 145.527V144.66C509.098 140.906 509.844 137.657 511.336 134.913C512.828 132.121 514.922 129.979 517.618 128.487C520.313 126.946 523.442 126.176 527.004 126.176C530.518 126.176 533.575 126.971 536.174 128.559C538.773 130.099 540.795 132.265 542.239 135.057C543.683 137.801 544.405 141.002 544.405 144.66V147.765H518.34C518.436 150.22 519.35 152.218 521.083 153.758C522.816 155.298 524.934 156.068 527.437 156.068C529.988 156.068 531.866 155.515 533.069 154.408C534.273 153.301 535.187 152.073 535.813 150.725L543.25 154.624C542.576 155.876 541.589 157.248 540.289 158.74C539.038 160.184 537.353 161.436 535.235 162.495C533.117 163.505 530.422 164.011 527.148 164.011ZM518.412 140.978H535.163C534.97 138.908 534.128 137.247 532.636 135.996C531.192 134.744 529.29 134.119 526.932 134.119C524.477 134.119 522.527 134.744 521.083 135.996C519.639 137.247 518.749 138.908 518.412 140.978ZM565.093 163C562.734 163 560.809 162.278 559.317 160.834C557.873 159.342 557.151 157.368 557.151 154.913V134.696H548.197V127.187H557.151V116.068H566.248V127.187H576.068V134.696H566.248V153.325C566.248 154.769 566.922 155.491 568.27 155.491H575.201V163H565.093ZM8.95322 269.441V261.498H28.4481C29.7959 261.498 30.4698 260.776 30.4698 259.332V250.307H29.1702C28.7851 251.125 28.1834 251.943 27.3651 252.762C26.5468 253.58 25.4397 254.254 24.0437 254.783C22.6478 255.313 20.8668 255.578 18.7007 255.578C15.9088 255.578 13.4539 254.952 11.3359 253.7C9.2661 252.401 7.65356 250.62 6.4983 248.357C5.34305 246.095 4.76542 243.496 4.76542 240.559V219.187H13.863V239.837C13.863 242.533 14.5129 244.555 15.8125 245.902C17.1603 247.25 19.0617 247.924 21.5166 247.924C24.3085 247.924 26.4746 247.009 28.0149 245.18C29.5553 243.303 30.3254 240.704 30.3254 237.382V219.187H39.423V261.354C39.423 263.809 38.701 265.758 37.2569 267.202C35.8129 268.695 33.8875 269.441 31.4807 269.441H8.95322ZM66.5868 256.011C63.0247 256.011 59.8237 255.289 56.9837 253.845C54.1437 252.401 51.9054 250.307 50.2688 247.563C48.6322 244.819 47.8139 241.522 47.8139 237.671V236.516C47.8139 232.665 48.6322 229.368 50.2688 226.624C51.9054 223.88 54.1437 221.786 56.9837 220.342C59.8237 218.898 63.0247 218.176 66.5868 218.176C70.1488 218.176 73.3498 218.898 76.1898 220.342C79.0298 221.786 81.2681 223.88 82.9047 226.624C84.5413 229.368 85.3596 232.665 85.3596 236.516V237.671C85.3596 241.522 84.5413 244.819 82.9047 247.563C81.2681 250.307 79.0298 252.401 76.1898 253.845C73.3498 255.289 70.1488 256.011 66.5868 256.011ZM66.5868 247.924C69.3786 247.924 71.6891 247.034 73.5183 245.253C75.3474 243.423 76.262 240.824 76.262 237.455V236.733C76.262 233.363 75.3474 230.788 73.5183 229.007C71.7373 227.178 69.4268 226.263 66.5868 226.263C63.7949 226.263 61.4844 227.178 59.6552 229.007C57.8261 230.788 56.9115 233.363 56.9115 236.733V237.455C56.9115 240.824 57.8261 243.423 59.6552 245.253C61.4844 247.034 63.7949 247.924 66.5868 247.924ZM107.404 255.578C104.612 255.578 102.157 254.952 100.039 253.7C97.9691 252.401 96.3565 250.62 95.2013 248.357C94.046 246.095 93.4684 243.496 93.4684 240.559V219.187H102.566V239.837C102.566 242.533 103.216 244.555 104.516 245.902C105.863 247.25 107.765 247.924 110.22 247.924C113.011 247.924 115.178 247.009 116.718 245.18C118.258 243.303 119.028 240.704 119.028 237.382V219.187H128.126V255H119.173V250.307H117.873C117.296 251.51 116.212 252.689 114.624 253.845C113.036 255 110.629 255.578 107.404 255.578ZM138.25 255V219.187H147.203V223.231H148.503C149.032 221.786 149.899 220.727 151.102 220.054C152.353 219.38 153.798 219.043 155.434 219.043H159.766V227.129H155.29C152.979 227.129 151.078 227.755 149.586 229.007C148.093 230.21 147.347 232.087 147.347 234.639V255H138.25ZM191.131 255V226.696H182.033V219.187H191.131V212.544C191.131 210.089 191.853 208.14 193.297 206.696C194.789 205.204 196.715 204.458 199.073 204.458H207.738V211.967H202.25C200.902 211.967 200.228 212.689 200.228 214.133V219.187H214.669V226.696H200.228V255H191.131ZM214.669 255V219.187H223.767V255H214.669ZM219.218 215.288C217.581 215.288 216.185 214.759 215.03 213.7C213.923 212.641 213.369 211.245 213.369 209.512C213.369 207.779 213.923 206.383 215.03 205.324C216.185 204.265 217.581 203.736 219.218 203.736C220.903 203.736 222.299 204.265 223.406 205.324C224.513 206.383 225.066 207.779 225.066 209.512C225.066 211.245 224.513 212.641 223.406 213.7C222.299 214.759 220.903 215.288 219.218 215.288ZM233.863 255V219.187H242.816V223.88H244.116C244.693 222.629 245.776 221.449 247.365 220.342C248.953 219.187 251.36 218.609 254.585 218.609C257.377 218.609 259.808 219.259 261.878 220.559C263.996 221.811 265.632 223.567 266.788 225.83C267.943 228.044 268.52 230.643 268.52 233.628V255H259.423V234.35C259.423 231.654 258.749 229.633 257.401 228.285C256.101 226.937 254.224 226.263 251.769 226.263C248.977 226.263 246.811 227.202 245.271 229.079C243.731 230.908 242.96 233.483 242.96 236.805V255H233.863ZM289.475 256.011C286.923 256.011 284.637 255.578 282.615 254.711C280.594 253.797 278.981 252.497 277.778 250.812C276.622 249.079 276.045 246.985 276.045 244.531C276.045 242.076 276.622 240.03 277.778 238.393C278.981 236.708 280.618 235.457 282.688 234.639C284.805 233.772 287.212 233.339 289.908 233.339H299.728V231.317C299.728 229.633 299.198 228.261 298.139 227.202C297.08 226.095 295.395 225.541 293.085 225.541C290.822 225.541 289.138 226.071 288.031 227.129C286.923 228.14 286.201 229.464 285.864 231.101L277.489 228.285C278.067 226.456 278.981 224.795 280.233 223.303C281.532 221.762 283.241 220.535 285.359 219.62C287.525 218.658 290.149 218.176 293.229 218.176C297.947 218.176 301.677 219.356 304.421 221.714C307.164 224.073 308.536 227.491 308.536 231.967V245.325C308.536 246.769 309.21 247.491 310.558 247.491H313.446V255H307.381C305.6 255 304.132 254.567 302.977 253.7C301.821 252.834 301.244 251.679 301.244 250.235V250.162H299.872C299.679 250.74 299.246 251.51 298.572 252.473C297.898 253.387 296.839 254.206 295.395 254.928C293.951 255.65 291.978 256.011 289.475 256.011ZM291.063 248.646C293.614 248.646 295.684 247.948 297.273 246.552C298.909 245.108 299.728 243.207 299.728 240.848V240.126H290.558C288.873 240.126 287.549 240.487 286.587 241.209C285.624 241.931 285.142 242.942 285.142 244.242C285.142 245.541 285.648 246.6 286.659 247.419C287.67 248.237 289.138 248.646 291.063 248.646ZM320.098 255V219.187H329.051V223.88H330.351C330.928 222.629 332.011 221.449 333.6 220.342C335.188 219.187 337.595 218.609 340.82 218.609C343.612 218.609 346.043 219.259 348.113 220.559C350.231 221.811 351.867 223.567 353.023 225.83C354.178 228.044 354.756 230.643 354.756 233.628V255H345.658V234.35C345.658 231.654 344.984 229.633 343.636 228.285C342.337 226.937 340.459 226.263 338.004 226.263C335.212 226.263 333.046 227.202 331.506 229.079C329.966 230.908 329.196 233.483 329.196 236.805V255H320.098ZM381.414 256.011C377.948 256.011 374.795 255.289 371.955 253.845C369.163 252.401 366.949 250.307 365.312 247.563C363.676 244.819 362.858 241.498 362.858 237.599V236.588C362.858 232.689 363.676 229.368 365.312 226.624C366.949 223.88 369.163 221.786 371.955 220.342C374.795 218.898 377.948 218.176 381.414 218.176C384.831 218.176 387.768 218.778 390.223 219.981C392.678 221.185 394.651 222.845 396.143 224.963C397.684 227.033 398.694 229.392 399.176 232.039L390.367 233.917C390.174 232.473 389.741 231.173 389.067 230.018C388.393 228.862 387.431 227.948 386.179 227.274C384.976 226.6 383.46 226.263 381.63 226.263C379.801 226.263 378.141 226.672 376.648 227.491C375.204 228.261 374.049 229.44 373.183 231.028C372.364 232.569 371.955 234.47 371.955 236.733V237.455C371.955 239.717 372.364 241.642 373.183 243.231C374.049 244.771 375.204 245.951 376.648 246.769C378.141 247.539 379.801 247.924 381.63 247.924C384.374 247.924 386.444 247.226 387.84 245.83C389.284 244.386 390.199 242.509 390.584 240.198L399.392 242.292C398.767 244.843 397.684 247.178 396.143 249.296C394.651 251.366 392.678 253.002 390.223 254.206C387.768 255.409 384.831 256.011 381.414 256.011ZM423.215 256.011C419.653 256.011 416.5 255.265 413.756 253.773C411.061 252.232 408.943 250.09 407.403 247.346C405.91 244.555 405.164 241.281 405.164 237.527V236.66C405.164 232.906 405.91 229.657 407.403 226.913C408.895 224.121 410.989 221.979 413.684 220.487C416.38 218.946 419.509 218.176 423.071 218.176C426.585 218.176 429.641 218.971 432.24 220.559C434.84 222.099 436.862 224.265 438.306 227.057C439.75 229.801 440.472 233.002 440.472 236.66V239.765H414.406C414.503 242.22 415.417 244.218 417.15 245.758C418.883 247.298 421.001 248.068 423.504 248.068C426.055 248.068 427.932 247.515 429.136 246.408C430.339 245.301 431.254 244.073 431.879 242.725L439.316 246.624C438.643 247.876 437.656 249.248 436.356 250.74C435.105 252.184 433.42 253.436 431.302 254.495C429.184 255.505 426.488 256.011 423.215 256.011ZM414.478 232.978H431.23C431.037 230.908 430.195 229.247 428.703 227.996C427.258 226.744 425.357 226.119 422.998 226.119C420.544 226.119 418.594 226.744 417.15 227.996C415.706 229.247 414.815 230.908 414.478 232.978ZM463.443 256.011C458.774 256.011 454.947 255 451.963 252.978C448.978 250.957 447.173 248.068 446.547 244.314L454.923 242.148C455.26 243.833 455.814 245.156 456.584 246.119C457.402 247.082 458.389 247.78 459.544 248.213C460.747 248.598 462.047 248.791 463.443 248.791C465.561 248.791 467.125 248.429 468.136 247.707C469.147 246.937 469.653 245.999 469.653 244.892C469.653 243.784 469.171 242.942 468.208 242.364C467.246 241.739 465.705 241.233 463.587 240.848L461.566 240.487C459.063 240.006 456.776 239.356 454.706 238.538C452.637 237.671 450.976 236.492 449.724 235C448.473 233.507 447.847 231.582 447.847 229.223C447.847 225.661 449.147 222.942 451.746 221.064C454.345 219.139 457.763 218.176 461.999 218.176C465.994 218.176 469.316 219.067 471.963 220.848C474.611 222.629 476.343 224.963 477.162 227.852L468.714 230.451C468.329 228.622 467.535 227.322 466.331 226.552C465.176 225.782 463.732 225.397 461.999 225.397C460.266 225.397 458.942 225.709 458.028 226.335C457.113 226.913 456.656 227.731 456.656 228.79C456.656 229.945 457.137 230.812 458.1 231.389C459.063 231.919 460.362 232.328 461.999 232.617L464.021 232.978C466.716 233.459 469.147 234.109 471.313 234.927C473.527 235.698 475.26 236.829 476.512 238.321C477.812 239.765 478.461 241.739 478.461 244.242C478.461 247.996 477.089 250.908 474.346 252.978C471.65 255 468.016 256.011 463.443 256.011ZM521.807 256.011C518.244 256.011 515.043 255.289 512.203 253.845C509.363 252.401 507.125 250.307 505.489 247.563C503.852 244.819 503.034 241.522 503.034 237.671V236.516C503.034 232.665 503.852 229.368 505.489 226.624C507.125 223.88 509.363 221.786 512.203 220.342C515.043 218.898 518.244 218.176 521.807 218.176C525.369 218.176 528.57 218.898 531.41 220.342C534.25 221.786 536.488 223.88 538.124 226.624C539.761 229.368 540.579 232.665 540.579 236.516V237.671C540.579 241.522 539.761 244.819 538.124 247.563C536.488 250.307 534.25 252.401 531.41 253.845C528.57 255.289 525.369 256.011 521.807 256.011ZM521.807 247.924C524.598 247.924 526.909 247.034 528.738 245.253C530.567 243.423 531.482 240.824 531.482 237.455V236.733C531.482 233.363 530.567 230.788 528.738 229.007C526.957 227.178 524.647 226.263 521.807 226.263C519.015 226.263 516.704 227.178 514.875 229.007C513.046 230.788 512.131 233.363 512.131 236.733V237.455C512.131 240.824 513.046 243.423 514.875 245.253C516.704 247.034 519.015 247.924 521.807 247.924ZM548.977 255V219.187H557.93V223.88H559.23C559.808 222.629 560.891 221.449 562.479 220.342C564.068 219.187 566.474 218.609 569.699 218.609C572.491 218.609 574.922 219.259 576.992 220.559C579.11 221.811 580.747 223.567 581.902 225.83C583.057 228.044 583.635 230.643 583.635 233.628V255H574.537V234.35C574.537 231.654 573.863 229.633 572.515 228.285C571.216 226.937 569.338 226.263 566.883 226.263C564.092 226.263 561.926 227.202 560.385 229.079C558.845 230.908 558.075 233.483 558.075 236.805V255H548.977ZM18.7729 347C16.4142 347 14.4888 346.278 12.9966 344.834C11.5525 343.342 10.8305 341.368 10.8305 338.913V318.696H1.87729V311.187H10.8305V300.068H19.9281V311.187H29.7478V318.696H19.9281V337.325C19.9281 338.769 20.602 339.491 21.9498 339.491H28.8814V347H18.7729ZM37.9829 347V311.187H46.9361V315.231H48.2358C48.7653 313.786 49.6317 312.727 50.8351 312.054C52.0867 311.38 53.5307 311.043 55.1673 311.043H59.4995V319.129H55.0229C52.7124 319.129 50.8111 319.755 49.3189 321.007C47.8267 322.21 47.0806 324.087 47.0806 326.639V347H37.9829ZM76.8836 348.011C74.3324 348.011 72.046 347.578 70.0243 346.711C68.0026 345.797 66.3901 344.497 65.1867 342.812C64.0314 341.079 63.4538 338.985 63.4538 336.531C63.4538 334.076 64.0314 332.03 65.1867 330.393C66.3901 328.708 68.0267 327.457 70.0965 326.639C72.2145 325.772 74.6213 325.339 77.3169 325.339H87.1365V323.317C87.1365 321.633 86.607 320.261 85.548 319.202C84.4891 318.095 82.8043 317.541 80.4938 317.541C78.2314 317.541 76.5467 318.071 75.4396 319.129C74.3324 320.14 73.6104 321.464 73.2735 323.101L64.8979 320.285C65.4755 318.456 66.3901 316.795 67.6416 315.303C68.9413 313.762 70.6501 312.535 72.768 311.62C74.9341 310.658 77.5575 310.176 80.6382 310.176C85.3555 310.176 89.086 311.356 91.8297 313.714C94.5735 316.073 95.9453 319.491 95.9453 323.967V337.325C95.9453 338.769 96.6192 339.491 97.967 339.491H100.855V347H94.7901C93.0091 347 91.5409 346.567 90.3857 345.7C89.2304 344.834 88.6528 343.679 88.6528 342.235V342.162H87.2809C87.0884 342.74 86.6552 343.51 85.9813 344.473C85.3074 345.387 84.2484 346.206 82.8043 346.928C81.3602 347.65 79.3867 348.011 76.8836 348.011ZM78.4721 340.646C81.0233 340.646 83.0931 339.948 84.6816 338.552C86.3182 337.108 87.1365 335.207 87.1365 332.848V332.126H77.9667C76.2819 332.126 74.9582 332.487 73.9955 333.209C73.0328 333.931 72.5514 334.942 72.5514 336.242C72.5514 337.541 73.0569 338.6 74.0677 339.419C75.0785 340.237 76.5467 340.646 78.4721 340.646ZM123.625 348.011C120.159 348.011 117.007 347.289 114.167 345.845C111.375 344.401 109.16 342.307 107.524 339.563C105.887 336.819 105.069 333.498 105.069 329.599V328.588C105.069 324.689 105.887 321.368 107.524 318.624C109.16 315.88 111.375 313.786 114.167 312.342C117.007 310.898 120.159 310.176 123.625 310.176C127.043 310.176 129.979 310.778 132.434 311.981C134.889 313.185 136.862 314.845 138.355 316.963C139.895 319.033 140.906 321.392 141.387 324.039L132.578 325.917C132.386 324.473 131.953 323.173 131.279 322.018C130.605 320.862 129.642 319.948 128.391 319.274C127.187 318.6 125.671 318.263 123.842 318.263C122.013 318.263 120.352 318.672 118.86 319.491C117.416 320.261 116.26 321.44 115.394 323.028C114.576 324.569 114.167 326.47 114.167 328.733V329.455C114.167 331.717 114.576 333.642 115.394 335.231C116.26 336.771 117.416 337.951 118.86 338.769C120.352 339.539 122.013 339.924 123.842 339.924C126.586 339.924 128.655 339.226 130.051 337.83C131.495 336.386 132.41 334.509 132.795 332.198L141.604 334.292C140.978 336.843 139.895 339.178 138.355 341.296C136.862 343.366 134.889 345.002 132.434 346.206C129.979 347.409 127.043 348.011 123.625 348.011ZM149.108 347V296.458H158.206V324.4H159.506L171.347 311.187H183.188L166.654 328.516L183.766 347H172.069L159.506 332.776H158.206V347H149.108ZM190.947 330.393V296.458H200.189V330.393H190.947ZM195.64 348.011C193.667 348.011 192.006 347.385 190.658 346.134C189.358 344.834 188.709 343.173 188.709 341.152C188.709 339.13 189.358 337.493 190.658 336.242C192.006 334.942 193.667 334.292 195.64 334.292C197.566 334.292 199.178 334.942 200.478 336.242C201.777 337.493 202.427 339.13 202.427 341.152C202.427 343.173 201.777 344.834 200.478 346.134C199.178 347.385 197.566 348.011 195.64 348.011Z" fill="#F9F9F9"/>
<line y1="356.646" x2="203" y2="356.646" stroke="#CCFC56" stroke-width="2.70763"/>
</svg>
