<svg xmlns="http://www.w3.org/2000/svg" width="394" height="228" fill="none"><rect width="190.435" height="46.075" x="183.829" y="67.94" fill="#F2622E" rx="6.664" transform="rotate(-3.184 183.829 67.94)"/><path fill="#F9F9F9" d="M3.777 52.886V32.182h5.687v20.704H3.777ZM6.62 21.341c1.214 0 2.222.4 3.021 1.2.8.77 1.2 1.776 1.2 3.02 0 1.245-.4 2.267-1.2 3.066-.8.77-1.807 1.155-3.02 1.155-1.186 0-2.193-.385-3.022-1.155-.8-.8-1.2-1.821-1.2-3.066 0-1.244.4-2.25 1.2-3.02.83-.8 1.836-1.2 3.021-1.2Zm21.364 23.281c-3.85 0-6.901-1.066-9.152-3.199-2.251-2.162-3.377-5.243-3.377-9.241v-7.465c0-3.998 1.126-7.064 3.377-9.197 2.25-2.162 5.302-3.243 9.152-3.243 3.821 0 6.768 1.052 8.842 3.155 2.103 2.073 3.154 4.931 3.154 8.574v.267h-5.775v-.444c0-1.837-.519-3.347-1.555-4.532-1.008-1.185-2.563-1.777-4.666-1.777-2.073 0-3.702.637-4.887 1.91-1.185 1.274-1.777 3.007-1.777 5.198v7.642c0 2.163.592 3.895 1.777 5.199 1.185 1.273 2.814 1.91 4.887 1.91 2.103 0 3.658-.592 4.666-1.777 1.036-1.214 1.555-2.725 1.555-4.532v-.8h5.775v.622c0 3.644-1.051 6.517-3.154 8.62-2.074 2.073-5.02 3.11-8.842 3.11ZM44.937 44V21.963h5.51v2.488h.799c.326-.889.859-1.54 1.6-1.955.77-.415 1.658-.622 2.665-.622h2.666v4.976h-2.755c-1.421 0-2.591.385-3.51 1.155-.918.74-1.377 1.896-1.377 3.466V44h-5.598Zm26.876.622c-2.192 0-4.132-.46-5.82-1.377a10.237 10.237 0 0 1-3.91-3.955c-.919-1.718-1.378-3.732-1.378-6.042v-.533c0-2.31.46-4.31 1.378-5.998.918-1.718 2.206-3.036 3.865-3.954 1.659-.948 3.584-1.422 5.776-1.422 2.162 0 4.043.488 5.642 1.466 1.6.948 2.844 2.28 3.733 3.999.888 1.688 1.332 3.658 1.332 5.909v1.91H66.392c.06 1.51.622 2.74 1.689 3.688 1.066.948 2.37 1.422 3.91 1.422 1.57 0 2.725-.34 3.465-1.022.74-.681 1.303-1.437 1.688-2.266l4.577 2.4c-.415.77-1.022 1.613-1.822 2.532-.77.888-1.807 1.658-3.11 2.31-1.303.622-2.962.933-4.976.933Zm-5.376-14.173h10.308c-.119-1.274-.637-2.296-1.556-3.066-.888-.77-2.058-1.155-3.51-1.155-1.51 0-2.71.385-3.598 1.155-.889.77-1.437 1.792-1.644 3.066Zm27.82 14.173c-1.57 0-2.977-.267-4.221-.8-1.244-.563-2.237-1.362-2.977-2.399-.711-1.066-1.066-2.355-1.066-3.865 0-1.511.355-2.77 1.066-3.777.74-1.037 1.747-1.807 3.021-2.31 1.303-.533 2.784-.8 4.443-.8h6.043v-1.244c0-1.037-.326-1.88-.978-2.533-.651-.68-1.688-1.021-3.11-1.021-1.392 0-2.429.325-3.11.977-.681.622-1.126 1.437-1.333 2.444l-5.154-1.733a8.901 8.901 0 0 1 1.689-3.066c.8-.948 1.85-1.703 3.154-2.266 1.333-.592 2.947-.888 4.843-.888 2.903 0 5.198.725 6.887 2.177 1.688 1.451 2.532 3.554 2.532 6.309v8.22c0 .888.415 1.332 1.244 1.332h1.777V44h-3.732c-1.096 0-1.999-.267-2.71-.8-.711-.533-1.066-1.244-1.066-2.132v-.045h-.845c-.118.356-.385.83-.8 1.422-.414.563-1.066 1.066-1.954 1.51-.889.445-2.103.667-3.644.667Zm.977-4.532c1.57 0 2.844-.43 3.821-1.288 1.007-.889 1.511-2.059 1.511-3.51v-.445h-5.643c-1.037 0-1.851.223-2.444.667-.592.444-.888 1.066-.888 1.866s.31 1.451.933 1.955c.622.503 1.525.755 2.71.755ZM119.937 44c-1.452 0-2.636-.444-3.555-1.333-.888-.918-1.333-2.133-1.333-3.643v-12.44h-5.509v-4.621h5.509V15.12h5.599v6.843h6.042v4.62h-6.042v11.463c0 .889.414 1.333 1.244 1.333h4.265V44h-6.22Zm21.081.622c-2.192 0-4.132-.46-5.821-1.377a10.234 10.234 0 0 1-3.909-3.955c-.919-1.718-1.378-3.732-1.378-6.042v-.533c0-2.31.459-4.31 1.378-5.998.918-1.718 2.206-3.036 3.865-3.954 1.659-.948 3.584-1.422 5.776-1.422 2.162 0 4.043.488 5.642 1.466 1.6.948 2.844 2.28 3.733 3.999.888 1.688 1.332 3.658 1.332 5.909v1.91h-16.039c.059 1.51.622 2.74 1.689 3.688 1.066.948 2.369 1.422 3.909 1.422 1.57 0 2.725-.34 3.466-1.022.74-.681 1.303-1.437 1.688-2.266l4.577 2.4c-.415.77-1.022 1.613-1.822 2.532-.77.888-1.807 1.658-3.11 2.31-1.303.622-2.962.933-4.976.933Zm-5.376-14.173h10.307c-.118-1.274-.636-2.296-1.555-3.066-.888-.77-2.058-1.155-3.51-1.155-1.51 0-2.71.385-3.598 1.155-.889.77-1.437 1.792-1.644 3.066Zm34.657 22.437v-4.887h11.997c.829 0 1.244-.445 1.244-1.333v-5.554h-.8c-.237.504-.607 1.007-1.111 1.51-.503.504-1.185.919-2.044 1.245-.859.326-1.955.488-3.287.488-1.718 0-3.229-.385-4.532-1.155-1.274-.8-2.266-1.895-2.977-3.288-.711-1.392-1.066-2.991-1.066-4.798V21.963h5.598V34.67c0 1.658.4 2.902 1.199 3.732.83.83 2 1.244 3.51 1.244 1.718 0 3.051-.563 3.999-1.688.948-1.156 1.422-2.755 1.422-4.799V21.963h5.598V47.91c0 1.51-.444 2.71-1.333 3.599-.889.918-2.073 1.377-3.554 1.377h-13.863Zm35.465-8.264c-2.192 0-4.162-.444-5.909-1.333a9.993 9.993 0 0 1-4.132-3.865c-1.007-1.689-1.511-3.718-1.511-6.087v-.711c0-2.37.504-4.399 1.511-6.087a9.993 9.993 0 0 1 4.132-3.865c1.747-.889 3.717-1.333 5.909-1.333 2.192 0 4.162.444 5.909 1.333a9.993 9.993 0 0 1 4.132 3.865c1.007 1.688 1.511 3.717 1.511 6.087v.71c0 2.37-.504 4.4-1.511 6.088a9.993 9.993 0 0 1-4.132 3.865c-1.747.889-3.717 1.333-5.909 1.333Zm0-4.976c1.718 0 3.14-.548 4.265-1.644 1.126-1.126 1.689-2.725 1.689-4.799v-.444c0-2.073-.563-3.658-1.689-4.754-1.096-1.125-2.517-1.688-4.265-1.688-1.718 0-3.14.563-4.265 1.688-1.126 1.096-1.689 2.68-1.689 4.754v.444c0 2.074.563 3.673 1.689 4.799 1.125 1.096 2.547 1.644 4.265 1.644Zm25.116 4.71c-1.717 0-3.228-.386-4.531-1.156-1.274-.8-2.266-1.895-2.977-3.288-.711-1.392-1.066-2.991-1.066-4.798V21.963h5.598V34.67c0 1.658.4 2.902 1.199 3.732.83.83 2 1.244 3.51 1.244 1.718 0 3.051-.563 3.999-1.688.948-1.156 1.422-2.755 1.422-4.799V21.963h5.598V44h-5.509v-2.888h-.8c-.356.74-1.022 1.466-2 2.177-.977.711-2.458 1.066-4.443 1.066ZM249.861 44V21.963h5.51v2.488h.8c.325-.889.859-1.54 1.599-1.955.77-.415 1.659-.622 2.666-.622h2.666v4.976h-2.755c-1.422 0-2.592.385-3.51 1.155-.918.74-1.377 1.896-1.377 3.466V44h-5.599ZM9.952 101.622c-1.57 0-2.976-.267-4.22-.8-1.245-.563-2.237-1.362-2.977-2.399-.711-1.066-1.067-2.355-1.067-3.865 0-1.511.356-2.77 1.067-3.777.74-1.037 1.747-1.807 3.02-2.31 1.304-.533 2.785-.8 4.444-.8h6.042v-1.244c0-1.037-.325-1.88-.977-2.533-.652-.68-1.688-1.021-3.11-1.021-1.392 0-2.429.325-3.11.977-.682.622-1.126 1.437-1.333 2.444L2.577 84.56a8.9 8.9 0 0 1 1.688-3.066c.8-.948 1.852-1.703 3.155-2.266 1.333-.592 2.947-.888 4.843-.888 2.902 0 5.198.725 6.886 2.177 1.689 1.451 2.533 3.554 2.533 6.309v8.22c0 .888.415 1.332 1.244 1.332h1.777V101h-3.732c-1.096 0-2-.267-2.71-.8-.711-.533-1.067-1.244-1.067-2.132v-.045h-.844c-.118.356-.385.83-.8 1.422-.414.563-1.066 1.066-1.954 1.511-.889.444-2.103.666-3.644.666Zm.978-4.532c1.57 0 2.843-.43 3.82-1.288 1.008-.889 1.511-2.059 1.511-3.51v-.445H10.62c-1.037 0-1.851.223-2.444.667-.592.444-.888 1.066-.888 1.866s.31 1.451.933 1.955c.622.503 1.525.755 2.71.755Zm27.785 4.532c-2.133 0-4.073-.444-5.82-1.333-1.719-.889-3.081-2.177-4.088-3.865-1.008-1.689-1.511-3.732-1.511-6.132v-.622c0-2.399.503-4.443 1.51-6.131 1.008-1.688 2.37-2.977 4.088-3.865 1.748-.889 3.688-1.333 5.82-1.333 2.104 0 3.91.37 5.421 1.11 1.51.74 2.725 1.763 3.643 3.066.948 1.274 1.57 2.725 1.866 4.354l-5.42 1.155a6.383 6.383 0 0 0-.8-2.399c-.415-.71-1.007-1.273-1.777-1.688-.74-.415-1.674-.622-2.8-.622-1.125 0-2.147.252-3.065.755-.888.474-1.6 1.2-2.132 2.177-.504.948-.756 2.118-.756 3.51v.445c0 1.392.252 2.576.756 3.554.533.948 1.244 1.673 2.132 2.177.918.474 1.94.71 3.066.71 1.688 0 2.962-.429 3.82-1.288.89-.888 1.452-2.043 1.69-3.465l5.42 1.288a12.199 12.199 0 0 1-2 4.31c-.918 1.274-2.132 2.28-3.643 3.021-1.51.741-3.317 1.111-5.42 1.111Zm26.033 0c-2.133 0-4.073-.444-5.82-1.333-1.719-.889-3.081-2.177-4.088-3.865-1.007-1.689-1.51-3.732-1.51-6.132v-.622c0-2.399.503-4.443 1.51-6.131 1.007-1.688 2.37-2.977 4.087-3.865 1.748-.889 3.688-1.333 5.82-1.333 2.104 0 3.91.37 5.421 1.11 1.51.74 2.725 1.763 3.643 3.066.948 1.274 1.57 2.725 1.866 4.354l-5.42 1.155a6.383 6.383 0 0 0-.8-2.399c-.414-.71-1.007-1.273-1.777-1.688-.74-.415-1.674-.622-2.799-.622-1.126 0-2.148.252-3.066.755-.888.474-1.6 1.2-2.132 2.177-.504.948-.756 2.118-.756 3.51v.445c0 1.392.252 2.576.756 3.554.533.948 1.244 1.673 2.132 2.177.919.474 1.94.71 3.066.71 1.688 0 2.962-.429 3.821-1.288.889-.888 1.451-2.043 1.688-3.465l5.42 1.288a12.199 12.199 0 0 1-1.999 4.31c-.918 1.274-2.132 2.28-3.643 3.021-1.51.741-3.317 1.111-5.42 1.111Zm26.166 0c-2.192 0-4.161-.444-5.909-1.333a9.995 9.995 0 0 1-4.132-3.865c-1.007-1.689-1.51-3.718-1.51-6.087v-.711c0-2.37.503-4.399 1.51-6.087a9.996 9.996 0 0 1 4.132-3.865c1.748-.889 3.717-1.333 5.91-1.333 2.191 0 4.16.444 5.908 1.333a9.992 9.992 0 0 1 4.132 3.865c1.007 1.688 1.511 3.717 1.511 6.087v.71c0 2.37-.504 4.4-1.511 6.088a9.992 9.992 0 0 1-4.132 3.865c-1.747.889-3.717 1.333-5.909 1.333Zm0-4.976c1.718 0 3.14-.548 4.266-1.644 1.125-1.126 1.688-2.725 1.688-4.798v-.445c0-2.073-.563-3.658-1.688-4.754-1.097-1.125-2.518-1.688-4.266-1.688-1.718 0-3.14.563-4.265 1.688-1.126 1.096-1.688 2.68-1.688 4.754v.445c0 2.073.562 3.672 1.688 4.798 1.126 1.096 2.547 1.644 4.265 1.644Zm25.117 4.709c-1.718 0-3.229-.385-4.532-1.155-1.274-.8-2.266-1.895-2.977-3.288-.711-1.392-1.066-2.991-1.066-4.798V78.963h5.598V91.67c0 1.658.4 2.903 1.199 3.732.83.83 2 1.244 3.51 1.244 1.718 0 3.051-.563 3.999-1.689.948-1.155 1.422-2.754 1.422-4.798V78.963h5.598V101h-5.509v-2.888h-.8c-.355.74-1.022 1.466-1.999 2.177-.978.711-2.459 1.066-4.443 1.066Zm18.981-.355V78.963h5.509v2.888h.8c.355-.77 1.022-1.496 1.999-2.177.978-.711 2.459-1.067 4.443-1.067 1.718 0 3.214.4 4.488 1.2 1.303.77 2.31 1.851 3.021 3.243.711 1.363 1.066 2.962 1.066 4.799V101h-5.598V88.293c0-1.659-.415-2.903-1.244-3.732-.8-.83-1.955-1.244-3.466-1.244-1.718 0-3.051.577-3.998 1.733-.948 1.125-1.422 2.71-1.422 4.754V101h-5.598Zm35.212 0c-1.451 0-2.636-.444-3.554-1.333-.889-.918-1.333-2.133-1.333-3.643v-12.44h-5.509v-4.621h5.509V72.12h5.598v6.842h6.043v4.62h-6.043v11.463c0 .889.415 1.333 1.244 1.333h4.265V101h-6.22Zm29.944.622c-1.57 0-2.977-.267-4.221-.8-1.244-.563-2.236-1.362-2.976-2.399-.711-1.066-1.067-2.355-1.067-3.865 0-1.511.356-2.77 1.067-3.777.74-1.037 1.747-1.807 3.021-2.31 1.303-.533 2.784-.8 4.443-.8h6.042v-1.244c0-1.037-.325-1.88-.977-2.533-.652-.68-1.688-1.021-3.11-1.021-1.392 0-2.429.325-3.11.977-.682.622-1.126 1.437-1.333 2.444l-5.154-1.733a8.894 8.894 0 0 1 1.688-3.066c.8-.948 1.851-1.703 3.155-2.266 1.333-.592 2.947-.888 4.843-.888 2.902 0 5.198.725 6.886 2.177 1.689 1.451 2.533 3.554 2.533 6.309v8.22c0 .888.414 1.332 1.244 1.332h1.777V101h-3.732c-1.096 0-1.999-.267-2.71-.8-.711-.533-1.067-1.244-1.067-2.132v-.045h-.844c-.118.356-.385.83-.8 1.422-.414.563-1.066 1.066-1.954 1.511-.889.444-2.103.666-3.644.666Zm.978-4.532c1.57 0 2.843-.43 3.821-1.288 1.007-.889 1.51-2.059 1.51-3.51v-.445h-5.642c-1.037 0-1.852.223-2.444.667-.592.444-.889 1.066-.889 1.866s.311 1.451.933 1.955c.623.503 1.526.755 2.711.755Zm17.866 3.91V78.963h5.509v2.888h.8c.356-.77 1.022-1.496 2-2.177.977-.711 2.458-1.067 4.443-1.067 1.718 0 3.213.4 4.487 1.2 1.303.77 2.31 1.851 3.021 3.243.711 1.363 1.067 2.962 1.067 4.799V101h-5.599V88.293c0-1.659-.414-2.903-1.244-3.732-.799-.83-1.955-1.244-3.465-1.244-1.718 0-3.051.577-3.999 1.733-.948 1.125-1.422 2.71-1.422 4.754V101h-5.598Zm36.264.622a9.966 9.966 0 0 1-4.931-1.288c-1.511-.89-2.725-2.178-3.644-3.866-.918-1.688-1.377-3.732-1.377-6.131v-.711c0-2.4.459-4.443 1.377-6.131.919-1.689 2.133-2.962 3.644-3.821a9.55 9.55 0 0 1 4.931-1.333c1.333 0 2.444.163 3.333.488.918.297 1.658.682 2.221 1.156.563.474.992.977 1.289 1.51h.799V69.9h5.599V101h-5.51v-2.666h-.8c-.503.83-1.288 1.585-2.354 2.266-1.037.681-2.562 1.022-4.577 1.022Zm1.689-4.887c1.718 0 3.154-.548 4.309-1.644 1.156-1.126 1.733-2.755 1.733-4.887v-.445c0-2.132-.577-3.747-1.733-4.843-1.125-1.125-2.562-1.688-4.309-1.688-1.718 0-3.155.563-4.31 1.688-1.155 1.096-1.733 2.71-1.733 4.843v.445c0 2.132.578 3.761 1.733 4.887 1.155 1.096 2.592 1.644 4.31 1.644Zm27.973-6.665v-.71c0-2.311.459-4.28 1.377-5.91.918-1.659 2.133-2.917 3.644-3.776a9.87 9.87 0 0 1 5.02-1.333c2.014 0 3.54.355 4.576 1.066 1.037.71 1.792 1.451 2.266 2.222h.8v-2.666h5.509v25.947c0 1.51-.444 2.71-1.333 3.599-.888.918-2.073 1.377-3.554 1.377h-14.751v-4.887h12.796c.83 0 1.244-.445 1.244-1.333v-5.732h-.8c-.296.474-.71.963-1.244 1.466-.533.474-1.244.874-2.132 1.2-.889.326-2.014.489-3.377.489-1.807 0-3.48-.43-5.02-1.289-1.511-.888-2.726-2.147-3.644-3.776-.918-1.659-1.377-3.643-1.377-5.954Zm11.641 6.132c1.718 0 3.154-.548 4.309-1.644 1.155-1.096 1.733-2.637 1.733-4.621v-.444c0-2.014-.578-3.555-1.733-4.621-1.125-1.096-2.562-1.644-4.309-1.644-1.718 0-3.155.548-4.31 1.644-1.155 1.066-1.733 2.606-1.733 4.62v.445c0 1.984.578 3.525 1.733 4.62 1.155 1.097 2.592 1.645 4.31 1.645Zm27.799 5.42c-2.192 0-4.132-.459-5.82-1.377a10.24 10.24 0 0 1-3.91-3.955c-.918-1.718-1.377-3.732-1.377-6.042v-.533c0-2.31.459-4.31 1.377-5.998.918-1.718 2.207-3.036 3.865-3.954 1.659-.948 3.584-1.422 5.776-1.422 2.163 0 4.044.488 5.643 1.466 1.599.948 2.844 2.28 3.732 3.999.889 1.688 1.333 3.658 1.333 5.909v1.91h-16.039c.059 1.51.622 2.74 1.688 3.688 1.066.948 2.37 1.422 3.91 1.422 1.57 0 2.725-.34 3.466-1.022.74-.681 1.303-1.437 1.688-2.266l4.576 2.4c-.415.77-1.022 1.613-1.821 2.532-.771.888-1.807 1.658-3.111 2.31-1.303.622-2.962.933-4.976.933Zm-5.376-14.173h10.308c-.119-1.274-.637-2.296-1.555-3.066-.889-.77-2.059-1.155-3.51-1.155-1.511 0-2.71.385-3.599 1.155-.888.77-1.436 1.792-1.644 3.066ZM347.684 101c-1.452 0-2.636-.444-3.555-1.333-.888-.918-1.332-2.133-1.332-3.643v-12.44h-5.51v-4.621h5.51V72.12h5.598v6.842h6.042v4.62h-6.042v11.463c0 .889.414 1.333 1.244 1.333h4.265V101h-6.22ZM5.509 166.886v-4.887h11.996c.83 0 1.245-.445 1.245-1.333v-5.554h-.8c-.237.504-.607 1.007-1.111 1.511-.504.503-1.185.918-2.044 1.244-.859.326-1.955.488-3.288.488-1.718 0-3.228-.385-4.531-1.155-1.274-.799-2.266-1.895-2.977-3.288-.711-1.392-1.067-2.991-1.067-4.798v-13.151h5.599v12.707c0 1.658.4 2.902 1.2 3.732.829.829 1.998 1.244 3.51 1.244 1.717 0 3.05-.563 3.998-1.688.948-1.156 1.422-2.755 1.422-4.799v-11.196h5.598v25.947c0 1.51-.445 2.71-1.333 3.599-.889.918-2.073 1.377-3.554 1.377H5.509Zm35.465-8.264c-2.192 0-4.162-.444-5.91-1.333a9.993 9.993 0 0 1-4.131-3.865c-1.007-1.689-1.511-3.718-1.511-6.087v-.711c0-2.37.504-4.399 1.51-6.087a9.993 9.993 0 0 1 4.133-3.865c1.747-.889 3.717-1.333 5.909-1.333 2.192 0 4.161.444 5.909 1.333a9.993 9.993 0 0 1 4.132 3.865c1.007 1.688 1.51 3.717 1.51 6.087v.711c0 2.369-.503 4.398-1.51 6.087a9.993 9.993 0 0 1-4.132 3.865c-1.748.889-3.717 1.333-5.91 1.333Zm0-4.976c1.718 0 3.14-.548 4.265-1.644 1.126-1.126 1.689-2.725 1.689-4.798v-.445c0-2.073-.563-3.658-1.689-4.754-1.096-1.125-2.518-1.688-4.265-1.688-1.718 0-3.14.563-4.265 1.688-1.126 1.096-1.689 2.681-1.689 4.754v.445c0 2.073.563 3.672 1.689 4.798 1.125 1.096 2.547 1.644 4.265 1.644Zm25.116 4.709c-1.718 0-3.228-.385-4.532-1.155-1.273-.799-2.266-1.895-2.976-3.288-.711-1.392-1.067-2.991-1.067-4.798v-13.151h5.599v12.707c0 1.658.4 2.902 1.2 3.732.829.829 1.999 1.244 3.51 1.244 1.717 0 3.05-.563 3.998-1.688.948-1.156 1.421-2.755 1.421-4.799v-11.196h5.599V158h-5.51v-2.888h-.8c-.355.741-1.021 1.466-1.999 2.177-.977.711-2.458 1.066-4.443 1.066ZM85.071 158v-22.037h5.51v2.488h.8c.325-.889.858-1.54 1.599-1.955.77-.415 1.659-.622 2.666-.622h2.665v4.976h-2.754c-1.422 0-2.592.385-3.51 1.155-.918.741-1.377 1.896-1.377 3.466V158H85.07Zm32.54 0v-17.417h-5.598v-4.62h5.598v-4.088c0-1.51.445-2.71 1.333-3.599.919-.918 2.103-1.377 3.555-1.377h5.331v4.621h-3.376c-.83 0-1.244.444-1.244 1.333v3.11h8.886v4.62h-8.886V158h-5.599Zm14.485 0v-22.037h5.598V158h-5.598Zm2.799-24.437c-1.007 0-1.866-.325-2.577-.977-.682-.652-1.022-1.511-1.022-2.577s.34-1.925 1.022-2.577c.711-.651 1.57-.977 2.577-.977 1.036 0 1.895.326 2.577.977.681.652 1.022 1.511 1.022 2.577s-.341 1.925-1.022 2.577c-.682.652-1.541.977-2.577.977ZM143.906 158v-22.037h5.51v2.888h.799c.356-.77 1.022-1.496 2-2.177.977-.711 2.458-1.067 4.443-1.067 1.718 0 3.214.4 4.487 1.2 1.303.77 2.311 1.851 3.021 3.243.711 1.363 1.067 2.962 1.067 4.799V158h-5.598v-12.707c0-1.659-.415-2.903-1.244-3.732-.8-.829-1.955-1.244-3.466-1.244-1.718 0-3.051.577-3.999 1.733-.948 1.125-1.421 2.71-1.421 4.754V158h-5.599Zm34.221.622c-1.57 0-2.977-.267-4.221-.8-1.244-.563-2.236-1.362-2.977-2.399-.711-1.066-1.066-2.355-1.066-3.865 0-1.511.355-2.77 1.066-3.777.741-1.037 1.748-1.807 3.021-2.31 1.304-.533 2.785-.8 4.443-.8h6.043v-1.244c0-1.037-.326-1.881-.978-2.533-.651-.681-1.688-1.021-3.11-1.021-1.392 0-2.429.325-3.11.977-.681.622-1.125 1.437-1.333 2.444l-5.154-1.733a8.909 8.909 0 0 1 1.689-3.066c.8-.948 1.851-1.703 3.154-2.266 1.333-.592 2.948-.888 4.843-.888 2.903 0 5.198.725 6.887 2.177 1.688 1.451 2.532 3.554 2.532 6.309v8.219c0 .889.415 1.333 1.244 1.333h1.778V158h-3.733c-1.095 0-1.999-.267-2.71-.8-.711-.533-1.066-1.244-1.066-2.132v-.045h-.844c-.119.356-.385.83-.8 1.422-.415.563-1.066 1.066-1.955 1.511-.889.444-2.103.666-3.643.666Zm.977-4.532c1.57 0 2.844-.429 3.821-1.288 1.007-.889 1.511-2.059 1.511-3.51v-.445h-5.643c-1.036 0-1.851.223-2.443.667-.593.444-.889 1.066-.889 1.866s.311 1.451.933 1.955c.622.503 1.525.755 2.71.755Zm17.867 3.91v-22.037h5.509v2.888h.8c.355-.77 1.022-1.496 1.999-2.177.978-.711 2.459-1.067 4.443-1.067 1.718 0 3.214.4 4.488 1.2 1.303.77 2.31 1.851 3.021 3.243.711 1.363 1.066 2.962 1.066 4.799V158h-5.598v-12.707c0-1.659-.415-2.903-1.244-3.732-.8-.829-1.955-1.244-3.466-1.244-1.718 0-3.051.577-3.998 1.733-.948 1.125-1.422 2.71-1.422 4.754V158h-5.598Zm37.73.622c-2.133 0-4.073-.444-5.82-1.333-1.718-.888-3.081-2.177-4.088-3.865-1.007-1.689-1.51-3.732-1.51-6.132v-.622c0-2.399.503-4.443 1.51-6.131 1.007-1.688 2.37-2.977 4.088-3.865 1.747-.889 3.687-1.333 5.82-1.333 2.103 0 3.91.37 5.421 1.11 1.51.741 2.725 1.763 3.643 3.066.948 1.274 1.57 2.725 1.866 4.354l-5.421 1.155a6.389 6.389 0 0 0-.799-2.399c-.415-.711-1.007-1.273-1.777-1.688-.741-.415-1.674-.622-2.8-.622-1.125 0-2.147.252-3.065.755-.889.474-1.6 1.2-2.133 2.177-.503.948-.755 2.118-.755 3.51v.445c0 1.392.252 2.576.755 3.554.533.948 1.244 1.673 2.133 2.177.918.474 1.94.711 3.065.711 1.689 0 2.962-.43 3.821-1.289.889-.888 1.452-2.043 1.689-3.465l5.42 1.288a12.192 12.192 0 0 1-1.999 4.31c-.918 1.274-2.133 2.281-3.643 3.021-1.511.741-3.318 1.111-5.421 1.111Zm25.722 0c-2.192 0-4.132-.459-5.82-1.377a10.235 10.235 0 0 1-3.91-3.955c-.918-1.718-1.377-3.732-1.377-6.042v-.533c0-2.311.459-4.31 1.377-5.998.918-1.718 2.207-3.036 3.866-3.955 1.658-.947 3.584-1.421 5.775-1.421 2.163 0 4.044.488 5.643 1.466 1.6.948 2.844 2.281 3.732 3.999.889 1.688 1.333 3.658 1.333 5.909v1.91h-16.039c.059 1.511.622 2.74 1.688 3.688 1.067.948 2.37 1.422 3.91 1.422 1.57 0 2.725-.341 3.466-1.022.74-.681 1.303-1.437 1.688-2.266l4.576 2.399c-.414.77-1.022 1.614-1.821 2.533-.771.888-1.807 1.658-3.111 2.31-1.303.622-2.962.933-4.976.933Zm-5.376-14.173h10.308c-.118-1.274-.637-2.296-1.555-3.066-.889-.77-2.059-1.155-3.51-1.155-1.511 0-2.71.385-3.599 1.155-.888.77-1.436 1.792-1.644 3.066Zm30.13 14.173c-2.873 0-5.228-.622-7.064-1.866-1.836-1.244-2.947-3.021-3.332-5.332l5.154-1.333c.207 1.037.548 1.852 1.022 2.444a4.368 4.368 0 0 0 1.821 1.289 7.83 7.83 0 0 0 2.399.355c1.304 0 2.266-.222 2.888-.666.622-.474.933-1.052.933-1.733s-.296-1.2-.888-1.555c-.593-.385-1.54-.696-2.844-.933l-1.244-.222c-1.54-.297-2.947-.697-4.221-1.2-1.273-.533-2.295-1.259-3.065-2.177-.77-.918-1.155-2.103-1.155-3.555 0-2.191.799-3.865 2.399-5.02 1.599-1.185 3.702-1.777 6.309-1.777 2.458 0 4.502.548 6.131 1.644 1.629 1.096 2.696 2.532 3.199 4.309l-5.198 1.6c-.237-1.126-.726-1.926-1.466-2.399-.711-.474-1.6-.711-2.666-.711-1.067 0-1.881.192-2.444.577-.563.356-.844.859-.844 1.511 0 .711.296 1.244.889 1.599.592.326 1.392.578 2.399.756l1.244.222c1.659.296 3.154.696 4.487 1.199 1.363.474 2.429 1.17 3.199 2.089.8.888 1.2 2.103 1.2 3.643 0 2.31-.844 4.102-2.533 5.376-1.658 1.244-3.895 1.866-6.709 1.866Zm35.914 0c-2.192 0-4.162-.444-5.909-1.333a9.99 9.99 0 0 1-4.132-3.865c-1.007-1.689-1.511-3.718-1.511-6.087v-.711c0-2.37.504-4.399 1.511-6.087a9.99 9.99 0 0 1 4.132-3.865c1.747-.889 3.717-1.333 5.909-1.333 2.192 0 4.162.444 5.909 1.333a9.99 9.99 0 0 1 4.132 3.865c1.007 1.688 1.511 3.717 1.511 6.087v.711c0 2.369-.504 4.398-1.511 6.087a9.99 9.99 0 0 1-4.132 3.865c-1.747.889-3.717 1.333-5.909 1.333Zm0-4.976c1.718 0 3.14-.548 4.265-1.644 1.126-1.126 1.689-2.725 1.689-4.798v-.445c0-2.073-.563-3.658-1.689-4.754-1.096-1.125-2.517-1.688-4.265-1.688-1.718 0-3.14.563-4.265 1.688-1.126 1.096-1.689 2.681-1.689 4.754v.445c0 2.073.563 3.672 1.689 4.798 1.125 1.096 2.547 1.644 4.265 1.644ZM337.81 158v-22.037h5.51v2.888h.799c.356-.77 1.022-1.496 2-2.177.977-.711 2.458-1.067 4.443-1.067 1.718 0 3.214.4 4.487 1.2 1.303.77 2.311 1.851 3.021 3.243.711 1.363 1.067 2.962 1.067 4.799V158h-5.598v-12.707c0-1.659-.415-2.903-1.244-3.732-.8-.829-1.955-1.244-3.466-1.244-1.718 0-3.051.577-3.999 1.733-.948 1.125-1.421 2.71-1.421 4.754V158h-5.599ZM11.552 215c-1.452 0-2.636-.444-3.555-1.333-.888-.918-1.332-2.133-1.332-3.643v-12.441h-5.51v-4.62h5.51v-6.843h5.598v6.843h6.042v4.62h-6.042v11.463c0 .889.414 1.333 1.244 1.333h4.265V215h-6.22Zm11.82 0v-22.037h5.51v2.488h.8c.326-.889.859-1.54 1.6-1.955.77-.415 1.658-.622 2.665-.622h2.666v4.976h-2.755c-1.422 0-2.592.385-3.51 1.155-.918.741-1.377 1.896-1.377 3.466V215h-5.598Zm23.938.622c-1.57 0-2.977-.267-4.22-.8-1.245-.563-2.237-1.362-2.978-2.399-.71-1.066-1.066-2.355-1.066-3.865 0-1.511.355-2.77 1.066-3.777.74-1.037 1.748-1.807 3.021-2.31 1.304-.533 2.785-.8 4.444-.8h6.042v-1.244c0-1.037-.326-1.881-.977-2.533-.652-.681-1.689-1.021-3.11-1.021-1.393 0-2.43.325-3.11.977-.682.622-1.126 1.437-1.333 2.444l-5.154-1.733a8.895 8.895 0 0 1 1.688-3.066c.8-.948 1.851-1.703 3.155-2.266 1.332-.592 2.947-.888 4.842-.888 2.903 0 5.199.725 6.887 2.177 1.688 1.451 2.532 3.554 2.532 6.309v8.219c0 .889.415 1.333 1.244 1.333h1.778V215h-3.732c-1.096 0-2-.267-2.71-.8-.712-.533-1.067-1.244-1.067-2.132v-.045h-.844c-.119.356-.385.83-.8 1.422-.415.563-1.066 1.066-1.955 1.511-.888.444-2.103.666-3.643.666Zm.977-4.532c1.57 0 2.844-.429 3.821-1.288 1.008-.889 1.511-2.059 1.511-3.51v-.445h-5.643c-1.036 0-1.85.223-2.443.667-.593.444-.889 1.066-.889 1.866s.311 1.451.933 1.955c.622.503 1.526.755 2.71.755Zm27.785 4.532c-2.133 0-4.073-.444-5.82-1.333-1.718-.888-3.08-2.177-4.088-3.865-1.007-1.689-1.51-3.732-1.51-6.132v-.622c0-2.399.503-4.443 1.51-6.131 1.007-1.688 2.37-2.977 4.088-3.865 1.747-.889 3.688-1.333 5.82-1.333 2.103 0 3.91.37 5.42 1.11 1.511.741 2.726 1.763 3.644 3.066.948 1.274 1.57 2.725 1.866 4.354l-5.42 1.155a6.386 6.386 0 0 0-.8-2.399c-.415-.711-1.007-1.273-1.778-1.688-.74-.415-1.673-.622-2.799-.622-1.125 0-2.147.252-3.065.755-.889.474-1.6 1.2-2.133 2.177-.503.948-.755 2.118-.755 3.51v.445c0 1.392.252 2.576.755 3.554.533.948 1.244 1.673 2.133 2.177.918.474 1.94.711 3.065.711 1.689 0 2.962-.43 3.821-1.289.889-.888 1.452-2.043 1.689-3.465l5.42 1.288a12.196 12.196 0 0 1-2 4.31c-.917 1.274-2.132 2.281-3.642 3.021-1.511.741-3.318 1.111-5.42 1.111ZM91.753 215v-31.101h5.598v17.194h.8l7.287-8.13h7.286l-10.174 10.663L113.08 215h-7.198l-7.73-8.753h-.8V215h-5.599Zm25.745-10.219v-20.882h5.687v20.882h-5.687Zm2.844 10.841c-1.185 0-2.192-.385-3.021-1.155-.8-.8-1.2-1.822-1.2-3.066 0-1.244.4-2.251 1.2-3.021.829-.8 1.836-1.2 3.021-1.2 1.214 0 2.221.4 3.021 1.2.8.77 1.2 1.777 1.2 3.021s-.4 2.266-1.2 3.066c-.8.77-1.807 1.155-3.021 1.155Z"/><path stroke="#CCFC56" stroke-width="1.666" d="M117 162.167h177"/></svg>