<svg width="64" height="65" viewBox="0 0 64 65" fill="none" xmlns="http://www.w3.org/2000/svg">
<g style="mix-blend-mode:soft-light">
<path d="M31.9732 16.7867V48.7067M23.9932 41.2103L26.331 42.9637C29.4473 45.301 34.4997 45.301 37.616 42.9637C40.7323 40.6264 40.7323 36.8369 37.616 34.4996C36.0577 33.3309 34.0153 32.7465 31.9729 32.7467C30.0446 32.7468 28.1167 32.1625 26.6455 30.9938C23.7033 28.6565 23.7033 24.867 26.6455 22.5297C29.5877 20.1924 34.358 20.1924 37.3002 22.5297L38.4038 23.4064M55.9132 32.7467C55.9132 45.9684 45.1949 56.6867 31.9732 56.6867C18.7515 56.6867 8.0332 45.9684 8.0332 32.7467C8.0332 19.525 18.7515 8.80666 31.9732 8.80666C45.1949 8.80666 55.9132 19.525 55.9132 32.7467Z" stroke="white" stroke-width="3.99" stroke-linecap="round" stroke-linejoin="round"/>
</g>
</svg>
