<svg width="34" height="34" viewBox="0 0 34 34" fill="none" xmlns="http://www.w3.org/2000/svg">
<path d="M13.6704 5.76652C13.7975 5.00418 14.457 4.44543 15.2299 4.44543H18.8753C19.6481 4.44543 20.3077 5.00418 20.4348 5.76652L20.7348 7.56681C20.8224 8.09247 21.1737 8.53033 21.64 8.78841C21.7442 8.84611 21.8472 8.90572 21.949 8.96719C22.4058 9.24301 22.9614 9.32877 23.4611 9.14157L25.1712 8.5009C25.8949 8.22977 26.7086 8.52161 27.095 9.19092L28.9177 12.3479C29.3041 13.0172 29.15 13.8678 28.5533 14.359L27.1419 15.521C26.7308 15.8594 26.5271 16.3819 26.5369 16.9143C26.538 16.9738 26.5386 17.0336 26.5386 17.0934C26.5386 17.1532 26.538 17.213 26.5369 17.2725C26.5271 17.8049 26.7308 18.3274 27.1419 18.6658L28.5533 19.8278C29.15 20.319 29.3041 21.1696 28.9177 21.8389L27.095 24.9959C26.7086 25.6652 25.8949 25.957 25.1712 25.6859L23.4611 25.0452C22.9614 24.858 22.4058 24.9438 21.949 25.2196C21.8472 25.2811 21.7442 25.3407 21.64 25.3984C21.1737 25.6565 20.8224 26.0943 20.7348 26.62L20.4348 28.4203C20.3077 29.1826 19.6481 29.7414 18.8753 29.7414H15.2299C14.457 29.7414 13.7975 29.1826 13.6704 28.4203L13.3704 26.62C13.2828 26.0943 12.9315 25.6565 12.4652 25.3984C12.361 25.3407 12.2579 25.2811 12.1561 25.2196C11.6994 24.9438 11.1438 24.8581 10.6441 25.0453L8.93401 25.6859C8.21028 25.957 7.3966 25.6652 7.01018 24.9959L5.18749 21.8389C4.80106 21.1696 4.95516 20.319 5.55184 19.8278L6.96328 18.6659C7.37435 18.3275 7.57812 17.8049 7.56826 17.2725C7.56716 17.213 7.56661 17.1533 7.56661 17.0934C7.56661 17.0336 7.56716 16.9739 7.56826 16.9143C7.57812 16.3819 7.37435 15.8594 6.96328 15.521L5.55183 14.359C4.95516 13.8678 4.80106 13.0172 5.18749 12.3479L7.01018 9.19094C7.3966 8.52163 8.21028 8.22979 8.93401 8.50093L10.6441 9.14158C11.1438 9.32878 11.6993 9.24302 12.1561 8.9672C12.2579 8.90573 12.361 8.84612 12.4652 8.78841C12.9315 8.53033 13.2828 8.09247 13.3704 7.56681L13.6704 5.76652Z" stroke="white" stroke-width="2.0574" stroke-linecap="round" stroke-linejoin="round"/>
<path d="M21.2683 17.0933C21.2683 19.4217 19.3807 21.3093 17.0523 21.3093C14.7238 21.3093 12.8363 19.4217 12.8363 17.0933C12.8363 14.7649 14.7238 12.8773 17.0523 12.8773C19.3807 12.8773 21.2683 14.7649 21.2683 17.0933Z" stroke="white" stroke-width="2.0574" stroke-linecap="round" stroke-linejoin="round"/>
</svg>
