<svg width="34" height="34" viewBox="0 0 34 34" fill="none" xmlns="http://www.w3.org/2000/svg">
<path d="M29.7002 9.0275C29.7002 12.8112 24.0376 15.8785 17.0523 15.8785C10.067 15.8785 4.4043 12.8112 4.4043 9.0275C4.4043 5.24381 10.067 2.17651 17.0523 2.17651C24.0376 2.17651 29.7002 5.24381 29.7002 9.0275Z" fill="black"/>
<path d="M17.0523 17.9865C20.8258 17.9865 24.3467 17.1625 26.9997 15.7254C27.9694 15.2002 28.8919 14.5495 29.6647 13.78C29.6883 13.9508 29.7002 14.1234 29.7002 14.2975C29.7002 18.0812 24.0376 21.1485 17.0523 21.1485C10.067 21.1485 4.4043 18.0812 4.4043 14.2975C4.4043 14.1234 4.41629 13.9508 4.43984 13.78C5.21268 14.5495 6.13513 15.2002 7.1048 15.7254C9.75789 17.1625 13.2787 17.9865 17.0523 17.9865Z" fill="black"/>
<path d="M17.0523 23.2565C20.8258 23.2565 24.3467 22.4325 26.9997 20.9954C27.9694 20.4702 28.8919 19.8195 29.6647 19.0499C29.6883 19.2208 29.7002 19.3934 29.7002 19.5675C29.7002 23.3512 24.0376 26.4185 17.0523 26.4185C10.067 26.4185 4.4043 23.3512 4.4043 19.5675C4.4043 19.3934 4.41629 19.2208 4.43984 19.0499C5.21268 19.8195 6.13513 20.4702 7.1048 20.9954C9.75789 22.4325 13.2787 23.2565 17.0523 23.2565Z" fill="black"/>
<path d="M17.0523 28.5265C20.8258 28.5265 24.3467 27.7025 26.9997 26.2654C27.9694 25.7402 28.8919 25.0895 29.6647 24.3199C29.6883 24.4908 29.7002 24.6634 29.7002 24.8375C29.7002 28.6212 24.0376 31.6884 17.0523 31.6884C10.067 31.6884 4.4043 28.6212 4.4043 24.8375C4.4043 24.6634 4.41629 24.4908 4.43984 24.3199C5.21268 25.0895 6.13513 25.7402 7.1048 26.2654C9.75789 27.7025 13.2787 28.5265 17.0523 28.5265Z" fill="black"/>
</svg>
