<svg width="34" height="35" viewBox="0 0 34 35" fill="none" xmlns="http://www.w3.org/2000/svg">
<path d="M28.645 9.81762C28.645 13.0192 23.4542 15.6146 17.051 15.6146C10.6478 15.6146 5.45703 13.0192 5.45703 9.81762M28.645 9.81762C28.645 6.61603 23.4542 4.02063 17.051 4.02063C10.6478 4.02063 5.45703 6.61603 5.45703 9.81762M28.645 9.81762V25.6276C28.645 28.8292 23.4542 31.4246 17.051 31.4246C10.6478 31.4246 5.45703 28.8292 5.45703 25.6276V9.81762M28.645 9.81762V15.0876M5.45703 9.81762V15.0876M28.645 15.0876V20.3576C28.645 23.5592 23.4542 26.1546 17.051 26.1546C10.6478 26.1546 5.45703 23.5592 5.45703 20.3576V15.0876M28.645 15.0876C28.645 18.2892 23.4542 20.8846 17.051 20.8846C10.6478 20.8846 5.45703 18.2892 5.45703 15.0876" stroke="white" stroke-width="2.06" stroke-linecap="round" stroke-linejoin="round"/>
</svg>
