<svg width="52" height="52" viewBox="0 0 52 52" fill="none" xmlns="http://www.w3.org/2000/svg">
<rect x="0.755859" y="0.63623" width="50.5919" height="50.5919" rx="25.2959" fill="#A8F25D"/>
<path fill-rule="evenodd" clip-rule="evenodd" d="M16.448 12.7519V13.9566C14.9937 14.1647 13.5545 14.4199 12.132 14.7206C11.579 14.8375 11.2167 15.3699 11.3108 15.9272C12.0281 20.1766 15.5683 23.4654 19.9375 23.7966C21.0416 24.6982 22.3538 25.3568 23.7915 25.6888C23.6526 27.3306 23.0958 28.8517 22.2277 30.148H21.1907C19.7354 30.148 18.5557 31.3277 18.5557 32.783V36.472H17.5015C15.7552 36.472 14.3395 37.8876 14.3395 39.634C14.3395 40.2161 14.8114 40.688 15.3935 40.688H36.4735C37.0556 40.688 37.5275 40.2161 37.5275 39.634C37.5275 37.8876 36.1118 36.472 34.3655 36.472H33.3116V32.783C33.3116 31.3277 32.1319 30.148 30.6766 30.148H29.6389C28.7711 28.8519 28.2146 27.3307 28.0758 25.689C29.5138 25.357 30.8262 24.6984 31.9305 23.7966C36.2997 23.4654 39.8399 20.1766 40.5573 15.9272C40.6514 15.3699 40.289 14.8375 39.736 14.7206C38.3135 14.4199 36.8743 14.1647 35.42 13.9566V12.7519C35.42 12.2202 35.024 11.7718 34.4964 11.706C31.691 11.3562 28.8333 11.176 25.934 11.176C23.0347 11.176 20.177 11.3562 17.3716 11.706C16.844 11.7718 16.448 12.2202 16.448 12.7519ZM16.448 16.446C16.448 18.127 16.8858 19.7063 17.6527 21.0755C15.7455 20.2217 14.2664 18.5818 13.6288 16.5681C14.5615 16.3873 15.5014 16.2267 16.448 16.0868V16.446ZM35.42 16.446V16.0868C36.3666 16.2267 37.3066 16.3873 38.2392 16.5681C37.6016 18.5818 36.1225 20.2217 34.2153 21.0755C34.9823 19.7063 35.42 18.127 35.42 16.446Z" fill="black"/>
</svg>
