<svg width="34" height="35" viewBox="0 0 34 35" fill="none" xmlns="http://www.w3.org/2000/svg">
<path d="M23.3757 26.789H10.7278M23.3757 26.789C25.7042 26.789 27.5917 28.6766 27.5917 31.005H6.51176C6.51176 28.6766 8.39932 26.789 10.7278 26.789M23.3757 26.789V22.046C23.3757 21.1729 22.6679 20.465 21.7947 20.465H20.5698M10.7278 26.789V22.046C10.7278 21.1729 11.4356 20.465 12.3087 20.465H13.5337M20.5698 20.465H13.5337M20.5698 20.465C19.8006 19.1354 19.3136 17.622 19.1905 16.0069M13.5337 20.465C14.3029 19.1354 14.7899 17.622 14.9129 16.0069M7.56576 6.39256C6.1853 6.5933 4.81884 6.8372 3.46777 7.12284C4.10061 10.8715 7.2073 13.7796 11.0505 14.1098M7.56576 6.39256V6.76307C7.56576 9.7252 8.92345 12.3702 11.0505 14.1098M7.56576 6.39256V4.26283C10.6651 3.82664 13.8321 3.60107 17.0517 3.60107C20.2714 3.60107 23.4384 3.82664 26.5377 4.26283V6.39256M11.0505 14.1098C12.1573 15.015 13.4724 15.675 14.9129 16.0069M26.5377 6.39256V6.76307C26.5377 9.7252 25.18 12.3702 23.053 14.1098M26.5377 6.39256C27.9182 6.59331 29.2847 6.83721 30.6357 7.12285C30.0029 10.8715 26.8962 13.7796 23.053 14.1098M23.053 14.1098C21.9462 15.015 20.6311 15.675 19.1905 16.0069M19.1905 16.0069C18.5032 16.1653 17.7872 16.249 17.0517 16.249C16.3163 16.249 15.6003 16.1653 14.9129 16.0069" stroke="white" stroke-width="2.0574" stroke-linecap="round" stroke-linejoin="round"/>
</svg>
