<svg width="34" height="34" viewBox="0 0 34 34" fill="none" xmlns="http://www.w3.org/2000/svg">
<path d="M3.38203 7.97375C4.49689 6.9896 5.96143 6.39242 7.56545 6.39242H26.5374C28.1414 6.39242 29.606 6.9896 30.7208 7.97375C30.4616 5.89389 28.6875 4.28442 26.5374 4.28442H7.56545C5.41538 4.28442 3.64122 5.89389 3.38203 7.97375Z" fill="black"/>
<path d="M3.38203 12.1897C4.49689 11.2056 5.96143 10.6084 7.56545 10.6084H26.5374C28.1414 10.6084 29.606 11.2056 30.7208 12.1897C30.4616 10.1099 28.6875 8.50042 26.5374 8.50042H7.56545C5.41538 8.50042 3.64122 10.1099 3.38203 12.1897Z" fill="black"/>
<path d="M7.5656 12.7164C5.23717 12.7164 3.34961 14.604 3.34961 16.9324V25.3644C3.34961 27.6928 5.23717 29.5804 7.5656 29.5804H26.5376C28.866 29.5804 30.7536 27.6928 30.7536 25.3644V16.9324C30.7536 14.604 28.866 12.7164 26.5376 12.7164H21.2676C20.6855 12.7164 20.2136 13.1883 20.2136 13.7704C20.2136 15.5167 18.7979 16.9324 17.0516 16.9324C15.3053 16.9324 13.8896 15.5167 13.8896 13.7704C13.8896 13.1883 13.4177 12.7164 12.8356 12.7164H7.5656Z" fill="black"/>
</svg>
