<svg width="52" height="52" viewBox="0 0 52 52" fill="none" xmlns="http://www.w3.org/2000/svg">
<rect x="0.755859" y="0.636475" width="50.5919" height="50.5919" rx="25.2959" fill="#A8F25D"/>
<path d="M12.382 16.9737C13.4969 15.9896 14.9614 15.3924 16.5654 15.3924H35.5374C37.1414 15.3924 38.606 15.9896 39.7208 16.9737C39.4616 14.8939 37.6875 13.2844 35.5374 13.2844H16.5654C14.4154 13.2844 12.6412 14.8939 12.382 16.9737Z" fill="black"/>
<path d="M12.382 21.1897C13.4969 20.2056 14.9614 19.6084 16.5654 19.6084H35.5374C37.1414 19.6084 38.606 20.2056 39.7208 21.1897C39.4616 19.1099 37.6875 17.5004 35.5374 17.5004H16.5654C14.4154 17.5004 12.6412 19.1099 12.382 21.1897Z" fill="black"/>
<path d="M16.5656 21.7164C14.2372 21.7164 12.3496 23.604 12.3496 25.9324V34.3644C12.3496 36.6928 14.2372 38.5804 16.5656 38.5804H35.5376C37.866 38.5804 39.7536 36.6928 39.7536 34.3644V25.9324C39.7536 23.604 37.866 21.7164 35.5376 21.7164H30.2676C29.6855 21.7164 29.2136 22.1883 29.2136 22.7704C29.2136 24.5167 27.7979 25.9324 26.0516 25.9324C24.3053 25.9324 22.8896 24.5167 22.8896 22.7704C22.8896 22.1883 22.4177 21.7164 21.8356 21.7164H16.5656Z" fill="black"/>
</svg>
